<svg xmlns="http://www.w3.org/2000/svg" viewBox="0 0 64 64"><path fill="#000" d="M26.57 31.3c-2.93-3.12-6.88-4.83-11.12-4.83-1.57 0-3.13.24-4.63.72-.2-5.48 5.76-17.13 8.41-22.02.3-.55.2-1.22-.24-1.66-.46-.44-1.12-.52-1.66-.19C-1.85 15.05.04 41.87.06 42.1c0 4.31 1.69 8.32 4.75 11.29 2.9 2.81 6.65 4.33 10.63 4.33.25 0 .49-.01.74-.02 7.84-.36 14.27-6.89 14.63-14.86.2-4.32-1.31-8.42-4.24-11.54zM16.13 56.7c-4 .19-7.76-1.24-10.64-4.03-2.87-2.79-4.45-6.54-4.45-10.61-.02-.26-1.86-26.47 16.8-37.88.07-.05.14-.06.2-.06.13 0 .23.08.26.11.05.05.2.22.07.46-3.48 6.42-9.21 17.97-8.48 23.25.02.15.11.28.24.36.12.07.28.09.42.04 1.58-.58 3.23-.87 4.9-.87 3.97 0 7.66 1.6 10.41 4.52 2.74 2.92 4.15 6.76 3.97 10.8-.34 7.46-6.35 13.57-13.7 13.91z"/><path fill="#009444" d="M29.83 42.79c-.34 7.46-6.35 13.57-13.7 13.91-4 .19-7.76-1.24-10.64-4.03-2.87-2.79-4.45-6.54-4.45-10.61-.02-.26-1.86-26.47 16.8-37.88.07-.05.14-.06.2-.06.13 0 .23.08.26.11.05.05.2.22.07.46-3.48 6.42-9.21 17.97-8.48 23.25.02.15.11.28.24.36.12.07.28.09.42.04 1.58-.58 3.23-.87 4.9-.87 3.97 0 7.66 1.6 10.41 4.52 2.74 2.92 4.15 6.76 3.97 10.8z"/><path fill="#000" d="M59.73 34.46c-2.93-3.11-6.87-4.83-11.11-4.83-1.58 0-3.13.25-4.64.73-.2-5.49 5.77-17.14 8.42-22.02.3-.56.2-1.22-.25-1.66-.45-.45-1.12-.52-1.66-.19C31.31 18.22 33.2 45.04 33.22 45.27c0 4.3 1.69 8.31 4.76 11.29 2.89 2.8 6.64 4.32 10.63 4.32.24 0 .49 0 .73-.01 7.85-.37 14.28-6.9 14.64-14.87.2-4.32-1.31-8.42-4.25-11.54zM49.3 59.87c-3.99.19-7.77-1.25-10.64-4.04-2.87-2.78-4.45-6.53-4.46-10.6-.02-.27-1.85-26.48 16.8-37.89.07-.04.14-.06.2-.06.14 0 .23.08.27.12.05.04.19.22.07.45-3.48 6.42-9.21 17.97-8.48 23.25.02.15.1.28.23.36.13.08.28.09.42.04 1.58-.57 3.23-.87 4.91-.87 3.96 0 7.66 1.61 10.4 4.53 2.75 2.91 4.16 6.75 3.98 10.8-.34 7.46-6.36 13.57-13.7 13.91z"/><path fill="#009444" d="M63 45.96c-.34 7.46-6.36 13.57-13.7 13.91-3.99.19-7.77-1.25-10.64-4.04-2.87-2.78-4.45-6.53-4.46-10.6-.02-.27-1.85-26.48 16.8-37.89.07-.04.14-.06.2-.06.14 0 .23.08.27.12.05.04.19.22.07.45-3.48 6.42-9.21 17.97-8.48 23.25.02.15.1.28.23.36.13.08.28.09.42.04 1.58-.57 3.23-.87 4.91-.87 3.96 0 7.66 1.61 10.4 4.53 2.75 2.91 4.16 6.75 3.98 10.8z"/></svg>