<svg width="28" height="23" viewBox="0 0 28 23" fill="none" xmlns="http://www.w3.org/2000/svg">
<path d="M9.26102 23C9.00294 22.9992 8.75012 22.9272 8.53057 22.7918C8.31103 22.6565 8.13334 22.4632 8.0172 22.2333C6.34431 19.2617 3.83138 16.8471 0.791853 15.2908C0.458932 15.1311 0.202945 14.8464 0.0798577 14.4989C-0.0432295 14.1515 -0.0234024 13.7696 0.135004 13.4367C0.29511 13.1046 0.580518 12.8492 0.928828 12.7264C1.27714 12.6037 1.66002 12.6234 1.99375 12.7814C4.68091 14.15 7.03686 16.0862 8.89766 18.4553C11.0499 13.4645 16.6261 2.74412 26.2133 0.0535618C26.571 -0.0481143 26.9545 -0.00389067 27.2795 0.176502C27.6045 0.356896 27.8444 0.658682 27.9463 1.01547C28.0482 1.37226 28.0039 1.75483 27.8231 2.07902C27.6422 2.4032 27.3397 2.64245 26.982 2.74412C15.9833 5.86685 10.5747 21.8847 10.5188 22.0381C10.4332 22.3024 10.2704 22.5352 10.0513 22.7066C9.83216 22.8779 9.56671 22.9801 9.28897 23H9.26102Z" fill="#4DB850"/>
</svg>
