<svg xmlns="http://www.w3.org/2000/svg" data-name="Layer 1" viewBox="0 0 64 64"><path d="M13 26.346v11.586l-2.991 21.933a1 1 0 0 0 .827 1.121l6 1a1.002 1.002 0 0 0 1.147-.807L21 44.59l3.017 16.589a.999.999 0 0 0 1.147.807l6-1a1 1 0 0 0 .827-1.121L29 37.932V26.346l10.786-13.728a1 1 0 0 0-.079-1.325l-3-3a1.03 1.03 0 0 0-1.414 0L26.986 16.6a6 6 0 0 0-11.972 0L6.707 8.293a1.03 1.03 0 0 0-1.414 0l-3 3a1 1 0 0 0-.08 1.325zM6 10.414l10.422 10.422a1 1 0 0 0 1.484-1.336A3.943 3.943 0 0 1 17 17a4 4 0 0 1 8 0 3.943 3.943 0 0 1-.906 2.5 1 1 0 0 0 1.484 1.336L36 10.414l1.666 1.666-10.452 13.302A.998.998 0 0 0 27 26v12a1.043 1.043 0 0 0 .009.135l2.869 21.038-4.07.679-3.825-21.03a1 1 0 0 0-1.966 0l-3.825 21.03-4.07-.679 2.87-21.038A1.043 1.043 0 0 0 15 38V26a.998.998 0 0 0-.214-.618L4.334 12.08zM55.116 6.174l.707-3.536.981.196-.708 3.536zM57.63 7.902l3.537-.705.195.981-3.537.705zM49.46 18.903l.707-3.537.98.196-.707 3.537zM44.902 13.559l3.536-.705.195.981-3.536.705zM52.778 11.929a2.866 2.866 0 0 0-.86 2.293 3.445 3.445 0 0 0 1.037 2.126l1.768 1.769a3.25 3.25 0 0 0 4.595 0l1.062-1.062a3.254 3.254 0 0 0 0-4.595l-1.77-1.77a3.445 3.445 0 0 0-2.126-1.036 2.852 2.852 0 0 0-2.293.86l1.414 1.414a.846.846 0 0 1 .713-.281 1.457 1.457 0 0 1 .878.457l1.769 1.769a1.251 1.251 0 0 1 0 1.767l-1.062 1.061a1.28 1.28 0 0 1-1.767 0l-1.768-1.768a1.458 1.458 0 0 1-.458-.878.862.862 0 0 1 .281-.712zM46.944 10.338a3.362 3.362 0 0 0 2.365 1.05 2.88 2.88 0 0 0 2.055-.873L49.95 9.1c-.67.669-1.444-.03-1.592-.177l-1.767-1.768a1.25 1.25 0 0 1 0-1.768l1.06-1.06a1.252 1.252 0 0 1 1.769 0l1.767 1.767c.148.148.85.918.177 1.592L52.778 9.1a3.029 3.029 0 0 0-.176-4.42l-1.768-1.767a3.327 3.327 0 0 0-4.597 0l-1.06 1.06a3.25 3.25 0 0 0 0 4.596zM58.722 28.584l3-2 .556.832-3 2zM58.722 32.416l.555-.832 3 2-.554.832zM45.722 33.584l3-2 .556.832-3 2zM45.722 27.416l.555-.832 3 2-.554.832zM53 33v-2a3.03 3.03 0 0 0-3 3.25v2.5a3.244 3.244 0 0 0 3 3.225v2.05a3.244 3.244 0 0 0-3 3.225v2.5A3.03 3.03 0 0 0 53 51v2a3.03 3.03 0 0 0-3 3.25v2.5A3.254 3.254 0 0 0 53.25 62h1.5A3.254 3.254 0 0 0 58 58.75v-2.5A3.03 3.03 0 0 0 55 53v-2a3.03 3.03 0 0 0 3-3.25v-2.5a3.244 3.244 0 0 0-3-3.225v-2.05a3.244 3.244 0 0 0 3-3.225v-2.5A3.03 3.03 0 0 0 55 31v2c.738 0 1 .673 1 1.25v2.5a1.233 1.233 0 0 1-1 1.2V37h-2v.95a1.234 1.234 0 0 1-1-1.2v-2.5c0-.577.262-1.25 1-1.25zm3 23.25v2.5A1.251 1.251 0 0 1 54.75 60h-1.5A1.251 1.251 0 0 1 52 58.75v-2.5c0-.577.262-1.25 1-1.25v1h2v-1c.738 0 1 .673 1 1.25zm0-11v2.5c0 .577-.262 1.25-1 1.25v-1h-2v1c-.738 0-1-.673-1-1.25v-2.5a1.234 1.234 0 0 1 1-1.2V45h2v-.95a1.234 1.234 0 0 1 1 1.2zM54.75 20h-1.5A3.254 3.254 0 0 0 50 23.25v2.5A3.03 3.03 0 0 0 53 29v-2c-.738 0-1-.673-1-1.25v-2.5A1.251 1.251 0 0 1 53.25 22h1.5A1.251 1.251 0 0 1 56 23.25v2.5c0 .577-.262 1.25-1 1.25v2a3.03 3.03 0 0 0 3-3.25v-2.5A3.254 3.254 0 0 0 54.75 20z"/></svg>