<svg xmlns="http://www.w3.org/2000/svg" viewBox="0 0 68 68"><path fill="#010101" d="m61.4 41.1-7.2-12c1-.3 1.7-.8 2-1.3 1.5-2 .8-5 .7-5.3C53.4 8.2 44.8 1 31.7 1h-1.3c-3.6 0-14.6 0-22 14.4-7.2 13.8 7.1 35.5 9 38.3V66c0 .6.4 1 1 1h23.9c.6 0 1-.4 1-1v-9.7c2.2 2.1 4.4 2.5 5.7 2.5 3.4 0 6.2-2.5 6.1-5.6l-.9-10.5 6.4-.1c.4 0 .7-.2.9-.5.1-.3.1-.7-.1-1zm-8.3-.4c-.3 0-.5.1-.7.3-.2.2-.3.5-.3.8l1 11.6c.1 1.7-1.7 3.5-4.1 3.5-2.1 0-4.2-1.4-5.8-3.8-.2-.4-.7-.5-1.1-.4-.4.1-.7.5-.7 1V65h-22V53.4c0-.2-.1-.4-.2-.6-.2-.2-16-23.1-9.1-36.5C17.1 3 27.1 3 30.4 3h1.3c4.5 0 18.2 0 23.4 19.9.2.7.4 2.6-.4 3.6-.4.5-1 .7-1.9.7h-.2c-.4 0-.7.2-.9.5-.2.3-.2.7 0 1l7.1 11.8-5.7.2z"/><path fill="#010101" d="M47.1 33.4h-1.6V19.3c1.3-.4 2.3-1.7 2.3-3.1 0-1.5-1-2.7-2.3-3.1V12c0-.6-.4-1-1-1s-1 .4-1 1v1.1c-1.3.4-2.3 1.7-2.3 3.1 0 1.5 1 2.7 2.3 3.1v14.1H37v-9.1c1.3-.4 2.3-1.7 2.3-3.1 0-1.5-1-2.7-2.3-3.1V12c0-.6-.4-1-1-1s-1 .4-1 1v6.1c-1.3.4-2.3 1.7-2.3 3.1 0 1.5 1 2.7 2.3 3.1v9.1h-6.5v-3.7c1.3-.4 2.3-1.7 2.3-3.1 0-1.5-1-2.7-2.3-3.1V12c0-.6-.4-1-1-1s-1 .4-1 1v11.5c-1.3.4-2.3 1.7-2.3 3.1 0 1.5 1 2.7 2.3 3.1v3.7H20V19.5c1.3-.4 2.3-1.7 2.3-3.1 0-1.5-1-2.7-2.3-3.1V12c0-.6-.4-1-1-1s-1 .4-1 1v1.3c-1.3.4-2.3 1.7-2.3 3.1 0 1.5 1 2.7 2.3 3.1v13.9h-1.3c-.6 0-1 .4-1 1s.4 1 1 1h30.5c.6 0 1-.4 1-1-.1-.6-.6-1-1.1-1zm-2.7-18.5c.7 0 1.3.6 1.3 1.3 0 .7-.6 1.3-1.3 1.3-.7 0-1.3-.6-1.3-1.3.1-.7.6-1.3 1.3-1.3zm-8.5 5c.7 0 1.3.6 1.3 1.3 0 .7-.6 1.3-1.3 1.3-.7 0-1.3-.6-1.3-1.3 0-.7.6-1.3 1.3-1.3zm-8.5 5.4c.7 0 1.3.6 1.3 1.3 0 .7-.6 1.3-1.3 1.3-.7 0-1.3-.6-1.3-1.3 0-.7.6-1.3 1.3-1.3zm-8.5-10.2c.7 0 1.3.6 1.3 1.3 0 .7-.6 1.3-1.3 1.3-.7 0-1.3-.6-1.3-1.3 0-.7.6-1.3 1.3-1.3zM47.1 38.6H16.6c-.6 0-1 .4-1 1s.4 1 1 1h30.5c.6 0 1-.4 1-1s-.5-1-1-1z"/></svg>