<svg xmlns="http://www.w3.org/2000/svg" viewBox="0 0 2500 1800"><g data-name="Online Business Consultation"><g data-name="objects"><rect width="2204.05" height="92.88" x="261.33" y="1217.52" fill="#b0b9c3"/><path fill="#0a1a33" d="M2465.38,1313.22h-2204a2.82,2.82,0,0,1-2.82-2.82v-92.88a2.82,2.82,0,0,1,2.82-2.82H2465.38a2.82,2.82,0,0,1,2.82,2.82v92.88A2.82,2.82,0,0,1,2465.38,1313.22Zm-2201.23-5.65H2462.56v-87.23H264.15Z"/><rect width="1728.95" height="1100.24" x="498.88" y="117.28" fill="#b0b9c3"/><path fill="#0a1a33" d="M2227.83,1220.34H498.88a2.82,2.82,0,0,1-2.82-2.82V117.28a2.82,2.82,0,0,1,2.82-2.82h1729a2.82,2.82,0,0,1,2.82,2.82V1217.52A2.82,2.82,0,0,1,2227.83,1220.34ZM501.7,1214.7H2225V120.1H501.7Z"/><rect width="942.22" height="1570.93" x="892.25" y="-118.06" fill="#e6e9ec" transform="rotate(90 1363.36 667.4)"/><path fill="#0a1a33" d="M2148.82,1141.33H577.89a2.82,2.82,0,0,1-2.82-2.82V196.29a2.82,2.82,0,0,1,2.82-2.82H2148.82a2.82,2.82,0,0,1,2.82,2.82v942.22A2.82,2.82,0,0,1,2148.82,1141.33Zm-1568.11-5.64H2146V199.11H580.71Z"/><rect width="1075.23" height="718.01" x="658.74" y="263.31" fill="#b0b9c3"/><path fill="#0a1a33" d="M1734,984.14H658.74a2.82,2.82,0,0,1-2.82-2.82v-718a2.83,2.83,0,0,1,2.82-2.83H1734a2.83,2.83,0,0,1,2.82,2.83v718A2.82,2.82,0,0,1,1734,984.14ZM661.56,978.5H1731.15V266.13H661.56Z"/><rect width="627.61" height="1007.51" x="882.55" y="129.9" fill="#fff" transform="rotate(90 1196.355 633.655)"/><path fill="#0a1a33" d="M1700.11,950.28H692.6a2.82,2.82,0,0,1-2.82-2.82V319.85A2.83,2.83,0,0,1,692.6,317H1700.11a2.83,2.83,0,0,1,2.82,2.83V947.46A2.82,2.82,0,0,1,1700.11,950.28ZM695.42,944.64H1697.29v-622H695.42Z"/><circle cx="707" cy="291.49" r="13.49" fill="#ffcbcd"/><path fill="#0a1a33" d="M707,307.81a16.32,16.32,0,1,1,16.32-16.32A16.33,16.33,0,0,1,707,307.81Zm0-27a10.67,10.67,0,1,0,10.67,10.67A10.69,10.69,0,0,0,707,280.82Z"/><circle cx="746.6" cy="291.49" r="13.49" fill="#c6dc9e"/><path fill="#0a1a33" d="M746.6,307.81a16.32,16.32,0,1,1,16.31-16.32A16.33,16.33,0,0,1,746.6,307.81Zm0-27a10.67,10.67,0,1,0,10.67,10.67A10.69,10.69,0,0,0,746.6,280.82Z"/><circle cx="786.2" cy="291.49" r="13.49" fill="#fff3c5"/><path fill="#0a1a33" d="M786.2,307.81a16.32,16.32,0,1,1,16.31-16.32A16.34,16.34,0,0,1,786.2,307.81Zm0-27a10.67,10.67,0,1,0,10.67,10.67A10.68,10.68,0,0,0,786.2,280.82Z"/><polygon fill="#bcedec" points="1013.82 384.77 832.34 384.77 741.6 541.94 832.34 699.11 1013.82 699.11 1104.56 541.94 1013.82 384.77"/><path fill="#0a1a33" d="M1013.82,701.93H832.34a2.81,2.81,0,0,1-2.44-1.41L739.16,543.35a2.79,2.79,0,0,1,0-2.82L829.9,383.36a2.81,2.81,0,0,1,2.44-1.41h181.48a2.84,2.84,0,0,1,2.45,1.41L1107,540.53a2.84,2.84,0,0,1,0,2.82l-90.74,157.17A2.84,2.84,0,0,1,1013.82,701.93ZM834,696.28h178.22l89.11-154.34-89.11-154.35H834L744.86,541.94Z"/><polygon fill="#fff4ca" points="1303.17 547.31 1121.69 547.31 1030.95 704.47 1121.69 861.64 1303.17 861.64 1393.91 704.47 1303.17 547.31"/><path fill="#0a1a33" d="M1303.17,864.46H1121.69a2.81,2.81,0,0,1-2.44-1.41l-90.74-157.17a2.79,2.79,0,0,1,0-2.82l90.74-157.16a2.8,2.8,0,0,1,2.44-1.42h181.48a2.8,2.8,0,0,1,2.44,1.42l90.75,157.16a2.84,2.84,0,0,1,0,2.82l-90.75,157.17A2.81,2.81,0,0,1,1303.17,864.46Zm-179.85-5.64h178.22l89.11-154.35-89.11-154.34H1123.32l-89.11,154.34Z"/></g><g data-name="Business Consultant"><ellipse cx="2199.51" cy="1594.91" fill="#9fc2e4" rx="223.66" ry="40.56"/><rect width="99.9" height="131.25" x="2159.27" y="470.34" fill="#0a1a33" rx="44.25"/><rect width="44.57" height="32.7" x="2226.15" y="536.92" fill="#ffa18d" rx="14.49"/><path fill="#0a1a33" d="M2254.37,572.44H2242.5a19.17,19.17,0,0,1,0-38.34h11.87a19.17,19.17,0,1,1,0,38.34Zm-11.87-32.7a13.53,13.53,0,0,0,0,27.06h11.87a13.53,13.53,0,1,0,0-27.06Z"/><path fill="#0a1a33" d="M2263.73,549a1.69,1.69,0,0,0-2.15-1.05c-7.9,2.75-12.11,11.45-12.29,11.82a1.7,1.7,0,0,0,.8,2.26,1.75,1.75,0,0,0,.73.16,1.69,1.69,0,0,0,1.53-1,25.94,25.94,0,0,1,3.14-4.71l3.31,4.92a1.69,1.69,0,0,0,1.41.75,1.65,1.65,0,0,0,.94-.29,1.69,1.69,0,0,0,.46-2.35L2257.9,554a14.61,14.61,0,0,1,4.79-2.89A1.68,1.68,0,0,0,2263.73,549Z"/><rect width="44.57" height="32.7" x="2145.96" y="536.92" fill="#ffa18d" rx="14.49" transform="rotate(180 2168.25 553.27)"/><path fill="#0a1a33" d="M2174.18,572.44h-11.87a19.17,19.17,0,0,1,0-38.34h11.87a19.17,19.17,0,1,1,0,38.34Zm-11.87-32.7a13.53,13.53,0,1,0,0,27.06h11.87a13.53,13.53,0,1,0,0-27.06Z"/><path fill="#0a1a33" d="M2167.39,559.74c-.18-.37-4.39-9.07-12.29-11.82a1.69,1.69,0,0,0-1.11,3.2,14.61,14.61,0,0,1,4.79,2.89l-3.71,5.51a1.7,1.7,0,0,0,.46,2.35,1.69,1.69,0,0,0,2.35-.46l3.31-4.92a25.68,25.68,0,0,1,3.14,4.71,1.69,1.69,0,0,0,1.53,1,1.72,1.72,0,0,0,.73-.16A1.7,1.7,0,0,0,2167.39,559.74Z"/><path fill="#fff" d="M2098.65,669.42,2008,793.53c-11.71,7.52-15.36,22.51-9.42,33.29,6.69,12.14,24.22,16.55,37.14,7.45L2107,778.72S2109,695.54,2098.65,669.42Z"/><path fill="#0a1a33" d="M2020.38,841.93a29.48,29.48,0,0,1-6.59-.75,27,27,0,0,1-17.72-13c-6.73-12.22-2.28-28.57,9.91-36.73l90.39-123.69a2.8,2.8,0,0,1,2.63-1.14,2.84,2.84,0,0,1,2.27,1.76c10.45,26.35,8.6,107,8.51,110.41a2.8,2.8,0,0,1-1.08,2.16l-71.28,55.54-.11.08A29.4,29.4,0,0,1,2020.38,841.93Zm77.3-166.41L2010.24,795.2a2.86,2.86,0,0,1-.76.71c-10.08,6.47-13.88,19.73-8.47,29.55a21.34,21.34,0,0,0,14,10.22A23.75,23.75,0,0,0,2034,832l70.17-54.68C2104.36,767.25,2105.22,703,2097.68,675.52Z"/><path fill="#fff" d="M2175,635.76s-69.62,27.77-76.37,33.66,4.82,280.94,4.82,280.94h197s12.2-276.7,9.86-280.94-71.4-33.41-71.4-33.41l-30.4,11.86Z"/><path fill="#0a1a33" d="M2300.46,953.18h-197a2.81,2.81,0,0,1-2.82-2.7c0-.69-2.92-69.58-4.94-138.3-4.14-140.33-.87-143.18,1.08-144.89,6.91-6,70-31.29,77.19-34.16a2.87,2.87,0,0,1,2,0l32.5,11.75,29.41-11.47a2.81,2.81,0,0,1,2.13,0c.17.07,17.49,7.39,34.87,15.14,36,16,37.14,18.12,37.9,19.51s1.85,3.34-3.7,143.53c-2.73,68.92-5.78,138.2-5.81,138.9A2.82,2.82,0,0,1,2300.46,953.18Zm-194.29-5.64h191.59c4.69-106.48,11-264,9.93-276.78-4.75-3.7-38.26-18.78-68.81-31.71l-29.33,11.45a2.84,2.84,0,0,1-2,0l-32.49-11.75c-27.27,10.9-68.25,28-74.24,32.52C2096.76,683.16,2101.74,841.42,2106.17,947.54Z"/><polygon fill="#0a1a33" points="2193 666.37 2202.58 683.89 2217.76 683.89 2226 666.38 2208.52 647.87 2193 666.37"/><path fill="#0a1a33" d="M2217.76,686.71h-15.18a2.8,2.8,0,0,1-2.47-1.47l-9.59-17.52a2.83,2.83,0,0,1,.31-3.17l15.53-18.5a2.83,2.83,0,0,1,4.21-.12l17.48,18.52a2.79,2.79,0,0,1,.5,3.13l-8.24,17.51A2.82,2.82,0,0,1,2217.76,686.71Zm-13.51-5.64H2216l6.66-14.15-14-14.81L2196.4,666.7Z"/><polygon fill="#0a1a33" points="2202.58 683.89 2176.46 892.61 2201.43 912.12 2228.29 893.8 2217.76 683.89 2202.58 683.89"/><path fill="#0a1a33" d="M2201.43,914.94a2.83,2.83,0,0,1-1.74-.6l-25-19.51a2.83,2.83,0,0,1-1.06-2.57l26.12-208.72a2.83,2.83,0,0,1,2.8-2.47h15.18a2.81,2.81,0,0,1,2.81,2.68l10.54,209.91a2.82,2.82,0,0,1-1.23,2.47L2203,914.45A2.79,2.79,0,0,1,2201.43,914.94Zm-22-23.57,22.08,17.26,23.85-16.27-10.32-205.65h-10Z"/><rect width="42.8" height="56.84" x="2186.9" y="591.03" fill="#ffa18d"/><path fill="#0a1a33" d="M2229.7,650.69h-42.8a2.82,2.82,0,0,1-2.82-2.82V591a2.82,2.82,0,0,1,2.82-2.82h42.8a2.82,2.82,0,0,1,2.82,2.82v56.84A2.82,2.82,0,0,1,2229.7,650.69Zm-40-5.64h37.15v-51.2h-37.15Z"/><rect width="85.05" height="131.25" x="2165.77" y="483.9" fill="#ffa18d" rx="37.67"/><path fill="#0a1a33" d="M2208.3,618A45.39,45.39,0,0,1,2163,572.63V526.42a45.35,45.35,0,1,1,90.69,0v46.21A45.39,45.39,0,0,1,2208.3,618Zm0-131.25a39.75,39.75,0,0,0-39.7,39.7v46.21a39.7,39.7,0,1,0,79.4,0V526.42A39.75,39.75,0,0,0,2208.3,486.72Z"/><polygon fill="#fff" points="2184.74 622.86 2208.52 647.87 2188.31 669.94 2175.02 635.76 2184.74 622.86"/><polygon fill="#fff" points="2208.52 647.87 2229.7 621.87 2238.92 636.01 2229.02 667.39 2208.52 647.87"/><path fill="#0a1a33" d="M2241.28,634.46l-9.22-14.14a2.83,2.83,0,0,0-4.55-.24l-19.15,23.52-21.57-22.68a2.82,2.82,0,0,0-4.3.25l-9.72,12.89a2.83,2.83,0,0,0-.38,2.72L2185.68,671a2.86,2.86,0,0,0,2.11,1.76,3.12,3.12,0,0,0,.52,0,2.82,2.82,0,0,0,2.09-.91l18.26-20,18.42,17.53a2.8,2.8,0,0,0,1.94.78,2.88,2.88,0,0,0,.71-.09,2.8,2.8,0,0,0,2-1.88l9.9-31.39A2.78,2.78,0,0,0,2241.28,634.46Zm-52,30.23-11.08-28.49,6.77-9,19.67,20.69Zm38.39-2.46-15.33-14.6,17.08-21,6.39,9.79Z"/><path fill="#ffa18d" d="M1964.51,665.18a24.18,24.18,0,0,0,1.93-25.06l-11.7-22.89a10.45,10.45,0,0,0-1.16-1.8,6.62,6.62,0,0,0-.5-1.32l-26-50.49a6.45,6.45,0,0,0-8.69-2.78h0a6.45,6.45,0,0,0-2.78,8.68l22.77,44.2-26.25,13.41a10.6,10.6,0,0,0-4.6,14.23l11.7,22.9a24.1,24.1,0,0,0,16.25,12.54l28.81,55.88,28.44-16.17Z"/><path fill="#0a1a33" d="M1964.28,735.51a2.83,2.83,0,0,1-2.51-1.53l-28.23-54.75a26.92,26.92,0,0,1-16.84-13.69L1905,642.65a13.44,13.44,0,0,1,5.84-18l23.72-12.13-21.46-41.67a9.27,9.27,0,1,1,16.48-8.49l26,50.49a8.85,8.85,0,0,1,.55,1.31,13,13,0,0,1,1.12,1.81l11.7,22.9a26.88,26.88,0,0,1-1.14,26.48l27.39,49.83a2.83,2.83,0,0,1-1.08,3.82l-28.45,16.17A2.86,2.86,0,0,1,1964.28,735.51Zm-43-172.57a3.57,3.57,0,0,0-1.65.41,3.63,3.63,0,0,0-1.57,4.88l22.76,44.19a2.82,2.82,0,0,1-1.22,3.81l-26.25,13.41a7.8,7.8,0,0,0-3.37,10.44l11.7,22.89a21.26,21.26,0,0,0,14.36,11.08,2.82,2.82,0,0,1,1.89,1.46l27.46,53.27,23.47-13.35L1962,666.54a2.83,2.83,0,0,1,.18-3,21.32,21.32,0,0,0,1.71-22.14l-11.7-22.89a7.75,7.75,0,0,0-.85-1.31,2.79,2.79,0,0,1-.53-1.06,4.35,4.35,0,0,0-.28-.74l-26-50.49a3.58,3.58,0,0,0-2.12-1.79A3.53,3.53,0,0,0,1921.33,562.94Z"/><path fill="#ffa18d" d="M1966.92,660.88a113.76,113.76,0,0,0,7.42-27.36c1.78-13,1.68-29.73,1.68-29.73h0a5.24,5.24,0,0,0-4.85-5.8,6.6,6.6,0,0,0-6.41,4.82c-2.3,6.3-4.15,15.83-5.43,21.8-7.95,6.26-11.25,12.22-13.48,25.28"/><path fill="#0a1a33" d="M1966.92,663.71a2.78,2.78,0,0,1-1.06-.21,2.83,2.83,0,0,1-1.56-3.68,111.44,111.44,0,0,0,7.24-26.69c1.74-12.64,1.66-29.16,1.66-29.33s0-.22,0-.33a2.39,2.39,0,0,0-.57-1.83,2.32,2.32,0,0,0-1.62-.83,3.78,3.78,0,0,0-3.57,2.86.49.49,0,0,1,0,.11c-1.91,5.21-3.55,13-4.74,18.67-.21,1-.4,1.9-.59,2.75a2.79,2.79,0,0,1-1,1.63c-7.45,5.87-10.36,11.37-12.44,23.53a2.83,2.83,0,1,1-5.57-1c2.26-13.2,5.64-19.78,13.72-26.37.11-.56.24-1.15.37-1.75,1.22-5.83,2.91-13.81,4.94-19.4a9.41,9.41,0,0,1,9.22-6.71,8,8,0,0,1,5.63,2.8,8.1,8.1,0,0,1,1.9,5.94,247.69,247.69,0,0,1-1.71,30,117.23,117.23,0,0,1-7.6,28.05A2.82,2.82,0,0,1,1966.92,663.71Z"/><path fill="#ffa18d" d="M1921.9,611l9.43,18.31a6.46,6.46,0,0,0,8.69,2.78h0a6.45,6.45,0,0,0,2.77-8.69l-9.42-18.3a6.45,6.45,0,0,0-8.69-2.78h0A6.45,6.45,0,0,0,1921.9,611Z"/><path fill="#0a1a33" d="M1937.08,635.59a9.29,9.29,0,0,1-8.26-5l-9.43-18.31a9.27,9.27,0,0,1,16.49-8.49l9.42,18.31a9.27,9.27,0,0,1-8.22,13.51Zm-9.45-31.2a3.54,3.54,0,0,0-1.66.41,3.6,3.6,0,0,0-1.79,2.11,3.65,3.65,0,0,0,.23,2.77h0l9.43,18.3a3.63,3.63,0,1,0,6.45-3.32l-9.43-18.3A3.63,3.63,0,0,0,1927.63,604.39Z"/><path fill="#ffa18d" d="M1911.62,620.23l9.43,18.31a6.45,6.45,0,0,0,8.68,2.78h0a6.45,6.45,0,0,0,2.78-8.69l-9.42-18.3a6.45,6.45,0,0,0-8.69-2.78h0A6.45,6.45,0,0,0,1911.62,620.23Z"/><path fill="#0a1a33" d="M1926.8,644.85a9.27,9.27,0,0,1-8.26-5l-9.43-18.3A9.27,9.27,0,1,1,1925.6,613l9.42,18.3a9.28,9.28,0,0,1-4,12.49A9.34,9.34,0,0,1,1926.8,644.85Zm-9.45-31.2a3.54,3.54,0,0,0-1.66.41,3.63,3.63,0,0,0-1.56,4.88h0l9.43,18.31a3.63,3.63,0,0,0,6.45-3.32l-9.43-18.31A3.65,3.65,0,0,0,1917.35,613.65Z"/><path fill="#ffa18d" d="M1901.34,629.49l9.43,18.31a6.45,6.45,0,0,0,8.68,2.78h0a6.45,6.45,0,0,0,2.78-8.69l-9.42-18.3a6.45,6.45,0,0,0-8.69-2.78h0A6.44,6.44,0,0,0,1901.34,629.49Z"/><path fill="#0a1a33" d="M1916.52,654.11a9.27,9.27,0,0,1-8.26-5l-9.43-18.3h0a9.27,9.27,0,1,1,16.48-8.49l9.43,18.3a9.28,9.28,0,0,1-4,12.49A9.34,9.34,0,0,1,1916.52,654.11Zm-12.67-25.91,9.43,18.31a3.62,3.62,0,0,0,4.88,1.56A3.58,3.58,0,0,0,1920,646a3.54,3.54,0,0,0-.23-2.76l-9.42-18.31a3.63,3.63,0,0,0-6.45,3.32Z"/><polyline fill="#fff" points="1998.54 826.82 1936.6 692.86 1976.02 670.09 2038.73 773.24"/><path fill="#0a1a33" d="M1998.54,829.64A2.82,2.82,0,0,1,1996,828l-61.94-134a2.83,2.83,0,0,1,1.15-3.63l39.42-22.77a2.81,2.81,0,0,1,3.82,1l62.71,103.15a2.82,2.82,0,1,1-4.82,2.93L1975,673.91,1940.25,694l60.85,131.62a2.81,2.81,0,0,1-1.38,3.74A2.74,2.74,0,0,1,1998.54,829.64Z"/><path fill="#fff" d="M2310.32,669.42l82.43,150.2c7.68,14,3.73,31.86-9.63,40.62-.43.28-.87.55-1.31.82a34.81,34.81,0,0,1-38.11-2.1l-37.11-69.8Z"/><path fill="#0a1a33" d="M2364.48,868.6a38.05,38.05,0,0,1-22.44-7.36,2.85,2.85,0,0,1-.83-1l-37.12-69.79a2.82,2.82,0,0,1-.32-1.42l3.73-119.74a2.83,2.83,0,0,1,5.3-1.27l82.42,150.21c8.47,15.42,3.83,34.89-10.55,44.33-.47.3-.94.6-1.42.88A36.75,36.75,0,0,1,2364.48,868.6Zm-18.6-11.55a31.85,31.85,0,0,0,34.49,1.58q.62-.36,1.2-.75c11.94-7.83,15.76-24,8.71-36.9l-77.46-141.14-3.39,108.66Z"/><path fill="#ffa18d" d="M2211.64,776.55s-6.29-17.9-17.49-25-28.38-10.41-28.38-10.41-6.24,8.11,3.21,12.83,11.36,8.45,11.36,8.45"/><path fill="#0a1a33" d="M2211.64,779.37a2.82,2.82,0,0,1-2.67-1.88c-.06-.17-6.11-17.08-16.34-23.6-8.45-5.4-20.73-8.54-25.45-9.61a5.76,5.76,0,0,0-.5,3.5c.33,1.39,1.53,2.61,3.56,3.63,9.79,4.88,12.22,8.92,12.61,9.68a2.82,2.82,0,0,1-5,2.58h0s-2-3.15-10.11-7.22c-3.63-1.81-5.83-4.31-6.55-7.43-1.13-4.92,2-9.17,2.37-9.64a2.78,2.78,0,0,1,2.76-1c.72.13,17.85,3.45,29.37,10.8,11.88,7.58,18.36,25.72,18.63,26.49a2.82,2.82,0,0,1-1.73,3.59A2.76,2.76,0,0,1,2211.64,779.37Z"/><rect width="124.53" height="186.2" x="2053.9" y="686.8" fill="#89add3"/><path fill="#0a1a33" d="M2178.43,875.82H2053.9a2.82,2.82,0,0,1-2.82-2.82V686.8a2.83,2.83,0,0,1,2.82-2.83h124.53a2.83,2.83,0,0,1,2.82,2.83V873A2.82,2.82,0,0,1,2178.43,875.82Zm-121.71-5.64h118.89V689.62H2056.72Z"/><path fill="#ffa18d" d="M2170.8,813.71c11.57,2.06,28,8.81,38.16-.57l53.11,11.57,6.71-30.75-50.53-9.61c-6.61-13.44-33.46-20.65-33.46-20.65l-50.44-15c-3.9-1.53-8.64,2.57-5.84,6.43.43,2.65,36.43,17,36.43,17l-36.75-6.55s-4.43-1.33-6.38-.15c-4.5,2.14-1.65,7.57,2.51,8.53l37.7,11.3s-23.46-.17-35-1.67a5.82,5.82,0,0,0-4.86.46c-4.2,2.31-1.6,8.07,2.6,8.3l34.06,7.35s-20,1.63-29.55.89c-5.46-.65-7.66,7.08-2,8.78Z"/><path fill="#0a1a33" d="M2262.07,827.53a3.05,3.05,0,0,1-.6-.06l-51.74-11.27c-9.2,7.33-22,4.3-32.35,1.84-2.48-.59-4.82-1.15-7-1.53L2127,812.25a3.41,3.41,0,0,1-.54-.1,7.07,7.07,0,0,1-5.15-8.35,7.44,7.44,0,0,1,8.31-5.95c2.13.17,4.85.21,7.75.17l-13-2.8a8,8,0,0,1-7-6.14,6.59,6.59,0,0,1,3.34-7.39,8.52,8.52,0,0,1,6.87-.8c3.59.46,8.36.79,13.2,1l-15.66-4.69c-.54-.16-1-.31-1.44-.46v0a9.12,9.12,0,0,1-7-7.36,6.26,6.26,0,0,1,3.75-6.41c2.7-1.52,6.88-.54,8.35-.11l11.63,2.07c-11.38-5.16-13.86-7.27-14.5-8.53a6.58,6.58,0,0,1,.31-7.79,8,8,0,0,1,9-2.59L2185.6,761c1,.28,26.49,7.25,34.49,20.83l49.22,9.36a2.78,2.78,0,0,1,1.82,1.22,2.82,2.82,0,0,1,.41,2.15l-6.71,30.75A2.83,2.83,0,0,1,2262.07,827.53ZM2209,810.32a2.46,2.46,0,0,1,.6.07l50.35,11,5.5-25.17-47.69-9.07a2.79,2.79,0,0,1-2-1.53c-6-12.12-31.4-19.09-31.66-19.16l-50.52-15-.23-.08a2.31,2.31,0,0,0-2.56.75,1,1,0,0,0,.05,1.39c.06.09.12.18.17.27,2.6,2.17,19.64,9.66,35,15.81a2.82,2.82,0,0,1-1.55,5.4l-36.74-6.55a1.67,1.67,0,0,1-.32-.08,9.3,9.3,0,0,0-4.14-.42l-.22.12c-.71.34-.69.59-.67.76a3.5,3.5,0,0,0,2.61,2.47l.2.05,37.67,11.3a2.82,2.82,0,0,1-.81,5.52h0c-1,0-23.77-.19-35.34-1.69a3.12,3.12,0,0,1-.44-.09,3.22,3.22,0,0,0-2.53.12l-.16.1a1,1,0,0,0-.63,1.24,2.36,2.36,0,0,0,2,1.77l.44.06,34.05,7.35a2.82,2.82,0,0,1-.37,5.57c-.82.07-20.32,1.64-30,.89a1.89,1.89,0,0,0-2.24,1.48,1.4,1.4,0,0,0,1,1.72l43.21,4.23.22,0c2.34.42,4.79,1,7.39,1.62,10,2.37,21.31,5.05,28.37-1.48A2.83,2.83,0,0,1,2209,810.32ZM2131.3,754.7h0Z"/><polyline fill="#fff" points="2354.04 864.16 2220.66 823.19 2228.51 779.9 2353.89 799.47"/><path fill="#0a1a33" d="M2354,867a3,3,0,0,1-.83-.12l-133.38-41a2.81,2.81,0,0,1-1.95-3.2l7.86-43.3a2.82,2.82,0,0,1,3.21-2.28l125.37,19.58a2.82,2.82,0,0,1-.87,5.57L2230.8,783.11l-6.92,38.12,131,40.23A2.82,2.82,0,0,1,2354,867Z"/><polygon fill="#2a77c2" points="2103.47 950.36 2103.47 1046.42 2067.08 1546.13 2133.59 1546.13 2201.43 1056.15 2243.52 1543.03 2306.59 1543.03 2291.66 1046.42 2291.66 950.36 2103.47 950.36"/><path fill="#0a1a33" d="M2133.59,1549h-66.51a2.85,2.85,0,0,1-2.07-.9,2.89,2.89,0,0,1-.75-2.13l36.39-499.62V950.36a2.82,2.82,0,0,1,2.82-2.82h188.19a2.82,2.82,0,0,1,2.82,2.82v96.06l14.93,496.52a2.83,2.83,0,0,1-2.82,2.91h-63.07a2.81,2.81,0,0,1-2.81-2.58l-39.93-461.86-64.39,465.11A2.83,2.83,0,0,1,2133.59,1549Zm-63.48-5.65h61l67.51-487.54a2.82,2.82,0,0,1,2.79-2.44h.07a2.82,2.82,0,0,1,2.74,2.58l41.87,484.3h57.57l-14.84-493.71V953.18H2106.29v93.24a1.41,1.41,0,0,1,0,.2Zm33.36-496.89h0Z"/><path fill="#0a1a33" d="M2071.66,1546.13s-79.82,50.5-62.85,53.18,121.94,0,121.94,0l-2-52.58Z"/><path fill="#0a1a33" d="M2048.29 1603.33c-18.34 0-34.08-.31-39.92-1.23-3.47-.55-4.4-2.63-4.65-3.83-.54-2.62-1.55-7.51 33-32.08 16.4-11.66 33.25-22.33 33.42-22.44a2.85 2.85 0 011.54-.44l57.09.6a2.83 2.83 0 012.79 2.71l2 52.59a2.82 2.82 0 01-2.75 2.92C2128 1602.2 2083.39 1603.33 2048.29 1603.33zm-38.79-6.77c15.68 2.31 101.49.4 118.32 0l-1.79-47-53.57-.55C2043.69 1567.22 2012.61 1589.83 2009.5 1596.56zM2243.52 1543l-4.3 52.71h136.63s-17.08-26.83-69.26-52.71z"/><path fill="#0a1a33" d="M2375.85 1598.56H2239.22a2.83 2.83 0 01-2.82-3l4.31-52.71a2.81 2.81 0 012.81-2.59h63.07a2.86 2.86 0 011.25.29c52.29 25.93 69.68 52.6 70.39 53.72a2.82 2.82 0 01-2.38 4.34zm-133.57-5.64h127.89a121.32 121.32 0 00-11.52-12c-9.62-8.83-26.55-22.06-52.73-35.11h-59.8zM2180 489.73s19.43 6.62 33.44 7 48.06-18.18 56.62-43.43c0 0-10.09 4.33-33.21 3.86s-57.82 1.85-66.21 11.92S2180 489.73 2180 489.73zM2178 533a2.82 2.82 0 01-1.38-5.29 28.33 28.33 0 0122.11-2.17A2.82 2.82 0 012197 531a22.59 22.59 0 00-17.63 1.73A2.86 2.86 0 012178 533zM2236 532.77a2.87 2.87 0 01-1.2-.27 32 32 0 00-18.61-2.58 2.82 2.82 0 01-.92-5.57 37.6 37.6 0 0121.93 3 2.82 2.82 0 01-1.2 5.38zM2204.65 570.22a18.29 18.29 0 01-2.7-.2c-3.71-.54-6.43-2-7.88-4.35-1.75-2.82-1.3-6.36-1-8.69l2.82-21.75a1.69 1.69 0 113.36.44l-2.82 21.74c-.32 2.46-.52 4.81.51 6.46 1.13 1.82 3.61 2.53 5.49 2.8a10.47 10.47 0 006.21-.67 4.77 4.77 0 002.8-4.26 1.69 1.69 0 013.38-.23 8.12 8.12 0 01-4.66 7.51A12.1 12.1 0 012204.65 570.22zM2203.16 588.75a28.23 28.23 0 01-11.38-2.35 1.69 1.69 0 011.36-3.1 26.63 26.63 0 0029.73-6.66 1.69 1.69 0 112.55 2.23A29.7 29.7 0 012203.16 588.75zM2189.8 541.34a3.87 3.87 0 11-3.87-3.87A3.87 3.87 0 012189.8 541.34zM2223.14 540.15a3.87 3.87 0 11-3.87-3.87A3.87 3.87 0 012223.14 540.15z"/><path fill="#ff676c" d="M2181.16 552.28a5.95 5.95 0 11-5.95-5.95A6 6 0 012181.16 552.28zM2240.58 550.91a6 6 0 11-6-6A6 6 0 012240.58 550.91z"/></g><g data-name="Business Consultant"><ellipse cx="1042.77" cy="1608.02" fill="#9fc2e4" data-name="shadow" rx="223.66" ry="40.56"/><path fill="#0a1a33" d="M926.08,1544s-15.47,61.73-17,71.44c-1.79,11.61,77.69,1.79,77.69,1.79L973.41,1544Z"/><path fill="#0a1a33" d="M932.71,1623.91c-20.6,0-23.61-3.1-24.9-4.43a5.15,5.15,0,0,1-1.48-4.48c1.49-9.73,16.38-69.18,17-71.7a2.81,2.81,0,0,1,2.73-2.14h47.33a2.82,2.82,0,0,1,2.78,2.32l13.4,73.23a2.82,2.82,0,0,1-2.43,3.31c-.18,0-17.55,2.15-35.67,3.25C944,1623.72,937.81,1623.91,932.71,1623.91Zm-20.77-8.27c.81.77,6.16,3.94,38.42,2,13.81-.81,27.32-2.25,33.13-2.92l-12.43-68H928.29C925.57,1557.67,913.41,1606.58,911.94,1615.64Z"/><path fill="#fff" d="M1126.61,675.72l90.68,124.11c11.71,7.52,15.36,22.51,9.42,33.29-6.69,12.14-24.21,16.54-37.14,7.44L1118.29,785S1116.25,701.84,1126.61,675.72Z"/><path fill="#0a1a33" d="M1204.87,848.22a29.43,29.43,0,0,1-16.92-5.35l-.11-.08-71.29-55.55a2.81,2.81,0,0,1-1.08-2.15c-.09-3.42-1.93-84.06,8.51-110.41a2.82,2.82,0,0,1,4.9-.63l90.39,123.7c12.19,8.15,16.65,24.51,9.91,36.73a27,27,0,0,1-17.72,13A28.84,28.84,0,0,1,1204.87,848.22Zm-13.62-9.93a23.76,23.76,0,0,0,18.94,3.69,21.35,21.35,0,0,0,14-10.23c5.41-9.82,1.61-23.07-8.47-29.55a2.86,2.86,0,0,1-.76-.71l-87.44-119.67c-7.54,27.45-6.67,91.73-6.49,101.8Z"/><path fill="#ffa18d" d="M1280.34,627.91c-2.58,9.45-9.11,43-1.8,59.43l-33.3,44.07,23.52,17.91,33.71-47.65c13.64.59,20.77-15.09,26.72-25l.06,0,24.57-31.36c2.55-5.11-4-9.11-7.68-4.65-5.47,6.71-18.67,18.72-18.67,18.72l16.7-26.34c1.9-2.43,1.29-5.74-.62-7.06s-5.64-.6-7.07,2.41c-6.15,8.4-20.08,24.65-20.08,24.65l16-31.87c2-2.62,1.16-6.2-1-7.4s-5.39-.15-6.67,2.75c-6.07,10-20.53,28.8-20.53,28.8l12.28-29.13c4.25-6.08-4.4-11.32-7.68-4.66l-18.72,36.51c-3.67-6.66,3.68-22-4.26-24.25A4.73,4.73,0,0,0,1280.34,627.91Z"/><path fill="#0a1a33" d="M1268.76,752.15a2.82,2.82,0,0,1-1.71-.58l-23.52-17.92a2.82,2.82,0,0,1-.55-3.94l32.34-42.79c-6.57-17.44-.54-49.24,2.25-59.58a7.61,7.61,0,0,1,3-5,7.46,7.46,0,0,1,5.75-1.34l.27.06c6.85,2,6.13,9.66,5.55,15.84,0,.36-.07.73-.1,1.1l14.24-27.77a7.65,7.65,0,0,1,6.76-4.64,7.32,7.32,0,0,1,6.57,3.9,7.72,7.72,0,0,1-.64,8l-2.94,7c2.37-3.38,4.58-6.65,6.19-9.3a8.25,8.25,0,0,1,4.79-4.3,6.85,6.85,0,0,1,9.2,5.32,8.18,8.18,0,0,1-1.4,6.44l-4.74,9.46c1.5-1.89,2.87-3.68,4-5.2a8.14,8.14,0,0,1,5.14-4.16,6.83,6.83,0,0,1,8.84,5.73,8.24,8.24,0,0,1-1.57,6.17l-3.12,4.92.59-.7a7.51,7.51,0,0,1,10-1.79,7.16,7.16,0,0,1,2.42,9.48,3,3,0,0,1-.31.48l-24.57,31.36a1.63,1.63,0,0,1-.17.2c-.6,1-1.21,2.08-1.85,3.18-5.42,9.44-12.77,22.22-25.52,22.67L1271.06,751a2.78,2.78,0,0,1-1.87,1.16A2.09,2.09,0,0,1,1268.76,752.15Zm-19.58-21.28,19,14.44,32-45.27a2.83,2.83,0,0,1,2.43-1.19c10.3.43,16.76-10.8,22-19.84.76-1.32,1.49-2.6,2.21-3.79a3.12,3.12,0,0,1,.62-.73l24-30.63a1.48,1.48,0,0,0-.52-2,1.84,1.84,0,0,0-2.55.6c-5.55,6.79-18.42,18.53-19,19a2.83,2.83,0,0,1-4.29-3.6l16.7-26.34.16-.22a2.5,2.5,0,0,0,.53-2,1.56,1.56,0,0,0-.52-1,1.7,1.7,0,0,0-1.28-.09,2.48,2.48,0,0,0-1.63,1.39,3.14,3.14,0,0,1-.28.46c-6.15,8.39-19.64,24.15-20.21,24.82a2.82,2.82,0,0,1-4.67-3.1l16-31.87a2.41,2.41,0,0,1,.3-.48,2.5,2.5,0,0,0,.5-2.08,1.61,1.61,0,0,0-.65-1.1,1.57,1.57,0,0,0-1.21,0,2.52,2.52,0,0,0-1.52,1.41,2,2,0,0,1-.17.32c-6.08,10-20.11,28.29-20.7,29.06a2.82,2.82,0,0,1-4.84-2.82l12.28-29.13a3.29,3.29,0,0,1,.29-.52,2.4,2.4,0,0,0,.46-2.42,1.79,1.79,0,0,0-1.5-.9c-.87,0-1.46.84-1.8,1.53l-18.74,36.55a2.81,2.81,0,0,1-2.47,1.53,2.69,2.69,0,0,1-2.51-1.46c-2-3.56-1.52-8.36-1.08-13,.51-5.46.69-9.11-1.35-9.85a1.87,1.87,0,0,0-1.26.36,1.93,1.93,0,0,0-.77,1.31,2.57,2.57,0,0,1-.08.4c-2.21,8.11-9,41.65-1.94,57.54a2.82,2.82,0,0,1-.33,2.85Zm31.16-103h0Z"/><polyline fill="#fff" points="1223.34 838.01 1304.19 714.54 1268.53 686.25 1191.42 779.13"/><path fill="#0a1a33" d="M1223.34 840.83a2.83 2.83 0 01-2.36-4.37l79.44-121.31-31.49-25-75.34 90.75a2.82 2.82 0 11-4.34-3.61l77.11-92.87a2.82 2.82 0 013.92-.41L1306 712.33a2.83 2.83 0 01.6 3.76L1225.7 839.55A2.81 2.81 0 011223.34 840.83zM1298.49 675.49a2.86 2.86 0 01-2.78-3.31c2.09-12-7.55-22-7.65-22.13a2.82 2.82 0 014-4c.48.49 11.8 12.11 9.2 27.07A2.83 2.83 0 011298.49 675.49z"/><rect width="99.9" height="131.25" x="966.08" y="476.64" fill="#0a1a33" rx="44.25" transform="rotate(-180 1016.03 542.265)"/><rect width="44.57" height="32.7" x="954.53" y="543.21" fill="#ffa18d" rx="14.49" transform="rotate(180 976.82 559.565)"/><path fill="#0a1a33" d="M982.75,578.74H970.88a19.18,19.18,0,0,1,0-38.35h11.87a19.18,19.18,0,1,1,0,38.35ZM970.88,546a13.54,13.54,0,0,0,0,27.07h11.87a13.54,13.54,0,0,0,0-27.07Z"/><rect width="44.57" height="32.7" x="1034.72" y="543.21" fill="#ffa18d" rx="14.49"/><path fill="#0a1a33" d="M1062.94 578.74h-11.87a19.18 19.18 0 010-38.35h11.87a19.18 19.18 0 010 38.35zM1051.07 546a13.54 13.54 0 000 27.07h11.87a13.54 13.54 0 000-27.07zM963.67 554.22a1.69 1.69 0 00-1.11 3.2 14.76 14.76 0 014.79 2.88l-3.71 5.52a1.7 1.7 0 00.46 2.35 1.74 1.74 0 00.95.29 1.69 1.69 0 001.4-.75l3.31-4.93a25.68 25.68 0 013.14 4.71 1.7 1.7 0 001.53 1 1.73 1.73 0 00.73-.17A1.69 1.69 0 00976 566C975.79 565.67 971.58 557 963.67 554.22z"/><path fill="#0a1a33" d="M1072.3,555.26a1.68,1.68,0,0,0-2.15-1c-7.9,2.74-12.11,11.45-12.29,11.82a1.69,1.69,0,0,0,.8,2.25,1.77,1.77,0,0,0,.73.17,1.7,1.7,0,0,0,1.53-1,25.94,25.94,0,0,1,3.14-4.71l3.31,4.93a1.71,1.71,0,0,0,1.41.75,1.73,1.73,0,0,0,.94-.29,1.69,1.69,0,0,0,.46-2.35l-3.71-5.52a14.76,14.76,0,0,1,4.79-2.88A1.7,1.7,0,0,0,1072.3,555.26Z"/><path fill="#fff" d="M1050.23,642.05s69.63,27.78,76.38,33.67,2,280.94,2,280.94H924.79s-12.2-276.7-9.86-280.94,71.4-33.42,71.4-33.42l30.4,11.86Z"/><path fill="#0a1a33" d="M1128.56,959.48H924.79a2.83,2.83,0,0,1-2.82-2.7c0-.69-3.08-70-5.81-138.89-5.54-140.2-4.43-142.21-3.7-143.54s1.92-3.48,37.9-19.51c17.38-7.75,34.7-15.07,34.87-15.14a2.9,2.9,0,0,1,2.13,0l29.41,11.48,32.5-11.75a2.76,2.76,0,0,1,2,0c7.18,2.86,70.28,28.13,77.19,34.16,1.94,1.69,5.19,4.53,4.48,144.82-.35,68.72-1.54,137.61-1.56,138.29A2.82,2.82,0,0,1,1128.56,959.48Zm-201.07-5.65h198.3c1.82-106.24,2.93-264.6-1.35-276.23-5.93-4.47-47-21.62-74.26-32.53l-32.49,11.75a2.81,2.81,0,0,1-2,0l-29.34-11.44c-30.54,12.92-64.06,28-68.81,31.71C916.47,689.8,922.81,847.35,927.49,953.83ZM917.2,677.38h0Z"/><polygon fill="#0a1a33" points="1032.26 672.66 1022.67 690.18 1007.5 690.18 999.25 672.68 1016.73 654.16 1032.26 672.66"/><path fill="#0a1a33" d="M1022.67,693H1007.5a2.83,2.83,0,0,1-2.56-1.62l-8.24-17.51a2.84,2.84,0,0,1,.5-3.14l17.48-18.51a2.81,2.81,0,0,1,4.21.12l15.53,18.5a2.82,2.82,0,0,1,.31,3.17l-9.58,17.52A2.85,2.85,0,0,1,1022.67,693Zm-13.38-5.65H1021l7.86-14.36-12.25-14.6-14,14.82Z"/><polygon fill="#0a1a33" points="1022.67 690.18 1048.79 898.9 1023.82 918.41 996.96 900.1 1007.5 690.18 1022.67 690.18"/><path fill="#0a1a33" d="M1023.82,921.24a2.89,2.89,0,0,1-1.59-.49l-26.86-18.32a2.84,2.84,0,0,1-1.23-2.48L1004.68,690a2.82,2.82,0,0,1,2.82-2.68h15.17a2.83,2.83,0,0,1,2.8,2.47l26.12,208.72a2.81,2.81,0,0,1-1.06,2.58l-25,19.51A2.83,2.83,0,0,1,1023.82,921.24Zm-24-22.58,23.85,16.26,22.08-17.25L1020.18,693h-10Z"/><rect width="42.8" height="56.84" x="995.56" y="597.33" fill="#ffa18d" transform="rotate(180 1016.955 625.745)"/><path fill="#0a1a33" d="M1038.35,657H995.56a2.83,2.83,0,0,1-2.83-2.82V597.33a2.83,2.83,0,0,1,2.83-2.83h42.79a2.83,2.83,0,0,1,2.82,2.83v56.83A2.82,2.82,0,0,1,1038.35,657Zm-40-5.64h37.15V600.15H998.38Z"/><rect width="85.05" height="131.25" x="974.43" y="490.19" fill="#ffa18d" rx="37.67" transform="rotate(-180 1016.955 555.82)"/><path fill="#0a1a33" d="M1017,624.27a45.39,45.39,0,0,1-45.34-45.35V532.71a45.35,45.35,0,0,1,90.69,0v46.21A45.4,45.4,0,0,1,1017,624.27ZM1017,493a39.75,39.75,0,0,0-39.7,39.7v46.21a39.71,39.71,0,0,0,79.41,0V532.71A39.75,39.75,0,0,0,1017,493Z"/><polygon fill="#fff" points="1040.51 629.16 1016.73 654.16 1036.94 676.24 1050.23 642.05 1040.51 629.16"/><polygon fill="#fff" points="1016.73 654.16 995.56 628.16 986.33 642.3 993.96 676.39 1016.73 654.16"/><path fill="#0a1a33" d="M1052.48,640.35l-9.72-12.89a2.83,2.83,0,0,0-2.09-1.12,2.87,2.87,0,0,0-2.21.87L1016.9,649.9l-19.16-23.52a2.79,2.79,0,0,0-2.33-1,2.84,2.84,0,0,0-2.22,1.28L984,640.76a2.79,2.79,0,0,0-.39,2.16L991.2,677a2.84,2.84,0,0,0,2.76,2.21,2.85,2.85,0,0,0,2-.8l20.69-20.19,18.24,19.92a2.83,2.83,0,0,0,2.08.92,3.05,3.05,0,0,0,.52,0,2.81,2.81,0,0,0,2.11-1.75l13.29-34.19A2.83,2.83,0,0,0,1052.48,640.35Zm-56.87,30.48-6.26-28,6.46-9.91,17.1,21ZM1036,671l-15.36-16.78,19.67-20.68,6.77,9Z"/><path fill="#fff" d="M914.93,675.72,832.5,825.92c-7.68,14-3.73,31.85,9.63,40.61.43.28.87.56,1.31.82a34.79,34.79,0,0,0,38.11-2.1l37.12-69.8Z"/><path fill="#0a1a33" d="M860.77,874.9A36.83,36.83,0,0,1,842,869.78c-.49-.29-1-.58-1.43-.89-14.38-9.43-19-28.9-10.55-44.33l82.43-150.2a2.82,2.82,0,0,1,5.29,1.27l3.74,119.74a2.87,2.87,0,0,1-.33,1.41L884,866.58a2.8,2.8,0,0,1-.83.95A38.07,38.07,0,0,1,860.77,874.9Zm51.66-188.77L835,827.28c-7.06,12.86-3.24,29.06,8.7,36.89q.59.39,1.2.75a31.84,31.84,0,0,0,34.49-1.58l36.45-68.55Z"/><path fill="#ffa18d" d="M1011.13,790.83s7-15,17.28-17.84,24.83-3.57,26.06-3.13,22.22,17.84,22.53,19.77-3.12,7.39-8,5.39-26.45-7.52-29.32-6.69,1.55,15.94-8.67,21.4"/><path fill="#0a1a33" d="M1031,812.56a2.82,2.82,0,0,1-1.33-5.31c5.26-2.82,5.63-9.29,5.9-14,.21-3.63.39-6.76,3.31-7.61,4.24-1.23,27.23,5.18,31.17,6.78a2.4,2.4,0,0,0,2.3-.14,4.5,4.5,0,0,0,1.73-2c-2.94-3.35-17.53-15.61-20.55-17.71a108.86,108.86,0,0,0-24.35,3.14c-7.42,2-13.67,12.45-15.46,16.3a2.82,2.82,0,0,1-5.12-2.37c.31-.67,7.65-16.27,19.1-19.38,9.51-2.58,25.35-3.93,27.75-3.07,1.55.56,9.95,7.67,12.49,9.84,11.5,9.83,11.69,11,11.88,12.14.36,2.22-1.16,5.32-3.53,7.21a8.18,8.18,0,0,1-8.36,1.24c-4.67-1.9-21.49-6.1-26.54-6.53-.08.71-.14,1.67-.18,2.45-.31,5.37-.82,14.37-8.88,18.67A2.77,2.77,0,0,1,1031,812.56Zm22.87-40Z"/><rect width="47.61" height="84.17" x="1081.53" y="761.03" fill="#ff8287"/><path fill="#0a1a33" d="M1132,755.38h-53.26a2.82,2.82,0,0,0-2.82,2.82v6.37H1050a5.65,5.65,0,0,0-5.64,5.64V835a5.64,5.64,0,0,0,5.64,5.64h25.9V848a2.83,2.83,0,0,0,2.82,2.83H1132a2.83,2.83,0,0,0,2.82-2.83V758.2A2.82,2.82,0,0,0,1132,755.38Zm-56.08,73.94h-20.25V775.86h20.25Zm53.26,15.87h-47.62V761h47.62Z"/><path fill="#ffa18d" d="M1067.87,797.27a8,8,0,0,0-3.19-5.42c5.32-3.38,3.55-13.65-3-14.25-4,.38-12.2.53-15.46,1-5,.22-16,1.29-21.16,1.59-5.94,1-10.5,4.93-13.56,10.18l-97.64,15.91,6.66,32.08,89.25-16.78a21.54,21.54,0,0,0,4.44,6.38c8.65,8,18.55,4,30.35,2.87l14.31-1.77a2.36,2.36,0,0,0,.74-.23c4-1.85,5-7.93,2-11.27,5.42-.85,6.81-9.07,2.93-12.64A7.85,7.85,0,0,0,1067.87,797.27Z"/><path fill="#0a1a33" d="M920.52,841.17a2.81,2.81,0,0,1-2.76-2.25l-6.67-32.08a2.83,2.83,0,0,1,.44-2.17,2.8,2.8,0,0,1,1.87-1.19l96.37-15.71c3.71-5.76,8.8-9.34,14.8-10.38l.32,0c2.22-.13,5.58-.41,9.13-.7,4.47-.37,9.09-.75,12-.88,2-.26,5.21-.42,8.64-.58,2.51-.12,5.1-.24,6.81-.4h.52c4.07.37,7.26,3.36,8.34,7.8a11.34,11.34,0,0,1-1.61,9.29,11,11,0,0,1,2,5h0a11,11,0,0,1-2.36,8.36,11.37,11.37,0,0,1,.76,8.53,9.6,9.6,0,0,1-3.5,5.08,10.64,10.64,0,0,1,.35,5.67,9.45,9.45,0,0,1-5.11,6.82,5.38,5.38,0,0,1-1.59.47l-14.3,1.77h-.09c-2.4.23-4.76.59-7,.93-9.08,1.37-17.66,2.67-25.5-4.54a23.3,23.3,0,0,1-4.06-5.29L921,841.12A3.15,3.15,0,0,1,920.52,841.17Zm-3.3-32.59,5.5,26.48,86.53-16.27a2.82,2.82,0,0,1,3.08,1.58,18.5,18.5,0,0,0,3.84,5.54c5.79,5.32,12.4,4.32,20.77,3.06,2.36-.35,4.8-.72,7.35-1v0c.56-.11,1.27-.2,2.15-.31l12-1.48a4,4,0,0,0,2-2.83,4.68,4.68,0,0,0-.9-4,2.83,2.83,0,0,1,1.67-4.67,3.37,3.37,0,0,0,2.5-2.58,5.26,5.26,0,0,0-1-5.19,2.82,2.82,0,0,1-.9-2.32,2.78,2.78,0,0,1,1.28-2.13,5,5,0,0,0,2.07-4.9,5.13,5.13,0,0,0-2-3.48,2.83,2.83,0,0,1,.12-4.68c1.77-1.13,2.09-3.67,1.63-5.55-.18-.75-.93-3.14-3.15-3.48-1.81.16-4.22.27-6.76.39-3.23.15-6.57.31-8.27.55l-.27,0c-2.73.12-7.37.5-11.85.87-3.5.3-6.82.57-9.1.71-5.85,1.07-9.45,5.36-11.45,8.79a2.8,2.8,0,0,1-2,1.36Zm141.14,17.7h0Z"/><path fill="#0a1a33" d="M1041 796.44a2.82 2.82 0 01-.21-5.64l23.64-1.76a2.82 2.82 0 11.42 5.62l-23.64 1.77zM1042 810a2.82 2.82 0 01-.28-5.63l22.51-2.25a2.82 2.82 0 01.56 5.62L1042.3 810zM1042.47 822.31a2.82 2.82 0 01-.28-5.63l19.12-1.95a2.82 2.82 0 01.57 5.62l-19.12 1.95z"/><polyline fill="#fff" points="871.21 870.46 1004.6 829.49 996.74 786.19 871.37 805.77"/><path fill="#0a1a33" d="M871.21,873.28a2.82,2.82,0,0,1-.83-5.52l131-40.23-6.92-38.13L871.8,808.56a2.82,2.82,0,0,1-.87-5.58L996.3,783.4a2.84,2.84,0,0,1,3.22,2.29l7.85,43.29a2.81,2.81,0,0,1-1.94,3.2L872,873.15A2.71,2.71,0,0,1,871.21,873.28Z"/><polygon fill="#2a77c2" points="1121.79 956.65 1121.79 1052.71 1146.76 1294.19 1158.17 1552.43 1091.66 1552.43 1067.51 1294.57 1032.36 1064.42 1014.5 1288.83 981.73 1549.32 918.67 1549.32 932.72 1292.36 933.59 1052.71 933.59 956.65 1121.79 956.65"/><path fill="#0a1a33" d="M1158.18,1555.25h-66.52a2.82,2.82,0,0,1-2.81-2.56l-24.14-257.77-31.47-206-15.93,200.17s0,.08,0,.13l-32.76,260.48a2.8,2.8,0,0,1-2.8,2.47H918.67a2.82,2.82,0,0,1-2.82-3l14-256.9.87-239.57V956.65a2.83,2.83,0,0,1,2.82-2.82h188.2a2.83,2.83,0,0,1,2.82,2.82v95.91l25,241.34c0,.06,0,.11,0,.17L1161,1552.3a2.82,2.82,0,0,1-2.81,3Zm-64-5.64h61L1144,1294.4,1119,1053a2.83,2.83,0,0,1,0-.29V959.48H936.42v93.23l-.88,239.66a.71.71,0,0,1,0,.14l-13.88,254h57.59l32.45-258,17.85-224.36a2.83,2.83,0,0,1,5.61-.2l35.15,230.16a.78.78,0,0,1,0,.16Z"/><path fill="#0a1a33" d="M1153.6,1552.43s79.81,50.5,62.84,53.18-121.94,0-121.94,0l2-52.58Z"/><path fill="#0a1a33" d="M1177 1609.62c-35.11 0-79.72-1.12-82.54-1.19a2.81 2.81 0 01-2-.89 2.86 2.86 0 01-.77-2l2-52.58a2.82 2.82 0 012.79-2.72l57.09-.59a2.73 2.73 0 011.53.44c.17.1 17 10.78 33.43 22.44 34.56 24.56 33.55 29.45 33 32.08-.24 1.19-1.18 3.27-4.65 3.82C1211 1609.32 1195.3 1609.62 1177 1609.62zm-79.54-6.77c16.83.4 102.65 2.31 118.32 0-3.1-6.74-34.18-29.35-63-47.6l-53.56.56zM1045.21 496s-19.43 6.63-33.43 7-48.07-18.18-56.62-43.43c0 0 10.08 4.33 33.2 3.85s57.82 1.85 66.21 11.92S1045.21 496 1045.21 496zM1047.29 539.33a2.7 2.7 0 01-1.37-.36 22.55 22.55 0 00-17.63-1.72 2.82 2.82 0 11-1.74-5.37 28.28 28.28 0 0122.11 2.16 2.82 2.82 0 01-1.37 5.29zM989.27 539.06a2.82 2.82 0 01-1.2-5.37 37.69 37.69 0 0121.93-3.05 2.82 2.82 0 01-.92 5.57 32 32 0 00-18.61 2.58A2.72 2.72 0 01989.27 539.06zM1020.61 576.52a12 12 0 01-5.53-1.21 8.1 8.1 0 01-4.66-7.5 1.69 1.69 0 013.38.22 4.78 4.78 0 002.81 4.26 10.38 10.38 0 006.21.67c1.87-.27 4.35-1 5.49-2.79 1-1.65.82-4 .51-6.46L1026 542a1.69 1.69 0 113.35-.43l2.82 21.74c.41 3.1.63 6.09-1 8.69-1.44 2.31-4.17 3.82-7.88 4.35A18.11 18.11 0 011020.61 576.52zM1022.09 595a29.7 29.7 0 01-22.26-9.88 1.69 1.69 0 112.55-2.22c7.08 8.12 19.86 11 29.73 6.66a1.69 1.69 0 011.36 3.1A28.32 28.32 0 011022.09 595zM1035.45 547.64a3.87 3.87 0 103.87-3.87A3.87 3.87 0 001035.45 547.64z"/><circle cx="1005.98" cy="546.45" r="3.87" fill="#0a1a33"/><path fill="#ff676c" d="M1044.09,558.58a6,6,0,1,0,6-6A5.95,5.95,0,0,0,1044.09,558.58Z"/><circle cx="990.63" cy="557.2" r="5.95" fill="#ff676c"/></g><g data-name="Business Consultant"><ellipse cx="447.32" cy="1619.32" fill="#9fc2e4" data-name="shadow" rx="223.66" ry="40.56"/><path fill="#0a1a33" d="M588.92,1554.7s15.47,61.74,17,71.45c1.78,11.61-77.7,1.78-77.7,1.78l13.4-73.23Z"/><path fill="#0a1a33" d="M582.3,1634.63c-5.1,0-11.28-.19-18.79-.65-18.12-1.09-35.49-3.23-35.66-3.25a2.77,2.77,0,0,1-1.93-1.13,2.81,2.81,0,0,1-.5-2.18l13.39-73.23a2.83,2.83,0,0,1,2.78-2.31h47.33a2.83,2.83,0,0,1,2.74,2.14c.63,2.52,15.52,62,17,71.7a5.21,5.21,0,0,1-1.49,4.48C605.9,1631.53,602.89,1634.63,582.3,1634.63Zm-50.79-9.15c5.81.66,19.32,2.11,33.13,2.92,32.26,1.89,37.61-1.27,38.42-2-1.47-9.06-13.63-58-16.34-68.84H543.94Z"/><path fill="#fff" d="M388.4,686.43,297.71,810.54c-11.71,7.52-15.36,22.51-9.42,33.29,6.69,12.14,24.22,16.55,37.14,7.45l71.28-55.54S398.75,712.55,388.4,686.43Z"/><path fill="#0a1a33" d="M310.13,858.94a29.48,29.48,0,0,1-6.59-.75,27,27,0,0,1-17.72-13c-6.73-12.21-2.28-28.57,9.91-36.72l90.39-123.7a2.82,2.82,0,0,1,4.9.62c10.45,26.36,8.6,107,8.51,110.41a2.83,2.83,0,0,1-1.08,2.16L327.17,853.5l-.11.09A29.49,29.49,0,0,1,310.13,858.94Zm77.3-166.4L300,812.21a3,3,0,0,1-.75.71c-10.09,6.47-13.89,19.73-8.48,29.55a21.34,21.34,0,0,0,14.05,10.22A23.71,23.71,0,0,0,323.75,849l70.17-54.68C394.11,784.26,395,720,387.43,692.54Z"/><path fill="#ffa18d" d="M202.73,684.31s-55.51-5.86-61.37-6.64-9.77-12.12-9.77-12.12l93.41-.39"/><path fill="#0a1a33" d="M202.73,687.14l-.3,0c-2.27-.24-55.61-5.87-61.44-6.65-7.22-1-11.32-11.83-12.07-14a2.83,2.83,0,0,1,2.66-3.74l93.41-.39h0a2.83,2.83,0,0,1,0,5.65l-89.15.37c1.62,3.16,3.87,6.25,5.86,6.51,5.76.77,60.74,6.58,61.29,6.64a2.82,2.82,0,0,1-.29,5.63Z"/><path fill="#ffa18d" d="M242.78,743.94,220.45,690.8s-60.5-14.51-71.19-17.27-3.56-7.41-3.56-7.41,87.7-4.34,102.12-.19c14.69,4.23,3,21.75,3,21.75l24,50"/><path fill="#0a1a33" d="M242.78,746.76a2.83,2.83,0,0,1-2.61-1.73L218.4,693.21c-9.12-2.18-60.16-14.45-69.85-17-1.79-.46-7.26-1.88-7.94-6-.6-3.67,3.12-6.22,3.54-6.49a2.75,2.75,0,0,1,1.41-.46c3.6-.18,88.34-4.32,103-.08,5.56,1.6,7.8,4.89,8.71,7.36,2.34,6.39-1.43,14.08-3.29,17.27l23.36,48.65a2.82,2.82,0,0,1-5.09,2.45l-24-50.05a2.81,2.81,0,0,1,.2-2.79c1.52-2.3,5.14-9.23,3.54-13.59-.68-1.84-2.3-3.11-5-3.88-10.94-3.15-69.86-1.24-100.3.25a5.24,5.24,0,0,0-.41.44A10.24,10.24,0,0,0,150,670.8c10.55,2.72,70.54,17.11,71.15,17.26a2.82,2.82,0,0,1,1.94,1.65l22.33,53.14a2.82,2.82,0,0,1-2.6,3.91Z"/><polyline fill="#fff" points="291.66 848.73 218.48 705.7 258.71 693.06 323.58 789.84"/><path fill="#0a1a33" d="M291.66,851.55a2.82,2.82,0,0,1-2.51-1.54L216,707a2.82,2.82,0,0,1,1.67-4l40.23-12.64a2.82,2.82,0,0,1,3.19,1.12l64.87,96.78a2.82,2.82,0,0,1-4.69,3.15l-63.69-95-35,11,71.65,140.05a2.83,2.83,0,0,1-2.51,4.11Z"/><rect width="99.9" height="131.25" x="449.02" y="487.35" fill="#0a1a33" rx="44.25"/><rect width="44.57" height="32.7" x="515.9" y="553.93" fill="#ffa18d" rx="14.49"/><path fill="#0a1a33" d="M544.12,589.46H532.25a19.18,19.18,0,0,1,0-38.35h11.87a19.18,19.18,0,0,1,0,38.35Zm-11.87-32.71a13.53,13.53,0,0,0,0,27.06h11.87a13.53,13.53,0,1,0,0-27.06Z"/><path fill="#0a1a33" d="M553.48,566a1.7,1.7,0,0,0-2.15-1.05c-7.9,2.75-12.11,11.45-12.29,11.82a1.7,1.7,0,0,0,.8,2.26,1.75,1.75,0,0,0,.73.16,1.69,1.69,0,0,0,1.53-1,25.94,25.94,0,0,1,3.14-4.71l3.31,4.92a1.69,1.69,0,0,0,1.41.75,1.68,1.68,0,0,0,1.4-2.63L547.65,571a15,15,0,0,1,4.79-2.89A1.68,1.68,0,0,0,553.48,566Z"/><rect width="44.57" height="32.7" x="435.71" y="553.93" fill="#ffa18d" rx="14.49" transform="rotate(-180 458 570.28)"/><path fill="#0a1a33" d="M463.93,589.46H452.06a19.18,19.18,0,0,1,0-38.35h11.87a19.18,19.18,0,1,1,0,38.35Zm-11.87-32.71a13.53,13.53,0,0,0,0,27.06h11.87a13.53,13.53,0,1,0,0-27.06Z"/><path fill="#0a1a33" d="M457.14,576.75c-.17-.37-4.38-9.07-12.29-11.82A1.7,1.7,0,0,0,442.7,566a1.68,1.68,0,0,0,1,2.15,15,15,0,0,1,4.79,2.89l-3.71,5.52a1.7,1.7,0,0,0,.46,2.35,1.73,1.73,0,0,0,1,.28,1.67,1.67,0,0,0,1.4-.75l3.31-4.92a25.68,25.68,0,0,1,3.14,4.71,1.69,1.69,0,0,0,1.53,1,1.72,1.72,0,0,0,.73-.16A1.7,1.7,0,0,0,457.14,576.75Z"/><path fill="#fff" d="M464.77,652.77s-69.62,27.77-76.37,33.66-2,280.94-2,280.94H590.21s12.2-276.7,9.86-280.94S528.67,653,528.67,653l-30.4,11.86Z"/><path fill="#0a1a33" d="M590.21,970.19H386.44a2.82,2.82,0,0,1-2.82-2.77c0-.69-1.2-69.57-1.55-138.29-.72-140.29,2.53-143.13,4.47-144.82,6.91-6,70-31.3,77.19-34.16a2.81,2.81,0,0,1,2,0l32.5,11.76,29.41-11.48a2.81,2.81,0,0,1,2.13,0c.17.07,17.49,7.39,34.87,15.14,36,16,37.14,18.12,37.9,19.51s1.85,3.34-3.7,143.53c-2.73,68.92-5.78,138.2-5.81,138.9A2.82,2.82,0,0,1,590.21,970.19Zm-201-5.64h198.3c4.69-106.48,11-264,9.93-276.77-4.75-3.71-38.26-18.79-68.81-31.72L499.3,667.51a2.79,2.79,0,0,1-2,0l-32.49-11.74c-27.29,10.9-68.33,28.06-74.26,32.52C386.28,700,387.39,858.3,389.21,964.55Zm208.6-276.46Zm-.43-.87Z"/><polygon fill="#0a1a33" points="482.75 683.38 492.33 700.9 507.5 700.9 515.75 683.39 498.27 664.88 482.75 683.38"/><path fill="#0a1a33" d="M507.51,703.72H492.33a2.81,2.81,0,0,1-2.47-1.46l-9.59-17.53a2.83,2.83,0,0,1,.31-3.17l15.53-18.49a2.82,2.82,0,0,1,4.21-.13l17.48,18.52a2.81,2.81,0,0,1,.5,3.14l-8.24,17.5A2.82,2.82,0,0,1,507.51,703.72ZM494,698.08h11.72l6.66-14.15-14-14.81-12.25,14.6Z"/><polygon fill="#0a1a33" points="492.33 700.9 466.21 909.62 491.18 929.13 518.04 910.81 507.5 700.9 492.33 700.9"/><path fill="#0a1a33" d="M491.18,932a2.83,2.83,0,0,1-1.74-.6l-25-19.51a2.82,2.82,0,0,1-1.06-2.57l26.12-208.72a2.83,2.83,0,0,1,2.8-2.47h15.18a2.81,2.81,0,0,1,2.81,2.68l10.54,209.91a2.82,2.82,0,0,1-1.23,2.47l-26.86,18.32A2.79,2.79,0,0,1,491.18,932Zm-22-23.57,22.09,17.26,23.84-16.27L504.82,703.72h-10Z"/><rect width="42.8" height="56.84" x="476.65" y="608.04" fill="#ffa18d"/><path fill="#0a1a33" d="M519.45,667.7h-42.8a2.82,2.82,0,0,1-2.82-2.82V608a2.82,2.82,0,0,1,2.82-2.82h42.8a2.82,2.82,0,0,1,2.82,2.82v56.84A2.82,2.82,0,0,1,519.45,667.7Zm-40-5.64h37.15v-51.2H479.47Z"/><rect width="85.05" height="131.25" x="455.52" y="500.91" fill="#ffa18d" rx="37.67"/><path fill="#0a1a33" d="M498.05,635a45.39,45.39,0,0,1-45.35-45.34V543.43a45.35,45.35,0,1,1,90.69,0v46.21A45.39,45.39,0,0,1,498.05,635Zm0-131.25a39.75,39.75,0,0,0-39.7,39.7v46.21a39.7,39.7,0,1,0,79.4,0V543.43A39.75,39.75,0,0,0,498.05,503.73Z"/><polygon fill="#fff" points="474.49 639.88 498.27 664.88 478.06 686.95 464.77 652.77 474.49 639.88"/><polygon fill="#fff" points="498.27 664.88 519.45 638.88 528.67 653.02 521.05 687.1 498.27 664.88"/><path fill="#0a1a33" d="M531,651.48l-9.22-14.14a2.82,2.82,0,0,0-2.22-1.28,2.79,2.79,0,0,0-2.33,1l-19.15,23.51-21.57-22.68a2.82,2.82,0,0,0-2.21-.87,2.77,2.77,0,0,0-2.09,1.12l-9.72,12.89a2.83,2.83,0,0,0-.38,2.72L475.43,688a2.83,2.83,0,0,0,2.11,1.75,3.15,3.15,0,0,0,.52,0,2.83,2.83,0,0,0,2.09-.92l18.24-19.93,20.69,20.19a2.81,2.81,0,0,0,2,.8,2.71,2.71,0,0,0,.8-.11,2.81,2.81,0,0,0,1.95-2.09l7.62-34.09A2.76,2.76,0,0,0,531,651.48Zm-52,30.22L468,653.21l6.77-9,19.67,20.69Zm40.35-.15-17.31-16.89,17.1-21,6.47,9.9Z"/><path fill="#fff" d="M600.07,686.43l82.43,150.2c7.68,14,3.73,31.86-9.63,40.62-.43.28-.87.55-1.31.82a34.81,34.81,0,0,1-38.11-2.1l-37.11-69.8Z"/><path fill="#0a1a33" d="M654.23,885.61a38.05,38.05,0,0,1-22.44-7.36,2.85,2.85,0,0,1-.83-1L593.84,807.5a2.94,2.94,0,0,1-.33-1.42l3.74-119.74a2.82,2.82,0,0,1,5.3-1.26L685,835.28c8.47,15.42,3.83,34.9-10.55,44.33-.47.3-.94.6-1.42.89A36.83,36.83,0,0,1,654.23,885.61Zm-18.6-11.55a31.85,31.85,0,0,0,34.49,1.58q.61-.36,1.2-.75c11.94-7.83,15.76-24,8.71-36.9L602.57,696.85l-3.39,108.66Z"/><path fill="#ffa18d" d="M508.27,802.45a21.61,21.61,0,0,0-2.86-6,98.79,98.79,0,0,0-13.56-17.82,220.84,220.84,0,0,0-19.49-17.22,4.57,4.57,0,0,0-6.6.2,5.73,5.73,0,0,0-.16,7c3.08,5,8.62,11.41,12,15.52,0,.22,0,.43,0,.65l-7.55-1.49a9.25,9.25,0,0,0-1.87-.18,5.7,5.7,0,0,0-1.17-.37l-48.71-9.44a5.63,5.63,0,1,0-2.14,11.06l42.63,8.26-.09.42-8.55-1.66a5.63,5.63,0,0,0-6.6,4.46h0a5.62,5.62,0,0,0,4.45,6.6l8.52,1.65-.08.42L451,803.39a5.63,5.63,0,1,0-2.15,11.06l5.46,1.06-.08.42-2.44-.48a5.63,5.63,0,1,0-2.14,11.06l17.66,3.43.27,0L483.15,833a21.08,21.08,0,0,0,17.39-4.38l53.92,10.44,4.28-28.26Z"/><path fill="#0a1a33" d="M554.46,841.93a2.46,2.46,0,0,1-.53-.06l-52.68-10.19a23.83,23.83,0,0,1-18.65,4.12l-15.42-3-.43,0-17.66-3.43a8.44,8.44,0,0,1-4.68-13.94,8.45,8.45,0,0,1-.81-12.06,8.48,8.48,0,0,1-2.79-8,8.19,8.19,0,0,1,1.24-3l-26.4-5.12a8.45,8.45,0,1,1,3.22-16.6l48.71,9.44a8.8,8.8,0,0,1,1.19.33,11.53,11.53,0,0,1,1.85.22l.4.08a105,105,0,0,1-7.79-10.46,8.56,8.56,0,0,1,.4-10.38,7.36,7.36,0,0,1,5.23-2.47,7.46,7.46,0,0,1,5.34,2,217.66,217.66,0,0,1,19.68,17.41,101.81,101.81,0,0,1,13.91,18.25,24.44,24.44,0,0,1,2.61,5.05l48.81,8.12a2.81,2.81,0,0,1,2.32,3.2l-4.28,28.27a2.78,2.78,0,0,1-1.16,1.88A2.82,2.82,0,0,1,554.46,841.93Zm-53.92-16.09a3.29,3.29,0,0,1,.54,0l51,9.88,3.43-22.6-47.74-7.94a2.81,2.81,0,0,1-2.24-2,18.77,18.77,0,0,0-2.48-5.24.67.67,0,0,1-.09-.14,96.63,96.63,0,0,0-13.17-17.31,214.6,214.6,0,0,0-19.2-16.95,2.5,2.5,0,0,1-.24-.22,1.77,1.77,0,0,0-1.31-.5,1.66,1.66,0,0,0-1.19.54,3,3,0,0,0,.06,3.56l.06.1c2.53,4.11,7,9.43,10.22,13.31l1.58,1.89a2.87,2.87,0,0,1,.64,1.8v.61a2.82,2.82,0,0,1-1,2.21,2.85,2.85,0,0,1-2.35.6l-7.56-1.5a6.13,6.13,0,0,0-1.29-.12,2.88,2.88,0,0,1-1.15-.23,3.62,3.62,0,0,0-.59-.19L417.79,776a2.81,2.81,0,0,0-1.07,5.52l42.63,8.26a2.87,2.87,0,0,1,1.81,1.2,2.79,2.79,0,0,1,.42,2.12l-.08.42a2.82,2.82,0,0,1-3.3,2.22l-8.56-1.66a2.81,2.81,0,0,0-1.07,5.52l8.52,1.65a2.8,2.8,0,0,1,1.81,1.2,2.83,2.83,0,0,1,.42,2.12l-.08.41a2.82,2.82,0,0,1-3.3,2.23l-5.5-1.07a2.81,2.81,0,0,0-2.11.43,2.81,2.81,0,0,0,1,5.09l5.46,1.06a2.8,2.8,0,0,1,1.81,1.2,2.83,2.83,0,0,1,.42,2.12l-.08.41a2.83,2.83,0,0,1-3.31,2.23l-2.43-.48a2.81,2.81,0,1,0-1.07,5.52l17.52,3.4.27,0,.14,0,15.59,3.08a18.23,18.23,0,0,0,15.07-3.79A2.8,2.8,0,0,1,500.54,825.84Z"/><polyline fill="#fff" points="643.79 881.17 510.41 840.2 518.26 796.91 643.64 816.49"/><path fill="#0a1a33" d="M643.79,884a3,3,0,0,1-.83-.13l-133.38-41a2.81,2.81,0,0,1-1.95-3.2l7.86-43.3a2.83,2.83,0,0,1,3.21-2.28L644.07,813.7a2.82,2.82,0,0,1-.87,5.57L520.55,800.12l-6.92,38.12,131,40.24a2.82,2.82,0,0,1-.83,5.52Z"/><polygon fill="#2a77c2" points="393.22 967.37 393.22 1063.43 368.24 1304.91 356.83 1563.15 423.34 1563.15 447.49 1305.29 482.65 1075.13 500.51 1299.55 533.27 1560.04 596.34 1560.04 582.29 1303.07 581.41 1063.43 581.41 967.37 393.22 967.37"/><path fill="#0a1a33" d="M423.34,1566H356.83a2.82,2.82,0,0,1-2.82-3l11.41-258.24s0-.11,0-.16l25-241.34V967.37a2.82,2.82,0,0,1,2.82-2.82H581.41a2.82,2.82,0,0,1,2.82,2.82v96.06l.88,239.56,14,256.9a2.76,2.76,0,0,1-.77,2.09,2.81,2.81,0,0,1-2,.88H533.27a2.83,2.83,0,0,1-2.8-2.47L497.71,1299.9s0-.08,0-.12L481.76,1099.6l-31.47,206-24.14,257.78A2.82,2.82,0,0,1,423.34,1566Zm-63.56-5.65h61L444.68,1305a1,1,0,0,1,0-.17l35.16-230.15a2.82,2.82,0,0,1,5.6.2l17.85,224.35,32.45,258h57.59l-13.88-254s0-.1,0-.15l-.87-239.64V970.19H396v93.24c0,.09,0,.19,0,.29l-25,241.4Zm33.44-496.89h0Z"/><path fill="#0a1a33" d="M361.41,1563.15s-79.82,50.49-62.85,53.17,121.94,0,121.94,0l-2-52.58Z"/><path fill="#0a1a33" d="M338 1620.34c-18.34 0-34.08-.31-39.92-1.23-3.47-.55-4.4-2.63-4.65-3.83-.54-2.62-1.55-7.51 33-32.08 16.4-11.66 33.25-22.33 33.42-22.44a2.66 2.66 0 011.54-.44l57.08.6a2.82 2.82 0 012.79 2.71l2 52.59a2.82 2.82 0 01-2.75 2.92C417.75 1619.22 373.14 1620.34 338 1620.34zm-38.78-6.77c15.67 2.31 101.48.4 118.31 0l-1.79-47-53.57-.55C333.44 1584.23 302.36 1606.84 299.26 1613.57zM469.79 506.74s19.43 6.62 33.44 7 48.06-18.18 56.62-43.43c0 0-10.09 4.33-33.21 3.86s-57.82 1.85-66.21 11.92S469.79 506.74 469.79 506.74zM467.72 550.05a2.82 2.82 0 01-1.38-5.29 28.33 28.33 0 0122.11-2.17 2.82 2.82 0 11-1.74 5.37 22.57 22.57 0 00-17.62 1.73A2.86 2.86 0 01467.72 550.05zM525.73 549.78a2.87 2.87 0 01-1.2-.27 32 32 0 00-18.61-2.58 2.82 2.82 0 01-.92-5.57 37.76 37.76 0 0121.93 3 2.82 2.82 0 01-1.2 5.38zM494.39 587.23a18.25 18.25 0 01-2.69-.2c-3.71-.54-6.43-2-7.88-4.35-1.75-2.82-1.29-6.35-1-8.69l2.82-21.75a1.69 1.69 0 013.36.44l-2.82 21.74c-.32 2.46-.52 4.81.51 6.46 1.13 1.82 3.61 2.53 5.48 2.8a10.45 10.45 0 006.21-.67 4.76 4.76 0 002.81-4.26 1.69 1.69 0 013.38-.23 8.12 8.12 0 01-4.66 7.51A12.11 12.11 0 01494.39 587.23zM492.91 605.76a28.23 28.23 0 01-11.38-2.35 1.69 1.69 0 111.36-3.1 26.63 26.63 0 0029.73-6.66 1.69 1.69 0 012.55 2.23A29.67 29.67 0 01492.91 605.76zM479.55 558.35a3.87 3.87 0 11-3.87-3.87A3.87 3.87 0 01479.55 558.35zM512.89 557.16a3.87 3.87 0 11-3.87-3.87A3.87 3.87 0 01512.89 557.16z"/><path fill="#ff676c" d="M470.91 569.29a5.95 5.95 0 11-6-5.95A6 6 0 01470.91 569.29zM530.33 567.92a6 6 0 11-6-6A6 6 0 01530.33 567.92z"/><rect width="301.09" height="14.98" x="72.5" y="647.89" fill="#99a5b1"/><path fill="#0a1a33" d="M373.59,665.69H72.5a2.82,2.82,0,0,1-2.82-2.82v-15a2.82,2.82,0,0,1,2.82-2.82H373.59a2.82,2.82,0,0,1,2.82,2.82v15A2.82,2.82,0,0,1,373.59,665.69ZM75.33,660.05H370.77v-9.34H75.33Z"/><rect width="107.92" height="14.98" x="72.5" y="647.89" fill="#cdd3d9"/><path fill="#0a1a33" d="M180.42,665.69H72.5a2.82,2.82,0,0,1-2.82-2.82v-15a2.82,2.82,0,0,1,2.82-2.82H180.42a2.83,2.83,0,0,1,2.83,2.82v15A2.83,2.83,0,0,1,180.42,665.69ZM75.33,660.05H177.6v-9.34H75.33Z"/><polygon fill="#99a5b1" points="282.22 647.71 72.5 647.71 34.62 512.37 244.33 512.37 282.22 647.71"/><path fill="#0a1a33" d="M282.22,650.53H72.5a2.81,2.81,0,0,1-2.71-2.06L31.9,513.13a2.82,2.82,0,0,1,2.72-3.58H244.33a2.82,2.82,0,0,1,2.72,2.06L284.93,647a2.8,2.8,0,0,1-2.71,3.58ZM74.65,644.89H278.5l-36.31-129.7H38.34Z"/><polygon fill="#dadfe3" points="79.39 638.63 46.59 521.45 237.44 521.45 270.25 638.63 79.39 638.63"/><path fill="#0a1a33" d="M270.25,641.45H79.39a2.81,2.81,0,0,1-2.71-2.06L43.87,522.21a2.82,2.82,0,0,1,2.72-3.58H237.44a2.82,2.82,0,0,1,2.72,2.06L273,637.87a2.82,2.82,0,0,1-2.71,3.58ZM81.53,635.81h185L235.3,524.27h-185Z"/><ellipse cx="113.68" cy="580.93" fill="#c6cdd4" rx="34.07" ry="40.64" transform="rotate(-47.52 113.667 580.93)"/><ellipse cx="187.51" cy="556.69" fill="#c6cdd4" rx="22.39" ry="26.7" transform="rotate(-47.52 187.502 556.676)"/><polygon fill="#a5b0bb" points="165.18 618.74 235.43 580.64 245.55 622.91 166.97 627.08 165.18 618.74"/></g><g data-name="Business Consultant"><ellipse cx="1657.34" cy="1606.61" fill="#9fc2e4" data-name="shadow" rx="307.2" ry="71.14"/><rect width="33.88" height="132.97" x="1720.52" y="1435.1" fill="#bec6cd"/><path fill="#0a1a33" d="M1754.4,1570.89h-33.88a2.82,2.82,0,0,1-2.82-2.82v-133a2.83,2.83,0,0,1,2.82-2.83h33.88a2.83,2.83,0,0,1,2.82,2.83v133A2.82,2.82,0,0,1,1754.4,1570.89Zm-31.06-5.64h28.24V1437.92h-28.24Z"/><rect width="66.06" height="83.85" x="1705.27" y="1362.62" fill="#8796a4"/><path fill="#0a1a33" d="M1771.34,1449.29h-66.07a2.82,2.82,0,0,1-2.82-2.82v-83.85a2.82,2.82,0,0,1,2.82-2.82h66.07a2.82,2.82,0,0,1,2.82,2.82v83.85A2.82,2.82,0,0,1,1771.34,1449.29Zm-63.24-5.64h60.42v-78.21H1708.1Z"/><rect width="148.22" height="48.28" x="1669.7" y="1362.62" fill="#8796a4"/><path fill="#0a1a33" d="M1817.92,1413.72H1669.7a2.82,2.82,0,0,1-2.82-2.82v-48.28a2.82,2.82,0,0,1,2.82-2.82h148.22a2.82,2.82,0,0,1,2.82,2.82v48.28A2.82,2.82,0,0,1,1817.92,1413.72Zm-145.4-5.64H1815.1v-42.64H1672.52Z"/><path fill="#3b536a" d="M1595.08,1301.45h122.19c0-1.21.13-2.44.24-3.67L1741.22,1041a71.5,71.5,0,0,1,71.2-64.94h62.1a71.52,71.52,0,0,1,71.21,78.09l-26.07,282.39q.06,1.05.06,2.1h0a37,37,0,0,1-4.23,17.23,35.84,35.84,0,0,1-32.13,20H1595.08a37.2,37.2,0,0,1-37.2-37.21h0A37.2,37.2,0,0,1,1595.08,1301.45Z"/><path fill="#0a1a33" d="M1883.36,1378.69H1595.08a40,40,0,0,1,0-80.06h119.53l.09-1.1,23.71-256.77a74.33,74.33,0,0,1,74-67.5h62.1a74.33,74.33,0,0,1,74,81.17l-26,282.19c0,.67.06,1.35.06,2a40,40,0,0,1-4.56,18.53A38.38,38.38,0,0,1,1883.36,1378.69Zm-288.28-74.41a34.38,34.38,0,1,0,0,68.76h288.28a32.8,32.8,0,0,0,29.6-18.4,34,34,0,0,0,3.94-16c0-.65,0-1.3-.06-1.94,0-.14,0-.28,0-.42l26.07-282.39a68.68,68.68,0,0,0-68.4-75h-62.1a68.38,68.38,0,0,0-68.4,62.37L1720.32,1298c-.1,1.15-.18,2.34-.23,3.53a2.83,2.83,0,0,1-2.82,2.71Z"/><rect width="60.48" height="32.38" x="1707.22" y="1544.97" fill="#8796a4"/><path fill="#0a1a33" d="M1767.7,1580.17h-60.48a2.82,2.82,0,0,1-2.82-2.82V1545a2.82,2.82,0,0,1,2.82-2.82h60.48a2.82,2.82,0,0,1,2.82,2.82v32.38A2.82,2.82,0,0,1,1767.7,1580.17Zm-57.66-5.64h54.84v-26.74H1710Z"/><polygon fill="#bec6cd" points="1707.22 1577.29 1574.47 1595.74 1574.47 1583.14 1707.22 1544.97 1707.22 1577.29"/><path fill="#0a1a33" d="M1574.47,1598.57a2.84,2.84,0,0,1-2.82-2.82v-12.61a2.82,2.82,0,0,1,2-2.71l132.75-38.17a2.81,2.81,0,0,1,3.6,2.71v32.32a2.83,2.83,0,0,1-2.43,2.8l-132.75,18.45Zm2.83-13.3v7.23l127.1-17.67v-26.11Zm129.92-8h0Z"/><circle cx="1593.83" cy="1614.65" r="27.46" fill="#3d556b"/><path fill="#0a1a33" d="M1593.83,1644.93a30.28,30.28,0,1,1,30.28-30.28A30.32,30.32,0,0,1,1593.83,1644.93Zm0-54.92a24.64,24.64,0,1,0,24.63,24.64A24.67,24.67,0,0,0,1593.83,1590Z"/><path fill="#8796a4" d="M1593.83,1630.74a16.09,16.09,0,1,1,16.09-16.09A16.11,16.11,0,0,1,1593.83,1630.74Z"/><path fill="#0a1a33" d="M1593.83,1633.56a18.91,18.91,0,1,1,18.91-18.91A18.93,18.93,0,0,1,1593.83,1633.56Zm0-32.18a13.27,13.27,0,1,0,13.27,13.27A13.28,13.28,0,0,0,1593.83,1601.38Z"/><polygon fill="#bec6cd" points="1767.7 1577.29 1900.44 1595.74 1900.44 1583.14 1767.7 1544.97 1767.7 1577.29"/><path fill="#0a1a33" d="M1900.44,1598.57a2.34,2.34,0,0,1-.38,0l-132.75-18.45a2.83,2.83,0,0,1-2.44-2.8V1545a2.84,2.84,0,0,1,1.13-2.26,2.81,2.81,0,0,1,2.47-.45l132.75,38.17a2.83,2.83,0,0,1,2,2.71v12.61a2.84,2.84,0,0,1-2.83,2.82Zm-129.92-23.74,127.1,17.67v-7.23l-127.1-36.55Z"/><circle cx="1881.09" cy="1614.65" r="27.46" fill="#3d556b"/><path fill="#0a1a33" d="M1881.09,1644.93a30.28,30.28,0,1,1,30.28-30.28A30.32,30.32,0,0,1,1881.09,1644.93Zm0-54.92a24.64,24.64,0,1,0,24.63,24.64A24.68,24.68,0,0,0,1881.09,1590Z"/><path fill="#8796a4" d="M1881.09,1630.74a16.09,16.09,0,1,0-16.09-16.09A16.11,16.11,0,0,0,1881.09,1630.74Z"/><path fill="#0a1a33" d="M1881.09,1633.56a18.91,18.91,0,1,1,18.91-18.91A18.93,18.93,0,0,1,1881.09,1633.56Zm0-32.18a13.27,13.27,0,1,0,13.27,13.27A13.28,13.28,0,0,0,1881.09,1601.38Z"/><rect width="12.15" height="48.61" x="1732.01" y="1546.23" fill="#8796a4"/><path fill="#0a1a33" d="M1744.16,1597.67H1732a2.83,2.83,0,0,1-2.82-2.83v-48.61a2.82,2.82,0,0,1,2.82-2.82h12.15a2.82,2.82,0,0,1,2.82,2.82v48.61A2.83,2.83,0,0,1,1744.16,1597.67Zm-9.33-5.65h6.51v-43h-6.51Z"/><circle cx="1741.69" cy="1614.65" r="27.46" fill="#3d556b"/><path fill="#0a1a33" d="M1741.69,1644.93a30.28,30.28,0,1,1,30.28-30.28A30.31,30.31,0,0,1,1741.69,1644.93Zm0-54.92a24.64,24.64,0,1,0,24.64,24.64A24.67,24.67,0,0,0,1741.69,1590Z"/><path fill="#8796a4" d="M1741.69,1630.74a16.09,16.09,0,1,1,16.09-16.09A16.11,16.11,0,0,1,1741.69,1630.74Z"/><path fill="#0a1a33" d="M1741.69,1633.56a18.91,18.91,0,1,1,18.91-18.91A18.93,18.93,0,0,1,1741.69,1633.56Zm0-32.18a13.27,13.27,0,1,0,13.27,13.27A13.28,13.28,0,0,0,1741.69,1601.38Z"/><g data-name="Business Consultant"><path fill="#ffa18d" d="M1391.1,1087c9.37.91,41.78,6.48,54,18.65l51-14.92,8.08,27.26L1449.86,1132c-4.12,12.46-20.64,13.52-31.58,15.5v.06l-36.57,11.4c-5.47.54-6.81-6.76-1.56-8.5,7.89-2.63,23.19-10.4,23.19-10.4l-29.37,6c-2.84.87-5.6-.8-6.14-3s1.38-5.28,4.58-5.53c9.65-2.67,29-9.64,29-9.64l-34.1,3.51c-3.06,1-6-1.07-6.3-3.43s1.7-4.9,4.74-5.06c11.08-2,32.89-8.63,32.89-8.63l-30.38,1.1c-6.91,1.75-8.67-7.82-1.56-8.49l39.2-4.39c-4.74-5.57-21-4.17-20.35-12.09A4.55,4.55,0,0,1,1391.1,1087Z"/><path fill="#0a1a33" d="M1381.16,1161.84a6.91,6.91,0,0,1-7-5.53,7.29,7.29,0,0,1,4.45-8.26l-4,.82a8,8,0,0,1-6.16-.71,6.67,6.67,0,0,1-2.17-10.06,8,8,0,0,1,5.56-3.25c1.48-.41,3.18-.93,5-1.5l-9.05.93a7.92,7.92,0,0,1-6.35-1,6.69,6.69,0,0,1-1.67-10.24,8,8,0,0,1,5.57-2.88c2.67-.5,6-1.27,9.46-2.14l-6.22.22a7.51,7.51,0,0,1-7.53-2.19,7.21,7.21,0,0,1-1.29-7.35,7.5,7.5,0,0,1,6.61-4.57l29.21-3.27-.47-.13c-5.8-1.6-13-3.58-12.43-10.5a2.19,2.19,0,0,1,0-.27,7.32,7.32,0,0,1,3.21-4.79,7.45,7.45,0,0,1,5.55-1c10.25,1,40.85,6.44,54.34,18.28l49.43-14.46a2.81,2.81,0,0,1,3.49,1.9l8.09,27.26a2.82,2.82,0,0,1-2,3.53L1452,1134.4c-4.79,11.31-18.8,13.56-29.14,15.22-1.2.2-2.37.38-3.48.58l-.23.08-36.57,11.4a2.64,2.64,0,0,1-.56.11A7.89,7.89,0,0,1,1381.16,1161.84Zm22.19-24.57a2.82,2.82,0,0,1,1.28,5.34c-.63.32-15.58,7.89-23.58,10.56-1.53.51-1.42,1.63-1.35,2a1.3,1.3,0,0,0,1.44,1.06h.06l35.72-11.13a2.53,2.53,0,0,1,.86-.31c1.32-.24,2.72-.46,4.17-.7,10.38-1.66,22.14-3.55,25.23-12.9a2.82,2.82,0,0,1,2-1.85l51.51-13.33-6.46-21.76-48.27,14.13a2.81,2.81,0,0,1-2.78-.71c-11.86-11.76-44.29-17.06-52.32-17.84a1.76,1.76,0,0,1-.4-.07,1.77,1.77,0,0,0-1.36.24,1.63,1.63,0,0,0-.7.93c0,1.84,2.58,2.87,8.31,4.45,4.34,1.2,8.83,2.43,11.38,5.44a2.82,2.82,0,0,1-1.84,4.63l-39.2,4.38c-.75.08-1.66.31-2,1a1.55,1.55,0,0,0,.29,1.54,2.18,2.18,0,0,0,2.22.38,2.9,2.9,0,0,1,.59-.09l30.37-1.1a2.82,2.82,0,0,1,.92,5.52c-.89.27-22.08,6.66-33.19,8.7a2.23,2.23,0,0,1-.36,0,2.36,2.36,0,0,0-1.71.84,1.48,1.48,0,0,0-.39,1,1.46,1.46,0,0,0,.72.89,2.31,2.31,0,0,0,2,.25,2.48,2.48,0,0,1,.54-.12l34.1-3.51a2.82,2.82,0,0,1,1.25,5.46c-.79.29-19.57,7-29.21,9.71a3.1,3.1,0,0,1-.53.1,2.29,2.29,0,0,0-1.73,1,1.55,1.55,0,0,0-.33,1.09,1.44,1.44,0,0,0,.71.76,2.34,2.34,0,0,0,1.86.18l.26-.07,29.37-6A2.91,2.91,0,0,1,1403.35,1137.27Z"/><path fill="#fbfcfe" d="M1649.49,945.8l-76.66,108.54-124.31,42.78,8.53,37.52s132.73-20.88,144.67-26,62.25-67.31,62.25-67.31S1689.91,977.08,1649.49,945.8Z"/><path fill="#0a1a33" d="M1457,1137.46a2.81,2.81,0,0,1-2.74-2.19l-8.53-37.52a2.81,2.81,0,0,1,1.83-3.29L1571.05,1052l76.14-107.8a2.82,2.82,0,0,1,4-.6c17.31,13.39,25.43,34.81,23.48,61.93a134.15,134.15,0,0,1-8.12,36.89,2.89,2.89,0,0,1-.42.72c-5.2,6.42-51.1,62.88-63.33,68.13s-139.91,25.33-145.34,26.19Zm-5.21-38.49,7.38,32.47c38.62-6.1,132.09-21.4,141.4-25.39,8.25-3.54,40.81-41.36,60.88-66.15,2-5.14,22.06-61-11.44-90L1575.13,1056a2.8,2.8,0,0,1-1.38,1Zm121-44.63h0Z"/><path fill="#2a77c2" d="M1665.37,1207.51l-5,36.27L1535,1271.59a64.43,64.43,0,0,0-52.42,62.36l-2.89,231.43h58.94L1554,1350.07l250.45-54.84,23.28-75.91"/><path fill="#0a1a33" d="M1538.62 1568.2h-58.94a2.83 2.83 0 01-2.82-2.85l2.89-231.43a67.5 67.5 0 0154.72-65.1l123.39-27.37 4.72-34.33a2.82 2.82 0 115.59.77l-5 36.28a2.83 2.83 0 01-2.18 2.37l-125.4 27.81a61.85 61.85 0 00-50.21 59.64l-2.85 228.57H1536l15.18-212.69a2.83 2.83 0 012.21-2.56l248.85-54.49 22.79-74.33a2.82 2.82 0 115.39 1.65l-23.27 75.91a2.8 2.8 0 01-2.09 1.93l-248.4 54.39-15.22 213.21A2.83 2.83 0 011538.62 1568.2zM1654.51 1557.41l16.87 46.11-110.06 30.38s8.66-28.23 49-64.28z"/><path fill="#0a1a33" d="M1561.32,1636.72a2.82,2.82,0,0,1-2.7-3.65c.36-1.18,9.36-29.4,49.79-65.56a2.71,2.71,0,0,1,1.13-.61l44.22-12.21a2.82,2.82,0,0,1,3.4,1.75l16.87,46.11a2.82,2.82,0,0,1-1.9,3.69l-110.06,30.38A2.76,2.76,0,0,1,1561.32,1636.72Zm50.36-64.56c-29,26.1-41.26,48-45.61,57.5l101.61-28.05-14.92-40.79Z"/><path fill="#2a77c2" d="M1697.45,1267.65l-115.4,23a54.83,54.83,0,0,0-32,62.35l50.33,215.46,63.4-13.84-30.2-193.52s164.71-6.58,199.9-45.09c22.22-24.32-3-110.69-3-110.69l-164.72,1.4"/><path fill="#0a1a33" d="M1600.42,1571.26a2.83,2.83,0,0,1-2.75-2.18l-50.33-215.45a57.66,57.66,0,0,1,33.6-65.59,2.26,2.26,0,0,1,.56-.17l115.4-23a2.82,2.82,0,1,1,1.1,5.53l-115.11,22.93a52,52,0,0,0-30.05,59l49.69,212.72,58.09-12.68-29.78-190.9a2.8,2.8,0,0,1,2.67-3.25c1.64-.07,163.93-7,197.93-44.17,8.49-9.3,10.61-30.8,6.12-62.17a379.88,379.88,0,0,0-9.16-43.78l-162.57,1.38h0a2.83,2.83,0,0,1,0-5.65l164.72-1.4h0a2.83,2.83,0,0,1,2.71,2,383.11,383.11,0,0,1,9.91,46.62c4.8,33.57,2.27,56-7.55,66.77-33.27,36.42-174.95,44.72-198.7,45.86l29.7,190.42a2.82,2.82,0,0,1-2.18,3.19l-63.4,13.83A2.46,2.46,0,0,1,1600.42,1571.26Z"/><rect width="112.07" height="147.25" x="1693.76" y="721.12" fill="#0a1a33" rx="49.65"/><path fill="#ffa18d" d="M1800.44,832.49h-13.32a18.39,18.39,0,0,1-18.34-18.34h0a18.4,18.4,0,0,1,18.34-18.35h13.32a18.4,18.4,0,0,1,18.34,18.35h0A18.39,18.39,0,0,1,1800.44,832.49Z"/><path fill="#0a1a33" d="M1800.44,835.32h-13.32a21.17,21.17,0,0,1,0-42.34h13.32a21.17,21.17,0,0,1,0,42.34Zm-13.32-36.69a15.52,15.52,0,0,0,0,31h13.32a15.52,15.52,0,0,0,0-31Z"/><path fill="#0a1a33" d="M1810.75,809.39a1.7,1.7,0,0,0-2.16-1c-8.78,3-13.47,12.74-13.66,13.15a1.69,1.69,0,0,0,.8,2.25,1.59,1.59,0,0,0,.73.17,1.7,1.7,0,0,0,1.53-1,28.78,28.78,0,0,1,3.72-5.54l3.87,5.76a1.69,1.69,0,0,0,1.41.75,1.73,1.73,0,0,0,.94-.29,1.69,1.69,0,0,0,.46-2.35l-4.26-6.34a17,17,0,0,1,5.58-3.4A1.68,1.68,0,0,0,1810.75,809.39Z"/><path fill="#ffa18d" d="M1697.17,832.49h13.31a18.4,18.4,0,0,0,18.35-18.34h0a18.41,18.41,0,0,0-18.35-18.35h-13.31a18.41,18.41,0,0,0-18.35,18.35h0A18.4,18.4,0,0,0,1697.17,832.49Z"/><path fill="#0a1a33" d="M1710.48,835.32h-13.31a21.17,21.17,0,0,1,0-42.34h13.31a21.17,21.17,0,1,1,0,42.34Zm-13.31-36.69a15.52,15.52,0,0,0,0,31h13.31a15.52,15.52,0,1,0,0-31Z"/><path fill="#0a1a33" d="M1702.68,821.5c-.2-.41-4.88-10.11-13.67-13.15a1.69,1.69,0,1,0-1.11,3.19,17,17,0,0,1,5.58,3.4l-4.26,6.34a1.69,1.69,0,0,0,.46,2.35,1.73,1.73,0,0,0,.94.29,1.69,1.69,0,0,0,1.41-.75l3.87-5.75a29.48,29.48,0,0,1,3.72,5.53,1.7,1.7,0,0,0,1.53,1,1.77,1.77,0,0,0,.73-.17A1.69,1.69,0,0,0,1702.68,821.5Z"/><path fill="#fff" d="M1714,906.68s-55.3,31.16-62.88,37.77,5.41,264.49,5.41,264.49l186.79-3.8s13.69-259.73,11.06-264.49-75.51-35.3-75.51-35.3l-27.29,14.92Z"/><path fill="#0a1a33" d="M1656.49,1211.76a2.83,2.83,0,0,1-2.82-2.68c0-.65-3.27-65.24-5.54-129.81-4.65-131.93-.91-135.19,1.1-136.95,7.7-6.72,61.08-36.82,63.34-38.09a2.81,2.81,0,0,1,2.35-.2l36.38,13.15,26.17-14.3a2.81,2.81,0,0,1,2.45-.13c.18.08,18.46,7.74,36.82,15.89,38,16.84,39.29,19.22,40.07,20.65s2,3.67-4.2,135.52c-3.06,64.78-6.48,129.82-6.52,130.47a2.82,2.82,0,0,1-2.76,2.68l-186.78,3.8Zm-3.28-265.41c-2.55,6.53-3,80.41,6,259.71l181.43-3.69c5.26-100.11,12.38-248.47,11.13-260.39-4.66-3.89-40.24-19.86-72.74-33.5l-26.1,14.27a2.83,2.83,0,0,1-2.31.17l-36.36-13.14C1695.14,920.54,1659.69,941,1653.21,946.35Zm198.46-4.85Z"/><polygon fill="#0a1a33" points="1722.05 938.96 1732.8 958.61 1749.82 958.61 1759.07 938.97 1739.46 918.2 1722.05 938.96"/><path fill="#0a1a33" d="M1749.82,961.44h-17a2.85,2.85,0,0,1-2.48-1.47l-10.75-19.66a2.82,2.82,0,0,1,.32-3.17l17.41-20.75a2.82,2.82,0,0,1,4.22-.12l19.6,20.77a2.79,2.79,0,0,1,.5,3.13l-9.24,19.64A2.84,2.84,0,0,1,1749.82,961.44Zm-15.35-5.65H1748l7.67-16.28-16.11-17.07-14.14,16.85Z"/><polygon fill="#0a1a33" points="1732.8 958.61 1703.5 1192.76 1731.51 1214.65 1761.64 1194.1 1749.82 958.61 1732.8 958.61"/><path fill="#0a1a33" d="M1731.51,1217.47a2.83,2.83,0,0,1-1.74-.6l-28-21.89a2.8,2.8,0,0,1-1.06-2.57L1730,958.26a2.83,2.83,0,0,1,2.8-2.47h17a2.82,2.82,0,0,1,2.82,2.68L1764.46,1194a2.83,2.83,0,0,1-1.23,2.47L1733.1,1217A2.79,2.79,0,0,1,1731.51,1217.47Zm-25-26,25.12,19.64,27.12-18.5-11.6-231.22h-11.85Z"/><rect width="48.01" height="63.76" x="1724.75" y="856.51" fill="#ffa18d"/><path fill="#0a1a33" d="M1772.76,923.09h-48a2.82,2.82,0,0,1-2.82-2.82V856.51a2.82,2.82,0,0,1,2.82-2.82h48a2.82,2.82,0,0,1,2.82,2.82v63.76A2.82,2.82,0,0,1,1772.76,923.09Zm-45.19-5.64h42.37V859.33h-42.37Z"/><rect width="95.41" height="147.25" x="1701.05" y="736.32" fill="#ffa18d" rx="42.26"/><path fill="#0a1a33" d="M1748.75,886.39a50.58,50.58,0,0,1-50.52-50.53V784a50.53,50.53,0,1,1,101,0v51.83A50.59,50.59,0,0,1,1748.75,886.39Zm0-147.25A44.94,44.94,0,0,0,1703.87,784v51.83a44.89,44.89,0,1,0,89.77,0V784A44.94,44.94,0,0,0,1748.75,739.14Z"/><polygon fill="#fff" points="1722.27 894.89 1739.72 916.02 1717.05 940.78 1711.37 909.36 1722.27 894.89"/><polygon fill="#fff" points="1741.61 916.64 1772.7 893.77 1783.05 909.64 1764.61 938.54 1741.61 916.64"/><path fill="#0a1a33" d="M1785.41 908.09l-10.35-15.86a2.76 2.76 0 00-1.86-1.23 2.8 2.8 0 00-2.17.5l-29.8 21.91-16.78-20.31a2.82 2.82 0 00-4.43.09l-10.91 14.47a2.82 2.82 0 00-.52 2.2l5.68 31.43a2.81 2.81 0 002 2.2 2.64 2.64 0 00.78.12 2.83 2.83 0 002.08-.92l21.31-23.27 22.22 21.16a2.85 2.85 0 001.95.78l.34 0a2.79 2.79 0 002-1.29l18.45-28.9A2.83 2.83 0 001785.41 908.09zm-66.6 26.59l-4.45-24.61 8-10.62L1736 915.93zm45.26-.55L1746 916.91l26-19.1 7.72 11.84zM1717.05 742.86s21.8 7.44 37.51 7.86 53.93-20.39 63.52-48.72c0 0-11.31 4.86-37.24 4.33s-64.87 2.07-74.29 13.37S1717.05 742.86 1717.05 742.86zM1714.73 791.11a2.82 2.82 0 01-1.38-5.29 31.44 31.44 0 0124.53-2.41 2.82 2.82 0 11-1.73 5.37 25.69 25.69 0 00-20.05 2A2.86 2.86 0 011714.73 791.11zM1779.81 790.8a2.86 2.86 0 01-1.2-.26 36.14 36.14 0 00-21.08-2.93 2.82 2.82 0 11-.91-5.57 41.87 41.87 0 0124.39 3.39 2.82 2.82 0 01-1.2 5.37zM1744.66 833a19.69 19.69 0 01-3-.23c-4.1-.59-7.1-2.25-8.69-4.79-1.78-2.85-1.53-6.17-1.08-9.61l3.16-24.39a1.69 1.69 0 113.36.44l-3.17 24.39c-.36 2.8-.59 5.47.61 7.38 1.31 2.11 4.15 2.92 6.3 3.23a11.85 11.85 0 007.09-.77 5.55 5.55 0 003.26-5 1.69 1.69 0 113.38-.23 8.89 8.89 0 01-5.12 8.22A13.27 13.27 0 011744.66 833zM1743 853.74a31.62 31.62 0 01-12.69-2.61 1.69 1.69 0 011.36-3.1c11.15 4.89 25.59 1.66 33.59-7.53a1.69 1.69 0 112.55 2.23A33.09 33.09 0 011743 853.74z"/><circle cx="1723.66" cy="800.77" r="4.34" fill="#0a1a33"/><path fill="#0a1a33" d="M1765.41,799.43a4.34,4.34,0,1,1-4.34-4.34A4.34,4.34,0,0,1,1765.41,799.43Z"/><circle cx="1711.64" cy="813.04" r="6.68" fill="#ff676c"/><path fill="#ff676c" d="M1785,811.5a6.68,6.68,0,1,1-6.68-6.68A6.68,6.68,0,0,1,1785,811.5Z"/><path fill="#ffa18d" d="M1530.87,1101.64c8.81,3.34,38.61,17.24,47.24,32.21l53.09-1,.63,28.42-56.12-.73c-7.25,10.94-23.47,7.62-34.54,6.64v.06l-38.28,1.38c-5.41-.91-4.79-8.31.73-8.61,8.31-.46,25.11-3.93,25.11-3.93l-29.92-1.9c-3,.1-5.19-2.25-5.14-4.48,0-2.38,2.72-4.73,5.87-4.13,10,0,30.52-1.68,30.52-1.68l-33.83-5.58c-3.2.11-5.47-2.61-5.18-5s2.93-4.27,5.91-3.63c11.23,1,34,.32,34,.32l-29.6-6.92c-7.12-.13-6.31-9.83.73-8.61l39,6.09c-3.1-6.62-19.17-9.56-16.44-17A4.54,4.54,0,0,1,1530.87,1101.64Z"/><path fill="#0a1a33" d="M1502.88,1171.46a2.38,2.38,0,0,1-.46,0,7,7,0,0,1-6.1-7.35,7.28,7.28,0,0,1,6.47-6.79l-4-.26a8.06,8.06,0,0,1-5.75-2.3,6.68,6.68,0,0,1,.55-10.28,8,8,0,0,1,6.22-1.67c1.53,0,3.31-.06,5.22-.13l-9-1.48a8,8,0,0,1-5.88-2.59,6.69,6.69,0,0,1,1.09-10.32,8.07,8.07,0,0,1,6.13-1.32c2.71.23,6.11.36,9.69.43l-6.06-1.42a7.5,7.5,0,0,1-6.69-4.1,7.21,7.21,0,0,1,.69-7.43,7.5,7.5,0,0,1,7.58-2.67l29,4.54-.43-.26c-5.17-3.06-11.61-6.88-9.22-13.4a1.86,1.86,0,0,1,.1-.25,7.31,7.31,0,0,1,4.36-3.77,7.41,7.41,0,0,1,5.62.47c9.63,3.68,37.72,17,47.62,31.93l51.49-1a2.85,2.85,0,0,1,2.87,2.76l.63,28.42a2.82,2.82,0,0,1-.81,2,3,3,0,0,1-2,.83l-54.66-.71c-7.61,9.66-21.71,8.15-32.12,7l-3.52-.37-.23,0-38.29,1.38Zm-4.08-20.09h.18l29.92,1.91a2.82,2.82,0,0,1,.39,5.58c-.69.14-17.1,3.51-25.52,4-1.61.09-1.8,1.2-1.82,1.54a1.31,1.31,0,0,0,1.16,1.42l37.42-1.35a2.64,2.64,0,0,1,.89-.07c1.33.12,2.74.27,4.2.42,10.45,1.13,22.3,2.4,27.74-5.81a2.81,2.81,0,0,1,2.39-1.26l53.2.69-.51-22.69-50.28.93a2.84,2.84,0,0,1-2.5-1.41c-8.34-14.47-38.24-28.12-45.79-31l-.36-.17a1.72,1.72,0,0,0-1.37-.13,1.68,1.68,0,0,0-.93.71c-.51,1.77,1.74,3.45,6.85,6.48,3.87,2.3,7.87,4.67,9.55,8.24a2.83,2.83,0,0,1-3,4l-39-6.09a2.17,2.17,0,0,0-2.15.49,1.55,1.55,0,0,0-.13,1.56,2.21,2.21,0,0,0,2,1,2.88,2.88,0,0,1,.59.07l29.6,6.93a2.82,2.82,0,0,1-.56,5.56c-.94,0-23.06.63-34.32-.33l-.36,0a2.33,2.33,0,0,0-1.87.36,1.11,1.11,0,0,0-.18,1.91,2.28,2.28,0,0,0,1.83.75,3.31,3.31,0,0,1,.55,0l33.83,5.58a2.82,2.82,0,0,1-.24,5.6c-.84.07-20.73,1.65-30.73,1.68a1.38,1.38,0,0,1-.54-.05,2.29,2.29,0,0,0-1.91.47,1.45,1.45,0,0,0-.61,1,1.39,1.39,0,0,0,.48.92,2.33,2.33,0,0,0,1.75.67Z"/><path fill="#fff" d="M1798.14,985.06l-76.09,98-138.13,44.34v34.1s146.66-10.23,162-15.35,98.91-98.91,98.91-98.91,62.23-58.61,10.53-106.15A72.38,72.38,0,0,0,1824.19,962"/><path fill="#0a1a33" d="M1583.92 1164.35a2.81 2.81 0 01-1.93-.76 2.85 2.85 0 01-.9-2.07v-34.1a2.82 2.82 0 012-2.69l137.31-44.07 75.55-97.33a2.82 2.82 0 014.46 3.46l-76.09 98a2.82 2.82 0 01-1.37 1l-136.17 43.71v29c51.41-3.62 146.65-11.12 158.29-15 10.74-3.58 64.31-60.64 97.7-98.11l.17-.18c.31-.29 30.39-29.05 30.18-61.49-.09-14.54-6.29-27.79-18.42-39.4a71.46 71.46 0 00-28.35 19.56 2.82 2.82 0 01-4.25-3.72 74.76 74.76 0 0132.53-21.77 2.87 2.87 0 012.69.64c14.13 13 21.34 28 21.44 44.68.21 34.32-29.59 63.36-31.85 65.52-9 10.08-84.49 94.43-100 99.62s-156.71 15.07-162.71 15.49zM1532.06 1567.93l4 48.93H1421.87s15.86-24.91 64.31-48.93z"/><path fill="#0a1a33" d="M1536.05,1619.68H1421.87a2.81,2.81,0,0,1-2.38-4.33c.66-1,16.84-25.86,65.43-49.95a2.75,2.75,0,0,1,1.26-.3h45.87a2.83,2.83,0,0,1,2.82,2.6l4,48.93a2.83,2.83,0,0,1-2.81,3ZM1427.58,1614H1533l-3.54-43.29h-42.61c-24.24,12.09-39.94,24.34-48.85,32.52A113.17,113.17,0,0,0,1427.58,1614Z"/></g><polygon fill="#556a7e" points="1091.29 1682.72 1057.27 1682.72 1159.29 1206.03 1193.31 1206.03 1091.29 1682.72"/><path fill="#0a1a33" d="M1093.57,1685.54h-39.79L1157,1203.21h39.79Zm-32.81-5.64H1089l100.81-471.05h-28.25Z"/><polygon fill="#def6f6" points="1226.23 1682.72 1192.21 1682.72 1294.23 1206.03 1328.25 1206.03 1226.23 1682.72"/><path fill="#0a1a33" d="M1228.51,1685.54h-39.79L1292,1203.21h39.79l-.73,3.41Zm-32.81-5.64H1224l100.81-471.05h-28.25Z"/><polygon fill="#def6f6" points="2242.67 1682.72 2276.69 1682.72 2174.68 1206.03 2140.66 1206.03 2242.67 1682.72"/><path fill="#0a1a33" d="M2280.18,1685.54h-39.79l-103.22-482.33H2177ZM2245,1679.9h28.24l-100.8-471.05h-28.25Z"/><polygon fill="#556a7e" points="2107.74 1682.72 2141.75 1682.72 2039.74 1206.03 2005.72 1206.03 2107.74 1682.72"/><path fill="#0a1a33" d="M2145.24,1685.54h-39.79l-103.22-482.33H2042ZM2110,1679.9h28.24l-100.8-471.05h-28.25Z"/><rect width="1196.72" height="32.52" x="1044.61" y="1181.09" fill="#def6f6"/><path fill="#0a1a33" d="M2244.15,1216.43H1041.79v-38.16H2244.15Zm-1196.72-5.64H2238.5v-26.88H1047.43Z"/><rect width="186.7" height="32.52" x="1044.61" y="1181.09" fill="#556a7e"/><path fill="#0a1a33" d="M1234.13,1216.43H1041.79v-38.16h192.34Zm-186.7-5.64h181.06v-26.88H1047.43Z"/><rect width="192.8" height="11.65" x="1293.73" y="1168.36" fill="#d9dadb"/><path fill="#0a1a33" d="M1489.36,1182.83H1290.91v-17.29h198.45Zm-192.8-5.64h187.15v-6H1296.56Z"/><rect width="314.81" height="237.78" x="1087.83" y="874.97" fill="#d9dadb" rx="13.27"/><path fill="#0a1a33" d="M1387.67,1115.57H1102.81a17.82,17.82,0,0,1-17.8-17.8V890a17.82,17.82,0,0,1,17.8-17.8h284.86a17.82,17.82,0,0,1,17.8,17.8v207.82A17.82,17.82,0,0,1,1387.67,1115.57ZM1102.81,877.79A12.17,12.17,0,0,0,1090.66,890v207.82a12.17,12.17,0,0,0,12.15,12.16h284.86a12.17,12.17,0,0,0,12.15-12.16V890a12.17,12.17,0,0,0-12.15-12.16Z"/><rect width="198.87" height="20.41" x="1120.47" y="1159.6" fill="#d9dadb"/><path fill="#0a1a33" d="M1322.16,1182.83H1117.64v-26h204.52Zm-198.87-5.64h193.22v-14.77H1123.29Z"/><polygon fill="#d9dadb" points="1239.93 1159.3 1180.37 1159.3 1199.87 1027.08 1259.43 1027.08 1239.93 1159.3"/><path fill="#0a1a33" d="M1242.37,1162.12H1177.1l20.33-137.87h65.27Zm-58.73-5.65h53.86l18.66-126.57H1202.3Z"/><rect width="5.64" height="20.7" x="1255.67" y="1159.59" fill="#0a1a33"/><path fill="#0a1a33" d="M1386.05 954.23a1.7 1.7 0 01-1.7-1.69V901.78a1.7 1.7 0 013.39 0v50.76A1.69 1.69 0 011386.05 954.23zM1384.71 1075.12a1.69 1.69 0 01-1.69-1.69V967.23a1.69 1.69 0 013.38 0v106.2A1.69 1.69 0 011384.71 1075.12zM1363.34 887.44h-70.13a1.69 1.69 0 110-3.38h70.13a1.69 1.69 0 110 3.38zM1265.82 887.44H1114.88a1.69 1.69 0 110-3.38h150.94a1.69 1.69 0 110 3.38zM1120.55 1103.17a7.37 7.37 0 117.38-7.37A7.38 7.38 0 011120.55 1103.17zm0-11.35a4 4 0 104 4A4 4 0 001120.55 1091.82z"/></g></g></svg>