<svg xmlns="http://www.w3.org/2000/svg" viewBox="0 0 1888.35 1377.09"><g data-name="Layer 2"><g data-name="Layer 1"><path fill="#c3e9fc" d="M1512.32,354.29h-364.4a13.59,13.59,0,0,0-13.59,13.59V453.7l-39.76,36.46,39.76.64V561a13.59,13.59,0,0,0,13.59,13.6h364.4a13.59,13.59,0,0,0,13.59-13.6V367.88A13.59,13.59,0,0,0,1512.32,354.29Z"/><path fill="#1cb3b8" d="M434.34,1362.06H326s-44.26-37.31-100.23-92.66c-2.78-2.68-5.57-5.49-8.28-8.3-48.3-48.27-103.7-108.73-146.46-169.69-2.08-2.94-4.16-5.87-6.09-8.8C5.77,995.94-25.86,909.4,26.63,856.6a77.39,77.39,0,0,1,7.51-6.89c1.62-1.34,3.24-2.68,5-4,41.71-30.74,86-17.41,129.31,20.72,2.76,2.49,5.61,5.11,8.47,7.85,47.46,45.47,93.33,119.32,132.93,196,1.93,3.7,3.87,7.46,5.72,11.16C384.68,1217.74,433.11,1358.87,434.34,1362.06Z"/><path fill="#21c4bd" d="M403.3,1362.06H390.82l-79.13-109.82-85.95,17.16c-2.78-2.68-5.57-5.49-8.28-8.3l87.93-17.6L256,1175l-6.88-9.56-67.87-94.19L71,1091.41c-2.08-2.94-4.16-5.87-6.09-8.8L175,1062.45l-51.79-71.87-7.38-10.26L26.63,856.6a77.39,77.39,0,0,1,7.51-6.89L120.65,969.8l47.81-103.32c2.76,2.49,5.61,5.11,8.47,7.85L128,980.06l57.91,80.36,6.38,8.8,62.65,87c13.84-21.94,37.23-58.8,54.89-85.84,1.93,3.7,3.87,7.46,5.72,11.16-16.5,25.45-37.6,58.67-53.74,84.18l54.45,75.63,6.3,8.74Z"/><path fill="#21c4bd" d="M438,734c29.34,105.28,45.08,229.78,53.3,340,.62,6.75,1.06,13.4,1.47,19.94,10.42,149.62,7.33,268.21,7.33,268.21H382.21S276.57,1141.3,207.05,922.31c-2.2-6.85-4.27-13.81-6.47-20.66-35.83-117-60-231.66-50.79-309.53.66-6,1.53-11.84,2.65-17.34,8.93-44,30.91-73.31,71-80.06a104.25,104.25,0,0,1,20.17-1.56,24.43,24.43,0,0,1,2.82.11c90.17,2.8,148.48,96.87,186.11,222.1C434.42,721.5,436.26,727.62,438,734Z"/><path fill="#1cb3b8" d="M394,1118.67l97.35-44.76c.62,6.75,1.06,13.4,1.47,19.94l-94.34,43.3,53,224.91H428.22L377.4,1146.81l-4.33-18.49L339.34,985.76l0-.11L207.05,922.31c-2.2-6.85-4.27-13.81-6.47-20.66l134.07,64.27L296.73,804.77l-4.47-19-30.1-127.72L149.79,592.12c.66-6,1.53-11.84,2.65-17.34L256.87,636,223.48,494.72a104.25,104.25,0,0,1,20.17-1.56,24.43,24.43,0,0,1,2.82.11l37.36,158.55,5.3,22,23.94,101.44,119.51-59.91c1.84,6.13,3.68,12.25,5.43,18.59L317.54,794.28l0,.11,43.32,184.1,0,.1,4.63,19.63,0,.1Z"/><path fill="#9237cf" d="M413,1304.82C90.76,437.21,717.81,237.55,1025.86,898.24,1197.51,1286.67,413,1304.82,413,1304.82Z"/><path fill="#ff6b4d" d="M1070,783.41c63.45,76.46,193.14,424.41,193.14,424.41l-151.83,38Z"/><path fill="#e041a3" d="M1005,362.21c123.28-44.83,125.14-196.13,78.45-276.45S947.1-39.38,863.05,46.54,713.62,12.92,618.36,141.8s1.86,282.05,78.45,302.59S1005,362.21,1005,362.21Z"/><path fill="#ff6b4d" d="M1155.51,1341.43H595.92s-15.56-236.26-26.45-265.81S493.3,872,521.27,840.88c21.28-23.63,144.35-85.12,201.92-113.14,8.31-4,15.23-7.39,20.31-9.83,6-2.87,9.42-4.48,9.42-4.48l4.66-231.6,135.21,97.91L899,707.24l26.18,11.68,19.8,8.82,125,55.67s17.08,59,38.87,135.21S1155.51,1341.43,1155.51,1341.43Z"/><rect width="9.24" height="213.98" x="1096.3" y="943.11" fill="#de553a" transform="rotate(-6.91 1101.004 1050.18)"/><polygon fill="#ffcb28" points="1005.95 1299.9 820.49 1076.39 829.73 940.87 686.96 923.8 679.09 763.3 683.7 763.07 691.38 919.68 834.63 936.8 825.22 1074.86 1003.49 1289.7 1067.49 1001.7 1001.65 931.16 1053.12 868.76 973.29 753.62 977.08 750.99 1058.91 869.01 1007.79 930.97 1072.52 1000.33 1072.26 1001.51 1005.95 1299.9"/><path fill="#ffcb28" d="M993.84,1257.5c-25.52-93.06-142.32-377.33-270.65-529.76,8.31-4,15.23-7.39,20.31-9.83,6-2.87,9.42-4.48,9.42-4.48l4.66-231.6,135.21,97.91L899,707.24l26.18,11.68,19.8,8.82C961.53,806.08,995.23,1050.51,993.84,1257.5Z"/><path fill="#ebae9c" d="M925.2,718.92c-6.42,78.66-98.65,88.4-181.7-1,6-2.87,9.42-4.48,9.42-4.48l4.66-231.6,135.21,97.91L899,707.24Z"/><path fill="#ff6b4d" d="M934.75,1341.43H428c-.69-5.77-1.24-11.59-1.75-17.45-15.56-183,52.86-421.33,95-483.1,0,0,99.48,116.61,93.3,157s-34.53,149-42,231.65c28,1.52,199,74.6,199,74.6s87-32.64,110-23.31S934.75,1341.43,934.75,1341.43Z"/><path fill="#ffe1db" d="M572.59,1229.52C491.75,1193.76,428,1341.43,428,1341.43L380,1262.9S485.54,1117.6,572.59,1229.52Z"/><path fill="#ffc3aa" d="M934.75,1341.43H428c-.69-5.77-1.24-11.59-1.75-17.45,27.33-51.52,82.31-131.38,146.33-94.45,28,1.52,199,74.6,199,74.6s87-32.64,110-23.31S934.75,1341.43,934.75,1341.43Z"/><rect width="1626.24" height="35.66" x="262.1" y="1341.43" fill="#ebe7ff"/><path fill="#ffc3aa" d="M772.58,527c-.09-.09-.13-.14-.13-.23a387.6,387.6,0,0,1-15.75-36.38q-4.35-11.49-8.49-24a236.82,236.82,0,0,1-11.54-71.18c-.14-10.39.32-20.45,1.15-30.06,9.74,6,18.7,15.19,26.22,26.78,100.5-23.54,82.73-163.7,188.67-147.4,28.21,4.34,47,27.7,59.41,54.2C1074.67,562.12,920.76,794.47,772.58,527Z"/><path fill="#3f3d73" d="M777.25,517.46a90.21,90.21,0,0,1-4.62,9.51,0,0,0,0,0,0,0C764,542,751.72,552.13,737,554.49c-34.67,5.68-69.8-33.75-78.48-88C650.25,414.71,669,368.13,700.85,359A42.35,42.35,0,0,1,705.6,358c11-1.8,22,.93,32.22,7.2,9.74,6,18.7,15.19,26.22,26.78,9.56,14.72,16.76,33.33,20.08,54.05C788.37,472.69,785.46,498,777.25,517.46Z"/><path fill="#615fb3" d="M740.22,453.16c-5.26-33-26.68-56-48.74-52.49S656.3,432.94,661.56,466s26.68,56.09,48.75,52.49S745.49,486.17,740.22,453.16Zm-31.48,55.63c-16.11,2.63-33.33-17.73-37.62-44.41S676.89,413,693,410.32s33.38,17.73,37.63,44.41S724.9,506.15,708.74,508.79Z"/><path fill="#3f3d73" d="M911.81,621l3.42-9.14c-1.09-.42-108.85-42.15-158.26-121.64l-8.2,5.19C800,577.76,907.27,619.3,911.81,621Z"/><path fill="#3f3d73" d="M947.17 626.73h0a15.41 15.41 0 01-19 9.36l-23.8-7.43a15.61 15.61 0 01-9.89-20.35L895 607a15.4 15.4 0 0119.82-9.14l23.31 8.72A15.63 15.63 0 01947.17 626.73zM958.09 184.5C887.69 113.05 704.87 166.64 701.71 382c13.66 1 32.58 9.45 32.58 9.45S773.16 114.1 958.09 184.5z"/><path fill="#9237cf" d="M915.23,1312.62h111.21L1186,921.86a37.14,37.14,0,0,1,34.38-23.1h535.26a20.77,20.77,0,0,1,18.59,30l-197,394.94a32,32,0,0,1-28.59,17.69H934.75Z"/><path fill="#c3e9fc" d="M1370.69 825l-1.66-4a25.39 25.39 0 01-2.25-12.42q.6-5.56 4.79-13 5-8.92 5.76-13a14.63 14.63 0 00-1.07-8.6q-2.17-5.22-6.81-6.56t-11.18 1.36a37.92 37.92 0 00-10.24 6.23 85.57 85.57 0 00-8.13 8.14l-9.78-8.76a59.26 59.26 0 0124.11-18.3q12.18-5.07 21.81-2.08t14 13.5a25.29 25.29 0 012.09 8.87 25.76 25.76 0 01-1.25 8.65 71.42 71.42 0 01-6 12.54q-3.9 7-4.61 10.75a15.65 15.65 0 001.39 8.84l1.16 2.79zm5.71 20.9q-3.92-9.4 5.22-13.2 4.49-1.86 7.87-.39c2.25 1 4 3 5.24 6a10.67 10.67 0 01.52 8c-.87 2.38-2.79 4.18-5.73 5.4s-5.55 1.34-7.82.31S1377.66 848.87 1376.4 845.85zM1621.47 826.75l1.28-4.12a25.39 25.39 0 016.23-11q4-3.88 12-6.9c6.35-2.44 10.61-4.56 12.78-6.32a14.71 14.71 0 004.7-7.29q1.68-5.4-1-9.4c-1.8-2.69-5-4.72-9.46-6.12a37.93 37.93 0 00-11.85-1.79 85 85 0 00-11.46 1l-1.88-13A59.18 59.18 0 011653 763.3q12.6 3.91 18.07 12.39t2.1 19.34a25.57 25.57 0 01-4.08 8.14 26 26 0 01-6.51 5.84 72.1 72.1 0 01-12.62 5.8q-7.44 2.85-10.43 5.3a15.66 15.66 0 00-4.6 7.67l-.9 2.88zm-9 19.69q3-9.72 12.47-6.77c3.08 1 5.18 2.54 6.28 4.74s1.17 4.84.21 7.93a10.7 10.7 0 01-4.72 6.46c-2.2 1.27-4.83 1.42-7.87.47s-5.11-2.53-6.2-4.78S1611.49 849.57 1612.46 846.44zM1496.54 787.56l.46-4.28a25.39 25.39 0 014-12q3.21-4.59 10.47-9.09c5.76-3.61 9.54-6.51 11.33-8.66a14.67 14.67 0 003.21-8q.62-5.62-2.81-9t-10.45-4.19a37.63 37.63 0 00-12 .53 84 84 0 00-11 3.21l-4.35-12.39a59.33 59.33 0 0129.94-4.42q13.13 1.42 20.12 8.68t5.78 18.58a25.28 25.28 0 01-2.44 8.78 26 26 0 01-5.26 7 72 72 0 01-11.27 8.12c-4.51 2.81-7.57 5.21-9.22 7.2a15.69 15.69 0 00-3 8.41l-.32 3zm-5.06 21.06q1.1-10.12 10.93-9 4.83.52 7.08 3.45t1.74 7.74a10.75 10.75 0 01-3.4 7.25c-1.91 1.66-4.46 2.32-7.63 2s-5.5-1.5-7-3.5S1491.13 811.87 1491.48 808.62z"/><rect width="169.84" height="9.23" x="501.03" y="1092.83" fill="#de553a" transform="rotate(-86.25 585.979 1097.464)"/><path fill="#8bc9f0" d="M1478 411.93H1182.25a7.63 7.63 0 01-7.63-7.62h0a7.63 7.63 0 017.63-7.62H1478a7.62 7.62 0 017.62 7.62h0A7.62 7.62 0 011478 411.93zM1478 452.58H1182.25a7.63 7.63 0 01-7.63-7.62h0a7.63 7.63 0 017.63-7.62H1478a7.62 7.62 0 017.62 7.62h0A7.62 7.62 0 011478 452.58zM1478 493.24H1182.25a7.64 7.64 0 01-7.63-7.63h0a7.63 7.63 0 017.63-7.62H1478a7.62 7.62 0 017.62 7.62h0A7.63 7.63 0 011478 493.24zM1478 533.89H1182.25a7.64 7.64 0 01-7.63-7.63h0a7.63 7.63 0 017.63-7.62H1478a7.62 7.62 0 017.62 7.62h0A7.63 7.63 0 011478 533.89z"/></g></g></svg>