<svg xmlns="http://www.w3.org/2000/svg" enable-background="new 0 0 3000 2500" viewBox="0 0 3000 2500"><rect width="2918.6" height="2432.2" x="40.7" y="33.9" fill="none"/><g opacity=".17"><ellipse cx="2166.4" cy="1778.1" fill="#4c0000" opacity="0" rx="336.5" ry="147.8"/><ellipse cx="2166.4" cy="1778.1" fill="#4a0101" opacity=".038" rx="328.4" ry="144.2"/><ellipse cx="2166.4" cy="1778.1" fill="#480202" opacity=".077" rx="320.2" ry="140.7"/><ellipse cx="2166.4" cy="1778.1" fill="#460303" opacity=".115" rx="312.1" ry="137.1"/><ellipse cx="2166.4" cy="1778.1" fill="#440404" opacity=".154" rx="303.9" ry="133.5"/><ellipse cx="2166.4" cy="1778.1" fill="#420505" opacity=".192" rx="295.8" ry="129.9"/><ellipse cx="2166.4" cy="1778.1" fill="#400606" opacity=".231" rx="287.6" ry="126.4"/><ellipse cx="2166.4" cy="1778.1" fill="#3e0606" opacity=".269" rx="279.5" ry="122.8"/><ellipse cx="2166.4" cy="1778.1" fill="#3c0707" opacity=".308" rx="271.4" ry="119.2"/><ellipse cx="2166.4" cy="1778.1" fill="#3a0808" opacity=".346" rx="263.2" ry="115.6"/><ellipse cx="2166.4" cy="1778.1" fill="#380909" opacity=".385" rx="255.1" ry="112"/><ellipse cx="2166.4" cy="1778.1" fill="#360a0a" opacity=".423" rx="246.9" ry="108.5"/><ellipse cx="2166.4" cy="1778.1" fill="#340b0b" opacity=".462" rx="238.8" ry="104.9"/><ellipse cx="2166.4" cy="1778.1" fill="#330c0c" opacity=".5" rx="230.6" ry="101.3"/><ellipse cx="2166.4" cy="1778.1" fill="#310d0d" opacity=".538" rx="222.5" ry="97.7"/><ellipse cx="2166.4" cy="1778.1" fill="#2f0e0e" opacity=".577" rx="214.3" ry="94.2"/><ellipse cx="2166.4" cy="1778.1" fill="#2d0f0f" opacity=".615" rx="206.2" ry="90.6"/><ellipse cx="2166.4" cy="1778.1" fill="#2b1010" opacity=".654" rx="198.1" ry="87"/><ellipse cx="2166.4" cy="1778.1" fill="#291111" opacity=".692" rx="189.9" ry="83.4"/><ellipse cx="2166.4" cy="1778.1" fill="#271212" opacity=".731" rx="181.8" ry="79.8"/><ellipse cx="2166.4" cy="1778.1" fill="#251212" opacity=".769" rx="173.6" ry="76.3"/><ellipse cx="2166.4" cy="1778.1" fill="#231313" opacity=".808" rx="165.5" ry="72.7"/><ellipse cx="2166.4" cy="1778.1" fill="#211414" opacity=".846" rx="157.3" ry="69.1"/><ellipse cx="2166.4" cy="1778.1" fill="#1f1515" opacity=".885" rx="149.2" ry="65.5"/><ellipse cx="2166.4" cy="1778.1" fill="#1d1616" opacity=".923" rx="141.1" ry="62"/><ellipse cx="2166.4" cy="1778.1" fill="#1b1717" opacity=".962" rx="132.9" ry="58.4"/><ellipse cx="2166.4" cy="1778.1" fill="#191818" rx="124.8" ry="54.8"/></g><g opacity=".17"><ellipse cx="1799" cy="2102.5" fill="#4c0000" opacity="0" rx="336.5" ry="147.8"/><ellipse cx="1799" cy="2102.5" fill="#4a0101" opacity=".038" rx="328.4" ry="144.2"/><ellipse cx="1799" cy="2102.5" fill="#480202" opacity=".077" rx="320.2" ry="140.7"/><ellipse cx="1799" cy="2102.5" fill="#460303" opacity=".115" rx="312.1" ry="137.1"/><ellipse cx="1799" cy="2102.5" fill="#440404" opacity=".154" rx="303.9" ry="133.5"/><ellipse cx="1799" cy="2102.5" fill="#420505" opacity=".192" rx="295.8" ry="129.9"/><ellipse cx="1799" cy="2102.5" fill="#400606" opacity=".231" rx="287.6" ry="126.4"/><ellipse cx="1799" cy="2102.5" fill="#3e0606" opacity=".269" rx="279.5" ry="122.8"/><ellipse cx="1799" cy="2102.5" fill="#3c0707" opacity=".308" rx="271.4" ry="119.2"/><ellipse cx="1799" cy="2102.5" fill="#3a0808" opacity=".346" rx="263.2" ry="115.6"/><ellipse cx="1799" cy="2102.5" fill="#380909" opacity=".385" rx="255.1" ry="112"/><ellipse cx="1799" cy="2102.5" fill="#360a0a" opacity=".423" rx="246.9" ry="108.5"/><ellipse cx="1799" cy="2102.5" fill="#340b0b" opacity=".462" rx="238.8" ry="104.9"/><ellipse cx="1799" cy="2102.5" fill="#330c0c" opacity=".5" rx="230.6" ry="101.3"/><ellipse cx="1799" cy="2102.5" fill="#310d0d" opacity=".538" rx="222.5" ry="97.7"/><ellipse cx="1799" cy="2102.5" fill="#2f0e0e" opacity=".577" rx="214.3" ry="94.2"/><ellipse cx="1799" cy="2102.5" fill="#2d0f0f" opacity=".615" rx="206.2" ry="90.6"/><ellipse cx="1799" cy="2102.5" fill="#2b1010" opacity=".654" rx="198.1" ry="87"/><ellipse cx="1799" cy="2102.5" fill="#291111" opacity=".692" rx="189.9" ry="83.4"/><ellipse cx="1799" cy="2102.5" fill="#271212" opacity=".731" rx="181.8" ry="79.8"/><ellipse cx="1799" cy="2102.5" fill="#251212" opacity=".769" rx="173.6" ry="76.3"/><ellipse cx="1799" cy="2102.5" fill="#231313" opacity=".808" rx="165.5" ry="72.7"/><ellipse cx="1799" cy="2102.5" fill="#211414" opacity=".846" rx="157.3" ry="69.1"/><ellipse cx="1799" cy="2102.5" fill="#1f1515" opacity=".885" rx="149.2" ry="65.5"/><ellipse cx="1799" cy="2102.5" fill="#1d1616" opacity=".923" rx="141.1" ry="62"/><ellipse cx="1799" cy="2102.5" fill="#1b1717" opacity=".962" rx="132.9" ry="58.4"/><ellipse cx="1799" cy="2102.5" fill="#191818" rx="124.8" ry="54.8"/></g><g opacity=".17"><ellipse cx="1025.4" cy="1501.8" fill="#4c0000" opacity="0" rx="336.5" ry="147.8"/><ellipse cx="1025.4" cy="1501.8" fill="#4a0101" opacity=".038" rx="328.4" ry="144.2"/><ellipse cx="1025.4" cy="1501.8" fill="#480202" opacity=".077" rx="320.2" ry="140.7"/><ellipse cx="1025.4" cy="1501.8" fill="#460303" opacity=".115" rx="312.1" ry="137.1"/><ellipse cx="1025.4" cy="1501.8" fill="#440404" opacity=".154" rx="303.9" ry="133.5"/><ellipse cx="1025.4" cy="1501.8" fill="#420505" opacity=".192" rx="295.8" ry="129.9"/><ellipse cx="1025.4" cy="1501.8" fill="#400606" opacity=".231" rx="287.6" ry="126.4"/><ellipse cx="1025.4" cy="1501.8" fill="#3e0606" opacity=".269" rx="279.5" ry="122.8"/><ellipse cx="1025.4" cy="1501.8" fill="#3c0707" opacity=".308" rx="271.4" ry="119.2"/><ellipse cx="1025.4" cy="1501.8" fill="#3a0808" opacity=".346" rx="263.2" ry="115.6"/><ellipse cx="1025.4" cy="1501.8" fill="#380909" opacity=".385" rx="255.1" ry="112"/><ellipse cx="1025.4" cy="1501.8" fill="#360a0a" opacity=".423" rx="246.9" ry="108.5"/><ellipse cx="1025.4" cy="1501.8" fill="#340b0b" opacity=".462" rx="238.8" ry="104.9"/><ellipse cx="1025.4" cy="1501.8" fill="#330c0c" opacity=".5" rx="230.6" ry="101.3"/><ellipse cx="1025.4" cy="1501.8" fill="#310d0d" opacity=".538" rx="222.5" ry="97.7"/><ellipse cx="1025.4" cy="1501.8" fill="#2f0e0e" opacity=".577" rx="214.3" ry="94.2"/><ellipse cx="1025.4" cy="1501.8" fill="#2d0f0f" opacity=".615" rx="206.2" ry="90.6"/><ellipse cx="1025.4" cy="1501.8" fill="#2b1010" opacity=".654" rx="198.1" ry="87"/><ellipse cx="1025.4" cy="1501.8" fill="#291111" opacity=".692" rx="189.9" ry="83.4"/><ellipse cx="1025.4" cy="1501.8" fill="#271212" opacity=".731" rx="181.8" ry="79.8"/><ellipse cx="1025.4" cy="1501.8" fill="#251212" opacity=".769" rx="173.6" ry="76.3"/><ellipse cx="1025.4" cy="1501.8" fill="#231313" opacity=".808" rx="165.5" ry="72.7"/><ellipse cx="1025.4" cy="1501.8" fill="#211414" opacity=".846" rx="157.3" ry="69.1"/><ellipse cx="1025.4" cy="1501.8" fill="#1f1515" opacity=".885" rx="149.2" ry="65.5"/><ellipse cx="1025.4" cy="1501.8" fill="#1d1616" opacity=".923" rx="141.1" ry="62"/><ellipse cx="1025.4" cy="1501.8" fill="#1b1717" opacity=".962" rx="132.9" ry="58.4"/><ellipse cx="1025.4" cy="1501.8" fill="#191818" rx="124.8" ry="54.8"/></g><line x1="1619.9" x2="2048.3" y1="1006.1" y2="1245.5" fill="none" stroke="#afafaf" stroke-dasharray="25.474 16.983" stroke-miterlimit="1" stroke-width="16.983"/><linearGradient id="a" x1="2113.673" x2="2328.806" y1="923.812" y2="1327.185" gradientUnits="userSpaceOnUse"><stop offset="0" stop-color="#444"/><stop offset=".117" stop-color="#767676"/><stop offset=".36" stop-color="#fff"/><stop offset=".718" stop-color="#5c5c5c"/><stop offset="1" stop-color="#7f7f7f"/></linearGradient><path fill="url(#a)" d="M2392.9,1018.6c0-0.8-0.1-1.6-0.1-2.4c-0.1-0.8-0.1-1.6-0.2-2.4s-0.2-1.6-0.3-2.4c-0.1-0.8-0.2-1.7-0.4-2.5    c0,0,0,0,0-0.1c0,0,0,0,0,0c-0.1-0.8-0.3-1.6-0.4-2.4c-0.2-0.9-0.3-1.7-0.5-2.6c-0.2-0.9-0.4-1.7-0.6-2.6    c-0.2-0.9-0.4-1.7-0.7-2.6c-0.2-0.7-0.4-1.3-0.6-2c0-0.1,0-0.1-0.1-0.2c0-0.1-0.1-0.3-0.1-0.4c-0.3-0.9-0.5-1.7-0.8-2.6    c-0.3-0.8-0.6-1.7-0.9-2.5c-0.3-0.8-0.6-1.6-0.9-2.4c-0.3-0.8-0.6-1.6-1-2.4c-0.2-0.6-0.5-1.2-0.8-1.8c0,0,0-0.1-0.1-0.2    c-0.1-0.1-0.1-0.3-0.2-0.4c-0.4-0.8-0.7-1.6-1.1-2.4c-0.4-0.9-0.8-1.7-1.3-2.6c-0.5-1-1-2-1.5-3c-0.6-1.1-1.2-2.1-1.8-3.1    c-0.1-0.2-0.2-0.4-0.3-0.5c-0.1-0.2-0.2-0.4-0.4-0.7c-1.2-2-2.4-3.9-3.7-5.8c-1-1.5-2.1-3-3.1-4.4c-0.7-1-1.4-1.9-2.2-2.9    c-0.6-0.8-1.3-1.6-1.9-2.3c-0.6-0.8-1.3-1.5-1.9-2.2c-0.6-0.7-1.3-1.4-1.9-2.1c-0.1-0.1-0.3-0.3-0.4-0.4c-0.1-0.1-0.1-0.1-0.2-0.2    c-0.5-0.5-1-1-1.5-1.5c-0.7-0.7-1.4-1.4-2.1-2.1c-0.7-0.7-1.4-1.4-2.2-2c-0.7-0.7-1.5-1.3-2.2-1.9c-0.4-0.3-0.8-0.6-1.1-0.9    c-0.1-0.1-0.2-0.1-0.2-0.2c-0.3-0.2-0.5-0.5-0.8-0.7c-0.7-0.6-1.4-1.1-2.2-1.7c-0.7-0.5-1.4-1-2.2-1.5c-0.7-0.5-1.4-0.9-2.1-1.4    c-0.7-0.4-1.4-0.9-2.1-1.3c-0.2-0.1-0.3-0.2-0.5-0.3L2056.7,770c-0.5-0.3-1-0.6-1.6-0.9c-0.7-0.4-1.3-0.7-2-1    c-0.4-0.2-0.9-0.4-1.3-0.6c-0.1,0-0.2-0.1-0.3-0.1c-0.1-0.1-0.3-0.1-0.4-0.2c-0.7-0.3-1.3-0.6-2-0.8c-0.7-0.3-1.3-0.5-2-0.8    c-0.1,0-0.2-0.1-0.3-0.1c-0.1,0-0.2-0.1-0.3-0.1c-0.4-0.1-0.9-0.3-1.3-0.4c-0.7-0.2-1.4-0.4-2-0.6c-0.3-0.1-0.6-0.1-1-0.2    c-0.1,0-0.3-0.1-0.4-0.1c-0.2,0-0.4-0.1-0.6-0.1c-0.7-0.1-1.4-0.3-2.2-0.4c-0.4-0.1-0.9-0.1-1.3-0.1c-0.2,0-0.3,0-0.5,0    c-0.1,0-0.3,0-0.4,0c-0.8,0-1.6-0.1-2.3-0.1c-0.3,0-0.7,0-1,0c-0.3,0-0.5,0-0.8,0c-0.3,0-0.5,0-0.8,0c-1,0.1-1.9,0.2-2.8,0.4    c0,0,0,0-0.1,0c-0.2,0-0.4,0.1-0.5,0.1c-1,0.2-1.9,0.5-2.9,0.8c-0.1,0-0.1,0.1-0.2,0.1c-1.3,0.5-2.6,1.1-3.8,1.8l-28.9,16.9    c1.2-0.7,2.5-1.3,3.8-1.8c1-0.4,2-0.6,3.1-0.9c0.2,0,0.4-0.1,0.5-0.1c1.2-0.2,2.4-0.4,3.7-0.5c0.3,0,0.5,0,0.8,0    c1.2,0,2.5,0,3.7,0.1c0.2,0,0.3,0,0.5,0c1.3,0.1,2.7,0.3,4.1,0.6c0.1,0,0.3,0.1,0.4,0.1c1.4,0.3,2.9,0.7,4.3,1.2    c0.1,0,0.2,0.1,0.3,0.1c1.5,0.5,3.1,1.2,4.7,1.9c0.1,0,0.2,0.1,0.3,0.1c1.6,0.7,3.2,1.6,4.9,2.5l287.1,165.8    c3.4,1.9,6.7,4.2,9.8,6.8c0.1,0.1,0.2,0.1,0.2,0.2c3.1,2.6,6.2,5.4,9,8.4c0.1,0.1,0.1,0.1,0.2,0.2c2.9,3.1,5.7,6.4,8.3,10    c0,0,0,0,0,0c2.6,3.5,5,7.1,7.1,10.9c0.1,0.2,0.2,0.4,0.3,0.5c2.1,3.7,4.1,7.6,5.8,11.5c0,0.1,0,0.1,0.1,0.2c1.7,4,3.2,8,4.5,12.1    c0,0.1,0,0.1,0.1,0.2c1.2,4.1,2.2,8.2,2.8,12.2c0,0,0,0,0,0c0.6,4.1,1,8.1,1,12l-2,741.3c0,3.8-0.4,7.4-1,10.6    c0,0.1,0,0.2-0.1,0.3c-0.6,3.2-1.6,6.1-2.8,8.7c0,0,0,0.1-0.1,0.1c-1,2.2-2.3,4-3.7,5.7c-0.4,0.6-0.9,1.2-1.4,1.7    c-1.6,1.7-3.4,3.3-5.4,4.4l28.9-16.9c2-1.2,3.8-2.7,5.4-4.4c0.5-0.5,0.9-1.1,1.4-1.7c0.6-0.7,1.3-1.4,1.8-2.2    c0.7-1.1,1.3-2.2,1.9-3.4c0-0.1,0-0.1,0.1-0.2c0,0,0-0.1,0.1-0.1c0.4-0.8,0.7-1.6,1-2.5c0.3-0.8,0.6-1.7,0.9-2.6    c0.2-0.8,0.5-1.7,0.7-2.5c0.1-0.4,0.1-0.7,0.2-1.1c0-0.1,0-0.2,0.1-0.3c0.1-0.3,0.1-0.7,0.2-1c0.1-0.8,0.3-1.6,0.4-2.4    c0.1-0.8,0.2-1.6,0.2-2.4c0.1-0.8,0.1-1.5,0.1-2.3c0-0.8,0.1-1.6,0.1-2.4c0,0,0-0.1,0-0.1l2-741.3    C2392.9,1020.1,2392.9,1019.4,2392.9,1018.6z"/><linearGradient id="b" x1="1976.24" x2="2363.984" y1="1297.05" y2="1297.05" gradientUnits="userSpaceOnUse"><stop offset="0" stop-color="#7f7f7f"/><stop offset="1" stop-color="#444"/></linearGradient><path fill="url(#b)" d="M2314.8,952.6c27.3,15.7,49.2,53.8,49.2,85.1l-2,741.3c-0.1,31.3-22.2,43.9-49.5,28.2l-287.1-165.8    c-27.2-15.7-49.2-53.8-49.2-85.1l2-741.3c0.1-31.3,22.3-43.9,49.5-28.2L2314.8,952.6z"/><linearGradient id="c" x1="1994.357" x2="2363.984" y1="1296.378" y2="1296.378" gradientUnits="userSpaceOnUse"><stop offset="0" stop-color="#7f7f7f"/><stop offset="1" stop-color="#fff"/></linearGradient><path fill="url(#c)" d="M2314.8,952.6l-287.1-165.8c-12.9-7.4-24.6-8.5-33.4-4.3c8.4-2.8,19.1-1.3,30.7,5.4l287.1,165.8    c27.3,15.7,49.2,53.8,49.2,85.1l-2,741.3c0,16.5-6.3,27.8-16.1,32.5c11.4-3.8,18.7-15.6,18.8-33.6l2-741.3    C2364.1,1006.4,2342.1,968.3,2314.8,952.6z"/><path fill="#fff" d="M2306.4,967.2l-76.2-44c-4.8-2.8-10.9,0.7-10.9,6.3v8.9c0,5.2-5.7,8.5-10.2,5.8l-82.2-48.7    c-4-2.4-6.4-6.7-6.4-11.3v-17.3c0-4.4-2.3-8.4-6.1-10.6l-95.1-54.9c-6.5-3.7-11-4.5-13.7-4.5c-9.1,0-10.5,11.4-10.5,18.2l-2,741.3    c-0.1,25.4,18.6,57.7,40.8,70.5l287.1,165.8c6.5,3.7,11.1,4.5,13.8,4.5c9.1,0,10.5-11.4,10.5-18.2l2-741.3    C2347.2,1012.3,2328.6,980,2306.4,967.2z"/><path d="M2099.7 1239.7c0 22.5-8.4 30.4-23 22.4-12.9-7-21.7-23.9-21.9-45.9 0-22.2 9.6-29.2 23-21.9C2091.7 1201.8 2099.7 1218.6 2099.7 1239.7zM2063.7 1221.1c0 17.2 5.3 29.9 13.4 34.3 9.2 5 13.5-3.3 13.5-20.2 0-16.3-4.2-29.3-13.4-34.3C2069.4 1196.6 2063.7 1203.1 2063.7 1221.1zM2110.1 1268.9c2.5 3 8.5 8.8 14.7 12.2 11.5 6.3 15.1.9 15-4.7-.1-9.3-8.5-17.8-17.1-22.6l-5-2.7v-6.7l5 2.7c6.5 3.5 14.8 4.7 14.8-3.2 0-5.3-3.4-11.8-11.6-16.3-5.3-2.9-10.4-3.3-13.2-2.8l-2.3-7.8c3.5-.7 10.2.5 17.3 4.3 13 7.1 18.9 18.1 18.9 26.1 0 6.8-4.1 10.4-12.2 8.9v.2c8.1 6.1 14.8 15.8 14.8 25 0 10.6-8.3 15.4-24.1 6.7-7.4-4-14-9.9-17.2-13.8L2110.1 1268.9zM2160.2 1306.4v-5.5l7-3c16.9-6.9 24.5-11.3 24.7-21.2 0-6.7-3.3-14.7-13.1-20.1-6-3.3-11-2.9-14.1-2.1l-2.9-7.9c4.6-1.4 11.1-.7 18.7 3.5 14.3 7.8 20.3 20.8 20.3 30.3 0 12.2-8.9 17.3-22.8 23.1l-5.3 2v.2l29.7 16.2v7.4L2160.2 1306.4zM2240.2 1350v-18l-30.8-16.7v-5.9l29.5-26.2 9.7 5.3v41.1l9.3 5v7l-9.3-5v18L2240.2 1350zM2240.2 1324.9v-22.1c0-3.5.1-6.9.3-10.2l-.3-.2c-2 2.8-3.7 4.7-5.5 6.8l-16.2 13.7v.2L2240.2 1324.9z"/><path fill="#cbcbcb" d="M2287.7 1103.7l-181.8-102.9c-2.6-1.5-4.8-4.9-4.8-7.5V992c0-2.6 2.2-3.6 4.8-2.1l181.8 102.9c2.6 1.5 4.8 4.9 4.8 7.5v1.3C2292.5 1104.2 2290.3 1105.2 2287.7 1103.7zM2287 1134.9l-233.8-132.4c-3-1.7-5.4-5.5-5.4-8.5l0 0c0-3 2.4-4.1 5.4-2.4L2287 1124c3 1.7 5.4 5.5 5.4 8.5l0 0C2292.5 1135.5 2290 1136.6 2287 1134.9zM2287 1166.4L2053.2 1034c-3-1.7-5.4-5.5-5.4-8.5l0 0c0-3 2.4-4.1 5.4-2.4l233.8 132.4c3 1.7 5.4 5.5 5.4 8.5l0 0C2292.5 1167 2290 1168.1 2287 1166.4zM2287 1197.9l-233.8-132.4c-3-1.7-5.4-5.5-5.4-8.5l0 0c0-3 2.4-4.1 5.4-2.4l233.8 132.4c3 1.7 5.4 5.5 5.4 8.5l0 0C2292.5 1198.6 2290 1199.6 2287 1197.9zM2229 1196.6l-176.5-99.9c-2.6-1.5-4.7-4.8-4.7-7.4v-1.4c0-2.6 2.1-3.5 4.7-2.1l176.5 99.9c2.6 1.5 4.7 4.8 4.7 7.4v1.4C2233.7 1197.2 2231.6 1198.1 2229 1196.6zM2293.4 1436.6l-181.8-102.9c-2.6-1.5-4.8-4.9-4.8-7.5v-1.3c0-2.6 2.2-3.6 4.8-2.1l181.8 102.9c2.6 1.5 4.8 4.9 4.8 7.5v1.3C2298.2 1437.2 2296 1438.1 2293.4 1436.6z"/><linearGradient id="d" x1="2054.143" x2="2278.592" y1="-14.415" y2="-14.415" gradientTransform="matrix(1 .5789 0 1 0 275.291)" gradientUnits="userSpaceOnUse"><stop offset="0" stop-color="#fe7f0a"/><stop offset="1" stop-color="#ffb538"/></linearGradient><path fill="url(#d)" d="M2250,1594.2l-167.2-96.8c-15.7-9.1-28.6-29.4-28.6-45.2v-4.6c0-15.7,12.9-21.2,28.6-12.1l167.2,96.8     c15.7,9.1,28.6,29.4,28.6,45.2v4.6C2278.6,1597.9,2265.7,1603.3,2250,1594.2z"/><path fill="#fff" d="M2129.2 1481.5c1.6.7 3.6 1.6 5.7 2.8 3.9 2.2 6.7 4.9 8.5 8 1.9 3.1 3 6.5 3 10.5 0 4-1.1 6.6-3 7.8-2 1.2-5.2.5-9.3-1.8-1.9-1.1-3.5-2.2-4.9-3.1V1481.5zM2131.9 1504.6c.7.5 1.7 1.2 2.7 1.8 5.8 3.3 8.9 1.4 8.9-5.2 0-5.7-2.8-11-8.5-14.3-1.4-.8-2.5-1.3-3.2-1.5V1504.6zM2167.8 1515.5c0 8.4-4.4 10.3-9.7 7.2-5.5-3.2-9.4-10.5-9.4-17.8 0-7.8 4.1-10.4 9.7-7.2C2164.1 1501 2167.8 1508.2 2167.8 1515.5zM2151.5 1506.4c0 5.2 2.4 11.3 6.7 13.8 4.3 2.5 6.7-.7 6.7-6.3 0-4.9-2.2-11.2-6.7-13.8C2153.8 1497.6 2151.5 1501.1 2151.5 1506.4zM2171.3 1530v-24.4l3 1.7 6.7 16.2c1.6 3.8 2.8 7 3.8 10.1l.1 0c-.2-3.4-.3-6.4-.3-10.2v-10.2l2.5 1.5v24.4l-2.7-1.6-6.7-16.2c-1.5-3.6-2.9-7.2-3.9-10.4l-.1 0c.2 3.2.2 6.1.2 10.2v10.4L2171.3 1530zM2202.6 1536.6l-8.1-4.7v8.8l9.1 5.3v2.6l-11.8-6.8v-24.4l11.3 6.5v2.6l-8.6-5v7.7l8.1 4.7V1536.6z"/><g><linearGradient id="e" x1="1279.885" x2="1382.969" y1="611.253" y2="888.565" gradientUnits="userSpaceOnUse"><stop offset="0" stop-color="#444"/><stop offset=".117" stop-color="#767676"/><stop offset=".36" stop-color="#fff"/><stop offset=".718" stop-color="#5c5c5c"/><stop offset="1" stop-color="#7f7f7f"/></linearGradient><path fill="url(#e)" d="M1565.9,1253.4l137.7-630.2c6-27.2-6.4-55.2-30.6-69.1l-518.5-299.2c-22.6-13-51.3-0.3-56.9,25.2L963.1,896     c-4.1,18.6,4.2,37.6,20.5,47.4l545.2,326.1C1543.4,1278.2,1562.3,1270,1565.9,1253.4z"/><linearGradient id="f" x1="1289.994" x2="875.138" y1="1270.997" y2="1270.997" gradientUnits="userSpaceOnUse"><stop offset="0" stop-color="#7f7f7f"/><stop offset="1" stop-color="#444"/></linearGradient><path fill="url(#f)" d="M1112.6,1572.7l394-226.8c11.9-6.9,12.2-23.9,0.5-31l-562-344.5c-16.3-10-36.8-10.2-53.4-0.7L510,1189.4       c-16.9,9.7-17.3,33.9-0.7,44l552.3,338.6C1077.2,1581.6,1096.7,1581.8,1112.6,1572.7z"/><linearGradient id="g" x1="1289.994" x2="875.138" y1="1269.594" y2="1269.594" gradientUnits="userSpaceOnUse"><stop offset="0" stop-color="#fbfbfb"/><stop offset="1" stop-color="#e5e5e5"/></linearGradient><path fill="url(#g)" d="M1112.6,1571.3l394-226.8c11.9-6.9,12.2-23.9,0.5-31l-562-344.5c-16.3-10-36.8-10.2-53.4-0.7L510,1188       c-16.9,9.7-17.3,33.9-0.7,44l552.3,338.6C1077.2,1580.2,1096.7,1580.4,1112.6,1571.3z"/><linearGradient id="h" x1="413.388" x2="1413.341" y1="1179.995" y2="1179.995" gradientTransform="matrix(1.0186 -.00426 .00002 1.0149 76.005 49.94)" gradientUnits="userSpaceOnUse"><stop offset="0" stop-color="#fbfbfb"/><stop offset="1" stop-color="#e5e5e5"/></linearGradient><path fill="url(#h)" d="M1112.6,1545.3l394-226.8c11.9-6.9,12.2-23.9,0.5-31L945.2,943c-16.3-10-36.8-10.2-53.4-0.7L510,1162       c-16.9,9.7-17.3,33.9-0.7,44l552.3,338.6C1077.2,1554.2,1096.7,1554.5,1112.6,1545.3z"/><path fill="#fff" d="M1506.6,1317.5l-394,226.8c-15.9,9.1-35.4,8.9-51-0.6L509.3,1205c-8.1-5-12.1-13.2-12.1-21.6       c-0.3,8.7,3.7,17.5,12.1,22.6l552.3,338.6c15.6,9.5,35.1,9.8,51,0.6l394-226.8c6.2-3.5,9.1-9.8,9-16       C1515.4,1308.4,1512.4,1314.2,1506.6,1317.5z"/><linearGradient id="i" x1="11429.357" x2="11343.663" y1="12653.805" y2="12653.805" gradientTransform="matrix(.3199 -.00001 .00003 .3199 -2708.935 -3041.32)" gradientUnits="userSpaceOnUse"><stop offset="0" stop-color="#7f7f7f"/><stop offset="1" stop-color="#444"/></linearGradient><path fill="url(#i)" d="M934.3,1025.6l24.5-14.2c3.7-2.1,5.3-13.1,1.7-15.3l-23.1-7.5c-5.1-3.1-11.4-3.2-16.6-0.2l-22.3,6.2         c-5.3,3-3.7,16.3,1.4,19.5l18.5,11.3C923.3,1028.4,929.4,1028.4,934.3,1025.6z"/><linearGradient id="j" x1="10987.487" x2="11188.482" y1="12443.332" y2="12443.332" gradientTransform="matrix(.3258 -.00137 .00004 .3247 -2684.62 -3025.343)" gradientUnits="userSpaceOnUse"><stop offset="0" stop-color="#7f7f7f"/><stop offset="1" stop-color="#444"/></linearGradient><path fill="url(#j)" d="M934.3,1018.6l24.5-14.2c3.7-2.1,3.8-7.4,0.2-9.7l-21.5-13.1c-5.1-3.1-11.4-3.2-16.6-0.2l-20.7,12         c-5.3,3-5.4,10.5-0.2,13.7l18.5,11.3C923.3,1021.3,929.4,1021.4,934.3,1018.6z"/><linearGradient id="k" x1="11585.762" x2="11500.068" y1="12751.056" y2="12751.056" gradientTransform="matrix(.3199 -.00001 .00003 .3199 -2708.935 -3041.32)" gradientUnits="userSpaceOnUse"><stop offset="0" stop-color="#7f7f7f"/><stop offset="1" stop-color="#444"/></linearGradient><path fill="url(#k)" d="M984.4,1056.7l24.5-14.2c3.7-2.1,5.3-13.1,1.7-15.3l-23.1-7.5c-5.1-3.1-11.4-3.2-16.6-0.2l-22.3,6.2         c-5.3,3-3.7,16.3,1.4,19.5l18.5,11.3C973.3,1059.5,979.4,1059.6,984.4,1056.7z"/><linearGradient id="l" x1="11141.03" x2="11342.025" y1="12539.797" y2="12539.797" gradientTransform="matrix(.3258 -.00137 .00004 .3247 -2684.62 -3025.343)" gradientUnits="userSpaceOnUse"><stop offset="0" stop-color="#7f7f7f"/><stop offset="1" stop-color="#444"/></linearGradient><path fill="url(#l)" d="M984.4,1049.7l24.5-14.2c3.7-2.1,3.8-7.4,0.2-9.7l-21.5-13.1c-5.1-3.1-11.4-3.2-16.6-0.2l-20.7,12         c-5.3,3-5.4,10.5-0.2,13.7l18.5,11.3C973.3,1052.4,979.4,1052.5,984.4,1049.7z"/><linearGradient id="m" x1="11742.167" x2="11656.474" y1="12848.306" y2="12848.306" gradientTransform="matrix(.3199 -.00001 .00003 .3199 -2708.935 -3041.32)" gradientUnits="userSpaceOnUse"><stop offset="0" stop-color="#7f7f7f"/><stop offset="1" stop-color="#444"/></linearGradient><path fill="url(#m)" d="M1034.4,1087.8l24.5-14.2c3.7-2.1,5.3-13.1,1.7-15.3l-23.1-7.5c-5.1-3.1-11.4-3.2-16.6-0.2l-22.3,6.2         c-5.3,3-3.7,16.3,1.4,19.5l18.5,11.3C1023.4,1090.6,1029.5,1090.7,1034.4,1087.8z"/><linearGradient id="n" x1="11294.574" x2="11495.568" y1="12636.262" y2="12636.262" gradientTransform="matrix(.3258 -.00137 .00004 .3247 -2684.62 -3025.343)" gradientUnits="userSpaceOnUse"><stop offset="0" stop-color="#7f7f7f"/><stop offset="1" stop-color="#444"/></linearGradient><path fill="url(#n)" d="M1034.4,1080.8l24.5-14.2c3.7-2.1,3.8-7.4,0.2-9.7l-21.5-13.1c-5.1-3.1-11.4-3.2-16.6-0.2l-20.7,12         c-5.3,3-5.4,10.5-0.2,13.7l18.5,11.3C1023.4,1083.5,1029.5,1083.6,1034.4,1080.8z"/><linearGradient id="o" x1="11898.571" x2="11812.878" y1="12945.557" y2="12945.557" gradientTransform="matrix(.3199 -.00001 .00003 .3199 -2708.935 -3041.32)" gradientUnits="userSpaceOnUse"><stop offset="0" stop-color="#7f7f7f"/><stop offset="1" stop-color="#444"/></linearGradient><path fill="url(#o)" d="M1084.4,1118.9l24.5-14.2c3.7-2.1,5.3-13.1,1.7-15.3l-23.1-7.5c-5.1-3.1-11.4-3.2-16.6-0.2l-22.3,6.2         c-5.3,3-3.7,16.3,1.4,19.5l18.5,11.3C1073.4,1121.7,1079.5,1121.8,1084.4,1118.9z"/><linearGradient id="p" x1="11448.117" x2="11649.112" y1="12732.727" y2="12732.727" gradientTransform="matrix(.3258 -.00137 .00004 .3247 -2684.62 -3025.343)" gradientUnits="userSpaceOnUse"><stop offset="0" stop-color="#7f7f7f"/><stop offset="1" stop-color="#444"/></linearGradient><path fill="url(#p)" d="M1084.4,1111.9l24.5-14.2c3.7-2.1,3.8-7.4,0.2-9.7l-21.5-13.1c-5.1-3.1-11.4-3.2-16.6-0.2l-20.7,12         c-5.3,3-5.4,10.5-0.2,13.7l18.5,11.3C1073.4,1114.7,1079.5,1114.7,1084.4,1111.9z"/><linearGradient id="q" x1="12054.977" x2="11969.283" y1="13042.808" y2="13042.808" gradientTransform="matrix(.3199 -.00001 .00003 .3199 -2708.935 -3041.32)" gradientUnits="userSpaceOnUse"><stop offset="0" stop-color="#7f7f7f"/><stop offset="1" stop-color="#444"/></linearGradient><path fill="url(#q)" d="M1134.5,1150.1l24.5-14.2c3.7-2.1,5.3-13.1,1.7-15.3l-23.1-7.5c-5.1-3.1-11.4-3.2-16.6-0.2l-22.3,6.2         c-5.3,3-3.7,16.3,1.4,19.5l18.5,11.3C1123.4,1152.8,1129.5,1152.9,1134.5,1150.1z"/><linearGradient id="r" x1="11601.66" x2="11802.655" y1="12829.191" y2="12829.191" gradientTransform="matrix(.3258 -.00137 .00004 .3247 -2684.62 -3025.343)" gradientUnits="userSpaceOnUse"><stop offset="0" stop-color="#7f7f7f"/><stop offset="1" stop-color="#444"/></linearGradient><path fill="url(#r)" d="M1134.5,1143l24.5-14.2c3.7-2.1,3.8-7.4,0.2-9.7l-21.5-13.1c-5.1-3.1-11.4-3.2-16.6-0.2l-20.7,12         c-5.3,3-5.4,10.5-0.2,13.7l18.5,11.3C1123.4,1145.8,1129.5,1145.8,1134.5,1143z"/><linearGradient id="s" x1="12211.382" x2="12125.688" y1="13140.058" y2="13140.058" gradientTransform="matrix(.3199 -.00001 .00003 .3199 -2708.935 -3041.32)" gradientUnits="userSpaceOnUse"><stop offset="0" stop-color="#7f7f7f"/><stop offset="1" stop-color="#444"/></linearGradient><path fill="url(#s)" d="M1184.5,1181.2l24.5-14.2c3.7-2.1,5.3-13.1,1.7-15.3l-23.1-7.5c-5.1-3.1-11.4-3.2-16.6-0.2l-22.3,6.2         c-5.3,3-3.7,16.3,1.4,19.5l18.5,11.3C1173.5,1183.9,1179.6,1184,1184.5,1181.2z"/><linearGradient id="t" x1="11755.203" x2="11956.198" y1="12925.656" y2="12925.656" gradientTransform="matrix(.3258 -.00137 .00004 .3247 -2684.62 -3025.343)" gradientUnits="userSpaceOnUse"><stop offset="0" stop-color="#7f7f7f"/><stop offset="1" stop-color="#444"/></linearGradient><path fill="url(#t)" d="M1184.5,1174.1l24.5-14.2c3.7-2.1,3.8-7.4,0.2-9.7l-21.5-13.1c-5.1-3.1-11.4-3.2-16.6-0.2l-20.7,12         c-5.3,3-5.4,10.5-0.2,13.7l18.5,11.3C1173.5,1176.9,1179.6,1177,1184.5,1174.1z"/><g><linearGradient id="u" x1="12367.786" x2="12282.093" y1="13237.309" y2="13237.309" gradientTransform="matrix(.3199 -.00001 .00003 .3199 -2708.935 -3041.32)" gradientUnits="userSpaceOnUse"><stop offset="0" stop-color="#7f7f7f"/><stop offset="1" stop-color="#444"/></linearGradient><path fill="url(#u)" d="M1234.5,1212.3l24.5-14.2c3.7-2.1,5.3-13.1,1.7-15.3l-23.1-7.5c-5.1-3.1-11.4-3.2-16.6-0.2l-22.3,6.2         c-5.3,3-3.7,16.3,1.4,19.5l18.5,11.3C1223.5,1215,1229.6,1215.1,1234.5,1212.3z"/><linearGradient id="v" x1="11908.747" x2="12109.742" y1="13022.121" y2="13022.121" gradientTransform="matrix(.3258 -.00137 .00004 .3247 -2684.62 -3025.343)" gradientUnits="userSpaceOnUse"><stop offset="0" stop-color="#7f7f7f"/><stop offset="1" stop-color="#444"/></linearGradient><path fill="url(#v)" d="M1234.5,1205.2l24.5-14.2c3.7-2.1,3.8-7.4,0.2-9.7l-21.5-13.1c-5.1-3.1-11.4-3.2-16.6-0.2l-20.7,12         c-5.3,3-5.4,10.5-0.2,13.7l18.5,11.3C1223.5,1208,1229.6,1208.1,1234.5,1205.2z"/></g><g><linearGradient id="w" x1="12524.191" x2="12438.498" y1="13334.56" y2="13334.56" gradientTransform="matrix(.3199 -.00001 .00003 .3199 -2708.935 -3041.32)" gradientUnits="userSpaceOnUse"><stop offset="0" stop-color="#7f7f7f"/><stop offset="1" stop-color="#444"/></linearGradient><path fill="url(#w)" d="M1284.6,1243.4l24.5-14.2c3.7-2.1,5.3-13.1,1.7-15.3l-23.1-7.5c-5.1-3.1-11.4-3.2-16.6-0.2l-22.3,6.2         c-5.3,3-3.7,16.3,1.4,19.5l18.5,11.3C1273.6,1246.2,1279.6,1246.2,1284.6,1243.4z"/><linearGradient id="x" x1="12062.29" x2="12263.285" y1="13118.586" y2="13118.586" gradientTransform="matrix(.3258 -.00137 .00004 .3247 -2684.62 -3025.343)" gradientUnits="userSpaceOnUse"><stop offset="0" stop-color="#7f7f7f"/><stop offset="1" stop-color="#444"/></linearGradient><path fill="url(#x)" d="M1284.6,1236.3l24.5-14.2c3.7-2.1,3.8-7.4,0.2-9.7l-21.5-13.1c-5.1-3.1-11.4-3.2-16.6-0.2l-20.7,12         c-5.3,3-5.4,10.5-0.2,13.7l18.5,11.3C1273.5,1239.1,1279.6,1239.2,1284.6,1236.3z"/></g><g><linearGradient id="y" x1="12680.597" x2="12594.902" y1="13431.81" y2="13431.81" gradientTransform="matrix(.3199 -.00001 .00003 .3199 -2708.935 -3041.32)" gradientUnits="userSpaceOnUse"><stop offset="0" stop-color="#7f7f7f"/><stop offset="1" stop-color="#444"/></linearGradient><path fill="url(#y)" d="M1334.6,1274.5l24.5-14.2c3.7-2.1,5.3-13.1,1.7-15.3l-23.1-7.5c-5.1-3.1-11.4-3.2-16.6-0.2l-22.3,6.2         c-5.3,3-3.7,16.3,1.4,19.5l18.5,11.3C1323.6,1277.3,1329.7,1277.3,1334.6,1274.5z"/><linearGradient id="z" x1="12215.833" x2="12416.828" y1="13215.051" y2="13215.051" gradientTransform="matrix(.3258 -.00137 .00004 .3247 -2684.62 -3025.343)" gradientUnits="userSpaceOnUse"><stop offset="0" stop-color="#7f7f7f"/><stop offset="1" stop-color="#444"/></linearGradient><path fill="url(#z)" d="M1334.6,1267.5l24.5-14.2c3.7-2.1,3.8-7.4,0.2-9.7l-21.5-13.1c-5.1-3.1-11.4-3.2-16.6-0.2l-20.7,12         c-5.3,3-5.4,10.5-0.2,13.7l18.5,11.3C1323.6,1270.2,1329.7,1270.3,1334.6,1267.5z"/></g><g><linearGradient id="A" x1="12837.001" x2="12751.308" y1="13529.06" y2="13529.06" gradientTransform="matrix(.3199 -.00001 .00003 .3199 -2708.935 -3041.32)" gradientUnits="userSpaceOnUse"><stop offset="0" stop-color="#7f7f7f"/><stop offset="1" stop-color="#444"/></linearGradient><path fill="url(#A)" d="M1384.7,1305.6l24.5-14.2c3.7-2.1,5.3-13.1,1.7-15.3l-23.1-7.5c-5.1-3.1-11.4-3.2-16.6-0.2l-22.3,6.2         c-5.3,3-3.7,16.3,1.4,19.5l18.5,11.3C1373.6,1308.4,1379.7,1308.5,1384.7,1305.6z"/><linearGradient id="B" x1="12369.376" x2="12570.371" y1="13311.516" y2="13311.516" gradientTransform="matrix(.3258 -.00137 .00004 .3247 -2684.62 -3025.343)" gradientUnits="userSpaceOnUse"><stop offset="0" stop-color="#7f7f7f"/><stop offset="1" stop-color="#444"/></linearGradient><path fill="url(#B)" d="M1384.7,1298.6l24.5-14.2c3.7-2.1,3.8-7.4,0.2-9.7l-21.5-13.1c-5.1-3.1-11.4-3.2-16.6-0.2l-20.7,12         c-5.3,3-5.4,10.5-0.2,13.7l18.5,11.3C1373.6,1301.3,1379.7,1301.4,1384.7,1298.6z"/></g><g><linearGradient id="C" x1="11248.772" x2="11163.078" y1="12756.115" y2="12756.115" gradientTransform="matrix(.3199 -.00001 .00003 .3199 -2708.935 -3041.32)" gradientUnits="userSpaceOnUse"><stop offset="0" stop-color="#7f7f7f"/><stop offset="1" stop-color="#444"/></linearGradient><path fill="url(#C)" d="M876.6,1058.3l24.5-14.2c3.7-2.1,5.3-13.1,1.7-15.3l-23.1-7.5c-5.1-3.1-11.4-3.2-16.6-0.2l-22.3,6.2         c-5.3,3-3.7,16.3,1.4,19.5l18.5,11.3C865.5,1061.1,871.6,1061.2,876.6,1058.3z"/><linearGradient id="D" x1="10810.201" x2="11011.196" y1="12543.394" y2="12543.394" gradientTransform="matrix(.3258 -.00137 .00004 .3247 -2684.62 -3025.343)" gradientUnits="userSpaceOnUse"><stop offset="0" stop-color="#7f7f7f"/><stop offset="1" stop-color="#444"/></linearGradient><path fill="url(#D)" d="M876.6,1051.3l24.5-14.2c3.7-2.1,3.8-7.4,0.2-9.7l-21.5-13.1c-5.1-3.1-11.4-3.2-16.6-0.2l-20.7,12         c-5.3,3-5.4,10.5-0.2,13.7l18.5,11.3C865.5,1054.1,871.6,1054.1,876.6,1051.3z"/><linearGradient id="E" x1="11405.177" x2="11319.483" y1="12853.365" y2="12853.365" gradientTransform="matrix(.3199 -.00001 .00003 .3199 -2708.935 -3041.32)" gradientUnits="userSpaceOnUse"><stop offset="0" stop-color="#7f7f7f"/><stop offset="1" stop-color="#444"/></linearGradient><path fill="url(#E)" d="M926.6,1089.5l24.5-14.2c3.7-2.1,5.3-13.1,1.7-15.3l-23.1-7.5c-5.1-3.1-11.4-3.2-16.6-0.2l-22.3,6.2         c-5.3,3-3.7,16.3,1.4,19.5l18.5,11.3C915.6,1092.2,921.7,1092.3,926.6,1089.5z"/><linearGradient id="F" x1="10963.744" x2="11164.739" y1="12639.859" y2="12639.859" gradientTransform="matrix(.3258 -.00137 .00004 .3247 -2684.62 -3025.343)" gradientUnits="userSpaceOnUse"><stop offset="0" stop-color="#7f7f7f"/><stop offset="1" stop-color="#444"/></linearGradient><path fill="url(#F)" d="M926.6,1082.4l24.5-14.2c3.7-2.1,3.8-7.4,0.2-9.7l-21.5-13.1c-5.1-3.1-11.4-3.2-16.6-0.2l-20.7,12         c-5.3,3-5.4,10.5-0.2,13.7l18.5,11.3C915.6,1085.2,921.7,1085.2,926.6,1082.4z"/><linearGradient id="G" x1="11561.582" x2="11475.888" y1="12950.616" y2="12950.616" gradientTransform="matrix(.3199 -.00001 .00003 .3199 -2708.935 -3041.32)" gradientUnits="userSpaceOnUse"><stop offset="0" stop-color="#7f7f7f"/><stop offset="1" stop-color="#444"/></linearGradient><path fill="url(#G)" d="M976.6,1120.6l24.5-14.2c3.7-2.1,5.3-13.1,1.7-15.3l-23.1-7.5c-5.1-3.1-11.4-3.2-16.6-0.2l-22.3,6.2         c-5.3,3-3.7,16.3,1.4,19.5l18.5,11.3C965.6,1123.3,971.7,1123.4,976.6,1120.6z"/><linearGradient id="H" x1="11117.288" x2="11318.282" y1="12736.324" y2="12736.324" gradientTransform="matrix(.3258 -.00137 .00004 .3247 -2684.62 -3025.343)" gradientUnits="userSpaceOnUse"><stop offset="0" stop-color="#7f7f7f"/><stop offset="1" stop-color="#444"/></linearGradient><path fill="url(#H)" d="M976.6,1113.5l24.5-14.2c3.7-2.1,3.8-7.4,0.2-9.7l-21.5-13.1c-5.1-3.1-11.4-3.2-16.6-0.2l-20.7,12         c-5.3,3-5.4,10.5-0.2,13.7l18.5,11.3C965.6,1116.3,971.7,1116.4,976.6,1113.5z"/><linearGradient id="I" x1="11717.986" x2="11632.293" y1="13047.867" y2="13047.867" gradientTransform="matrix(.3199 -.00001 .00003 .3199 -2708.935 -3041.32)" gradientUnits="userSpaceOnUse"><stop offset="0" stop-color="#7f7f7f"/><stop offset="1" stop-color="#444"/></linearGradient><path fill="url(#I)" d="M1026.7,1151.7l24.5-14.2c3.7-2.1,5.3-13.1,1.7-15.3l-23.1-7.5c-5.1-3.1-11.4-3.2-16.6-0.2l-22.3,6.2         c-5.3,3-3.7,16.3,1.4,19.5l18.5,11.3C1015.6,1154.4,1021.7,1154.5,1026.7,1151.7z"/><linearGradient id="J" x1="11270.831" x2="11471.826" y1="12832.789" y2="12832.789" gradientTransform="matrix(.3258 -.00137 .00004 .3247 -2684.62 -3025.343)" gradientUnits="userSpaceOnUse"><stop offset="0" stop-color="#7f7f7f"/><stop offset="1" stop-color="#444"/></linearGradient><path fill="url(#J)" d="M1026.7,1144.6l24.5-14.2c3.7-2.1,3.8-7.4,0.2-9.7l-21.5-13.1c-5.1-3.1-11.4-3.2-16.6-0.2l-20.7,12         c-5.3,3-5.4,10.5-0.2,13.7l18.5,11.3C1015.6,1147.4,1021.7,1147.5,1026.7,1144.6z"/><linearGradient id="K" x1="11874.392" x2="11788.698" y1="13145.117" y2="13145.117" gradientTransform="matrix(.3199 -.00001 .00003 .3199 -2708.935 -3041.32)" gradientUnits="userSpaceOnUse"><stop offset="0" stop-color="#7f7f7f"/><stop offset="1" stop-color="#444"/></linearGradient><path fill="url(#K)" d="M1076.7,1182.8l24.5-14.2c3.7-2.1,5.3-13.1,1.7-15.3l-23.1-7.5c-5.1-3.1-11.4-3.2-16.6-0.2l-22.3,6.2         c-5.3,3-3.7,16.3,1.4,19.5l18.5,11.3C1065.7,1185.6,1071.8,1185.6,1076.7,1182.8z"/><linearGradient id="L" x1="11424.374" x2="11625.369" y1="12929.254" y2="12929.254" gradientTransform="matrix(.3258 -.00137 .00004 .3247 -2684.62 -3025.343)" gradientUnits="userSpaceOnUse"><stop offset="0" stop-color="#7f7f7f"/><stop offset="1" stop-color="#444"/></linearGradient><path fill="url(#L)" d="M1076.7,1175.7l24.5-14.2c3.7-2.1,3.8-7.4,0.2-9.7l-21.5-13.1c-5.1-3.1-11.4-3.2-16.6-0.2l-20.7,12         c-5.3,3-5.4,10.5-0.2,13.7l18.5,11.3C1065.7,1178.5,1071.8,1178.6,1076.7,1175.7z"/><g><linearGradient id="M" x1="12030.797" x2="11945.103" y1="13242.368" y2="13242.368" gradientTransform="matrix(.3199 -.00001 .00003 .3199 -2708.935 -3041.32)" gradientUnits="userSpaceOnUse"><stop offset="0" stop-color="#7f7f7f"/><stop offset="1" stop-color="#444"/></linearGradient><path fill="url(#M)" d="M1126.7,1213.9l24.5-14.2c3.7-2.1,5.3-13.1,1.7-15.3l-23.1-7.5c-5.1-3.1-11.4-3.2-16.6-0.2l-22.3,6.2         c-5.3,3-3.7,16.3,1.4,19.5l18.5,11.3C1115.7,1216.7,1121.8,1216.7,1126.7,1213.9z"/><linearGradient id="N" x1="11577.917" x2="11778.912" y1="13025.719" y2="13025.719" gradientTransform="matrix(.3258 -.00137 .00004 .3247 -2684.62 -3025.343)" gradientUnits="userSpaceOnUse"><stop offset="0" stop-color="#7f7f7f"/><stop offset="1" stop-color="#444"/></linearGradient><path fill="url(#N)" d="M1126.7,1206.9l24.5-14.2c3.7-2.1,3.8-7.4,0.2-9.7l-21.5-13.1c-5.1-3.1-11.4-3.2-16.6-0.2l-20.7,12         c-5.3,3-5.4,10.5-0.2,13.7l18.5,11.3C1115.7,1209.6,1121.8,1209.7,1126.7,1206.9z"/></g><g><linearGradient id="O" x1="12187.201" x2="12101.508" y1="13339.619" y2="13339.619" gradientTransform="matrix(.3199 -.00001 .00003 .3199 -2708.935 -3041.32)" gradientUnits="userSpaceOnUse"><stop offset="0" stop-color="#7f7f7f"/><stop offset="1" stop-color="#444"/></linearGradient><path fill="url(#O)" d="M1176.8,1245l24.5-14.2c3.7-2.1,5.3-13.1,1.7-15.3l-23.1-7.5c-5.1-3.1-11.4-3.2-16.6-0.2l-22.3,6.2         c-5.3,3-3.7,16.3,1.4,19.5l18.5,11.3C1165.7,1247.8,1171.8,1247.9,1176.8,1245z"/><linearGradient id="P" x1="11731.461" x2="11932.456" y1="13122.184" y2="13122.184" gradientTransform="matrix(.3258 -.00137 .00004 .3247 -2684.62 -3025.343)" gradientUnits="userSpaceOnUse"><stop offset="0" stop-color="#7f7f7f"/><stop offset="1" stop-color="#444"/></linearGradient><path fill="url(#P)" d="M1176.8,1238l24.5-14.2c3.7-2.1,3.8-7.4,0.2-9.7l-21.5-13.1c-5.1-3.1-11.4-3.2-16.6-0.2l-20.7,12         c-5.3,3-5.4,10.5-0.2,13.7l18.5,11.3C1165.7,1240.7,1171.8,1240.8,1176.8,1238z"/></g><g><linearGradient id="Q" x1="12343.606" x2="12257.913" y1="13436.87" y2="13436.87" gradientTransform="matrix(.3199 -.00001 .00003 .3199 -2708.935 -3041.32)" gradientUnits="userSpaceOnUse"><stop offset="0" stop-color="#7f7f7f"/><stop offset="1" stop-color="#444"/></linearGradient><path fill="url(#Q)" d="M1226.8,1276.1l24.5-14.2c3.7-2.1,5.3-13.1,1.7-15.3l-23.1-7.5c-5.1-3.1-11.4-3.2-16.6-0.2l-22.3,6.2         c-5.3,3-3.7,16.3,1.4,19.5l18.5,11.3C1215.8,1278.9,1221.9,1279,1226.8,1276.1z"/><linearGradient id="R" x1="11885.004" x2="12085.999" y1="13218.648" y2="13218.648" gradientTransform="matrix(.3258 -.00137 .00004 .3247 -2684.62 -3025.343)" gradientUnits="userSpaceOnUse"><stop offset="0" stop-color="#7f7f7f"/><stop offset="1" stop-color="#444"/></linearGradient><path fill="url(#R)" d="M1226.8,1269.1l24.5-14.2c3.7-2.1,3.8-7.4,0.2-9.7l-21.5-13.1c-5.1-3.1-11.4-3.2-16.6-0.2l-20.7,12         c-5.3,3-5.4,10.5-0.2,13.7l18.5,11.3C1215.8,1271.8,1221.9,1271.9,1226.8,1269.1z"/></g><g><linearGradient id="S" x1="12500.011" x2="12414.317" y1="13534.12" y2="13534.12" gradientTransform="matrix(.3199 -.00001 .00003 .3199 -2708.935 -3041.32)" gradientUnits="userSpaceOnUse"><stop offset="0" stop-color="#7f7f7f"/><stop offset="1" stop-color="#444"/></linearGradient><path fill="url(#S)" d="M1276.9,1307.2l24.5-14.2c3.7-2.1,5.3-13.1,1.7-15.3l-23.1-7.5c-5.1-3.1-11.4-3.2-16.6-0.2l-22.3,6.2         c-5.3,3-3.7,16.3,1.4,19.5l18.5,11.3C1265.8,1310,1271.9,1310.1,1276.9,1307.2z"/><linearGradient id="T" x1="12038.547" x2="12239.542" y1="13315.113" y2="13315.113" gradientTransform="matrix(.3258 -.00137 .00004 .3247 -2684.62 -3025.343)" gradientUnits="userSpaceOnUse"><stop offset="0" stop-color="#7f7f7f"/><stop offset="1" stop-color="#444"/></linearGradient><path fill="url(#T)" d="M1276.9,1300.2l24.5-14.2c3.7-2.1,3.8-7.4,0.2-9.7l-21.5-13.1c-5.1-3.1-11.4-3.2-16.6-0.2l-20.7,12         c-5.3,3-5.4,10.5-0.2,13.7l18.5,11.3C1265.8,1303,1271.9,1303,1276.9,1300.2z"/></g><g><linearGradient id="U" x1="12656.416" x2="12570.723" y1="13631.371" y2="13631.371" gradientTransform="matrix(.3199 -.00001 .00003 .3199 -2708.935 -3041.32)" gradientUnits="userSpaceOnUse"><stop offset="0" stop-color="#7f7f7f"/><stop offset="1" stop-color="#444"/></linearGradient><path fill="url(#U)" d="M1326.9,1338.3l24.5-14.2c3.7-2.1,5.3-13.1,1.7-15.3l-23.1-7.5c-5.1-3.1-11.4-3.2-16.6-0.2l-22.3,6.2         c-5.3,3-3.7,16.3,1.4,19.5l18.5,11.3C1315.9,1341.1,1322,1341.2,1326.9,1338.3z"/><linearGradient id="V" x1="12192.09" x2="12393.085" y1="13411.578" y2="13411.578" gradientTransform="matrix(.3258 -.00137 .00004 .3247 -2684.62 -3025.343)" gradientUnits="userSpaceOnUse"><stop offset="0" stop-color="#7f7f7f"/><stop offset="1" stop-color="#444"/></linearGradient><path fill="url(#V)" d="M1326.9,1331.3l24.5-14.2c3.7-2.1,3.8-7.4,0.2-9.7l-21.5-13.1c-5.1-3.1-11.4-3.2-16.6-0.2l-20.7,12         c-5.3,3-5.4,10.5-0.2,13.7l18.5,11.3C1315.9,1334.1,1322,1334.1,1326.9,1331.3z"/></g></g><g><linearGradient id="W" x1="11068.186" x2="10982.493" y1="12858.425" y2="12858.425" gradientTransform="matrix(.3199 -.00001 .00003 .3199 -2708.935 -3041.32)" gradientUnits="userSpaceOnUse"><stop offset="0" stop-color="#7f7f7f"/><stop offset="1" stop-color="#444"/></linearGradient><path fill="url(#W)" d="M818.8,1091.1l24.5-14.2c3.7-2.1,5.3-13.1,1.7-15.3l-23.1-7.5c-5.1-3.1-11.4-3.2-16.6-0.2l-22.3,6.2         c-5.3,3-3.7,16.3,1.4,19.5l18.5,11.3C807.8,1093.8,813.9,1093.9,818.8,1091.1z"/><linearGradient id="X" x1="10632.915" x2="10833.91" y1="12643.456" y2="12643.456" gradientTransform="matrix(.3258 -.00137 .00004 .3247 -2684.62 -3025.343)" gradientUnits="userSpaceOnUse"><stop offset="0" stop-color="#7f7f7f"/><stop offset="1" stop-color="#444"/></linearGradient><path fill="url(#X)" d="M818.8,1084l24.5-14.2c3.7-2.1,3.8-7.4,0.2-9.7l-21.5-13.1c-5.1-3.1-11.4-3.2-16.6-0.2l-20.7,12         c-5.3,3-5.4,10.5-0.2,13.7l18.5,11.3C807.8,1086.8,813.9,1086.9,818.8,1084z"/><linearGradient id="Y" x1="11224.592" x2="11138.898" y1="12955.676" y2="12955.676" gradientTransform="matrix(.3199 -.00001 .00003 .3199 -2708.935 -3041.32)" gradientUnits="userSpaceOnUse"><stop offset="0" stop-color="#7f7f7f"/><stop offset="1" stop-color="#444"/></linearGradient><path fill="url(#Y)" d="M868.8,1122.2l24.5-14.2c3.7-2.1,5.3-13.1,1.7-15.3l-23.1-7.5c-5.1-3.1-11.4-3.2-16.6-0.2l-22.3,6.2         c-5.3,3-3.7,16.3,1.4,19.5L853,1122C857.8,1125,863.9,1125,868.8,1122.2z"/><linearGradient id="Z" x1="10786.458" x2="10987.453" y1="12739.921" y2="12739.921" gradientTransform="matrix(.3258 -.00137 .00004 .3247 -2684.62 -3025.343)" gradientUnits="userSpaceOnUse"><stop offset="0" stop-color="#7f7f7f"/><stop offset="1" stop-color="#444"/></linearGradient><path fill="url(#Z)" d="M868.8,1115.1l24.5-14.2c3.7-2.1,3.8-7.4,0.2-9.7l-21.5-13.1c-5.1-3.1-11.4-3.2-16.6-0.2l-20.7,12         c-5.3,3-5.4,10.5-0.2,13.7l18.5,11.3C857.8,1117.9,863.9,1118,868.8,1115.1z"/><linearGradient id="aa" x1="11380.997" x2="11295.303" y1="13052.927" y2="13052.927" gradientTransform="matrix(.3199 -.00001 .00003 .3199 -2708.935 -3041.32)" gradientUnits="userSpaceOnUse"><stop offset="0" stop-color="#7f7f7f"/><stop offset="1" stop-color="#444"/></linearGradient><path fill="url(#aa)" d="M918.9,1153.3l24.5-14.2c3.7-2.1,5.3-13.1,1.7-15.3l-23.1-7.5c-5.1-3.1-11.4-3.2-16.6-0.2l-22.3,6.2         c-5.3,3-3.7,16.3,1.4,19.5l18.5,11.3C907.8,1156.1,913.9,1156.1,918.9,1153.3z"/><linearGradient id="ab" x1="10940.002" x2="11140.996" y1="12836.386" y2="12836.386" gradientTransform="matrix(.3258 -.00137 .00004 .3247 -2684.62 -3025.343)" gradientUnits="userSpaceOnUse"><stop offset="0" stop-color="#7f7f7f"/><stop offset="1" stop-color="#444"/></linearGradient><path fill="url(#ab)" d="M918.9,1146.2l24.5-14.2c3.7-2.1,3.8-7.4,0.2-9.7l-21.5-13.1c-5.1-3.1-11.4-3.2-16.6-0.2l-20.7,12         c-5.3,3-5.4,10.5-0.2,13.7L903,1146C907.8,1149,913.9,1149.1,918.9,1146.2z"/><linearGradient id="ac" x1="11537.401" x2="11451.708" y1="13150.177" y2="13150.177" gradientTransform="matrix(.3199 -.00001 .00003 .3199 -2708.935 -3041.32)" gradientUnits="userSpaceOnUse"><stop offset="0" stop-color="#7f7f7f"/><stop offset="1" stop-color="#444"/></linearGradient><path fill="url(#ac)" d="M968.9,1184.4l24.5-14.2c3.7-2.1,5.3-13.1,1.7-15.3l-23.1-7.5c-5.1-3.1-11.4-3.2-16.6-0.2l-22.3,6.2         c-5.3,3-3.7,16.3,1.4,19.5l18.5,11.3C957.9,1187.2,964,1187.3,968.9,1184.4z"/><linearGradient id="ad" x1="11093.545" x2="11294.54" y1="12932.851" y2="12932.851" gradientTransform="matrix(.3258 -.00137 .00004 .3247 -2684.62 -3025.343)" gradientUnits="userSpaceOnUse"><stop offset="0" stop-color="#7f7f7f"/><stop offset="1" stop-color="#444"/></linearGradient><path fill="url(#ad)" d="M968.9,1177.4l24.5-14.2c3.7-2.1,3.8-7.4,0.2-9.7l-21.5-13.1c-5.1-3.1-11.4-3.2-16.6-0.2l-20.7,12         c-5.3,3-5.4,10.5-0.2,13.7l18.5,11.3C957.9,1180.1,964,1180.2,968.9,1177.4z"/><linearGradient id="ae" x1="11693.807" x2="11608.113" y1="13247.428" y2="13247.428" gradientTransform="matrix(.3199 -.00001 .00003 .3199 -2708.935 -3041.32)" gradientUnits="userSpaceOnUse"><stop offset="0" stop-color="#7f7f7f"/><stop offset="1" stop-color="#444"/></linearGradient><path fill="url(#ae)" d="M1018.9,1215.5l24.5-14.2c3.7-2.1,5.3-13.1,1.7-15.3l-23.1-7.5c-5.1-3.1-11.4-3.2-16.6-0.2l-22.3,6.2         c-5.3,3-3.7,16.3,1.4,19.5l18.5,11.3C1007.9,1218.3,1014,1218.4,1018.9,1215.5z"/><linearGradient id="af" x1="11247.088" x2="11448.083" y1="13029.315" y2="13029.315" gradientTransform="matrix(.3258 -.00137 .00004 .3247 -2684.62 -3025.343)" gradientUnits="userSpaceOnUse"><stop offset="0" stop-color="#7f7f7f"/><stop offset="1" stop-color="#444"/></linearGradient><path fill="url(#af)" d="M1018.9,1208.5l24.5-14.2c3.7-2.1,3.8-7.4,0.2-9.7l-21.5-13.1c-5.1-3.1-11.4-3.2-16.6-0.2l-20.7,12         c-5.3,3-5.4,10.5-0.2,13.7l18.5,11.3C1007.9,1211.2,1014,1211.3,1018.9,1208.5z"/><g><linearGradient id="ag" x1="11850.211" x2="11764.518" y1="13344.679" y2="13344.679" gradientTransform="matrix(.3199 -.00001 .00003 .3199 -2708.935 -3041.32)" gradientUnits="userSpaceOnUse"><stop offset="0" stop-color="#7f7f7f"/><stop offset="1" stop-color="#444"/></linearGradient><path fill="url(#ag)" d="M1069,1246.6l24.5-14.2c3.7-2.1,5.3-13.1,1.7-15.3l-23.1-7.5c-5.1-3.1-11.4-3.2-16.6-0.2l-22.3,6.2         c-5.3,3-3.7,16.3,1.4,19.5l18.5,11.3C1057.9,1249.4,1064,1249.5,1069,1246.6z"/><linearGradient id="ah" x1="11400.631" x2="11601.626" y1="13125.78" y2="13125.78" gradientTransform="matrix(.3258 -.00137 .00004 .3247 -2684.62 -3025.343)" gradientUnits="userSpaceOnUse"><stop offset="0" stop-color="#7f7f7f"/><stop offset="1" stop-color="#444"/></linearGradient><path fill="url(#ah)" d="M1069,1239.6l24.5-14.2c3.7-2.1,3.8-7.4,0.2-9.7l-21.5-13.1c-5.1-3.1-11.4-3.2-16.6-0.2l-20.7,12         c-5.3,3-5.4,10.5-0.2,13.7l18.5,11.3C1057.9,1242.4,1064,1242.4,1069,1239.6z"/></g><g><linearGradient id="ai" x1="12006.616" x2="11920.923" y1="13441.93" y2="13441.93" gradientTransform="matrix(.3199 -.00001 .00003 .3199 -2708.935 -3041.32)" gradientUnits="userSpaceOnUse"><stop offset="0" stop-color="#7f7f7f"/><stop offset="1" stop-color="#444"/></linearGradient><path fill="url(#ai)" d="M1119,1277.7l24.5-14.2c3.7-2.1,5.3-13.1,1.7-15.3l-23.1-7.5c-5.1-3.1-11.4-3.2-16.6-0.2l-22.3,6.2         c-5.3,3-3.7,16.3,1.4,19.5l18.5,11.3C1108,1280.5,1114.1,1280.6,1119,1277.7z"/><linearGradient id="aj" x1="11554.175" x2="11755.17" y1="13222.245" y2="13222.245" gradientTransform="matrix(.3258 -.00137 .00004 .3247 -2684.62 -3025.343)" gradientUnits="userSpaceOnUse"><stop offset="0" stop-color="#7f7f7f"/><stop offset="1" stop-color="#444"/></linearGradient><path fill="url(#aj)" d="M1119,1270.7l24.5-14.2c3.7-2.1,3.8-7.4,0.2-9.7l-21.5-13.1c-5.1-3.1-11.4-3.2-16.6-0.2l-20.7,12         c-5.3,3-5.4,10.5-0.2,13.7l18.5,11.3C1108,1273.5,1114.1,1273.5,1119,1270.7z"/></g><g><linearGradient id="ak" x1="12163.022" x2="12077.327" y1="13539.18" y2="13539.18" gradientTransform="matrix(.3199 -.00001 .00003 .3199 -2708.935 -3041.32)" gradientUnits="userSpaceOnUse"><stop offset="0" stop-color="#7f7f7f"/><stop offset="1" stop-color="#444"/></linearGradient><path fill="url(#ak)" d="M1169.1,1308.9l24.5-14.2c3.7-2.1,5.3-13.1,1.7-15.3l-23.1-7.5c-5.1-3.1-11.4-3.2-16.6-0.2l-22.3,6.2         c-5.3,3-3.7,16.3,1.4,19.5l18.5,11.3C1158,1311.6,1164.1,1311.7,1169.1,1308.9z"/><linearGradient id="al" x1="11707.718" x2="11908.713" y1="13318.71" y2="13318.71" gradientTransform="matrix(.3258 -.00137 .00004 .3247 -2684.62 -3025.343)" gradientUnits="userSpaceOnUse"><stop offset="0" stop-color="#7f7f7f"/><stop offset="1" stop-color="#444"/></linearGradient><path fill="url(#al)" d="M1169.1,1301.8l24.5-14.2c3.7-2.1,3.8-7.4,0.2-9.7l-21.5-13.1c-5.1-3.1-11.4-3.2-16.6-0.2l-20.7,12         c-5.3,3-5.4,10.5-0.2,13.7l18.5,11.3C1158,1304.6,1164.1,1304.7,1169.1,1301.8z"/></g><g><linearGradient id="am" x1="12319.426" x2="12233.732" y1="13636.431" y2="13636.431" gradientTransform="matrix(.3199 -.00001 .00003 .3199 -2708.935 -3041.32)" gradientUnits="userSpaceOnUse"><stop offset="0" stop-color="#7f7f7f"/><stop offset="1" stop-color="#444"/></linearGradient><path fill="url(#am)" d="M1219.1,1340l24.5-14.2c3.7-2.1,5.3-13.1,1.7-15.3l-23.1-7.5c-5.1-3.1-11.4-3.2-16.6-0.2l-22.3,6.2         c-5.3,3-3.7,16.3,1.4,19.5l18.5,11.3C1208.1,1342.7,1214.2,1342.8,1219.1,1340z"/><linearGradient id="an" x1="11861.261" x2="12062.256" y1="13415.175" y2="13415.175" gradientTransform="matrix(.3258 -.00137 .00004 .3247 -2684.62 -3025.343)" gradientUnits="userSpaceOnUse"><stop offset="0" stop-color="#7f7f7f"/><stop offset="1" stop-color="#444"/></linearGradient><path fill="url(#an)" d="M1219.1,1332.9l24.5-14.2c3.7-2.1,3.8-7.4,0.2-9.7l-21.5-13.1c-5.1-3.1-11.4-3.2-16.6-0.2l-20.7,12         c-5.3,3-5.4,10.5-0.2,13.7l18.5,11.3C1208.1,1335.7,1214.2,1335.8,1219.1,1332.9z"/></g><g><linearGradient id="ao" x1="12475.831" x2="12390.138" y1="13733.682" y2="13733.682" gradientTransform="matrix(.3199 -.00001 .00003 .3199 -2708.935 -3041.32)" gradientUnits="userSpaceOnUse"><stop offset="0" stop-color="#7f7f7f"/><stop offset="1" stop-color="#444"/></linearGradient><path fill="url(#ao)" d="M1269.1,1371.1l24.5-14.2c3.7-2.1,5.3-13.1,1.7-15.3l-23.1-7.5c-5.1-3.1-11.4-3.2-16.6-0.2l-22.3,6.2         c-5.3,3-3.7,16.3,1.4,19.5l18.5,11.3C1258.1,1373.9,1264.2,1373.9,1269.1,1371.1z"/><linearGradient id="ap" x1="12014.804" x2="12215.799" y1="13511.64" y2="13511.64" gradientTransform="matrix(.3258 -.00137 .00004 .3247 -2684.62 -3025.343)" gradientUnits="userSpaceOnUse"><stop offset="0" stop-color="#7f7f7f"/><stop offset="1" stop-color="#444"/></linearGradient><path fill="url(#ap)" d="M1269.1,1364l24.5-14.2c3.7-2.1,3.8-7.4,0.2-9.7l-21.5-13.1c-5.1-3.1-11.4-3.2-16.6-0.2l-20.7,12         c-5.3,3-5.4,10.5-0.2,13.7l18.5,11.3C1258.1,1366.8,1264.2,1366.9,1269.1,1364z"/></g></g><g><linearGradient id="aq" x1="10887.602" x2="10801.908" y1="12960.735" y2="12960.735" gradientTransform="matrix(.3199 -.00001 .00003 .3199 -2708.935 -3041.32)" gradientUnits="userSpaceOnUse"><stop offset="0" stop-color="#7f7f7f"/><stop offset="1" stop-color="#444"/></linearGradient><path fill="url(#aq)" d="M761,1123.8l24.5-14.2c3.7-2.1,5.3-13.1,1.7-15.3l-23.1-7.5c-5.1-3.1-11.4-3.2-16.6-0.2l-22.3,6.2         c-5.3,3-3.7,16.3,1.4,19.5l18.5,11.3C750,1126.6,756.1,1126.7,761,1123.8z"/><linearGradient id="ar" x1="10455.629" x2="10656.624" y1="12743.519" y2="12743.519" gradientTransform="matrix(.3258 -.00137 .00004 .3247 -2684.62 -3025.343)" gradientUnits="userSpaceOnUse"><stop offset="0" stop-color="#7f7f7f"/><stop offset="1" stop-color="#444"/></linearGradient><path fill="url(#ar)" d="M761,1116.8l24.5-14.2c3.7-2.1,3.8-7.4,0.2-9.7l-21.5-13.1c-5.1-3.1-11.4-3.2-16.6-0.2l-20.7,12         c-5.3,3-5.4,10.5-0.2,13.7l18.5,11.3C750,1119.5,756.1,1119.6,761,1116.8z"/><linearGradient id="as" x1="11826.031" x2="11740.338" y1="13544.239" y2="13544.239" gradientTransform="matrix(.3199 -.00001 .00003 .3199 -2708.935 -3041.32)" gradientUnits="userSpaceOnUse"><stop offset="0" stop-color="#7f7f7f"/><stop offset="1" stop-color="#444"/></linearGradient><path fill="url(#as)" d="M1061.3,1310.5l24.5-14.2c3.7-2.1,5.3-13.1,1.7-15.3l-23.1-7.5c-5.1-3.1-11.4-3.2-16.6-0.2l-22.3,6.2         c-5.3,3-3.7,16.3,1.4,19.5l18.5,11.3C1050.2,1313.2,1056.3,1313.3,1061.3,1310.5z"/><linearGradient id="at" x1="11376.889" x2="11577.884" y1="13322.308" y2="13322.308" gradientTransform="matrix(.3258 -.00137 .00004 .3247 -2684.62 -3025.343)" gradientUnits="userSpaceOnUse"><stop offset="0" stop-color="#7f7f7f"/><stop offset="1" stop-color="#444"/></linearGradient><path fill="url(#at)" d="M1061.3,1303.4l24.5-14.2c3.7-2.1,3.8-7.4,0.2-9.7l-21.5-13.1c-5.1-3.1-11.4-3.2-16.6-0.2l-20.7,12         c-5.3,3-5.4,10.5-0.2,13.7l18.5,11.3C1050.2,1306.2,1056.3,1306.3,1061.3,1303.4z"/><linearGradient id="au" x1="984.793" x2="1185.788" y1="1729.53" y2="1729.53" gradientTransform="matrix(.9367 -.00414 .00027 .9338 -138.244 -305.195)" gradientUnits="userSpaceOnUse"><stop offset="0" stop-color="#7f7f7f"/><stop offset="1" stop-color="#444"/></linearGradient><path fill="url(#au)" d="M894.5,1358.8l70.3-40.7c10.7-6.1,10.9-21.4,0.5-27.8l-61.9-37.7c-14.6-8.9-32.9-9.2-47.7-0.6         l-59.4,34.4c-15.1,8.7-15.5,30.3-0.7,39.4l53.3,32.4C862.7,1366.8,880.3,1367,894.5,1358.8z" opacity=".47"/><linearGradient id="av" x1="11982.436" x2="11896.742" y1="13641.49" y2="13641.49" gradientTransform="matrix(.3199 -.00001 .00003 .3199 -2708.935 -3041.32)" gradientUnits="userSpaceOnUse"><stop offset="0" stop-color="#7f7f7f"/><stop offset="1" stop-color="#444"/></linearGradient><path fill="url(#av)" d="M1111.3,1341.6l24.5-14.2c3.7-2.1,5.3-13.1,1.7-15.3l-23.1-7.5c-5.1-3.1-11.4-3.2-16.6-0.2l-22.3,6.2         c-5.3,3-3.7,16.3,1.4,19.5l18.5,11.3C1100.3,1344.4,1106.4,1344.4,1111.3,1341.6z"/><linearGradient id="aw" x1="11530.432" x2="11731.427" y1="13418.772" y2="13418.772" gradientTransform="matrix(.3258 -.00137 .00004 .3247 -2684.62 -3025.343)" gradientUnits="userSpaceOnUse"><stop offset="0" stop-color="#7f7f7f"/><stop offset="1" stop-color="#444"/></linearGradient><path fill="url(#aw)" d="M1111.3,1334.5l24.5-14.2c3.7-2.1,3.8-7.4,0.2-9.7l-21.5-13.1c-5.1-3.1-11.4-3.2-16.6-0.2l-20.7,12         c-5.3,3-5.4,10.5-0.2,13.7l18.5,11.3C1100.3,1337.3,1106.4,1337.4,1111.3,1334.5z"/><g><linearGradient id="ax" x1="12138.841" x2="12053.147" y1="13738.741" y2="13738.741" gradientTransform="matrix(.3199 -.00001 .00003 .3199 -2708.935 -3041.32)" gradientUnits="userSpaceOnUse"><stop offset="0" stop-color="#7f7f7f"/><stop offset="1" stop-color="#444"/></linearGradient><path fill="url(#ax)" d="M1161.3,1372.7l24.5-14.2c3.7-2.1,5.3-13.1,1.7-15.3l-23.1-7.5c-5.1-3.1-11.4-3.2-16.6-0.2l-22.3,6.2         c-5.3,3-3.7,16.3,1.4,19.5l18.5,11.3C1150.3,1375.5,1156.4,1375.6,1161.3,1372.7z"/><linearGradient id="ay" x1="11683.975" x2="11884.97" y1="13515.237" y2="13515.237" gradientTransform="matrix(.3258 -.00137 .00004 .3247 -2684.62 -3025.343)" gradientUnits="userSpaceOnUse"><stop offset="0" stop-color="#7f7f7f"/><stop offset="1" stop-color="#444"/></linearGradient><path fill="url(#ay)" d="M1161.3,1365.7l24.5-14.2c3.7-2.1,3.8-7.4,0.2-9.7l-21.5-13.1c-5.1-3.1-11.4-3.2-16.6-0.2l-20.7,12         c-5.3,3-5.4,10.5-0.2,13.7l18.5,11.3C1150.3,1368.4,1156.4,1368.5,1161.3,1365.7z"/></g><g><linearGradient id="az" x1="12295.246" x2="12209.553" y1="13835.991" y2="13835.991" gradientTransform="matrix(.3199 -.00001 .00003 .3199 -2708.935 -3041.32)" gradientUnits="userSpaceOnUse"><stop offset="0" stop-color="#7f7f7f"/><stop offset="1" stop-color="#444"/></linearGradient><path fill="url(#az)" d="M1211.4,1403.8l24.5-14.2c3.7-2.1,5.3-13.1,1.7-15.3l-23.1-7.5c-5.1-3.1-11.4-3.2-16.6-0.2l-22.3,6.2         c-5.3,3-3.7,16.3,1.4,19.5l18.5,11.3C1200.3,1406.6,1206.4,1406.7,1211.4,1403.8z"/><linearGradient id="aA" x1="11837.518" x2="12038.513" y1="13611.702" y2="13611.702" gradientTransform="matrix(.3258 -.00137 .00004 .3247 -2684.62 -3025.343)" gradientUnits="userSpaceOnUse"><stop offset="0" stop-color="#7f7f7f"/><stop offset="1" stop-color="#444"/></linearGradient><path fill="url(#aA)" d="M1211.4,1396.8l24.5-14.2c3.7-2.1,3.8-7.4,0.2-9.7l-21.5-13.1c-5.1-3.1-11.4-3.2-16.6-0.2l-20.7,12         c-5.3,3-5.4,10.5-0.2,13.7l18.5,11.3C1200.3,1399.5,1206.4,1399.6,1211.4,1396.8z"/></g><g><linearGradient id="aB" x1="11530.917" x2="11190.457" y1="13251.127" y2="13251.127" gradientTransform="matrix(.3199 -.00001 .00003 .3199 -2708.935 -3041.32)" gradientUnits="userSpaceOnUse"><stop offset="0" stop-color="#7f7f7f"/><stop offset="1" stop-color="#444"/></linearGradient><path fill="url(#aB)" d="M1011.2,1278.5l24.5-14.2c3.7-2.1,5.3-13.1,1.7-15.3L814.2,1118c-5.1-3.1-11.4-3.2-16.6-0.2l-22.3,6.2         c-5.3,3-3.7,16.3,1.4,19.5l218.6,134.9C1000.2,1281.3,1006.2,1281.3,1011.2,1278.5z"/><linearGradient id="aC" x1="10609.172" x2="11424.237" y1="13031.572" y2="13031.572" gradientTransform="matrix(.3258 -.00137 .00004 .3247 -2684.62 -3025.343)" gradientUnits="userSpaceOnUse"><stop offset="0" stop-color="#7f7f7f"/><stop offset="1" stop-color="#444"/></linearGradient><path fill="url(#aC)" d="M1011.2,1271.4l24.5-14.2c3.7-2.1,3.8-7.4,0.2-9.7l-221.6-136.7c-5.1-3.1-11.4-3.2-16.6-0.2l-20.7,12         c-5.3,3-5.4,10.5-0.2,13.7l218.6,134.9C1000.2,1274.2,1006.2,1274.3,1011.2,1271.4z"/></g></g><linearGradient id="aD" x1="1304.131" x2="1304.131" y1="371.669" y2="1220.784" gradientUnits="userSpaceOnUse"><stop offset="0" stop-color="#7f7f7f"/><stop offset="1" stop-color="#444"/></linearGradient><path fill="url(#aD)" d="M1536.5,1265.2L1674.1,635c6-27.2-6.4-55.2-30.6-69.1l-518.5-299.2c-22.6-13-51.3-0.3-56.9,25.2     L933.7,907.7c-4.1,18.6,4.2,37.6,20.5,47.4l545.2,326.1C1514,1290,1532.8,1281.8,1536.5,1265.2z"/><linearGradient id="aE" x1="1304.136" x2="1304.136" y1="389.172" y2="1201.267" gradientUnits="userSpaceOnUse"><stop offset="0" stop-color="#3abaf9"/><stop offset="1" stop-color="#267ebd"/></linearGradient><path fill="url(#aE)" d="M1512.1,1262.5c-0.4,0-0.9-0.1-1.3-0.4L965.6,936c-8.1-4.8-12.2-14.3-10.2-23.5L1090,296.6     c1.9-8.8,9.6-12.8,15.9-12.8c2.8,0,5.5,0.7,8,2.2l518.5,299.2c15.8,9.1,23.8,27.2,19.9,45.1l-137.7,630.2     C1514.2,1262.5,1512.1,1262.5,1512.1,1262.5z"/><linearGradient id="aF" x1="1253.291" x2="1563.378" y1="836.202" y2="488.004" gradientUnits="userSpaceOnUse"><stop offset="0" stop-color="#7f7f7f"/><stop offset="1" stop-color="#fefefe"/></linearGradient><path fill="url(#aF)" d="M1643.6,565.9l-518.5-299.2c-10.1-5.8-21.4-6.5-31.3-3.2c9-2.1,18.9-1,27.8,4.1l518.5,299.2     c24.1,13.9,36.5,41.9,30.6,69.1L1533,1266.1c-2,9-8.4,15.5-16.3,18.2c9.4-1.8,17.5-8.8,19.8-19.2L1674.1,635     C1680.1,607.8,1667.7,579.8,1643.6,565.9z" opacity=".67"/><g><linearGradient id="aG" x1="2438.028" x2="2546.376" y1="-1157.53" y2="-1279.195" gradientTransform="matrix(.914 .5315 -.1946 .9809 -1158.235 473.991)" gradientUnits="userSpaceOnUse"><stop offset="0" stop-color="#fe7f0a"/><stop offset="1" stop-color="#ffb538"/></linearGradient><path fill="url(#aG)" d="M1434.8,672.1c-11.7,58.9-65.6,80.8-120.5,48.9s-89.9-105.5-78.2-164.4c11.7-58.9,65.6-80.8,120.5-48.9      S1446.5,613.2,1434.8,672.1z"/><path fill="#fff" d="M1352.6 683.2c6.5 3.8 13.4 3.1 17-2.2 2.8-4.2 4.9-9.2 6.1-15.1 4.1-20.6-4.4-45.1-19.9-62 9.6-1.7 16.6-10.1 16.9-23.6.3-13.9-7.7-29.5-19.3-37.9-16.5-11.9-33.6-6.1-37.1 11.6-2 9.9.8 21.3 6.7 30.8-18.3-2.7-33.7 7.9-37.8 28.5-1.2 5.9-1.3 12-.6 18.3.9 7.9 6.1 15.7 12.7 19.5L1352.6 683.2zM1344.8 780.2l-225.9-131.3c-4-2.3-6.6-7.8-5.8-12.1v0c.9-4.3 4.9-5.9 8.9-3.6l225.9 131.3c4 2.3 6.6 7.8 5.8 12.1l0 0C1352.8 780.9 1348.8 782.5 1344.8 780.2z"/><path fill="#fff" stroke="#1e4156" stroke-miterlimit="10" stroke-width="3.852" d="M1474.5,956l-371-215.7c-5.4-3.1-8.8-10.3-7.7-16.1l9.5-48c1.1-5.8,6.4-7.9,11.8-4.8l371,215.7      c5.4,3.1,8.8,10.3,7.7,16.1l-9.5,48C1485.2,956.9,1479.9,959.1,1474.5,956z"/><path fill="#fff" d="M1314 935.4l-225.9-131.3c-4-2.3-6.6-7.8-5.8-12.1h0c.9-4.3 4.9-5.9 8.9-3.6l225.9 131.3c4 2.3 6.6 7.8 5.8 12.1l0 0C1322 936.1 1318 937.8 1314 935.4zM1431.6 1137.6l-134-77.9c-2.4-1.4-3.9-4.6-3.4-7.2l0 0c.5-2.6 2.9-3.5 5.3-2.1l134 77.9c2.4 1.4 3.9 4.6 3.4 7.2l0 0C1436.4 1138 1434 1139 1431.6 1137.6z"/><path fill="#fff" stroke="#1e4156" stroke-miterlimit="10" stroke-width="3.852" d="M1443.7,1111.2l-371-215.7c-5.4-3.1-8.8-10.3-7.7-16.1l9.5-48c1.1-5.8,6.4-7.9,11.8-4.8l371,215.7      c5.4,3.1,8.8,10.3,7.7,16.1l-9.5,48C1454.4,1112.2,1449.1,1114.3,1443.7,1111.2z"/><path fill="#cccbca" d="M1353.5 854.8l-225.9-131.3c-4-2.3-6.6-7.8-5.8-12.1l0 0c.9-4.3 4.9-5.9 8.9-3.6l225.9 131.3c4 2.3 6.6 7.8 5.8 12.1v0C1361.5 855.5 1357.5 857.1 1353.5 854.8zM1322.7 1010l-225.9-131.3c-4-2.3-6.6-7.8-5.8-12.1v0c.9-4.3 4.9-5.9 8.9-3.6l225.9 131.3c4 2.3 6.6 7.8 5.8 12.1l0 0C1330.7 1010.7 1326.7 1012.3 1322.7 1010z"/></g></g><g><linearGradient id="aH" x1="843.119" x2="777.898" y1="594.439" y2="962.817" gradientTransform="matrix(.8617 .07582 .2365 1.0841 925.454 728.275)" gradientUnits="userSpaceOnUse"><stop offset="0" stop-color="#adadad"/><stop offset="1" stop-color="#e5e5e5"/></linearGradient><path fill="url(#aH)" d="M2097.2,1632.8c-58.7-46.5-108.7-118.6-140-201.8l-144.7-104.6l0-1l-1.8-0.2l-1.8-1.3l0,1l-146.4-20    c-33.9,55.3-85.9,83.7-145.4,79.6l-4-0.3l-16.2,17.2l13.9,104.2c-3.1,158.2,61.4,331.4,166.3,446.8l117.2,129l0,2.4l1.8-0.4    l1.8,1.9l0-2.4l120.3-27.3c107.6-24.4,177.7-140.1,180.8-298.2l2.4-121.4L2097.2,1632.8z"/><linearGradient id="aI" x1="437.926" x2="979.255" y1="947.581" y2="766.651" gradientTransform="matrix(.8617 .07582 .2365 1.0841 925.454 728.275)" gradientUnits="userSpaceOnUse"><stop offset="0" stop-color="#fbfbfb"/><stop offset="1" stop-color="#e5e5e5"/></linearGradient><path fill="url(#aI)" d="M2081,1650c-58.7-46.5-108.7-118.6-140-201.8l-144.7-104.6l0-1l-1.8-0.2l-1.8-1.3l0,1l-146.4-20    c-33.9,55.3-85.9,83.7-145.4,79.6l-4-0.3l-2.4,121.4c-3.1,158.2,61.4,331.4,166.3,446.8l117.2,129l0,2.4l1.8-0.4l1.8,1.9l0-2.4    l120.3-27.3c107.6-24.4,177.7-140.1,180.8-298.2l2.4-121.4L2081,1650z"/><linearGradient id="aJ" x1="477.768" x2="990.368" y1="858.05" y2="858.05" gradientTransform="matrix(.8617 .07582 .2365 1.0841 925.454 728.275)" gradientUnits="userSpaceOnUse"><stop offset="0" stop-color="#18665e"/><stop offset="1" stop-color="#0ba2b3"/></linearGradient><path fill="url(#aJ)" d="M1923.9,1468.2l-106.6-77l-130.8-17.9c-34.5,50.6-83.7,78.1-140.6,78.6l-2,100.2    c-2.8,146.6,57.5,309.6,153.8,415.6l88.4,97.3l-5.7,1.3l-106.1-116.8c-96.2-105.9-156.6-269-153.7-415.5l2-100.2    c56.9-0.5,106.1-28,140.6-78.7l130.8,17.9l129.3,93.5C1923.4,1467.1,1923.7,1467.6,1923.9,1468.2z"/><linearGradient id="aK" x1="964.019" x2="534.669" y1="526.481" y2="1202.253" gradientTransform="matrix(.8617 .07582 .2365 1.0841 925.454 728.275)" gradientUnits="userSpaceOnUse"><stop offset="0" stop-color="#82fb7c"/><stop offset="1" stop-color="#0ba2b3"/></linearGradient><path fill="url(#aK)" d="M2058.4,1663.2l-1.9,100.2c-2.9,146.5-68.5,255.7-167.2,278.1l-103.1,23.4l-88.4-97.3    c-96.3-106-156.6-269-153.8-415.6l2-100.2c56.9-0.5,106.1-28,140.6-78.6l130.8,17.9l106.6,77    C1955.9,1546.6,2002.9,1614.8,2058.4,1663.2z"/><polygon fill="#fff" points="1662.1 1623.2 1740.6 1787.1 1899.1 1722.5 1873.1 1668.7 1757.4 1710.2 1701.7 1598.6"/></g><g><linearGradient id="aL" x1="877.276" x2="668.881" y1="1048.362" y2="625.652" gradientUnits="userSpaceOnUse"><stop offset="0" stop-color="#fbfbfb"/><stop offset="1" stop-color="#e5e5e5"/></linearGradient><path fill="url(#aL)" d="M760,507.6L571.6,785.5c-10.4,15.3,2.2,48.3,22.5,59.1l194.7,103.4l191.8,101.8    c21.6,11.5,34.9-9.5,23.9-37.5L817.5,538.1C804.5,505.2,773,488.5,760,507.6z"/><linearGradient id="aM" x1="914.699" x2="688.543" y1="753.54" y2="912.204" gradientUnits="userSpaceOnUse"><stop offset="0" stop-color="#fbfbfb"/><stop offset="1" stop-color="#e5e5e5"/></linearGradient><path fill="url(#aM)" d="M745,517.7L556.6,795.5c-10.4,15.3,2.2,48.3,22.5,59.1L773.8,958l191.8,101.8c21.6,11.5,34.9-9.5,23.9-37.5    L802.5,548.2C789.5,515.3,758,498.6,745,517.7z"/><linearGradient id="aN" x1="588.526" x2="957.733" y1="-948.281" y2="-948.281" gradientTransform="matrix(1 .531 0 1 0 1273.147)" gradientUnits="userSpaceOnUse"><stop offset="0" stop-color="#dd2f2f"/><stop offset="1" stop-color="#ff6757"/></linearGradient><path fill="url(#aN)" d="M594.1,823.2c-2.8-1.5-4.2-4.3-4.8-5.9c-0.6-1.6-1.4-4.5,0.1-6.6l173.9-256.4c3.2-4.7,8.4-2.7,10.5-1.6    c2.1,1.1,7.3,4.6,10.5,12.7L956.7,1003c1.8,4.6,0.8,7.3,0.1,8.5c-0.8,1.2-2.6,2.9-6.1,1L594.1,823.2z"/><path fill="#fff" d="M759.6,829.8c1.1-9.5,8.2-12.3,17-5.8c5.5,4,10.6,13.5,11.3,20.5c1.1,10.4-2.9,16.6-9.9,15.2     C767.9,857.7,758.2,841.5,759.6,829.8z M765.5,794.1l-3.4-140.6c0-0.1,0.1-0.2,0.2-0.1l22.9,12.2c0.1,0.1,0.2,0.2,0.2,0.3     l-3.4,137c0,0.1-0.1,0.2-0.2,0.1l-16.1-8.6C765.6,794.3,765.5,794.2,765.5,794.1z"/></g><path fill="none" stroke="#afafaf" stroke-dasharray="25.474 16.983" stroke-miterlimit="1" stroke-width="16.983" d="M779.7,1405.9l-174.9,100.7c-33.1,19.1-33.4,66.7-0.5,86.1l937.7,553.4c31.2,18.4,69.8,19.5,101.9,2.7   l122-63.6"/></svg>