<svg xmlns="http://www.w3.org/2000/svg" viewBox="0 0 600 500"><g data-name="Layer 2"><ellipse cx="195.534" cy="435.648" rx="125" ry="15" style="mix-blend-mode:multiply" fill="#e2dfcf" opacity=".58"/><ellipse cx="406.534" cy="381.648" rx="135" ry="20" style="mix-blend-mode:multiply" fill="#e2dfcf" opacity=".58"/><polygon fill="#f0ad82" points="445.758 73.419 471.961 378.237 466.864 378.237 440.661 73.419 445.758 73.419"/><path fill="#f0ad82" d="M413.65473,244.5957h-5.0971l-9.9424,133.64111h5.0971Zm-125.8485,0-9.9424,133.64111h5.0971l9.9424-133.64111Z"/><polygon fill="#c27c50" points="263.806 291.568 430.666 291.568 448.686 49.352 281.826 49.352 263.806 291.568"/><polygon fill="#fff" points="425.948 286.47 443.21 54.448 286.544 54.448 269.282 286.47 425.948 286.47"/><path fill="#fdd247" fill-rule="evenodd" d="M398.327,231.14861h12.9713a4.21822,4.21822,0,0,0,4.2066-3.9052l.9668-12.9946a4.21826,4.21826,0,0,0-4.2066-4.5312h-12.9714a4.21829,4.21829,0,0,0-4.2066,3.9052l-.9667,12.9947A4.21818,4.21818,0,0,0,398.327,231.14861Z"/><path fill="#a2d1eb" d="M380.13843,237.37611l-.2738,3.6799h34.6127l.2738-3.6799Zm34.0991,6.9031h-34.6127l-.2737,3.68h34.6127Zm-.5136,6.9031h-34.6127l-.2737,3.6799h34.6127Zm-.5135,6.9031h-34.6127l-.2737,3.6799h34.6127Zm-.5136,6.9031h-16.9093l-.2738,3.6799H412.423Z"/><path fill="#979dfe" d="M352.14983,231.14861h12.9713a4.21808,4.21808,0,0,0,4.2066-3.9052l.9668-12.9946a4.21818,4.21818,0,0,0-4.2065-4.5312h-12.9715a4.21813,4.21813,0,0,0-4.2065,3.9052l-.9667,12.9947A4.2181,4.2181,0,0,0,352.14983,231.14861Z"/><path fill="#a2d1eb" d="M333.96123,237.37611l-.2737,3.6799h34.6127l.2737-3.6799Zm34.0992,6.9031h-34.6127l-.2739,3.68h34.6127Zm-.5136,6.9031h-34.6127l-.2738,3.6799H367.273Zm-.5136,6.9031h-34.6126l-.2739,3.6799h34.6127Zm-.5135,6.9031h-16.9094l-.2737,3.6799h16.9093Z"/><path fill="#67bdd4" fill-rule="evenodd" d="M305.97273,231.14861H318.944a4.21822,4.21822,0,0,0,4.2066-3.9052l.9668-12.9946a4.21834,4.21834,0,0,0-4.2067-4.5312h-12.9713a4.21829,4.21829,0,0,0-4.2066,3.9052l-.9668,12.9947A4.21826,4.21826,0,0,0,305.97273,231.14861Z"/><path fill="#a2d1eb" d="M287.78413 237.37611l-.2738 3.6799H322.123l.2738-3.6799zm34.099 6.9031h-34.6127l-.2737 3.68h34.6127zm-.5135 6.9031h-34.6127l-.2737 3.6799h34.6127zm-.5136 6.9031h-34.6127l-.2737 3.6799h34.6127zm-.5135 6.9031h-16.9093l-.2738 3.6799h16.9094zM325.71963 78.058h74.8013l.3451-4.6387h-74.8012zm-25.8042 4.2813l-.3451 4.6387h125.7726l.3452-4.6387zm112.3662 8.92h-100.287l-.3451 4.6387h100.287z"/><polygon fill="#fdd247" fill-rule="evenodd" points="355.456 193.466 389.091 193.466 391.6 159.832 357.965 159.832 355.456 193.466"/><path fill="#cc346f" d="M352.76943,136.50011a6.27163,6.27163,0,0,1,4.5423,1.0252,1.58757,1.58757,0,0,0,2.4104-1.249l.7519-10.0793h33.6346l-2.5089,33.63469h-10.0792a1.59237,1.59237,0,0,0-1.4218,2.31741,6.317,6.317,0,0,1,.6808,4.6172,7.28455,7.28455,0,0,1-6.1759,5.5607,6.05054,6.05054,0,0,1-6.851-6.544,6.97724,6.97724,0,0,1,1.3354-3.5896,1.423,1.423,0,0,0-1.0466-2.36171h-10.0762l.7515-10.07629a1.41855,1.41855,0,0,0-2.2705-1.2228,6.93067,6.93067,0,0,1-3.6692,1.0675,6.05476,6.05476,0,0,1-5.9968-7.3378A7.28652,7.28652,0,0,1,352.76943,136.50011Z"/><path fill="#979dfe" d="M335.56573,162.04311a6.93108,6.93108,0,0,0-1.4496,4.7235,6.00691,6.00691,0,0,0,5.3468,5.5605,7.19009,7.19009,0,0,0,7.8268-6.5441,6.18438,6.18438,0,0,0-.8657-3.7008,1.51985,1.51985,0,0,1,1.3314-2.25051h10.2098l-.7323,9.81741a1.336,1.336,0,0,0,2.031,1.24259,6.82986,6.82986,0,0,1,4.1535-.76809,6.00874,6.00874,0,0,1,5.2098,5.76109,7.19478,7.19478,0,0,1-7.091,7.35011,6.18679,6.18679,0,0,1-3.1196-.8218,1.525,1.525,0,0,0-2.2281,1.2366l-.7322,9.8167h-33.6346l2.5088-33.63461h10.2073A1.3443,1.3443,0,0,1,335.56573,162.04311Z"/><path fill="#dccec3" d="M306.25863,110.27721h33.6348l-.7519,10.0797a1.5874,1.5874,0,0,1-2.4101,1.24879,6.27137,6.27137,0,0,0-4.5431-1.02519,7.28673,7.28673,0,0,0-5.9888,5.7629,6.05461,6.05461,0,0,0,5.9968,7.3369,6.93327,6.93327,0,0,0,3.6698-1.06761,1.41824,1.41824,0,0,1,2.27,1.22271l-.7515,10.0765h-11.8048a.72166.72166,0,0,0-.5666,1.183,6.19143,6.19143,0,0,1,1.5509,5.7526,7.28448,7.28448,0,0,1-6.1765,5.5598,6.05036,6.05036,0,0,1-6.8502-6.5441,7.10709,7.10709,0,0,1,2.4101-4.7707.66385.66385,0,0,0-.4095-1.1806h-11.7882Z"/><polygon fill="#616d7d" points="264.117 309.319 241.74 309.319 230.551 283.953 252.928 283.953 264.117 309.319"/><polygon fill="#7590a2" points="261.602 309.319 239.225 309.319 228.036 283.953 250.413 283.953 261.602 309.319"/><path fill="#758798" d="M222.73483,306.01h43.4228a1.4194,1.4194,0,0,1,1.4194,1.4194V307.9a1.4193,1.4193,0,0,1-1.4193,1.4193h-43.4229a1.4193,1.4193,0,0,1-1.4193-1.4193v-.4707a1.4193,1.4193,0,0,1,1.4193-1.4193Z"/><path fill="#616d7d" d="M199.97643,292.56521a6.36641,6.36641,0,0,1-6.4386-7.4987l9.715-68.7166a8.94246,8.94246,0,0,1,8.5597-7.4996h88.3631a6.36649,6.36649,0,0,1,6.4385,7.4991l-9.7149,68.7171a8.94234,8.94234,0,0,1-8.559,7.4987Z"/><path fill="#758798" d="M195.88773,292.56521a6.36641,6.36641,0,0,1-6.4386-7.4987l9.7149-68.7166a8.94265,8.94265,0,0,1,8.5598-7.4996h88.363a6.36646,6.36646,0,0,1,6.4386,7.4991l-9.7149,68.7171a8.94232,8.94232,0,0,1-8.5589,7.4987Z"/><path fill="#f7f6f0" d="M196.66883,287.04211a3.68328,3.68328,0,0,1-3.7289-4.3429l9.0455-63.9824a5.17291,5.17291,0,0,1,4.9574-4.3433h88.363a3.68319,3.68319,0,0,1,3.7289,4.3428l-9.0456,63.9829a5.1724,5.1724,0,0,1-4.9569,4.3429Z"/><path fill="#bccace" d="M293.33213 229.5897h-88.6126a1.36033 1.36033 0 01-1.377-1.60859l.5873-4.0817a1.92164 1.92164 0 011.84-1.6084h88.6124a1.36033 1.36033 0 011.3771 1.6084l-.5872 4.0817A1.92188 1.92188 0 01293.33213 229.5897zM210.32683 272.73921h-11.7122a1.44786 1.44786 0 01-1.4656-1.712l5.2781-36.6841a2.04543 2.04543 0 011.9582-1.7119h11.7124a1.4479 1.4479 0 011.4656 1.7119l-5.2782 36.6841A2.0453 2.0453 0 01210.32683 272.73921zM288.45273 261.08141h-31.1396a1.4479 1.4479 0 01-1.4656-1.712l3.6009-25.0263a2.04516 2.04516 0 011.9581-1.7119h31.1397a1.44792 1.44792 0 011.4657 1.7119l-3.6009 25.0263A2.04537 2.04537 0 01288.45273 261.08141zM289.54933 265.35841a1.46565 1.46565 0 00-1.3314-1.83671h-31.3723a2.067 2.067 0 00-1.8598 1.83671l-1.9807 13.7662h34.5635zM252.78453 252.50261a1.46567 1.46567 0 00-1.3313-1.8368h-11.9449a2.06715 2.06715 0 00-1.8599 1.8368l-3.8304 26.622h15.1361zM211.40673 277.13261a1.46567 1.46567 0 00-1.3313-1.8367h-11.9451a2.06723 2.06723 0 00-1.8599 1.8367l-.2865 1.992H211.12zM230.98673 258.74981h-11.7124a1.44788 1.44788 0 01-1.4655-1.712l3.2653-22.6947a2.04543 2.04543 0 011.9582-1.7119h11.7124a1.4479 1.4479 0 011.4656 1.7119l-3.2654 22.6947A2.04535 2.04535 0 01230.98673 258.74981zM240.50753 232.63121l-1.9952 13.8664a1.46569 1.46569 0 001.3314 1.8367h11.945a2.06714 2.06714 0 001.8599-1.8367l1.9951-13.8664zM232.63893 262.918a1.46567 1.46567 0 00-1.3313-1.8368h-11.9449a2.06715 2.06715 0 00-1.8599 1.8368l-2.3318 16.2066h15.1361z"/><polygon fill="#cc346f" points="210.225 243.049 203.2 243.049 204.363 234.963 211.388 234.963 210.225 243.049"/><path fill="#f7f6f0" d="M202.86193,245.39881l-.1998,1.3886h11.3456l.1997-1.3886Zm-.5745,3.9932h11.3455l.1998-1.3885h-11.3456Zm-.3748,2.60469h11.3455l.1998-1.38849h-11.3455Zm-.3748,2.60471h11.3455l.1998-1.3886h-11.3455Zm-.3747,2.6046h5.5426l.1998-1.3885h-5.5427Z"/><polygon fill="#fdd247" fill-rule="evenodd" points="228.872 243.049 221.847 243.049 223.01 234.963 230.035 234.963 228.872 243.049"/><path fill="#f7f6f0" d="M221.50893,245.39881l-.1998,1.3886h11.3454l.1999-1.3886Zm-.5746,3.9932h11.3456l.1997-1.3885h-11.3455Zm-.3747,2.60469h11.3455l.1998-1.38849h-11.3456Zm-.3748,2.60471h11.3455l.1998-1.3886h-11.3455Zm-.3748,2.6046h5.5427l.1997-1.3885h-5.5426Z"/><polygon fill="#70a0fe" points="245.464 261.084 238.439 261.084 239.603 252.997 246.628 252.997 245.464 261.084"/><path fill="#f7f6f0" d="M238.10113 263.43341l-.1997 1.3886h11.3455l.1996-1.3886zm-.5745 3.99329h11.3455l.1998-1.38859h-11.3455zm-.3748 2.60461h11.3455l.1998-1.3885h-11.3455zm-.3748 2.6047h11.3456l.1997-1.3886h-11.3455zm-.3747 2.6046h5.5426l.1998-1.3885H236.602zM242.35133 233.89421l-.1999 1.3886h11.3455l.1998-1.3886zm-.5745 3.9931h11.3455l.1997-1.3884h-11.3455zm-.3748 2.6048h5.2691l.1997-1.3886h-5.269z"/><polygon fill="#70a0fe" points="290.185 243.049 260.313 243.049 261.476 234.963 291.348 234.963 290.185 243.049"/><path fill="#f7f6f0" d="M259.97463,245.39881l-.1997,1.3886h29.8717l.1998-1.3886Zm-.5745,3.9932H277.119l.1998-1.3885h-17.7189Z"/><polygon fill="#818bea" fill-rule="evenodd" points="224.763 271.608 217.738 271.608 218.901 263.522 225.926 263.522 224.763 271.608"/><path fill="#f7f6f0" d="M217.39973,273.9577l-.1998,1.38851h11.3456l.1997-1.38851Zm-.5745,3.99321h7.2945l.1999-1.3885h-7.2947Z"/><polygon fill="#66bcd5" fill-rule="evenodd" points="206.67 267.753 199.646 267.753 200.809 259.667 207.834 259.667 206.67 267.753"/><path fill="#f7f6f0" d="M199.30743,270.10291l-.1998,1.3884h11.3456l.1997-1.3884Z"/><path fill="#62c1c5" d="M90.40333,272.30551l.0048.0583a4.62558,4.62558,0,0,1,5.3407,4.1626l7.9023,83.0566a3.28942,3.28942,0,0,0,3.2888,2.9955h49.9828a4.6629,4.6629,0,1,1,0,9.3258h-49.9826a12.60177,12.60177,0,0,1-9.5869-4.42561c-2.7489.20441-13.3979,1.11651-13.3979,1.11651l-10.9119-3.4721-9.9148-92.8176Z"/><path fill="#7ddbdb" d="M78.96133,362.57851a3.28942,3.28942,0,0,1-3.2888-2.9955l-7.9023-83.0566a4.66249,4.66249,0,0,0-4.6415-4.2209h0a4.66269,4.66269,0,0,0-4.6417,5.1041l7.8998,83.0427a12.62964,12.62964,0,0,0,12.5747,11.452H128.944a4.6629,4.6629,0,0,0,4.663-4.6628h0a4.66294,4.66294,0,0,0-4.663-4.663Z"/><rect width="7.582" height="70.478" x="107.252" y="371.904" fill="#9797c2"/><path fill="#4b4b6d" d="M84.02043 442.38251h0a7.58229 7.58229 0 017.5823-7.5823h38.88a7.58229 7.58229 0 017.5823 7.5823H84.02043zM114.50363 379.15641h-6.9217a6.94545 6.94545 0 01-5.8419-3.1888l-2.6125-4.0633h23.8304l-2.6126 4.0633A6.945 6.945 0 01114.50363 379.15641z"/><path fill="#f4a086" d="M177.08953,303.13731c-3.6651-1.7277-24.6758-4.6629-28.3904-6.2815-5.118-2.2302-8.9963-8.2423-11.5105-13.227a91.81973,91.81973,0,0,1-3.6029-8.5217l-15.7023,8.2971a92.606,92.606,0,0,0,7.0943,10.4593c3.9919,5.09119,8.6173,9.83819,14.3235,12.8866,5.9483,3.1778,30.5621,3.5627,37.2236,2.5108C181.89243,308.14761,180.75463,304.86491,177.08953,303.13731Z"/><path fill="#ad2b5e" d="M122.50353,258.06151c-4.1459-2.2447-12.6533-1.7691-13.0641,4.2029-.2418,3.51529,1.7765,7.3536,3.1136,10.5129a93.04334,93.04334,0,0,0,5.1177,10.27339c.0689.119.1433.23471.2127.35351l17.3025-7.2157C131.38453,271.3997,127.82213,260.94121,122.50353,258.06151Z"/><path fill="#f4a086" d="M192.18653 301.8217a7.30251 7.30251 0 012.4496 4.96421c.0412 1.8937-1.5034 5.6886-2.9105 4.4207-1.1626-1.0475-1.4531-2.8-3.0174-2.7527-1.5641.0471-2.9658.9113-4.4201 1.489-4.2922 1.7051-17.2926-.6078-11.7612-7.4049C176.76373 297.3317 187.56143 297.41621 192.18653 301.8217zM220.92743 430.5117c.8874 1.33241 2.0733 2.81951 3.6701 2.78181 2.7565-.065 2.9572-3.9987 2.2668-6.6475q-1.11675-4.28535-2.2338-8.5707l-8.6573 2.5303C216.91743 424.19831 219.24913 427.99251 220.92743 430.5117z"/><path fill="#0a3c5f" fill-rule="evenodd" d="M199.09723,347.78661c-6.9662-7.6947-50.514-17.25991-70.9938-23.5252-15.2935-4.6788-31.0314-7.3096-33.3603,13.3461a24.06871,24.06871,0,0,0,11.1634,22.75019c8.3137,5.10551,18.7648,4.62691,28.4996,3.98241,18.5602-1.2288,29.9418-1.9822,48.5019-3.2109,1.7749,24.2893,22.4167,32.9847,31.6581,59.8877l13.8837-2.8308C220.03233,405.51961,202.55823,352.22161,199.09723,347.78661Z"/><path fill="#f7b690" d="M125.75383,417.966c-.7102,1.43469-1.4051,3.2053-.5743,4.5692,1.4345,2.3548,4.9417.5619,6.8905-1.3602q3.15285-3.10965,6.3058-6.2196l-8.4958-5.0753C128.47923,412.56151,127.09653,415.25311,125.75383,417.966Z"/><path fill="#0a3c5f" fill-rule="evenodd" d="M91.275,360.3577c8.3137,5.10551,18.7648,4.62691,28.4996,3.98241q28.829-1.90861,57.658-3.817c3.0679-.2032,6.5108-.5933,8.4243-2.9999,2.2347-2.81051,1.1528-7.2027-1.3913-9.7366s-6.1232-3.66991-9.5569-4.721q-30.71835-9.402-61.4367-18.8042c-15.2937-4.6788-31.0316-7.3096-33.3603,13.3461A24.06863,24.06863,0,0,0,91.275,360.3577Z"/><path fill="#0a3c5f" fill-rule="evenodd" d="M186.99053,353.08351c-4.234-13.1083-30.6416,12.7653-35.2523,19.7288a416.2815,416.2815,0,0,0-21.8582,37.0678l10.3093,8.4385c6.7615-13.6226,20.2473-25.1221,31.2776-36.0016,3.6256-3.5759,7.3246-7.2536,9.5379-11.8964C183.21793,365.77751,187.74573,355.42141,186.99053,353.08351Z"/><path fill="#cc346f" d="M91.68473,273.5437c1.0479,7.82141,4.0525,15.40541,3.9256,23.29561a29.98981,29.98981,0,0,1-9.3299,21.1068c-3.5488,3.3355-8.421,7.1225-7.1503,11.8241,1.143,4.2293,6.4311,5.482,10.7841,5.9766,9.492,1.0785,20.3223,1.7455,27.3049-4.774,4.276-3.9924,6.1263-9.8956,7.487-15.5852a157.72023,157.72023,0,0,0,4.2122-30.7518c.3309-8.8193-.2582-18.2212-5.3278-25.4453-5.0511-7.19781-10.72-11.9706-18.9855-9.4332C95.20643,258.97711,90.64553,265.7867,91.68473,273.5437Z"/><path fill="#222b54" fill-rule="evenodd" d="M217.00743,424.49631c.5385.9435,3.023,1.3846,4.0473,1.4256.8091.0324,4.5152-1.65621,5.3159-1.3798.5766.199,2.7267,7.9342,5.3965,9.5747,2.6699,1.6407,5.6311,2.5457,8.4706,3.7657a9.25871,9.25871,0,0,1,2.7924,1.6655,3.35971,3.35971,0,0,1,1.1857,2.809,1.56688,1.56688,0,0,1-.083.24069H226.668c-.5076-.59559-.9649-1.24269-1.4094-1.87909q-2.3961-3.42945-4.7918-6.8592c-.5035,2.4981-.9388,5.4275-1.4217,8.73829h-1.9507C216.47153,439.93441,214.74963,427.263,217.00743,424.49631Z"/><path fill="#0a3c5f" fill-rule="evenodd" d="M119.14443,426.631a18.93639,18.93639,0,0,1,2.3538-5.4167,9.4428,9.4428,0,0,1,4.2811-3.7412c.0116,1.0184.4485,2.5667,1.3804,2.9772.7362.3245,5.0613.21139,5.663.7452.4047.3588-1.322,6.9369-.2231,9.7655,0,0,3.94,2.98269,5.9725,4.4162a7.43682,7.43682,0,0,1,2.1774,2.0923,2.933,2.933,0,0,1,.206,2.8934,1.88739,1.88739,0,0,1-.1638.21479l-15.0156-2.75189-2.0466-.80511a19.5662,19.5662,0,0,1-.3365-2.15159q-.44985-3.86235-.8995-7.7248a29.88383,29.88383,0,0,0-3.9413,7.8396l-1.8152-.71421Q117.94078,430.45027,119.14443,426.631Z"/><path fill="#f7b690" d="M167.08983,302.2047c-3.6651-1.72769-24.6758-3.73029-28.3904-5.34889-5.118-2.2302-8.9963-8.2423-11.5105-13.227a91.819,91.819,0,0,1-3.6028-8.5217l-15.7024,8.2971a92.606,92.606,0,0,0,7.0943,10.4593c3.9919,5.09119,8.6172,9.83819,14.3235,12.8866,5.9483,3.1778,30.5621,2.6301,37.2236,1.5782C171.89273,307.215,170.75493,303.93231,167.08983,302.2047Z"/><path fill="#cc346f" d="M120.75193,268.17321c-1.8525-4.0213-4.3545-8.0036-8.248-10.1117-4.146-2.2447-12.6533-1.7691-13.0641,4.2029-.2419,3.51529,1.7764,7.3536,3.1136,10.5129a92.99131,92.99131,0,0,0,5.1178,10.27339c.0687.119.1432.23471.2125.35351l17.3025-7.2157C124.29123,273.8557,121.79643,270.44091,120.75193,268.17321Z"/><path fill="#f7b690" d="M182.11693,294.92731a7.30243,7.30243,0,0,1,3.9878,3.83939c.6809,1.76761.5148,5.86131-1.239,5.14561-1.4489-.5912-2.3164-2.1411-3.772-1.5664s-2.4811,1.863-3.6533,2.8997c-3.4597,3.0595-16.4741,5.2922-13.5754-2.9778C166.08543,295.93331,176.27183,292.35121,182.11693,294.92731Z"/><path fill="#f4a086" d="M106.208,231.75831c.7313-1.3787,8.7531,2.7567,9.2299,3.747s.9823,12.1968,2.6972,19.1926c.3701,1.5097-14.5928-3.1129-13.5301-4.9406C106.32823,246.7937,108.088,235.49161,106.208,231.75831Z"/><path fill="#f7b690" d="M129.33163,221.65751c-2.771-11.4951-18.4961-9.07081-22.2305-7.9245-3.7346,1.1463-3.8303,6.4291-4.1904,10.3189a9.82575,9.82575,0,0,0,2.0758,6.694c1.3733,1.8323,7.3544,4.5919,7.6927,4.6643,2.2196,3.8258,5.8278,8.201,9.4973,8.1473a5.43316,5.43316,0,0,0,4.123-2.4221,16.07058,16.07058,0,0,0,2.0202-4.506A27.23882,27.23882,0,0,0,129.33163,221.65751Z"/><path fill="#222b56" fill-rule="evenodd" d="M102.11493,228.33821a11.46172,11.46172,0,0,1-2.7081-5.7501,10.72941,10.72941,0,0,1,1.9376-7.2045c2.5326-3.7637,9.0734-8.62191,14.3584-8.7291,5.6452-.1145,15.3414,5.5071,14.4212,12.4926-.2753,2.0899-1.4232,2.1047-3.4225,2.7722-2.6342.8795-6.1693,1.4873-8.354,3.2018-2.6131,2.0507-1.4514,6.9962-6.8002,8.6032-1.7289.5195-3.5055,3.573-4.654,5.9476C105.52853,238.1207,103.43893,229.93781,102.11493,228.33821Z"/><path fill="#222b56" fill-rule="evenodd" d="M94.184,242.738c-.5037,2.1536.2559,4.3995.1342,6.6079-.2828,5.1335-5.0832,8.8447-6.6856,13.7299a7.76078,7.76078,0,0,0,.1531,5.786,4.72814,4.72814,0,0,0,4.8219,2.7087c2.1486-.3885,3.5398-2.4836,4.3456-4.513s1.3381-4.2652,2.8433-5.847c2.3236-2.4416,6.3475-2.6652,8.5853-5.1857,2.1569-2.4294,3.7639-9.1768,3.7639-14.15611,0-9.59979-3.0779-18.35949-7.6851-16.97769-2.7481.8242-3.5416,5.8282-4.2727,8.0286C98.94723,236.65431,95.07123,238.94531,94.184,242.738Z"/><path fill="#f7b690" d="M109.226,229.219a1.9555,1.9555,0,0,0-.5119,1.0089,4.516,4.516,0,0,0,3.4769,5.4527,1.92215,1.92215,0,0,0,1.3873-.136c1.3998-.8534.6897-3.8238.0169-4.9752C112.89693,229.374,110.41833,228.11021,109.226,229.219Z"/><path fill="#a2d1eb" d="M195.108,302.54561l-30.6328,2.4498a2.16532,2.16532,0,0,0-1.9929,2.1585h0a2.16542,2.16542,0,0,0,2.1654,2.1654h30.633a2.16529,2.16529,0,0,0,2.1654-2.1654v-2.4498A2.16545,2.16545,0,0,0,195.108,302.54561Z"/><rect width="126.62" height="3.496" x="118.775" y="377.833" fill="#d0d9df" transform="rotate(-84.712 182.085 379.581)"/><rect width="3.496" height="126.62" x="305.904" y="316.271" fill="#d0d9df" transform="rotate(-5.283 307.652 379.581)"/><path fill="#62c1c5" d="M333.00533,316.54031H156.73253a3.61049,3.61049,0,0,1-3.6104-3.6104h0a3.61053,3.61053,0,0,1,3.6104-3.6106h176.2728a3.61057,3.61057,0,0,1,3.6106,3.6106h0A3.61053,3.61053,0,0,1,333.00533,316.54031Z"/><path fill="#255880" d="M466.62673,326.8337c-1.4789,3.11581-3.4923,6.62981-6.4144,7.50191-2.0261.6046-7.7181-3.2273-8.8575-4.7656s2.3931-75.7107,4.9431-80.22631c3.4208-6.05759,30.419,2.30851,29.4891,12.817-1.1888,13.43411-5.015,27.72661-9.5573,41.04761A222.94491,222.94491,0,0,1,466.62673,326.8337Z"/><path fill="#f4a086" d="M514.95253 395.68821a20.266 20.266 0 01-8.9287-.7131q-.2328-5.2218-.4653-10.4436a2.49609 2.49609 0 01.1624-1.273 2.09961 2.09961 0 011.5806-.8706c2.3705-.4255 6.0275-.5585 6.4155 2.4622C514.18073 388.46 514.53813 392.07711 514.95253 395.68821zM451.163 395.68811a19.19492 19.19492 0 01-8.765-.7131q.96705-5.22165 1.9341-10.4436a2.90883 2.90883 0 01.455-1.2729 2.74267 2.74267 0 011.7806-.8707c2.4682-.4254 6.1558-.5584 5.8497 2.4623C452.05183 388.45981 451.57823 392.07711 451.163 395.68811z"/><path fill="#255880" d="M452.14683,318.29511c3.8545-6.1633,13.1453-10.3877,17.0496.3037,5.9542,16.3054-12.9313,46.8051-15.7412,66.4956H443.343C443.06223,383.18851,450.00853,321.71421,452.14683,318.29511Z"/><path fill="#0a3c5f" fill-rule="evenodd" d="M501.08,267.40381c-2.462,1.9394-5.7172,2.236-8.7705,2.236-25.1355,0-39.6804-8.1744-36.2041-19.7204,3.571-11.8601,26.0652-9.9456,37.8145-6.12371,2.5326.82381,6.2232,1.62151,7.9534,3.98641C504.38133,251.20981,507.06143,262.69221,501.08,267.40381Z"/><path fill="#2d6c9c" d="M426.68993 206.64291c-2.4134.6385-5.356.9193-7.057-.908a4.94381 4.94381 0 01-1.0718-4.0926 11.49506 11.49506 0 011.6304-4.0331c5.8256-9.8967 31.4943-27.8794 42.1357-34.0639 4.6831-2.7218 3.0714 21.8979 1.305 24.59439C461.84333 190.87041 437.88753 203.681 426.68993 206.64291zM509.837 326.49531c-.5332 3.1158-4.5563 6.9682-7.2136 7.8403-1.8426.6047-8.6977-3.2273-10.3041-4.7655s-19.6015-63.7659-18.4222-68.2816a15.00369 15.00369 0 0112.279-10.884c8.1092-1.3125 16.8705 1.5086 20.114 11.75619C514.11833 286.89361 504.41493 305.37251 509.837 326.49531z"/><path fill="#d5e5fd" d="M410.63573,160.06761c-1.0331-1.3844-2.352-2.9127-4.0777-2.8363a3.61244,3.61244,0,0,0-3.038,2.7466c-.123.4251.9389,5.3509,2.3541,10.7319l8.8517-3.5338A65.9498,65.9498,0,0,0,410.63573,160.06761Z"/><path fill="#2d6c9c" d="M414.72583 167.176l-10.5546 3.144c3.2477 12.3485 10.9655 31.8218 15.2584 35.359 3.102 2.5559 6.5163 1.4655 8.942-1.1944C431.00513 201.59721 421.02813 179.25741 414.72583 167.176zM489.12523 318.29511c1.7609-6.15141 10.7099-11.0131 17.1525.3037 10.3734 18.2216 7.9497 45.453 8.5211 66.4956h-10.1123C503.75933 383.18851 488.14643 321.71431 489.12523 318.29511z"/><path fill="#3c79a6" d="M453.38233,173.47351c-2.5609,3.7878-1.6316,9.1858-.9935,13.566,1.3649,9.37119.968,75.544.8402,77.0198a3.7251,3.7251,0,0,0,2.0039,3.789,6.94882,6.94882,0,0,0,2.8719.38639c13.2016-.08559,34.1024-.17109,47.3039-.25669a4.85534,4.85534,0,0,0,2.5318-.4752c1.5849-.9887,1.0365-3.13711.4676-4.78011-3.8078-10.99739-5.6881-39.94869-2.2328-51.03739,3.4286-11.0028,7.6398-24.59461,5.7407-36.0989-4.6578-5.6873-14.183-18.8884-33.0691-18.8884C465.59863,156.698,455.68033,170.07461,453.38233,173.47351Z"/><path fill="#3c79a6" d="M504.742,168.70261c-1.802-.53791-14.4943.2699-11.1072,9.295,4.2045,11.2029,12.6074,20.3273,19.621,30.022a43.0514,43.0514,0,0,0,7.1828,8.327c2.8403,2.3342,6.4547,3.9507,10.1187,3.6497,1.9182-.15761,4.7488-1.0602,5.6898-2.9425.7572-1.5142-.1837-4.0052-.5275-5.51311C534.49943,206.1897,514.75343,171.69041,504.742,168.70261Z"/><path fill="#18898d" fill-rule="evenodd" d="M521.48533,202.10521a.915.915,0,0,1,.0282.2238C521.50593,202.25431,521.49323,202.18011,521.48533,202.10521Z"/><path fill="#d5e5fd" d="M494.44173,243.20541c-.1759,1.8644,3.5308,3.5489,5.357,3.96329.5281.11991,3.2388-2.58519,7.0413-5.22209l-5.8031-5.93491C498.32853,239.39711,494.47763,242.8247,494.44173,243.20541Z"/><path fill="#acccfd" d="M468.08983,224.08361c2.3942-12.6926,4.8422-25.34891,7.7067-36.8418,2.7088-10.8686,9.2273-18.527,17.4431-25.66411-6.786-5.29749-18.6191-5.79979-24.4362,1.12151-7.1775,8.5398-4.8958,24.0271-4.5742,34.2661C464.48453,205.0907,466.83553,224.0977,468.08983,224.08361Z"/><path fill="#cc346f" d="M476.16323,166.62031c.9473-1.3669,2.2074-2.8123,1.9198-4.4504a2.67806,2.67806,0,0,0-2.2008-2.1296c-4.0083-.5684-2.1693,3.7902-1.5963,5.70839-3.8491,5.77211-8.4782,17.88441-10.0117,32.33841.413,8.6241,2.616,26.0099,3.8156,25.9965,1.6314-8.6486,3.2912-17.2707,5.0873-25.529C473.51933,189.01711,474.39113,169.17761,476.16323,166.62031Z"/><path fill="#3c79a6" d="M536.40793,214.32491c-.4806-1.7217-2.2432-2.7357-3.923-3.3471a18.38066,18.38066,0,0,0-9.3594-1.1193c-2.0647.416-2.7025,2.2924-3.8823,3.8053-2.9523,3.78589-14.4964,17.51489-20.2777,24.7415l6.3256,7.9542c9.3451-6.4803,26.3204-22.88481,29.1611-26.5973C535.66833,218.17311,536.94573,216.25241,536.40793,214.32491Z"/><path fill="#222b56" fill-rule="evenodd" d="M476.72453,122.74481c1.4576-1.4638,11.5269-5.2976,14.7684,1.9692a18.10949,18.10949,0,0,1,.9583,9.5529c-.7837,3.59-4.2271,15.26579-1.7856,16.94179a8.33414,8.33414,0,0,1-10.2667-8.23379c.0435-2.8569,1.5416-5.7259.7305-8.4655a10.55928,10.55928,0,0,0-2.9623-4.1745c-.9776-.9857-2.6221-2.07221-2.8745-3.47621A5.00314,5.00314,0,0,1,476.72453,122.74481Z"/><path fill="#222b56" fill-rule="evenodd" d="M467.43173,127.36811a5.31263,5.31263,0,0,1,1.4593-3.277c1.4483-1.3125,3.7526-1.1038,5.5188-.2663.9519.4515,1.9279,1.2301,1.9336,2.2837a3.16265,3.16265,0,0,1-1.3354,2.1871c-1.5253,1.3498-3.7145,3.3505-5.7265,3.8884C466.79853,132.8477,467.23393,128.79511,467.43173,127.36811Z"/><path fill="#f4a086" d="M473.54013,143.45631c1.2937-5.70961,5.6138-7.0473,8.1259-5.6769,1.6096,10.6875,3.2502,15.4376,7.4394,21.2672-5.2081,3.3393-14.1001,2.7179-16.0219,0C473.00683,158.19021,472.87123,146.40851,473.54013,143.45631Z"/><path fill="#f7b690" d="M484.11133,129.983a8.8922,8.8922,0,0,0-14.8357-2.2215c-4.0967,4.5649-4.5812,16.5957-3.0607,19.5737,2.659,5.2074,12.1931,2.9181,14.2257.1899C483.41773,143.529,486.14763,134.86131,484.11133,129.983Z"/><path fill="#222b56" fill-rule="evenodd" d="M468.13213,128.91131c-.1711,1.341-.0938,2.7146-.3977,4.0318a3.97706,3.97706,0,0,1-2.3976,3.0409,4.915,4.915,0,0,0,.4136-3.5846c-.243-1.2088-.702-2.3694-.892-3.5876a8.28612,8.28612,0,0,1,10.0048-9.3615,5.52056,5.52056,0,0,1,3.6109,2.3769,3.33719,3.33719,0,0,1-.4352,4.0798,3.95445,3.95445,0,0,1-3.4424.6671c-.9681-.224-1.2648-.8872-2.0601-1.32641C470.04743,123.87331,468.39,126.88941,468.13213,128.91131Z"/><path fill="#f7b690" d="M488.13513,140.68881a5.62471,5.62471,0,0,1-2.3048,3.528c-3.3943,2.3385-4.6898-2.5423-3.356-4.95611C484.06433,136.383,488.87443,136.8407,488.13513,140.68881Z"/><path fill="#222b56" fill-rule="evenodd" d="M475.87383,125.7387c.0258,1.09791,2.9471,2.88171,3.7512,3.62961a9.53841,9.53841,0,0,1,2.2171,2.4108,5.87434,5.87434,0,0,1,.1329,4.14959,24.11343,24.11343,0,0,0-1.0285,4.11371,4.00516,4.00516,0,0,0,1.5149,3.746,4.25084,4.25084,0,0,1,.8772-3.9482c.8383-1.1324,1.9466-2.0482,2.7483-3.2067a7.76772,7.76772,0,0,0,.5582-7.7111c-.8555-1.7235-3.2057-4.5219-5.0013-5.1961C480.15793,123.16851,475.81563,123.25291,475.87383,125.7387Z"/><path fill="#0a3c5f" fill-rule="evenodd" d="M423.10653 400.80281c-.1296-1.4468 1.2434-2.6455 2.6563-2.9824a19.68639 19.68639 0 014.3431-.0973 11.728 11.728 0 0010.0676-6.2142 2.96469 2.96469 0 011.011-1.3438 1.94906 1.94906 0 012.1047.3863c.5862.48129 1.0003 1.1381 1.5359 1.6752a5.1593 5.1593 0 003.6859 1.4755c1.1365-.0168 2.409-.8848 3.5008-.3111.9637.5065 1.2232 1.8411 1.4675 2.7924.4208 1.6392.8023 3.2896 1.2035 4.9338a6.88817 6.88817 0 01.2026 1.1196h-7.8942a11.095 11.095 0 01-.8236-2.6437 6.23015 6.23015 0 01-.6839 2.6437h-21.6963A2.44227 2.44227 0 01423.10653 400.80281zM502.37813 400.80281a3.39552 3.39552 0 011.1675-2.9824c.6211-.33671 1.5906-2.762 2.8765-6.3115.5883-1.6236 3.8657-2.0774 5.5024.7177.5311.907 1.0242 1.4954 1.6201 1.4755.4996-.0168 1.0589-.8848 1.5388-.3111a6.72476 6.72476 0 01.6451 2.7924c.1849 1.6392.3526 3.2896.5289 4.9338.039.364.0772.7447.0891 1.1196h-13.6691A4.26694 4.26694 0 01502.37813 400.80281z"/><path fill="#d5e5fd" d="M470.484,164.51781q1.2588-.9219,2.5174-1.8439a2.25139,2.25139,0,0,1,3.7346.3915q1.243,1.39755,2.4862,2.7948a2.75007,2.75007,0,0,0,1.4036,1.0187,2.718,2.718,0,0,0,2.058-.806,71.9003,71.9003,0,0,0,7.5433-6.7883.88471.88471,0,0,0,.0926-1.457q-1.5627-1.9005-3.1251-3.8011a24.78647,24.78647,0,0,1-7.2458,2.6028,9.61623,9.61623,0,0,1-5.8422-.8787c-.2947-.1575-.8498-.7045-1.1876-.5211-.327.1776-.4067,1.244-.4929,1.5857q-.45465,1.80345-.9094,3.6068Q471.00043,162.46981,470.484,164.51781Z"/><rect width="36.231" height="1.07" x="450.051" y="248.701" fill="#255880" transform="rotate(-88.934 468.166 249.236)"/><path fill="#255880" d="M471.30733 224.05821l-.9482-.4961a105.64875 105.64875 0 0123.6253-30.1892l-6.8642-4.9338 6.9519-2.3022c1.9163-8.05 2.4708-15.0916-.9252-23.1579l.9857-.4146c3.5497 8.4307 2.9304 15.7366.9096 24.1119l-.0699.2888-5.5254 1.82959 6.2543 4.49461-.5075.4439A104.59008 104.59008 0 00471.30733 224.05821zM465.714 224.325a87.036 87.036 0 01-9.5093-32.9754l-.0324-.39791 2.4593-.954a4.8277 4.8277 0 01-2.0834-2.76479 9.75035 9.75035 0 01.1264-4.79121 39.11944 39.11944 0 019.5136-18.24079l.7853.7267a38.04862 38.04862 0 00-9.2546 17.7418 8.82575 8.82575 0 00-.1431 4.267 3.26569 3.26569 0 002.7037 2.4692l2.5689.1018-5.5452 2.1529a85.98711 85.98711 0 009.3591 32.1697z"/><path fill="#f7b690" d="M491.78253 248.50321a6.48711 6.48711 0 00.7103 4.9597 5.61347 5.61347 0 003.8602 2.1466 13.65474 13.65474 0 004.5114-.3123 5.39033 5.39033 0 002.9124-1.25451 1.9992 1.9992 0 00.0711-2.85249c-1.0042-.7792-2.6516-.0429-3.6451-.8357-.9975-.7961-.5455-2.3555-.5959-3.63081-.0762-1.92759-2.0789-4.24319-4.1618-3.90979C493.14353 243.18221 492.15633 246.58661 491.78253 248.50321zM400.56153 153.65531a7.69862 7.69862 0 018.3124-4.47261c.2013-3.63849-2.4693-12.874.6039-10.91559 1.363.8685 3.6932 12.7849 2.4896 19.2508-.3979 2.1375-1.0936 4.3571-2.735 5.78279C403.75763 168.0557 398.68813 158.18451 400.56153 153.65531z"/><path fill="#f4a086" d="M406.39873,163.98051a.53163.53163,0,0,1-.1848-.0329,2.3499,2.3499,0,0,1-1.3201-2.4186,6.7074,6.7074,0,0,1,.3499-1.5409c.0772-.2465.1545-.4929.2141-.7435a5.18723,5.18723,0,0,0-1.1571-4.5725c-.0836-.0929-.1692-.1828-.2548-.2731a4.76463,4.76463,0,0,1-.7029-.8678,1.83115,1.83115,0,0,1-.0866-1.8678,2.17043,2.17043,0,0,1,2.6379-.5575,7.69042,7.69042,0,0,1,4.8048,5.283.53466.53466,0,1,1-1.038.2569,6.595,6.595,0,0,0-4.1219-4.5312c-.5326-.1885-1.1768-.2125-1.3679.1039a.822.822,0,0,0,.0929.7697,3.94006,3.94006,0,0,0,.5566.67349c.094.09871.188.19791.2788.29981a6.2704,6.2704,0,0,1,1.3983,5.529c-.0647.27519-.1493.54619-.2339.8171a5.73748,5.73748,0,0,0-.3028,1.2965,1.32834,1.32834,0,0,0,.6223,1.34.53473.53473,0,0,1-.1848,1.0364Z"/><path fill="#255880" d="M477.03333 236.54651a2.44841 2.44841 0 112.4478-2.4484A2.45135 2.45135 0 01477.03333 236.54651zm0-3.8274a1.379 1.379 0 101.3785 1.379A1.3811 1.3811 0 00477.03333 232.71911zM476.343 249.97261a2.4484 2.4484 0 112.4488-2.4484A2.4512 2.4512 0 01476.343 249.97261zm0-3.8274a1.379 1.379 0 101.3795 1.379A1.38024 1.38024 0 00476.343 246.14521zM468.658 240.854c.411 9.33269.491 18.58469 4.2792 27.124-2.0938.0785-4.6731 1.1851-6.4452-.1941-1.9556-1.5218-.6065-5.3249-.3461-7.3541C466.94123 254.23261 468.95693 247.08091 468.658 240.854z"/></g></svg>