<svg xmlns="http://www.w3.org/2000/svg" width="281.6" height="160.946" enable-background="new 0 0 300 280" viewBox="9.2 59.527 281.6 160.946"><path fill="#ebf5ff" d="M68.56 201.198h54.226c1.86-3.98 8.423-5.495 15.074-5.832 4.169-.21 8.684-.487 12.853-.06 4.177.428 8.305 2.21 12.362 3.666h89.862c17.59-13.819 23.466-41.088 18.486-63.092-5.16-22.794-20.455-41.376-38.547-52.385-18.092-11.01-38.79-15.159-59.23-16.306a221.839 221.839 0 0 0-61.023 5.061c-6.538 1.468-13.118 3.27-18.97 6.934-5.851 3.663-10.97 9.417-13.023 16.71-2.281 8.105-.575 16.868.338 25.322.913 8.455.704 18-4.381 24.19-4.957 6.035-13.087 7.061-18.656 12.34-8.413 7.977-8.14 24.12-1.308 33.894 2.065 2.953 4.56 5.376 11.937 9.558z"/><path fill="#71a01f" d="M145.451 201.142h36.198c.92-.825 1.59-1.79 1.949-2.814a5.09 5.09 0 0 0 .216-2.705h-36.207c.223 1.086.06 2.202-.425 3.24-.384.824-.972 1.6-1.731 2.28z"/><path fill="#71a01f" d="M150.047 199.363c-.554 1.321-1.575 2.522-2.95 3.392-2.997 1.898-7.13 2.123-10.974 2.218-3.845.094-7.944.199-11.102 1.924-.96.524-1.197 1.914-2.35 2.044-8.53.963-12.295.634-15.753.86-.54.037-.948-.268-.941-.63v-.01c0-2.06-14.386-3.722-32.135-3.722-1.69 0-4.92-.057-4.92-.11-11.882-1.478-3.618-4.346 1.969-4.897 21.515-1.67 57.166-1.811 79.156-1.069zM278 206.85c0 2.652-32.716 4.801-73.068 4.801-16.128 0-31.4 3.33-43.11-.928-.8-.293 1.342-.345 1.249-.513-.487-.855-2.412-.406-7.663-1.63-.956-.223 1.268-1.238 2.089-1.683 3.157-1.725 7.263-1.83 11.108-1.924 3.845-.095 7.977-.32 10.974-2.218 1.562-.986 2.657-2.396 3.137-3.926 7.99-.394 17.556-.624 27.83-.624 28.07 0 50.826 1.693 50.826 3.8 0 .53-6.736 1.259-4.059 1.49 3.618.314 6.809.607 9.54.896 7.182.77 11.147 1.51 11.147 2.458z"/><path fill="#f9f6ef" d="M192.88 137.11v62.963h-63.767V137.11l31.89-38.056z"/><path fill="#e6d6cd" d="M129.113 186.948h63.768v13.125h-63.768z"/><path fill="#f9f6ef" d="M192.881 142.806h66.172v57.267h-66.172z"/><path fill="#e6d6cd" d="M192.881 142.806h66.172v3.718h-66.172zM192.881 187.198h66.172v12.875h-66.172z"/><path fill="#d6c1b6" d="M192.881 142.806h3.085v57.267h-3.085z"/><path fill="#f9f6ef" d="M75.475 143.872h53.637v56.2H75.475z"/><path fill="#e6d6cd" d="M75.476 186.948h53.637v13.125H75.476z"/><path fill="#d6c1b6" d="M126.365 143.872h2.748v56.201h-2.748z"/><path fill="#e6d6cd" d="M75.476 143.872h53.637v3.188H75.476z"/><path fill="#1d6b87" d="m129.265 143.686 27.055-33.096a.508.508 0 0 0-.393-.829H93.931a.508.508 0 0 0-.393.186L66.44 143.043a.508.508 0 0 0 .393.83h62.04a.508.508 0 0 0 .392-.187z"/><path fill="#094b6f" d="m156.318 110.59-27.056 33.096a.493.493 0 0 1-.387.187h-9.86c.154 0 .301-.066.395-.187l27.055-33.096a.506.506 0 0 0-.394-.828h9.853c.434 0 .667.494.394.828z"/><path fill="#094b6f" d="m135.321 136.284-1.024 1.244h-63.34l1.025-1.244zM140.088 130.452l-1.014 1.243h-63.34l1.014-1.243zM144.854 124.62l-1.014 1.243H80.51l1.015-1.244zM149.62 118.787l-1.014 1.244H85.277l1.024-1.244zM154.375 112.965l-1.013 1.244H90.043l1.014-1.244zM68.221 140.867l-1.781 2.176a.508.508 0 0 0 .393.83h62.04a.508.508 0 0 0 .392-.187l2.304-2.819H68.221z"/><path fill="#1d6b87" d="M267.218 143.739a.518.518 0 0 1-.48.303h-67.51a.52.52 0 0 1-.408-.189C158.34 95.47 160.25 98.375 160.521 97.8a.552.552 0 0 1 .481-.314c71.863.078 67.621-.173 67.917.188l38.226 45.512a.513.513 0 0 1 .073.554z"/><path fill="#094b6f" d="M204.427 144.04h-5.2c-.154 0-.3-.06-.408-.187-40.36-48.242-38.578-45.488-38.296-46.053a.551.551 0 0 1 .48-.314h5.2c-.2 0-.386.127-.48.314a.528.528 0 0 0 .074.554l38.223 45.5a.522.522 0 0 0 .407.186z"/><path fill="#094b6f" d="M260.767 135.594h-68.89l-1.045-1.244h68.89zM254.287 127.87h-68.9l-1.046-1.244h68.9zM247.785 120.135h-68.889l-1.045-1.243h68.89zM241.295 112.411h-68.89l-1.045-1.243h68.89zM234.804 104.677h-68.9l-1.045-1.244h68.9zM265.897 141.699h-68.886l1.81 2.154a.52.52 0 0 0 .407.188h67.51a.519.519 0 0 0 .48-.303.513.513 0 0 0-.073-.553l-1.248-1.486z"/><path fill="#e6d6cd" d="M124.023 144.306h5.376l32.203-38.605 31.279 38.672h5.222l-37.1-45.32z"/><path fill="#1d6b87" d="M124.339 144.373a1.568 1.568 0 0 1-1.2-2.575L159.8 98.045c.506-.603 1.097-.536 1.202-.56.464 0 .904.205 1.202.561l36.65 43.753a1.567 1.567 0 1 1-2.403 2.013l-35.449-42.318-35.461 42.319c-.31.37-.755.56-1.203.56z"/><path fill="#e6d6cd" d="M177.883 165.244v34.829H144.11v-34.83c0-9.325 7.56-16.885 16.886-16.885s16.886 7.56 16.886 16.886z"/><path fill="#0e5777" d="M146.86 200.073v-35.147c0-7.807 6.33-14.136 14.137-14.136s14.136 6.33 14.136 14.136v35.147"/><path fill="#064059" d="M168.193 152.756c-1.4-.46-2.885-.71-4.442-.71-7.808 0-14.142 6.323-14.142 14.13v33.897h-2.749v-35.15c0-7.808 6.334-14.132 14.142-14.132 2.624 0 5.08.71 7.191 1.965z"/><path fill="#0e5777" d="M173.867 133.731c.25 0 .456-.213.44-.463-.442-6.975-6.231-12.505-13.318-12.505-7.072 0-12.86 5.53-13.303 12.505-.015.25.19.463.44.463h25.741z"/><path fill="#b8d5ff" d="M149.387 132.163a11.706 11.706 0 0 1 11.602-9.832 11.717 11.717 0 0 1 11.618 9.832h-23.22z"/><path fill="#fff" d="m161.11 122.332-9.312 9.833h-1.348l9.245-9.76c.428-.046.855-.073 1.295-.073h.12z" opacity=".6"/><path fill="#fff" d="m157.526 122.846-7.944 8.39a11.676 11.676 0 0 1 7.944-8.39z"/><path fill="#fff" d="m167.686 124.402-7.357 7.763h-1.348l7.857-8.298c.287.16.574.34.848.535zM172.125 130.262l-1.803 1.903h-1.348l2.757-2.91c.147.326.28.66.394 1.007zM171.11 128.06l-3.885 4.105h-5.147l6.622-6.99a11.643 11.643 0 0 1 2.41 2.885z" opacity=".6"/><path fill="#0a485e" d="M167.775 124.463a11.792 11.792 0 0 0-5.675-1.443 11.69 11.69 0 0 0-11.466 9.146h-1.244a11.694 11.694 0 0 1 11.602-9.836c2.529 0 4.87.784 6.783 2.133z" opacity=".6"/><path fill="#0e5777" d="M160.25 120.763h1.495v12.108h-1.495z"/><path fill="#0e5777" d="m162.93 132.87 7.758-7.757-1.057-1.057-8.815 8.815z"/><path fill="#0e5777" d="m161.223 132.87-8.87-8.87-1.056 1.058 7.813 7.813zM209.664 154.425v34.562c0 .385.311.696.696.696h12.091a.696.696 0 0 0 .696-.696v-34.562a.696.696 0 0 0-.696-.697H210.36a.696.696 0 0 0-.696.697z"/><path fill="#b8d5ff" d="M211.232 187.488v-31.564c0-.346.28-.627.627-.627h9.093c.347 0 .628.28.628.627v31.564c0 .347-.281.628-.628.628h-9.093a.627.627 0 0 1-.627-.628z"/><path fill="#fff" d="m220.725 155.296-9.49 10.024v-3.648l6.03-6.376zM221.582 177.611v3.617l-6.522 6.888h-3.199a.427.427 0 0 1-.198-.042l9.919-10.463zM221.582 159.048v13.86l-10.348 10.933v-13.85z" opacity=".6"/><path fill="#0a485e" d="M221.582 155.923v31.565a.629.629 0 0 1-.627.628h-1.882a.629.629 0 0 0 .627-.628v-31.565a.629.629 0 0 0-.627-.627h1.882c.344 0 .627.282.627.627z" opacity=".6"/><path fill="#0e5777" d="M210.701 165.929h11.1v1.661h-11.1zM210.701 175.822h11.1v1.661h-11.1zM233.116 154.425v34.562c0 .385.311.696.696.696h12.091a.696.696 0 0 0 .696-.696v-34.562a.696.696 0 0 0-.696-.697h-12.091a.696.696 0 0 0-.696.697z"/><path fill="#b8d5ff" d="M234.683 187.488v-31.564c0-.346.281-.627.628-.627h9.093c.346 0 .627.28.627.627v31.564c0 .347-.28.628-.627.628h-9.093a.627.627 0 0 1-.628-.628z"/><path fill="#fff" d="m244.176 155.296-9.49 10.024v-3.648l6.03-6.376zM245.033 177.611v3.617l-6.522 6.888c-3.337-.011-3.252.03-3.397-.042l9.92-10.463zM245.033 159.048v13.86l-10.347 10.933v-13.85z" opacity=".6"/><path fill="#0a485e" d="M245.033 155.923v31.565a.629.629 0 0 1-.627.628h-1.881a.629.629 0 0 0 .627-.628v-31.565a.629.629 0 0 0-.627-.627h1.881c.345 0 .627.282.627.627z" opacity=".6"/><path fill="#0e5777" d="M115.668 154.425v34.562a.696.696 0 0 1-.696.696H87.768a.696.696 0 0 1-.696-.696v-34.562c0-.385.312-.697.696-.697h27.204c.384 0 .696.312.696.697z"/><path fill="#b8d5ff" d="M114.1 187.488v-31.564a.627.627 0 0 0-.627-.627H89.268a.627.627 0 0 0-.628.627v31.564c0 .347.281.628.628.628h24.205c.346 0 .627-.281.627-.628z"/><path fill="#fff" d="m105.167 155.296-16.524 17.455v-4.034l12.699-13.42zM114.104 171.633v4.013l-11.8 12.47h-3.816zM114.104 155.923v10.484l-20.549 21.709H89.27a.629.629 0 0 1-.627-.628v-9.542l21.426-22.65h3.408c.345 0 .627.282.627.627z" opacity=".6"/><path fill="#0a485e" d="M88.638 155.923v31.565c0 .345.282.628.627.628h1.882a.629.629 0 0 1-.628-.628v-31.565c0-.345.283-.627.628-.627h-1.882a.629.629 0 0 0-.627.627z" opacity=".6"/><path fill="#0e5777" d="M88.419 162.831h26.212v1.661H88.419zM88.419 171.486h26.212v1.661H88.419zM88.419 180.141h26.212v1.661H88.419z"/><path fill="#0e5777" d="M100.038 155.295h1.669v32.823h-1.669zM233.881 165.929h11.836v1.661h-11.836zM233.881 175.822h11.836v1.661h-11.836z"/><path fill="#064059" d="M171.23 164.46H153.3a.78.78 0 0 1-.78-.847c.48-5.053 4.67-8.863 9.745-8.863s9.264 3.81 9.745 8.863a.78.78 0 0 1-.78.846zm-8.965-9.046a9.09 9.09 0 0 0-9.084 8.262c-.005.062.053.119.12.119h17.93c.063 0 .123-.055.118-.12a9.09 9.09 0 0 0-9.084-8.26zM171.266 196.137h-17.999a.786.786 0 0 1-.785-.785V168.86c0-.433.352-.785.785-.785h17.999c.433 0 .785.352.785.785v26.493a.786.786 0 0 1-.785.785zm-17.999-27.388a.11.11 0 0 0-.11.11v26.493c0 .06.05.11.11.11h17.999c.06 0 .11-.05.11-.11V168.86a.11.11 0 0 0-.11-.11h-17.999z"/><path fill="#2e471f" d="M269.123 203.641c0 1.03-11.095 1.863-24.78 1.863-13.679 0-24.773-.832-24.773-1.863 0-1.03 11.094-1.87 24.774-1.87 13.684 0 24.779.84 24.779 1.87z"/><path fill="#2e471f" d="M260.018 196.217a4.8 4.8 0 0 0-1.875-1.272 7.002 7.002 0 0 0 1.349-1.753 3.997 3.997 0 0 0 3.49-3.629 3.997 3.997 0 0 0-4.396-4.314 6.976 6.976 0 0 0-4.665-2.36 6.979 6.979 0 0 0-5.223 1.73 3.996 3.996 0 0 0-4.419 2.429c-1.816-3.062-6.01-3.691-8.65-1.25a5.62 5.62 0 0 0-3.989-2.182c-4.645-.395-7.653 4.7-5.234 8.576a4.174 4.174 0 0 0-2.246 3.359c-.248 2.91 2.47 5.124 5.221 4.395.248.365.554.688.904.96l4.5.382a4.184 4.184 0 0 0 1.406-1.197c.268.523.626.993 1.042 1.405l10.637.905c.197-.138.388-.284.565-.446.103.184.222.357.35.523l12.185 1.037a3.688 3.688 0 0 0 2.923-3.297 3.694 3.694 0 0 0-3.875-4zm-15.485-3.908c.172-.372.308-.764.398-1.175a3.995 3.995 0 0 0 1.86 1.233c.055.146.113.29.178.432a5.498 5.498 0 0 0-2.436-.49z"/><path fill="#2e471f" d="M249.903 195.974c.033.018.063.038.096.056l-.06.035c-.011-.03-.025-.06-.036-.091z"/><path fill="#2e471f" d="M230.057 203.577c.4.454.86.853 1.365 1.193h7.78c.258-.173.51-.357.743-.563a3.993 3.993 0 0 0 4.418-2.429c1.817 3.06 6.011 3.691 8.65 1.25a5.638 5.638 0 0 0 2.237 1.742h4.455a5.621 5.621 0 0 0 2.532-8.136c.368-.188.698-.433.992-.72l-34.199-2.908c.428.372.924.67 1.47.875a7.014 7.014 0 0 0-1.349 1.752 3.998 3.998 0 0 0-3.49 3.63c-.21 2.484 1.886 4.576 4.396 4.314zm14.053-7.06a5.726 5.726 0 0 0-.398 1.174 3.998 3.998 0 0 0-1.86-1.232 7.143 7.143 0 0 0-.178-.432c.8.362 1.661.52 2.436.49z"/><path fill="#71a01f" d="M235.488 193.636c-2.216 2.443-1.472 6.434 1.637 7.851l3.344.284a4.99 4.99 0 0 0 3.13-2.492 4.715 4.715 0 0 0 6.331.16c2.028 2.82 6.24 2.85 8.307.027 2.167 2.865 6.799 1.56 7.107-2.065a3.963 3.963 0 0 0-1.265-3.258 3.968 3.968 0 0 0-2.707-5.209 3.975 3.975 0 0 1-2.73 2.188 3.91 3.91 0 0 0-2.325-1.329c.35-2.333-1.284-4.107-3.268-4.276a3.636 3.636 0 0 0-3.931 3.315l-.008.084c-1.794-2.523-5.492-2.701-7.509-.334a4.01 4.01 0 0 0-3.135-1.992c-3.882-.33-5.903 4.505-2.978 7.046z"/><circle cx="233.505" cy="197.44" r="3.542" fill="#71a01f" transform="rotate(-71.857 233.505 197.44)"/><circle cx="233.985" cy="188.595" r="2.675" fill="#71a01f" transform="rotate(-71.857 233.985 188.595)"/><path fill="#2e471f" d="M231.457 191.497c.748 3.215 5.446 3 5.904-.289a3.006 3.006 0 0 1-1.941 3.531c-2.162.754-4.278-1.09-3.963-3.242zM243.126 187.275l-1.746-.149c-1.439 1.355-1.207 3.711.478 4.749a3.002 3.002 0 0 1 1.268-4.6zM244.033 197.966a2.566 2.566 0 0 0-4.797-1.557 2.565 2.565 0 0 1 2.618-2.23c1.952.053 3.082 2.166 2.18 3.787z"/><path fill="#2e471f" d="M239.317 196.295c.25-1.86-2.298-2.714-3.213-1.043a1.718 1.718 0 0 1 1.753-1.493c1.308.036 2.065 1.45 1.46 2.536zM256.032 197.964a3.114 3.114 0 0 0-2.116-5.744 3.113 3.113 0 0 1 4.091.823c1.415 1.902.248 4.566-1.975 4.921z"/><path fill="#2e471f" d="M262.357 196.92a3.683 3.683 0 0 1-4.201 3.336c3.211-1.623 2.415-6.425-1.129-6.937 2.532-1.288 5.576.704 5.33 3.6zM247.326 200.753a2.566 2.566 0 0 0 1.608-4.78 2.565 2.565 0 0 1 2.201 2.641c-.074 1.952-2.198 3.06-3.81 2.14zM252.252 189.314c.755 1.298 2.498 1.67 3.73.765a2.566 2.566 0 0 0 1.013-2.48 2.565 2.565 0 0 1-.699 3.367c-1.574 1.157-3.762.181-4.044-1.652z"/><path fill="#71a01f" d="M225.364 192.955a4.072 4.072 0 0 1 1.042-.763 1.159 1.159 0 0 1-.051-.09 3.002 3.002 0 0 0 3.15-2.588c.355 1.48-1.871 4.44-4.14 3.44z"/><path fill="#2e471f" d="M131.936 203.011c0 1-10.758 1.806-24.027 1.806-13.265 0-24.023-.807-24.023-1.806 0-1 10.758-1.813 24.023-1.813 13.269 0 24.027.813 24.027 1.813z"/><path fill="#2e471f" d="M123.108 195.812a4.655 4.655 0 0 0-1.818-1.234 6.79 6.79 0 0 0 1.308-1.699 3.876 3.876 0 0 0 3.383-3.519 3.876 3.876 0 0 0-4.262-4.184 6.764 6.764 0 0 0-4.524-2.288 6.767 6.767 0 0 0-5.064 1.678 3.875 3.875 0 0 0-4.285 2.355 5.434 5.434 0 0 0-4.221-2.645 5.437 5.437 0 0 0-4.167 1.433 5.45 5.45 0 0 0-3.868-2.116 5.441 5.441 0 0 0-5.883 4.964 5.395 5.395 0 0 0 .758 3.266c.015.03.03.056.05.086a3.945 3.945 0 0 0-1.01.74 4.027 4.027 0 0 0-1.168 2.517 4.047 4.047 0 0 0 5.063 4.262c.24.354.537.667.876.93l4.364.371a4.057 4.057 0 0 0 1.363-1.16c.26.507.607.962 1.01 1.362l10.315.877a5.43 5.43 0 0 0 .548-.432c.1.178.215.346.338.508l11.816 1.004a3.576 3.576 0 0 0 2.835-3.196 3.582 3.582 0 0 0-3.757-3.88zm-15.015-3.79c.166-.36.298-.74.385-1.138a3.873 3.873 0 0 0 1.803 1.194c.054.142.11.282.174.42a5.33 5.33 0 0 0-2.362-.476z"/><path fill="#2e471f" d="M113.3 195.576c.03.018.06.038.092.055l-.059.034c-.01-.03-.023-.06-.033-.089z"/><path fill="#2e471f" d="M93.328 202.957c.247.021.49.016.727-.008.387.44.834.827 1.323 1.157h7.544c.25-.168.495-.347.721-.547a3.872 3.872 0 0 0 4.285-2.355c1.76 2.968 5.828 3.58 8.388 1.212a5.467 5.467 0 0 0 2.168 1.69h4.32a5.442 5.442 0 0 0 3.263-4.538 5.423 5.423 0 0 0-.808-3.352 3.94 3.94 0 0 0 .962-.698l-33.162-2.82c.415.361.896.65 1.425.849a6.802 6.802 0 0 0-1.307 1.7 3.876 3.876 0 0 0 .151 7.711zm14.354-6.854c-.166.36-.298.74-.386 1.139a3.876 3.876 0 0 0-1.803-1.195 6.92 6.92 0 0 0-.174-.42 5.337 5.337 0 0 0 2.363.476z"/><path fill="#71a01f" d="M99.321 193.31c-2.149 2.368-1.427 6.238 1.588 7.612l3.243.276a4.838 4.838 0 0 0 3.035-2.417 4.572 4.572 0 0 0 6.139.155c1.966 2.735 6.051 2.764 8.054.026a3.846 3.846 0 1 0 5.665-5.161 3.847 3.847 0 0 0-2.625-5.05 3.855 3.855 0 0 1-2.647 2.12 3.791 3.791 0 0 0-2.255-1.288c.34-2.263-1.244-3.983-3.168-4.147a3.526 3.526 0 0 0-3.812 3.215l-.007.081c-1.74-2.446-5.326-2.619-7.282-.323a3.888 3.888 0 0 0-3.04-1.932c-3.764-.32-5.724 4.368-2.888 6.832z"/><circle cx="97.398" cy="196.998" r="3.434" fill="#71a01f" transform="rotate(-71.857 97.398 196.998)"/><circle cx="97.864" cy="188.422" r="2.594" fill="#71a01f" transform="rotate(-71.857 97.864 188.422)"/><path fill="#2e471f" d="M95.413 191.236c.022.093.051.188.084.282 1.003 2.877 5.219 2.466 5.64-.563a2.915 2.915 0 0 1-1.882 3.424 2.911 2.911 0 0 1-3.842-3.143zM106.728 187.141l-1.693-.144c-1.396 1.313-1.17 3.598.463 4.604a2.91 2.91 0 0 1 1.23-4.46zM107.607 197.508a2.488 2.488 0 0 0-4.652-1.51 2.488 2.488 0 0 1 2.539-2.162c1.894.052 2.989 2.1 2.113 3.672z"/><path fill="#2e471f" d="M103.034 195.888c.243-1.8-2.226-2.636-3.116-1.011a1.666 1.666 0 0 1 1.7-1.448c1.269.034 2.002 1.406 1.416 2.459zM119.243 197.506c2.855-1.683 1.236-6.12-2.053-5.57a3.019 3.019 0 0 1 3.968.799c1.372 1.844.24 4.426-1.915 4.771z"/><path fill="#2e471f" d="M125.376 196.493a3.571 3.571 0 0 1-4.074 3.235c3.114-1.573 2.342-6.23-1.094-6.726 2.454-1.25 5.406.682 5.168 3.491zM110.8 200.21c2.702.395 3.955-3.29 1.56-4.635a2.488 2.488 0 0 1 2.134 2.562c-.072 1.892-2.132 2.966-3.694 2.074zM115.577 189.118a2.488 2.488 0 0 0 4.6-1.662 2.488 2.488 0 0 1-.678 3.265 2.484 2.484 0 0 1-3.922-1.603z"/><path fill="#71a01f" d="M91.64 192.734a2.917 2.917 0 0 1-2.135-.085 3.948 3.948 0 0 1 1.01-.74 1.126 1.126 0 0 1-.05-.086 2.906 2.906 0 0 0 3.055-2.51 2.91 2.91 0 0 1-1.88 3.421zM66.04 211.113c0 1.126-8.92 2.044-19.928 2.044-11.004 0-19.925-.918-19.925-2.044 0-1.13 8.92-2.043 19.925-2.043 11.008 0 19.929.913 19.929 2.043zM100.872 209.51c0 1.126-6.522 2.044-14.571 2.044-8.046 0-14.569-.918-14.569-2.044 0-1.13 6.523-2.044 14.569-2.044 8.049 0 14.571.913 14.571 2.044z"/><path fill="#d34f4f" d="M43.712 159.077c-11.994 0-21.712 9.728-21.712 21.721 0 10.072 15.307 25.474 20.216 30.154a2.14 2.14 0 0 0 1.428.595l.005.005h2.956v-1.953c5.911-5.809 18.823-19.553 18.823-28.801 0-11.993-9.723-21.72-21.716-21.72zm.004 30.915c-5.979 0-10.829-4.85-10.829-10.824 0-5.983 4.85-10.83 10.83-10.83 5.973 0 10.824 4.847 10.824 10.83 0 5.974-4.85 10.824-10.825 10.824z"/><path fill="#ea7878" d="M24.891 180.797c0 .074 0 .143.007.217.21 10.073 15.342 25.286 20.208 29.935a2.151 2.151 0 0 0 2.992 0 126.285 126.285 0 0 0 4.388-4.382c.702-.733 1.446-1.52 2.204-2.359 2.004-2.197 4.146-4.692 6.125-7.305a77.013 77.013 0 0 0 1.912-2.644c.484-.708.95-1.415 1.397-2.129 2.47-3.972 4.195-7.95 4.195-11.333 0-11.991-9.72-21.717-21.717-21.717-3.99 0-7.74 1.08-10.948 2.967-.726.422-1.428.887-2.098 1.39-.857.645-1.67 1.36-2.42 2.123a21.592 21.592 0 0 0-5.127 8.354 21.495 21.495 0 0 0-1.118 6.883zm27.682 7.404a10.784 10.784 0 0 1-5.965 1.794c-5.977 0-10.83-4.854-10.83-10.824 0-2.42.794-4.655 2.129-6.455a11.287 11.287 0 0 1 2.278-2.272 11.164 11.164 0 0 1 2.222-1.26 10.761 10.761 0 0 1 4.201-.844c5.977 0 10.825 4.848 10.825 10.83 0 1.695-.391 3.303-1.093 4.736-.372.77-.837 1.49-1.377 2.148a10.947 10.947 0 0 1-2.39 2.147z"/><g opacity=".64"><path fill="#fff" d="M56.34 183.906c-.372.77-.837 1.49-1.377 2.148l7.764 8.205c.484-.708.95-1.415 1.397-2.129l-7.784-8.224zM33.556 163.437l6.629 7.007a11.164 11.164 0 012.222-1.26l-6.753-7.137c-.726.422-1.428.887-2.098 1.39zM24.891 180.797c0 .074 0 .143.007.217l25.863 27.328c.54-.546 1.117-1.142 1.725-1.775l-27.371-28.91a21.816 21.816 0 00-.224 3.14zM26.009 173.914l28.68 30.294c2.005-2.197 4.147-4.692 6.126-7.305l-8.242-8.702a10.784 10.784 0 01-5.965 1.794c-5.977 0-10.83-4.854-10.83-10.824 0-2.42.794-4.655 2.129-6.455l-6.772-7.156a21.592 21.592 0 00-5.126 8.354z" opacity=".6"/></g><path fill="#d34f4f" d="M46.61 165.858c-7.35 0-13.31 5.96-13.31 13.305 0 7.35 5.96 13.31 13.31 13.31 7.344 0 13.305-5.96 13.305-13.31 0-7.344-5.961-13.305-13.306-13.305zm0 24.134c-5.98 0-10.83-4.85-10.83-10.824 0-5.983 4.85-10.83 10.83-10.83 5.973 0 10.824 4.847 10.824 10.83 0 5.974-4.85 10.824-10.825 10.824z"/><path fill="#af1b1b" d="M35.781 179.148c.011-5.974 4.856-10.81 10.828-10.81 5.968 0 10.813 4.836 10.824 10.81h2.48c-.007-7.338-5.964-13.29-13.304-13.29-7.344 0-13.3 5.952-13.31 13.29h2.482z"/><path fill="#fff" d="M77.787 96.926c-1.271-.002-2.566-.007-3.777-.395s-2.347-1.226-2.766-2.426c-.648-1.854.657-3.935 2.402-4.838 1.744-.903 3.795-.925 5.76-.928l47.791-.061c1.866-.003 3.776.003 5.528.641 1.349.492 3.678 1.906 3.169 3.666-.52 1.794-3.647 1.58-5.083 1.77-19.28 2.552-33.851 2.598-53.024 2.571z"/><path fill="#ebf5ff" d="M23.97 90.98c14.765-1.46 33.07-1.685 54.584 1.024 29.437 3.443 54.437 3.077 64.632.387-.67-.266-1.282-.524-1.742-.782-6.08-3.395-12.49-4.524-16.982-3.718-3.71-4.588-10.515-8.934-19.03-11.023-8.38-2.08-16.54-1.484-22.265.758a34.6 34.6 0 0 0-5.556-.726c-7.42-.41-14.193 1.508-18.378 4.42-10.66-2.95-25.05 1.1-31.199 8.725a23.308 23.308 0 0 0-4.064.935z"/><path fill="#ebf5ff" d="M51.083 78.977c0 5.226 5.291 9.466 11.821 9.466 6.526 0 11.817-4.24 11.817-9.466 0-5.227-5.291-9.467-11.817-9.467-6.53 0-11.82 4.24-11.82 9.467zM120.582 77.357s-19.179-13.782-34.123-4.815c11.667-2.676 22.92.691 34.123 4.815z"/><path fill="#fff" d="M237.17 88.17c.732 0 1.476-.004 2.172-.227 2.317-.741 2.095-3.197.209-4.174-1.462-.756-.916-.53-30.773-.568-1.072-.002-2.17.001-3.176.368-.775.283-2.114 1.095-1.82 2.107.297 1.03 2.094.908 2.92 1.017 11.091 1.468 19.544 1.493 30.469 1.477z"/><path fill="#ebf5ff" d="M268.096 84.753c-8.484-.838-19.003-.968-31.366.589-16.915 1.978-31.281 1.768-37.14.222a8.848 8.848 0 0 0 1.001-.45c3.494-1.95 7.178-2.599 9.76-2.135 4.794-5.932 16.074-8.896 23.729-5.9 5.25-1.131 10.647-.037 13.753 2.123 2.178-.602 4.902-.755 7.794-.255 4.495.76 8.243 2.924 10.134 5.269.75.102 1.538.278 2.335.537z"/><path fill="#ebf5ff" d="M252.516 77.856c0 3.003-3.04 5.44-6.793 5.44-3.75 0-6.79-2.437-6.79-5.44 0-3.003 3.04-5.44 6.79-5.44 3.752 0 6.793 2.437 6.793 5.44zM212.58 76.925s11.02-7.92 19.608-2.767c-6.704-1.538-13.171.397-19.608 2.767z"/><path fill="#011216" d="M177.71 73.509c-.317-1.093-1.187-1.809-2.431-1.809-1.386 0-2.875.885-3.919 2.193 2.546-1.36 4.819-.01 4.487 2.761h1.719c1.377-2.654 4.502-4.177 6.25-2.761-.21-1.308-3.714-2.959-6.106-.384zM164.92 83.485c-.222-.764-.831-1.265-1.702-1.265-.97 0-2.012.619-2.743 1.534 1.782-.95 3.373-.007 3.14 1.933h1.203c.926-1.784 3.114-2.954 4.374-1.933-.306-1.918-2.599-2.07-4.272-.269zM160.981 75.167c.926-1.783 3.114-2.953 4.374-1.932-.306-1.919-2.599-2.071-4.272-.27-.222-.764-.831-1.265-1.702-1.265-.97 0-2.012.62-2.743 1.535.446-.238.914-.373 1.367-.373 1.223 0 1.932.985 1.773 2.305h1.203z" opacity=".6"/></svg>