<svg xmlns="http://www.w3.org/2000/svg" data-name="Layer 1" viewBox="0 0 1159 771"><g data-name="2"><path fill="#d1e3fb" d="M1022.34,492.45c47.5-108.5-76.48-153.18-140.21-103.28s-96.17,53.56-83.42,2.44C829.77,267,795.23,136,626.06,61.77s-309,36.9-335,130.92-37.36,120.49-56.48,105.88c-71.91-54.93-166-59.33-124.26,120.49s139,288.44,139,288.44,690.77-3.1,715.1-8,55.62-19.47,89.22-104.67S974.83,601,1022.34,492.45Z"/><ellipse cx="579.5" cy="707.5" fill="#edf6fc" rx="435" ry="30"/><path fill="#fe561c" d="M406 696.71H358.62a5.7 5.7 0 100 11.39H406a5.7 5.7 0 100-11.39zM404.69 662.36h-49.6a3.82 3.82 0 00-3.81 3.82v3.76a3.82 3.82 0 003.81 3.81h49.6a5.37 5.37 0 005.37-5.37v-.65A5.37 5.37 0 00404.69 662.36zM392.92 673.87H345.54a5.7 5.7 0 100 11.39h47.38a5.7 5.7 0 100-11.39z"/><path fill="#fe561c" d="M404.36 685.37H357a5.7 5.7 0 100 11.39h47.38a5.7 5.7 0 100-11.39zM403.3 650.85H355.92a5.7 5.7 0 000 11.4H403.3a5.7 5.7 0 000-11.4zM401.85 616.51H354.46a5.7 5.7 0 000 11.39h47.39a5.7 5.7 0 100-11.39zM396.09 628H348.71a5.7 5.7 0 000 11.4h47.38a5.7 5.7 0 000-11.4z"/><path fill="#fe561c" d="M402.17 639.51H352.58a3.82 3.82 0 00-3.81 3.82v3.76a3.82 3.82 0 003.81 3.82h49.59a5.38 5.38 0 005.38-5.37v-.66A5.38 5.38 0 00402.17 639.51zM393.34 605H346a5.7 5.7 0 100 11.39h47.38a5.7 5.7 0 100-11.39z"/><path fill="#fe561c" d="M396.34 593.5H349a5.7 5.7 0 100 11.39h47.39a5.7 5.7 0 000-11.39zM353.14 696.71H305.75a5.7 5.7 0 000 11.39h47.39a5.7 5.7 0 000-11.39z"/><rect width="58.78" height="11.39" x="298.41" y="662.36" fill="#fe561c" rx="3.82"/><path fill="#fe561c" d="M340.11,673.87H292.72a5.7,5.7,0,0,0,0,11.39h47.39a5.7,5.7,0,1,0,0-11.39Z"/><path fill="#fe561c" d="M351.49 685.37H304.11a5.7 5.7 0 100 11.39h47.38a5.7 5.7 0 100-11.39zM350.43 650.85H303.05a5.7 5.7 0 100 11.4h47.38a5.7 5.7 0 000-11.4zM357.18 628H309.8a5.7 5.7 0 000 11.4h47.38a5.7 5.7 0 100-11.4z"/><rect width="58.78" height="11.39" x="295.9" y="639.51" fill="#fe561c" rx="3.82"/><path fill="#c5431a" d="M355.33 696.71H340.18a3.5 3.5 0 013.51 3.5v4.38a3.51 3.51 0 01-3.51 3.51h15.15a3.5 3.5 0 003.5-3.51v-4.38A3.49 3.49 0 00355.33 696.71zM339.05 699.49a3.82 3.82 0 00-1.92-2.57 2.71 2.71 0 00-2-.21 3.26 3.26 0 012.23 2.29 3.73 3.73 0 01.13.73 5.94 5.94 0 010 .81c0 .62 0 1.24 0 1.86s0 1.24 0 1.86a4.56 4.56 0 010 .81 3.93 3.93 0 01-.12.74 3.29 3.29 0 01-2.23 2.29 2.71 2.71 0 002-.21 3.59 3.59 0 001.53-1.53 3.49 3.49 0 00.39-1.05 6 6 0 00.12-1c0-.62.05-1.24.05-1.86s0-1.24-.05-1.86A6.15 6.15 0 00339.05 699.49zM331.72 697.63a2.61 2.61 0 00-.53-.66 1 1 0 00-.78-.26c.53.13.75.64.91 1.1a6.21 6.21 0 01.26 1.48c0 .5 0 1 0 1.53l0 1.58 0 1.58c0 .54 0 1 0 1.54a6 6 0 01-.25 1.47c-.16.46-.38 1-.91 1.11a1 1 0 00.78-.27 2.56 2.56 0 00.53-.65 5 5 0 00.55-1.57 30.3 30.3 0 000-6.41A4.9 4.9 0 00331.72 697.63zM324.89 698.06a5.68 5.68 0 00-.18-.71c-.08-.22-.12-.51-.35-.64.14.17.09.45.11.68s0 .47 0 .71l-.06 1.43c-.05.94-.08 1.92-.09 2.87s0 1.93.09 2.88l.06 1.42c0 .24 0 .48 0 .72s0 .5-.11.68c.23-.13.27-.42.35-.64a6.31 6.31 0 00.18-.72 14.06 14.06 0 00.21-1.45c.08-1 .09-1.92.1-2.89s0-1.91-.1-2.89C325.05 699 325 698.54 324.89 698.06zM353.69 662.36H338.54a3.5 3.5 0 013.5 3.5v4.39a3.5 3.5 0 01-3.5 3.5h15.15a3.5 3.5 0 003.5-3.5v-4.39A3.5 3.5 0 00353.69 662.36zM337.4 665.14a3.28 3.28 0 00-.39-1 3.62 3.62 0 00-1.52-1.53 2.72 2.72 0 00-2-.21 3.29 3.29 0 012.23 2.29 3.69 3.69 0 01.12.74 4.43 4.43 0 010 .8c0 .63-.05 1.25-.05 1.87s0 1.24.05 1.86a5.65 5.65 0 010 .8 4.57 4.57 0 01-.12.74 3.27 3.27 0 01-2.23 2.29 2.72 2.72 0 002-.21A3.67 3.67 0 00337 672a3.9 3.9 0 00.39-1 7.35 7.35 0 00.12-1.05c0-.62 0-1.24.05-1.86s0-1.24-.05-1.87A7.67 7.67 0 00337.4 665.14zM330.07 663.28a2.57 2.57 0 00-.53-.66 1 1 0 00-.77-.26c.53.14.74.65.9 1.1a6.21 6.21 0 01.26 1.48 13.3 13.3 0 010 1.54l0 1.58 0 1.58a13.13 13.13 0 010 1.53 6.21 6.21 0 01-.26 1.48c-.16.45-.37 1-.9 1.1a1 1 0 00.77-.26 2.65 2.65 0 00.54-.66 5.15 5.15 0 00.55-1.57 32.18 32.18 0 000-6.41A5 5 0 00330.07 663.28zM323.25 663.72c-.06-.24-.11-.48-.18-.72s-.13-.51-.35-.64c.14.18.08.45.1.68s0 .48 0 .72l-.06 1.42c-.06 1-.09 1.92-.1 2.88s0 1.93.1 2.87l.05 1.43c0 .24 0 .47 0 .71s0 .5-.1.68c.22-.13.26-.42.35-.64s.12-.48.18-.71a14.43 14.43 0 00.2-1.45c.09-1 .1-1.93.11-2.89s0-1.92-.11-2.89A14 14 0 00323.25 663.72z"/><path fill="#c5431a" d="M342.3 673.87H327.15a3.51 3.51 0 013.51 3.5v4.39a3.51 3.51 0 01-3.51 3.5H342.3a3.51 3.51 0 003.51-3.5v-4.39A3.51 3.51 0 00342.3 673.87zM326 676.65a3.54 3.54 0 00-.39-1 3.59 3.59 0 00-1.53-1.53 2.71 2.71 0 00-2-.21 3.31 3.31 0 012.24 2.29 3.69 3.69 0 01.12.74 7.59 7.59 0 010 .8c0 .62-.05 1.24-.05 1.87s0 1.24 0 1.86a5.75 5.75 0 010 .8 4.57 4.57 0 01-.12.74 3.33 3.33 0 01-2.24 2.29 2.71 2.71 0 002-.21 3.56 3.56 0 001.53-1.52 3.33 3.33 0 00.39-1 7.67 7.67 0 00.13-1.05c0-.62 0-1.24 0-1.86s0-1.25-.05-1.87A6.15 6.15 0 00326 676.65zM318.69 674.79a2.8 2.8 0 00-.53-.66 1 1 0 00-.78-.26c.53.13.75.65.91 1.1a6.21 6.21 0 01.26 1.48c0 .5 0 1 0 1.53l0 1.59 0 1.58c0 .53 0 1 0 1.53a6.21 6.21 0 01-.26 1.48 1.5 1.5 0 01-.91 1.1 1 1 0 00.78-.26 2.57 2.57 0 00.53-.66 4.9 4.9 0 00.55-1.57 30.3 30.3 0 000-6.41A4.9 4.9 0 00318.69 674.79zM353.69 685.37H338.54a3.5 3.5 0 013.5 3.5v4.39a3.5 3.5 0 01-3.5 3.5h15.15a3.5 3.5 0 003.5-3.5v-4.39A3.5 3.5 0 00353.69 685.37z"/><path fill="#c5431a" d="M337.4 688.15a3.19 3.19 0 00-.39-1 3.62 3.62 0 00-1.52-1.53 2.72 2.72 0 00-2-.21 3.26 3.26 0 012.23 2.29 3.71 3.71 0 01.12.73 4.54 4.54 0 010 .81c0 .62-.05 1.24-.05 1.86s0 1.24.05 1.87a5.59 5.59 0 010 .8 4.75 4.75 0 01-.12.74 3.29 3.29 0 01-2.23 2.29 2.72 2.72 0 002-.21A3.7 3.7 0 00337 695a3.84 3.84 0 00.39-1 7.51 7.51 0 00.12-1.05c0-.63 0-1.25.05-1.87s0-1.24-.05-1.86A7.49 7.49 0 00337.4 688.15zM330.07 686.29a2.57 2.57 0 00-.53-.66 1 1 0 00-.77-.26c.53.13.74.65.9 1.1a6.21 6.21 0 01.26 1.48 13.13 13.13 0 010 1.53l0 1.58 0 1.59a13.1 13.1 0 010 1.53 6.21 6.21 0 01-.26 1.48c-.16.45-.37 1-.9 1.1a1 1 0 00.77-.26 2.84 2.84 0 00.54-.66 5.15 5.15 0 00.55-1.57 32.18 32.18 0 000-6.41A4.92 4.92 0 00330.07 686.29zM323.25 686.72c-.06-.24-.11-.47-.18-.71s-.13-.51-.35-.64c.14.18.08.45.1.68s0 .47 0 .71l-.06 1.43c-.06.94-.09 1.92-.1 2.87s0 1.93.1 2.88l.05 1.42c0 .24 0 .48 0 .72s0 .5-.1.68c.22-.13.26-.42.35-.64s.12-.48.18-.72a14 14 0 00.2-1.45c.09-1 .1-1.92.11-2.89s0-1.91-.11-2.89C323.41 687.69 323.34 687.21 323.25 686.72zM352.63 650.85H337.48a3.51 3.51 0 013.5 3.51v4.38a3.51 3.51 0 01-3.5 3.51h15.15a3.51 3.51 0 003.5-3.51v-4.38A3.51 3.51 0 00352.63 650.85zM336.34 653.64a3.24 3.24 0 00-.39-1 3.6 3.6 0 00-1.52-1.52 2.72 2.72 0 00-2-.22 3.29 3.29 0 012.23 2.29 3.93 3.93 0 01.12.74 4.56 4.56 0 010 .81c0 .62-.05 1.24-.05 1.86s0 1.24.05 1.86a7.83 7.83 0 010 .81 4.63 4.63 0 01-.12.73 3.32 3.32 0 01-2.23 2.3 2.77 2.77 0 002-.22 3.67 3.67 0 001.53-1.52 3.57 3.57 0 00.38-1 7.49 7.49 0 00.13-1.05c0-.62 0-1.24 0-1.86s0-1.24 0-1.86A7.49 7.49 0 00336.34 653.64zM329 651.77a2.37 2.37 0 00-.53-.65 1 1 0 00-.78-.27c.54.14.75.65.91 1.11a6 6 0 01.26 1.47 13.27 13.27 0 010 1.54l0 1.58 0 1.58c0 .54 0 1 0 1.53a6.12 6.12 0 01-.26 1.48c-.16.45-.37 1-.91 1.11a1 1 0 00.78-.27 2.65 2.65 0 00.54-.66 5.15 5.15 0 00.55-1.57 32.18 32.18 0 000-6.41A5 5 0 00329 651.77zM322.19 652.21c-.06-.24-.11-.48-.18-.72s-.13-.51-.35-.64c.14.18.08.45.1.68s0 .48 0 .72l-.06 1.42c-.06 1-.09 1.92-.1 2.88s0 1.93.09 2.87l.06 1.43c0 .24 0 .48 0 .71s0 .51-.1.69c.22-.14.26-.43.35-.65s.12-.47.18-.71a14.43 14.43 0 00.2-1.45c.09-1 .1-1.93.11-2.89s0-1.92-.11-2.89A14 14 0 00322.19 652.21zM359.37 628H344.22a3.51 3.51 0 013.51 3.51v4.38a3.51 3.51 0 01-3.51 3.51h15.15a3.51 3.51 0 003.51-3.51v-4.38A3.51 3.51 0 00359.37 628zM343.09 630.8a3.82 3.82 0 00-1.92-2.57 2.76 2.76 0 00-2-.22 3.3 3.3 0 012.24 2.3 3.71 3.71 0 01.12.73 5.94 5.94 0 010 .81c0 .62 0 1.24-.05 1.86s0 1.24.05 1.86a5.94 5.94 0 010 .81 5 5 0 01-.12.74 3.33 3.33 0 01-2.24 2.29 2.79 2.79 0 002-.21 3.62 3.62 0 001.52-1.53 3.24 3.24 0 00.39-1 7.49 7.49 0 00.13-1c0-.62 0-1.24 0-1.86s0-1.24-.05-1.86A6.15 6.15 0 00343.09 630.8zM335.76 628.94a2.41 2.41 0 00-.53-.66 1 1 0 00-.78-.27c.54.14.75.65.91 1.11a6 6 0 01.26 1.48c0 .5 0 1 0 1.53l0 1.58 0 1.58c0 .54 0 1 0 1.54a6.56 6.56 0 01-.26 1.47c-.16.46-.37 1-.91 1.11a1 1 0 00.78-.27 2.37 2.37 0 00.53-.65 5 5 0 00.56-1.57 32.18 32.18 0 000-6.41A4.92 4.92 0 00335.76 628.94zM328.93 629.37a5.68 5.68 0 00-.18-.71c-.08-.22-.12-.51-.34-.65.13.18.08.46.1.69s0 .47 0 .71l-.05 1.43c-.06.94-.09 1.91-.1 2.87s0 1.93.09 2.87l.06 1.43c0 .24 0 .48 0 .72s0 .5-.1.68c.22-.13.26-.42.35-.64s.12-.48.17-.72a11.78 11.78 0 00.21-1.45c.09-1 .09-1.92.11-2.89s0-1.91-.11-2.89A14.47 14.47 0 00328.93 629.37z"/><path fill="#c5431a" d="M351.18 639.51H336a3.51 3.51 0 013.5 3.51v4.38a3.51 3.51 0 01-3.5 3.51h15.15a3.51 3.51 0 003.5-3.51V643A3.51 3.51 0 00351.18 639.51zM334.89 642.3a3.33 3.33 0 00-.39-1 3.6 3.6 0 00-1.52-1.52 2.77 2.77 0 00-2-.22 3.29 3.29 0 012.23 2.29 3.93 3.93 0 01.12.74 5.76 5.76 0 010 .81c0 .62-.05 1.24-.05 1.86s0 1.24.05 1.86a7.83 7.83 0 010 .81 4.63 4.63 0 01-.12.73 3.31 3.31 0 01-2.23 2.3 2.77 2.77 0 002-.21 3.7 3.7 0 001.53-1.53 3.47 3.47 0 00.38-1 7.49 7.49 0 00.13-1c0-.62 0-1.24.05-1.86s0-1.24-.05-1.86A7.49 7.49 0 00334.89 642.3zM327.56 640.43a2.37 2.37 0 00-.53-.65 1 1 0 00-.78-.27c.54.14.75.65.91 1.11a6 6 0 01.26 1.47c0 .51 0 1 0 1.54l0 1.58 0 1.58c0 .54 0 1 0 1.54a6 6 0 01-.26 1.47c-.16.46-.38 1-.91 1.11a1 1 0 00.78-.27 2.52 2.52 0 00.53-.65 5 5 0 00.56-1.57 32.28 32.28 0 000-6.42A5.37 5.37 0 00327.56 640.43zM320.74 640.87c-.06-.24-.11-.48-.18-.71s-.13-.51-.35-.65c.13.18.08.46.1.68s0 .48 0 .72l-.06 1.43c-.06.94-.09 1.91-.1 2.87s0 1.93.09 2.87l.06 1.43c0 .24 0 .48 0 .72s0 .5-.1.68c.22-.14.26-.43.35-.65s.12-.47.18-.71a14.43 14.43 0 00.2-1.45c.09-1 .1-1.93.11-2.89s0-1.91-.11-2.89A14.43 14.43 0 00320.74 640.87z"/><path fill="#fe561c" d="M305.25 696.71H257.87a5.7 5.7 0 100 11.39h47.38a5.7 5.7 0 100-11.39zM258.82 662.36H310a3.82 3.82 0 013.82 3.82v3.76a3.82 3.82 0 01-3.82 3.82H258.82a3.81 3.81 0 01-3.81-3.81v-3.76A3.82 3.82 0 01258.82 662.36zM307.23 673.87H259.85a5.7 5.7 0 100 11.39h47.38a5.7 5.7 0 100-11.39z"/><path fill="#fe561c" d="M299.57,685.37H252.18a5.7,5.7,0,1,0,0,11.39h47.39a5.7,5.7,0,0,0,0-11.39Z"/><path fill="#c5431a" d="M307.45 696.71H292.3a3.5 3.5 0 013.5 3.5v4.38a3.51 3.51 0 01-3.5 3.51h15.15a3.51 3.51 0 003.5-3.51v-4.38A3.5 3.5 0 00307.45 696.71zM291.16 699.49a3.33 3.33 0 00-.39-1 3.6 3.6 0 00-1.52-1.52 2.72 2.72 0 00-2-.21 3.28 3.28 0 012.23 2.29 3.71 3.71 0 01.12.73 4.56 4.56 0 010 .81c0 .62-.05 1.24-.05 1.86s0 1.24.05 1.86a7.83 7.83 0 010 .81 5 5 0 01-.12.74 3.31 3.31 0 01-2.23 2.29 2.72 2.72 0 002-.21 3.7 3.7 0 001.53-1.53 3.47 3.47 0 00.38-1.05 7.31 7.31 0 00.13-1c0-.62 0-1.24 0-1.86s0-1.24 0-1.86A7.49 7.49 0 00291.16 699.49zM283.83 697.63a2.41 2.41 0 00-.53-.66 1 1 0 00-.78-.26c.54.13.75.64.91 1.1a6.21 6.21 0 01.26 1.48c0 .5 0 1 0 1.53l0 1.58 0 1.58c0 .54 0 1 0 1.54a6 6 0 01-.26 1.47c-.16.46-.37 1-.91 1.11a1 1 0 00.78-.27 2.37 2.37 0 00.53-.65 5 5 0 00.56-1.57 32.18 32.18 0 000-6.41A5.17 5.17 0 00283.83 697.63zM277 698.06c-.05-.24-.1-.48-.17-.71s-.13-.51-.35-.64c.13.17.08.45.1.68s0 .47 0 .71l-.05 1.43c-.06.94-.09 1.92-.1 2.87s0 1.93.09 2.88l.06 1.42c0 .24 0 .48 0 .72s0 .5-.1.68c.22-.13.26-.42.35-.64s.12-.48.18-.72a14 14 0 00.2-1.45c.09-1 .1-1.92.11-2.89s0-1.91-.11-2.89A12.06 12.06 0 00277 698.06zM310.28 662.36H295.13a3.51 3.51 0 013.51 3.5v4.39a3.51 3.51 0 01-3.51 3.5h15.15a3.5 3.5 0 003.5-3.5v-4.39A3.5 3.5 0 00310.28 662.36zM294 665.14a3.54 3.54 0 00-.39-1 3.59 3.59 0 00-1.53-1.53 2.71 2.71 0 00-2-.21 3.33 3.33 0 012.24 2.29 4.57 4.57 0 01.12.74 5.75 5.75 0 010 .8c0 .63 0 1.25-.05 1.87s0 1.24.05 1.86a5.85 5.85 0 010 .8 4.58 4.58 0 01-.13.74 3.27 3.27 0 01-2.23 2.29 2.71 2.71 0 002-.21A3.82 3.82 0 00294 671a6.15 6.15 0 00.12-1.05c0-.62.05-1.24.05-1.86s0-1.24-.05-1.87A6.26 6.26 0 00294 665.14zM286.67 663.28a2.61 2.61 0 00-.54-.66 1 1 0 00-.77-.26 1.5 1.5 0 01.91 1.1 6.2 6.2 0 01.25 1.48c0 .5 0 1 0 1.54l0 1.58 0 1.58c0 .54 0 1 0 1.53a6.2 6.2 0 01-.25 1.48c-.16.45-.38 1-.91 1.1a1 1 0 00.78-.26 2.61 2.61 0 00.53-.66 4.9 4.9 0 00.55-1.57 30.3 30.3 0 000-6.41A5.25 5.25 0 00286.67 663.28zM279.84 663.72a6.31 6.31 0 00-.18-.72c-.08-.22-.12-.51-.35-.64.14.18.09.45.11.68s0 .48 0 .72l-.06 1.42c-.06 1-.09 1.92-.09 2.88s0 1.93.09 2.87l.06 1.43c0 .24 0 .47 0 .71s0 .5-.11.68c.23-.13.27-.42.35-.64a6.15 6.15 0 00.18-.71 14.47 14.47 0 00.21-1.45c.08-1 .09-1.93.1-2.89s0-1.92-.11-2.89A14 14 0 00279.84 663.72zM309.42 673.87H294.27a3.51 3.51 0 013.51 3.5v4.39a3.51 3.51 0 01-3.51 3.5h15.15a3.51 3.51 0 003.51-3.5v-4.39A3.51 3.51 0 00309.42 673.87z"/><path fill="#c5431a" d="M293.14 676.65a3.54 3.54 0 00-.39-1 3.59 3.59 0 00-1.53-1.53 2.69 2.69 0 00-2-.21 3.31 3.31 0 012.23 2.29 4.57 4.57 0 01.12.74 7.59 7.59 0 010 .8c0 .62-.05 1.24-.05 1.87s0 1.24 0 1.86a5.75 5.75 0 010 .8 3.7 3.7 0 01-.13.74 3.3 3.3 0 01-2.22 2.29 2.69 2.69 0 002-.21 3.56 3.56 0 001.53-1.52 3.33 3.33 0 00.39-1 7.67 7.67 0 00.13-1.05c0-.62 0-1.24 0-1.86s0-1.25-.05-1.87A6.15 6.15 0 00293.14 676.65zM285.81 674.79a2.57 2.57 0 00-.53-.66 1 1 0 00-.78-.26c.53.13.75.65.91 1.1a6.21 6.21 0 01.26 1.48c0 .5 0 1 0 1.53l0 1.59 0 1.58c0 .53 0 1 0 1.53a6.75 6.75 0 01-.26 1.48 1.5 1.5 0 01-.91 1.1 1 1 0 00.78-.26 2.57 2.57 0 00.53-.66 4.92 4.92 0 00.56-1.57 32.18 32.18 0 000-6.41A5.17 5.17 0 00285.81 674.79zM279 675.23a6.31 6.31 0 00-.18-.72c-.08-.22-.12-.51-.34-.64.13.18.08.45.1.68s0 .47 0 .71l-.06 1.43c-.05.95-.08 1.92-.09 2.88s0 1.92.09 2.87l.06 1.43c0 .23 0 .47 0 .71s0 .5-.1.68c.22-.13.26-.42.34-.64a6.31 6.31 0 00.18-.72 11.9 11.9 0 00.21-1.44c.09-1 .09-1.93.11-2.89s0-1.92-.11-2.89A11.78 11.78 0 00279 675.23z"/><path fill="#c5431a" d="M301.76 685.37H286.61a3.51 3.51 0 013.51 3.5v4.39a3.51 3.51 0 01-3.51 3.5h15.15a3.5 3.5 0 003.5-3.5v-4.39A3.5 3.5 0 00301.76 685.37zM285.48 688.15a3.88 3.88 0 00-1.92-2.57 2.71 2.71 0 00-2-.21 3.26 3.26 0 012.23 2.29 4.66 4.66 0 01.13.73 5.89 5.89 0 010 .81c0 .62 0 1.24-.05 1.86s0 1.24.05 1.87a4.43 4.43 0 010 .8 3.8 3.8 0 01-.12.74 3.29 3.29 0 01-2.23 2.29 2.71 2.71 0 002-.21 3.7 3.7 0 001.53-1.53 3.84 3.84 0 00.39-1 6.26 6.26 0 00.12-1.05c0-.63 0-1.25 0-1.87s0-1.24 0-1.86A9.15 9.15 0 00285.48 688.15zM278.15 686.29a2.84 2.84 0 00-.54-.66 1 1 0 00-.77-.26c.53.13.75.65.91 1.1A6.2 6.2 0 01278 688c0 .5 0 1 0 1.53l0 1.58 0 1.59a13.1 13.1 0 010 1.53 5.75 5.75 0 01-.26 1.48c-.16.45-.37 1-.9 1.1a1 1 0 00.77-.26 2.84 2.84 0 00.54-.66 5.15 5.15 0 00.55-1.57 22 22 0 00.17-3.21 23.37 23.37 0 00-.17-3.2A5.15 5.15 0 00278.15 686.29zM271.32 686.72c-.05-.24-.11-.47-.18-.71s-.13-.51-.35-.64c.14.18.08.45.1.68s0 .47 0 .71l-.06 1.43c-.06.94-.09 1.92-.09 2.87s0 1.93.09 2.88l.06 1.42c0 .24 0 .48 0 .72s0 .5-.1.68c.22-.13.26-.42.35-.64a6.31 6.31 0 00.18-.72 14 14 0 00.2-1.45c.09-1 .1-1.92.11-2.89s0-1.91-.11-2.89C271.48 687.69 271.41 687.21 271.32 686.72zM311.86 675.23a6.31 6.31 0 00-.18-.72c-.08-.22-.12-.51-.35-.64.14.18.09.45.11.68s0 .47 0 .71l-.06 1.43c-.05.95-.08 1.92-.09 2.88s0 1.92.09 2.87l.06 1.43c0 .23 0 .47 0 .71s0 .5-.11.68c.23-.13.27-.42.36-.64s.12-.48.17-.72a11.9 11.9 0 00.21-1.44c.09-1 .09-1.93.1-2.89s0-1.92-.1-2.89A11.78 11.78 0 00311.86 675.23z"/><path fill="#002880" d="M975,384.35,957.35,626.57a20.67,20.67,0,0,1-20.59,18.87H564.24a20.68,20.68,0,0,1-19.94-17.84,20.89,20.89,0,0,1-.11-4.62l17.65-242.21a20.66,20.66,0,0,1,20.58-18.87h372A20.67,20.67,0,0,1,975,384.35Z"/><path fill="#0030a6" d="M966.65,384.27,949,626.64a20.59,20.59,0,0,1-20.51,18.79H556.33A20.63,20.63,0,0,1,536.15,629a19.88,19.88,0,0,1-.33-5.95l17.66-242.38A20.61,20.61,0,0,1,574,361.89H946.68A20.61,20.61,0,0,1,966.65,384.27Z"/><path fill="#c6d8f6" d="M954.39,383.21,936.73,625.56a8.25,8.25,0,0,1-8.27,7.56H556.32a8.28,8.28,0,0,1-8.24-9l17.66-242.38a8.24,8.24,0,0,1,8.26-7.55H946.13a8.3,8.3,0,0,1,8.26,9Z"/><path fill="#0030a6" d="M701.92 706.79a6.15 6.15 0 006.16 6.15h69.69V700.63H708.08A6.16 6.16 0 00701.92 706.79zM834 700.63H765.84l-22.33-22.38a12 12 0 01-3.44-9.59l1.27-13.17.32-3.31.65-6.74h0l0-.21h70.33v.21h0l-.21 6.74-.1 3.31-.58 18.33z"/><polygon fill="#002880" points="812.66 645.22 812.65 645.43 812.65 645.44 812.44 652.18 812.34 655.49 741.34 655.49 741.66 652.18 742.31 645.44 742.31 645.43 742.33 645.22 812.66 645.22"/><path fill="#002880" d="M845.61,703.43a11.93,11.93,0,0,1-11.7,9.51H775.2a6.16,6.16,0,0,1,0-12.31H833l-22.37-22.38a11.93,11.93,0,0,1-3.45-9.59l1.28-13.17.32-3.31.65-6.74h0l0-.21h12.37l0,.21h0l-.69,6.74-1.78,17.37L842,692.21A12.39,12.39,0,0,1,845.61,703.43Z"/><path fill="#c5431a" d="M406.55 696.71h-13.5a3.5 3.5 0 013.5 3.5v4.38a3.51 3.51 0 01-3.5 3.51h13.5A5.16 5.16 0 00411.7 703v-1.09A5.15 5.15 0 00406.55 696.71zM391.91 699.49a3.33 3.33 0 00-.39-1 3.6 3.6 0 00-1.52-1.52 2.72 2.72 0 00-2-.21 3.26 3.26 0 012.23 2.29 3.71 3.71 0 01.12.73 4.56 4.56 0 010 .81c0 .62-.05 1.24-.05 1.86s0 1.24.05 1.86a5.76 5.76 0 010 .81 5 5 0 01-.12.74A3.31 3.31 0 01388 708.1a2.72 2.72 0 002-.21 3.7 3.7 0 001.53-1.53 3.78 3.78 0 00.39-1.05 7.19 7.19 0 00.12-1c0-.62 0-1.24 0-1.86s0-1.24 0-1.86A7.49 7.49 0 00391.91 699.49zM384.59 697.63a2.65 2.65 0 00-.54-.66 1 1 0 00-.77-.26c.53.13.74.64.9 1.1a6.21 6.21 0 01.26 1.48c0 .5 0 1 0 1.53l0 1.58 0 1.58a13.3 13.3 0 010 1.54 6 6 0 01-.26 1.47c-.16.46-.37 1-.9 1.11a1 1 0 00.77-.27 2.6 2.6 0 00.54-.65 5.25 5.25 0 00.55-1.57 32.18 32.18 0 000-6.41A5.15 5.15 0 00384.59 697.63zM377.76 698.06c-.06-.24-.11-.48-.18-.71s-.13-.51-.35-.64c.14.17.08.45.1.68s0 .47 0 .71l-.06 1.43c-.06.94-.09 1.92-.1 2.87s0 1.93.1 2.88l.05 1.42c0 .24 0 .48 0 .72s0 .5-.1.68c.22-.13.26-.42.35-.64s.12-.48.18-.72a14 14 0 00.2-1.45c.09-1 .1-1.92.11-2.89s0-1.91-.11-2.89A14.43 14.43 0 00377.76 698.06zM404.9 662.36H391.4a3.51 3.51 0 013.51 3.5v4.39a3.51 3.51 0 01-3.51 3.5h13.5a5.15 5.15 0 005.16-5.15v-1.09A5.16 5.16 0 00404.9 662.36zM390.27 665.14a3.54 3.54 0 00-.39-1 3.59 3.59 0 00-1.53-1.53 2.71 2.71 0 00-2-.21 3.33 3.33 0 012.24 2.29 3.69 3.69 0 01.12.74 5.75 5.75 0 010 .8c0 .63 0 1.25 0 1.87s0 1.24 0 1.86a5.85 5.85 0 010 .8 4.57 4.57 0 01-.12.74 3.31 3.31 0 01-2.24 2.29 2.71 2.71 0 002-.21 3.56 3.56 0 001.53-1.52 3.33 3.33 0 00.39-1 7.49 7.49 0 00.13-1.05c0-.62 0-1.24 0-1.86s0-1.24-.05-1.87A6.26 6.26 0 00390.27 665.14zM382.94 663.28a2.57 2.57 0 00-.53-.66 1 1 0 00-.78-.26 1.5 1.5 0 01.91 1.1 6.21 6.21 0 01.26 1.48c0 .5 0 1 0 1.54l0 1.58 0 1.58c0 .54 0 1 0 1.53a6.75 6.75 0 01-.26 1.48c-.16.45-.38 1-.91 1.1a1 1 0 00.78-.26 2.41 2.41 0 00.53-.66 5.17 5.17 0 00.56-1.57 21.85 21.85 0 00.16-3.2 20.7 20.7 0 00-.17-3.21A5 5 0 00382.94 663.28zM376.11 663.72a6.31 6.31 0 00-.18-.72c-.08-.22-.12-.51-.35-.64.14.18.09.45.11.68s0 .48 0 .72l-.06 1.42c-.05 1-.08 1.92-.09 2.88s0 1.93.09 2.87l.06 1.43c0 .24 0 .47 0 .71s0 .5-.11.68c.23-.13.27-.42.36-.64s.12-.48.17-.71a12.06 12.06 0 00.21-1.45c.08-1 .09-1.93.1-2.89s0-1.92-.1-2.89A14.06 14.06 0 00376.11 663.72z"/><path fill="#c5431a" d="M395.12 673.87H380a3.5 3.5 0 013.5 3.5v4.39a3.5 3.5 0 01-3.5 3.5h15.15a3.5 3.5 0 003.5-3.5v-4.39A3.5 3.5 0 00395.12 673.87zM378.83 676.65a3.28 3.28 0 00-.39-1 3.62 3.62 0 00-1.52-1.53 2.72 2.72 0 00-2-.21 3.27 3.27 0 012.23 2.29 3.69 3.69 0 01.12.74 5.59 5.59 0 010 .8c0 .62-.05 1.24-.05 1.87s0 1.24.05 1.86a5.59 5.59 0 010 .8 4.57 4.57 0 01-.12.74 3.31 3.31 0 01-2.23 2.29 2.72 2.72 0 002-.21 3.67 3.67 0 001.53-1.52 3.9 3.9 0 00.39-1 9.4 9.4 0 00.12-1.05c0-.62 0-1.24.05-1.86s0-1.25-.05-1.87A7.49 7.49 0 00378.83 676.65zM371.5 674.79a2.57 2.57 0 00-.53-.66 1 1 0 00-.77-.26c.53.13.74.65.9 1.1a6.21 6.21 0 01.26 1.48 13.13 13.13 0 010 1.53l0 1.59 0 1.58c0 .53 0 1 0 1.53a6.21 6.21 0 01-.26 1.48c-.16.45-.37 1-.9 1.1A1 1 0 00371 685a2.57 2.57 0 00.53-.66 4.92 4.92 0 00.56-1.57 32.18 32.18 0 000-6.41A4.92 4.92 0 00371.5 674.79zM364.68 675.23c-.06-.24-.11-.48-.18-.72s-.13-.51-.35-.64c.14.18.08.45.1.68s0 .47 0 .71l-.05 1.43c-.06.95-.09 1.92-.09 2.88s0 1.92.09 2.87l.05 1.43c0 .23 0 .47 0 .71s0 .5-.1.68c.22-.13.26-.42.35-.64s.12-.48.18-.72a14.24 14.24 0 00.2-1.44c.09-1 .1-1.93.11-2.89s0-1.92-.11-2.89A14 14 0 00364.68 675.23zM404.9 685.37H391.4a3.51 3.51 0 013.51 3.5v4.39a3.51 3.51 0 01-3.51 3.5h13.5a5.16 5.16 0 005.16-5.15v-1.09A5.15 5.15 0 00404.9 685.37z"/><path fill="#c5431a" d="M390.27 688.15a3.43 3.43 0 00-.39-1 3.59 3.59 0 00-1.53-1.53 2.71 2.71 0 00-2-.21 3.29 3.29 0 012.24 2.29 3.71 3.71 0 01.12.73 5.89 5.89 0 010 .81c0 .62 0 1.24 0 1.86s0 1.24 0 1.87a5.75 5.75 0 010 .8 4.75 4.75 0 01-.12.74 3.33 3.33 0 01-2.24 2.29 2.71 2.71 0 002-.21 3.59 3.59 0 001.53-1.53 3.28 3.28 0 00.39-1 7.67 7.67 0 00.13-1.05c0-.63 0-1.25 0-1.87s0-1.24-.05-1.86A6.15 6.15 0 00390.27 688.15zM382.94 686.29a2.57 2.57 0 00-.53-.66 1 1 0 00-.78-.26c.53.13.75.65.91 1.1a6.21 6.21 0 01.26 1.48c0 .5 0 1 0 1.53l0 1.58 0 1.59c0 .53 0 1 0 1.53a6.75 6.75 0 01-.26 1.48 1.5 1.5 0 01-.91 1.1 1 1 0 00.78-.26 2.57 2.57 0 00.53-.66 5.17 5.17 0 00.56-1.57 22 22 0 00.16-3.21 20.57 20.57 0 00-.17-3.2A4.9 4.9 0 00382.94 686.29zM376.11 686.72a6.15 6.15 0 00-.18-.71c-.08-.22-.12-.51-.35-.64.14.18.09.45.11.68s0 .47 0 .71l-.06 1.43c-.05.94-.08 1.92-.09 2.87s0 1.93.09 2.88l.06 1.42c0 .24 0 .48 0 .72s0 .5-.11.68c.23-.13.27-.42.36-.64s.12-.48.17-.72a11.78 11.78 0 00.21-1.45c.08-1 .09-1.92.1-2.89s0-1.91-.1-2.89C376.28 687.69 376.2 687.21 376.11 686.72zM403.84 650.85h-13.5a3.51 3.51 0 013.51 3.51v4.38a3.51 3.51 0 01-3.51 3.51h13.5a5.16 5.16 0 005.16-5.16V656A5.16 5.16 0 00403.84 650.85zM389.21 653.64a3.49 3.49 0 00-.39-1 3.62 3.62 0 00-1.53-1.52 2.71 2.71 0 00-2-.22 3.33 3.33 0 012.24 2.29 5 5 0 01.12.74 5.94 5.94 0 010 .81c0 .62 0 1.24-.05 1.86s0 1.24.05 1.86a4.56 4.56 0 010 .81 3.71 3.71 0 01-.12.73 3.3 3.3 0 01-2.23 2.3 2.76 2.76 0 002-.22 3.82 3.82 0 001.92-2.57 6.15 6.15 0 00.12-1.05c0-.62.05-1.24.05-1.86s0-1.24-.05-1.86A6.15 6.15 0 00389.21 653.64zM381.88 651.77a2.56 2.56 0 00-.53-.65 1 1 0 00-.78-.27c.53.14.75.65.91 1.11a6.56 6.56 0 01.26 1.47c0 .51 0 1 0 1.54l0 1.58 0 1.58c0 .54 0 1 0 1.53a6.11 6.11 0 01-.25 1.48c-.16.45-.38 1-.91 1.11a1.05 1.05 0 00.78-.27 2.61 2.61 0 00.53-.66 4.9 4.9 0 00.55-1.57 30.3 30.3 0 000-6.41A5 5 0 00381.88 651.77zM375.05 652.21a6.31 6.31 0 00-.18-.72c-.08-.22-.12-.51-.35-.64.14.18.09.45.11.68s0 .48 0 .72l-.06 1.42c-.05 1-.09 1.92-.09 2.88s0 1.93.09 2.87l.06 1.43c0 .24 0 .48 0 .71s0 .51-.11.69c.23-.14.27-.43.35-.65a5.68 5.68 0 00.18-.71 12.06 12.06 0 00.21-1.45c.08-1 .09-1.93.1-2.89s0-1.92-.1-2.89C375.21 653.17 375.14 652.69 375.05 652.21zM402.39 616.51h-13.5a3.51 3.51 0 013.51 3.5v4.39a3.51 3.51 0 01-3.51 3.5h13.5a5.16 5.16 0 005.16-5.15v-1.09A5.15 5.15 0 00402.39 616.51zM387.76 619.29a3.82 3.82 0 00-1.92-2.57 2.71 2.71 0 00-2-.21 3.29 3.29 0 012.24 2.29 4.57 4.57 0 01.12.74 5.8 5.8 0 010 .8c0 .62 0 1.24-.05 1.86s0 1.24.05 1.87a4.43 4.43 0 010 .8 3.8 3.8 0 01-.12.74 3.29 3.29 0 01-2.23 2.29 2.76 2.76 0 002-.21 3.59 3.59 0 001.53-1.53 3.54 3.54 0 00.39-1 6.26 6.26 0 00.12-1c0-.63.05-1.25.05-1.87s0-1.24-.05-1.86A6.15 6.15 0 00387.76 619.29zM380.43 617.43a2.61 2.61 0 00-.54-.66 1 1 0 00-.77-.26c.53.13.75.65.91 1.1a6.75 6.75 0 01.26 1.48c0 .5 0 1 0 1.53l0 1.58 0 1.59c0 .53 0 1 0 1.53a6 6 0 01-.25 1.47c-.16.46-.38 1-.91 1.11a1 1 0 00.77-.26 2.61 2.61 0 00.54-.66 5.15 5.15 0 00.55-1.57 20.7 20.7 0 00.17-3.21A21.88 21.88 0 00381 619 5.15 5.15 0 00380.43 617.43zM373.6 617.86a5.68 5.68 0 00-.18-.71c-.08-.22-.13-.51-.35-.64.14.18.09.45.11.68s0 .47 0 .71l-.06 1.43c-.06.95-.09 1.92-.09 2.87s0 1.93.09 2.88l.06 1.42c0 .24 0 .48 0 .72s0 .5-.1.68c.22-.13.27-.42.35-.64a6.31 6.31 0 00.18-.72 14.06 14.06 0 00.21-1.45c.08-1 .09-1.92.1-2.89s0-1.91-.11-2.89C373.76 618.83 373.69 618.35 373.6 617.86z"/><path fill="#c5431a" d="M398.28 628H383.14a3.51 3.51 0 013.5 3.51v4.38a3.51 3.51 0 01-3.5 3.51h15.14a3.51 3.51 0 003.51-3.51v-4.38A3.51 3.51 0 00398.28 628zM382 630.8a3.82 3.82 0 00-1.92-2.57 2.74 2.74 0 00-2-.22 3.31 3.31 0 012.23 2.3 3.71 3.71 0 01.12.73 7.83 7.83 0 010 .81c0 .62-.05 1.24-.05 1.86s0 1.24 0 1.86a5.94 5.94 0 010 .81 5 5 0 01-.12.74 3.31 3.31 0 01-2.23 2.29 2.77 2.77 0 002-.21 3.7 3.7 0 001.53-1.53 3.47 3.47 0 00.38-1 7.49 7.49 0 00.13-1c0-.62 0-1.24 0-1.86s0-1.24-.05-1.86A6.15 6.15 0 00382 630.8zM374.67 628.94a2.41 2.41 0 00-.53-.66 1 1 0 00-.78-.27c.54.14.75.65.91 1.11a6 6 0 01.26 1.48c0 .5 0 1 0 1.53l0 1.58 0 1.58c0 .54 0 1 0 1.54a6 6 0 01-.26 1.47c-.16.46-.37 1-.91 1.11a1 1 0 00.78-.27 2.37 2.37 0 00.53-.65 5 5 0 00.56-1.57 32.18 32.18 0 000-6.41A5.17 5.17 0 00374.67 628.94zM367.84 629.37c0-.24-.1-.48-.17-.71s-.13-.51-.35-.65c.13.18.08.46.1.69s0 .47 0 .71l0 1.43c-.06.94-.09 1.91-.1 2.87s0 1.93.09 2.87l.06 1.43c0 .24 0 .48 0 .72s0 .5-.1.68c.22-.13.26-.42.35-.64s.12-.48.18-.72a14 14 0 00.2-1.45c.09-1 .09-1.92.11-2.89s0-1.91-.11-2.89A12.06 12.06 0 00367.84 629.37zM402.39 639.51h-13.5A3.51 3.51 0 01392.4 643v4.38a3.51 3.51 0 01-3.51 3.51h13.5a5.16 5.16 0 005.16-5.16v-1.08A5.16 5.16 0 00402.39 639.51z"/><path fill="#c5431a" d="M387.76 642.3a3.82 3.82 0 00-1.92-2.57 2.76 2.76 0 00-2-.22 3.33 3.33 0 012.24 2.29 5 5 0 01.12.74 5.94 5.94 0 010 .81c0 .62 0 1.24-.05 1.86s0 1.24.05 1.86a4.56 4.56 0 010 .81 3.71 3.71 0 01-.12.73 3.29 3.29 0 01-2.23 2.3 2.76 2.76 0 002-.21 3.59 3.59 0 001.53-1.53 3.49 3.49 0 00.39-1 6.15 6.15 0 00.12-1c0-.62.05-1.24.05-1.86s0-1.24-.05-1.86A6.15 6.15 0 00387.76 642.3zM380.43 640.43a2.4 2.4 0 00-.54-.65 1 1 0 00-.77-.27c.53.14.75.65.91 1.11a6.56 6.56 0 01.26 1.47c0 .51 0 1 0 1.54l0 1.58 0 1.58c0 .54 0 1 0 1.54a6 6 0 01-.25 1.47c-.16.46-.38 1-.91 1.11a1 1 0 00.77-.27 2.56 2.56 0 00.54-.65 5.25 5.25 0 00.55-1.57 20.7 20.7 0 00.17-3.21A22 22 0 00381 642 5.34 5.34 0 00380.43 640.43zM373.6 640.87a5.68 5.68 0 00-.18-.71c-.08-.22-.13-.51-.35-.65.14.18.09.46.11.68s0 .48 0 .72l-.06 1.43c-.06.94-.09 1.91-.09 2.87s0 1.93.09 2.87l.06 1.43c0 .24 0 .48 0 .72s0 .5-.1.68c.22-.14.27-.43.35-.65a5.68 5.68 0 00.18-.71 14.47 14.47 0 00.21-1.45c.08-1 .09-1.93.1-2.89s0-1.91-.11-2.89A14.43 14.43 0 00373.6 640.87zM395.54 605H380.39a3.5 3.5 0 013.5 3.5v4.39a3.5 3.5 0 01-3.5 3.5h15.15a3.5 3.5 0 003.5-3.5V608.5A3.5 3.5 0 00395.54 605zM379.25 607.78a3.28 3.28 0 00-.39-1 3.62 3.62 0 00-1.52-1.53 2.72 2.72 0 00-2-.21 3.29 3.29 0 012.23 2.29 3.69 3.69 0 01.12.74 5.59 5.59 0 010 .8c0 .62-.05 1.24-.05 1.87s0 1.24.05 1.86a7.64 7.64 0 010 .8 4.57 4.57 0 01-.12.74 3.31 3.31 0 01-2.23 2.29 2.72 2.72 0 002-.21 3.6 3.6 0 001.52-1.52 3.33 3.33 0 00.39-1 7.49 7.49 0 00.13-1.05c0-.62 0-1.24.05-1.86s0-1.25-.06-1.87A6.26 6.26 0 00379.25 607.78zM371.92 605.92a2.57 2.57 0 00-.53-.66 1 1 0 00-.78-.26c.54.14.75.65.91 1.1a6.21 6.21 0 01.26 1.48 13.1 13.1 0 010 1.53l0 1.59 0 1.58c0 .54 0 1 0 1.53a6.21 6.21 0 01-.26 1.48c-.16.45-.37 1-.91 1.1a1 1 0 00.78-.26 2.57 2.57 0 00.53-.66 4.92 4.92 0 00.56-1.57 32.18 32.18 0 000-6.41A5.27 5.27 0 00371.92 605.92zM365.09 606.36c0-.24-.1-.48-.17-.72s-.13-.51-.35-.64c.13.18.08.45.1.68s0 .48 0 .71l0 1.43c-.06.95-.09 1.92-.1 2.88s0 1.92.09 2.87l.06 1.43c0 .24 0 .47 0 .71s0 .5-.1.68c.22-.13.26-.42.35-.64s.12-.48.18-.72a14 14 0 00.2-1.45c.09-1 .1-1.92.11-2.88s0-1.92-.11-2.89A11.78 11.78 0 00365.09 606.36zM398.53 593.5H383.38a3.5 3.5 0 013.5 3.5v4.39a3.49 3.49 0 01-3.5 3.5h15.15a3.5 3.5 0 003.5-3.5V597A3.5 3.5 0 00398.53 593.5zM382.24 596.28a3.28 3.28 0 00-.39-1 3.62 3.62 0 00-1.52-1.53 2.76 2.76 0 00-2-.21 3.29 3.29 0 012.23 2.29 3.8 3.8 0 01.12.74 4.43 4.43 0 010 .8c0 .63-.05 1.25-.05 1.87s0 1.24.05 1.86a4.46 4.46 0 010 .8 3.69 3.69 0 01-.12.74 3.27 3.27 0 01-2.23 2.29 2.71 2.71 0 002-.21 3.67 3.67 0 001.53-1.52 3.9 3.9 0 00.39-1 6.15 6.15 0 00.12-1.05c0-.62 0-1.24.05-1.86s0-1.24-.05-1.87A7.67 7.67 0 00382.24 596.28zM374.92 594.42a2.84 2.84 0 00-.54-.66 1 1 0 00-.77-.26c.53.14.74.65.9 1.1a6.21 6.21 0 01.26 1.48c0 .5 0 1 0 1.54l0 1.58 0 1.58c0 .54 0 1 0 1.53a6.21 6.21 0 01-.26 1.48c-.16.45-.37 1-.9 1.1a1 1 0 00.77-.26 2.65 2.65 0 00.54-.66 5.15 5.15 0 00.55-1.57 32.18 32.18 0 000-6.41A5.25 5.25 0 00374.92 594.42zM368.09 594.86c-.06-.24-.11-.48-.18-.72s-.13-.51-.35-.64c.14.18.08.45.1.68s0 .48 0 .72l-.06 1.42c-.06.95-.09 1.92-.09 2.88s0 1.92.09 2.87l.06 1.43c0 .24 0 .47 0 .71s0 .5-.1.68c.22-.13.26-.42.35-.64s.13-.48.18-.71c.09-.49.16-1 .2-1.45.09-1 .1-1.93.11-2.89s0-1.92-.11-2.89A14 14 0 00368.09 594.86z"/><path fill="#c6d8f6" d="M868.35,345.94h0v0c.63-10.72.46-19.28-15.33-19.28l-4.56-.13c-11.61,0-25,8.53-25.64,19.26l-1.66,16.17,63.54,0C875.21,361.78,868,354.71,868.35,345.94Z"/><path fill="#edf6fc" d="M626.81,326.57c-11.61,0-21.53,8.7-22.16,19.43,0,0-51.49,321.55-52.66,328H773.6l52.69-328.06c2-12.61,10.55-19.43,22.16-19.43l-221.64.07Z"/><polygon fill="#0030a6" points="580.91 596.5 675.62 596.4 675.9 595.1 581.2 595.19 580.91 596.5"/><polygon fill="#347edf" points="617.38 420.9 721.35 420.49 721.76 417.79 617.78 418.2 617.38 420.9"/><polygon fill="#347edf" points="726.52 420.43 769.64 419.74 770.05 417.05 726.92 417.74 726.52 420.43"/><polygon fill="#347edf" points="756.79 414.93 793.24 414.32 793.65 411.63 757.2 412.24 756.79 414.93"/><polygon fill="#347edf" points="703.83 415.54 750.76 415 751.17 412.31 704.24 412.84 703.83 415.54"/><polygon fill="#347edf" points="618.15 415.74 698.23 415.6 698.64 412.91 618.56 413.04 618.15 415.74"/><polygon fill="#347edf" points="618.93 410.58 797.97 409.12 798.38 406.42 619.34 407.88 618.93 410.58"/><polygon fill="#347edf" points="758.35 404.61 792.5 404.02 792.91 401.33 758.76 401.92 758.35 404.61"/><polygon fill="#347edf" points="705.39 405.21 752.32 404.68 752.73 401.98 705.79 402.52 705.39 405.21"/><polygon fill="#347edf" points="619.71 405.42 699.79 405.28 700.2 402.58 620.12 402.72 619.71 405.42"/><polygon fill="#347edf" points="656.47 364.07 760.44 363.66 760.85 360.96 656.87 361.38 656.47 364.07"/><polygon fill="#347edf" points="711.01 374.58 797.8 374.04 798.21 371.35 711.41 371.88 711.01 374.58"/><polygon fill="#347edf" points="625.34 374.78 705.41 374.64 705.82 371.95 625.74 372.08 625.34 374.78"/><polygon fill="#347edf" points="729.63 399.78 772.76 399.1 773.16 396.4 730.04 397.09 729.63 399.78"/><polygon fill="#347edf" points="620.49 400.25 724.47 399.84 724.87 397.15 620.9 397.56 620.49 400.25"/><polygon fill="#347edf" points="710.5 507.72 746.95 507.11 747.36 504.41 710.9 505.02 710.5 507.72"/><polygon fill="#347edf" points="603.53 503.36 751.68 501.9 752.09 499.21 603.93 500.67 603.53 503.36"/><polygon fill="#347edf" points="712.06 497.39 746.21 496.81 746.62 494.12 712.47 494.7 712.06 497.39"/><polygon fill="#347edf" points="689.98 498 706.03 497.46 706.43 494.77 690.39 495.3 689.98 498"/><polygon fill="#347edf" points="604.3 498.2 684.38 498.06 684.79 495.37 604.71 495.51 604.3 498.2"/><polygon fill="#347edf" points="714.23 492.57 726.46 491.88 726.87 489.19 714.63 489.88 714.23 492.57"/><polygon fill="#347edf" points="605.09 493.04 709.06 492.63 709.47 489.93 605.49 490.35 605.09 493.04"/><polygon fill="#347edf" points="611.99 462.66 791.03 461.2 791.43 458.51 612.4 459.97 611.99 462.66"/><polygon fill="#347edf" points="751.4 456.69 785.56 456.11 785.96 453.42 751.81 454 751.4 456.69"/><polygon fill="#347edf" points="698.44 457.3 745.37 456.76 745.78 454.07 698.85 454.6 698.44 457.3"/><polygon fill="#347edf" points="612.77 457.5 692.84 457.36 693.25 454.67 613.17 454.81 612.77 457.5"/><polygon fill="#347edf" points="722.69 451.87 765.81 451.18 766.22 448.49 723.09 449.18 722.69 451.87"/><polygon fill="#347edf" points="613.54 452.34 717.52 451.93 717.93 449.23 613.95 449.65 613.54 452.34"/><path fill="#347edf" d="M598,611.11a2.81,2.81,0,0,1-2.55-4l16.48-35.94-21.34,16.5a1.43,1.43,0,1,1-1.75-2.26l21.56-16.67a2.79,2.79,0,0,1,4.25,3.37l-16.37,35.7,23.64-29.29a2.79,2.79,0,0,1,4.86,2.49l-1.66,6.06,2.84-2.74a2.79,2.79,0,0,1,4.72,2.26l-1.17,12.85,9.35-12.73a2.8,2.8,0,0,1,4.74.38l1.35,2.65,6.06-5.41a1.43,1.43,0,1,1,1.9,2.13L648.8,592a2.78,2.78,0,0,1-4.35-.81l-1.35-2.63-9.43,12.85a2.8,2.8,0,0,1-5-1.91l1.17-12.91-2.88,2.78a2.79,2.79,0,0,1-4.63-2.75l1.64-6-23.78,29.46A2.76,2.76,0,0,1,598,611.11Z"/><path fill="#c6d8f6" d="M743.78,549.51c-18.71-.5-36.69,16.44-40.08,37.75s9.07,39.07,27.79,39.57,36.69-16.44,40.08-37.75S762.5,550,743.78,549.51Z"/><path fill="#fff" d="M744,548.51c-19.23-.51-37.65,16.83-41.13,38.73s9.28,40.08,28.51,40.59S769,611,772.45,589.1,763.17,549,744,548.51Zm26.74,40.54a46.4,46.4,0,0,1-13.91,26.37c-7.38,7-16.3,10.64-25.13,10.41A26.75,26.75,0,0,1,710,614.17c-5.12-7.28-7-16.83-5.45-26.88a46.36,46.36,0,0,1,13.92-26.37c7.37-6.95,16.29-10.64,25.13-10.41a26.77,26.77,0,0,1,21.62,11.66C770.36,569.45,772.29,579,770.69,589.05Z"/><path fill="#fff" d="M743,554.42c-16.36-.44-32,14.32-35,33s7.89,34.1,24.26,34.54,32-14.32,35-33S759.37,554.86,743,554.42Zm15.47,34.31c-2.08,13.08-13.12,23.48-24.61,23.17s-19.14-11.2-17.06-24.29,13.12-23.48,24.61-23.18S760.55,575.64,758.47,588.73Z"/><path fill="#fe561c" d="M729.59,601.76l-6.67-9.66a3.58,3.58,0,0,1,.7-4.42l1.39-1.34a2.43,2.43,0,0,1,3.81.11l3.41,4.93a.52.52,0,0,0,.82,0l15.11-14.48c1.25-1.19,3-1.15,3.82.1l1,1.4a3.58,3.58,0,0,1-.7,4.42l-19.81,19A1.82,1.82,0,0,1,729.59,601.76Z"/><path fill="#0030a6" d="M511.84,708.79l4.31-2.39s.92,1.38,1.68,2.27c1.45,1.73,8.42,3,8.42,5.42,0,1.23-2.6,2.34-4.71,2.42a14.38,14.38,0,0,1-5.11-.7c-1.25-.41-4.1-1.57-4.55-2.33a3.51,3.51,0,0,1-.17-2.85C511.49,709.26,511.84,708.79,511.84,708.79Z"/><path fill="#fff" d="M517.39,706.26a2.1,2.1,0,0,0,.44,2.41s0,.92-1.63,1.82c-.92.5-4.49.14-4.49.14a18.75,18.75,0,0,1-.1-3.33Z"/><path fill="#1966e6" d="M528.31,565.6c.42,3,2.74,43.64-.31,80.64a375.25,375.25,0,0,1-10.66,61c-.06.22-4.25,2.5-6.35.18,0,0,3.32-31.37-.9-61-3.65-25.55-8.63-49.78-10.66-51.38V568C509.81,568.64,524.87,567.1,528.31,565.6Z"/><path fill="#0030a6" d="M479.23,708.06l4.49-2s.81,1.46,1.49,2.41c1.31,1.83,8.16,3.61,8,6.05-.1,1.23-2.77,2.13-4.89,2s-4-.35-5-1.1c-1.34-.94-4-1.89-4.35-2.68a3.5,3.5,0,0,1,0-2.86A2.66,2.66,0,0,1,479.23,708.06Z"/><path fill="#fff" d="M484.63,705.83a3.08,3.08,0,0,0,.58,2.59s.29,1.18-1.4,2c-1,.43-4.85-.49-4.85-.49-.11-1.37,0-3.43,0-3.43Z"/><path fill="#347edf" d="M478.86,566.26c10.29,1.49,38,6.92,41.52,5.68.18,3-14.23,38.61-20.18,75.34a372,372,0,0,1-15.36,59.64c-.08.23-4.43,2.17-6.35-.31,0,0,7.46-31.17,3.88-60.86C479.76,624.09,477.37,609.83,478.86,566.26Z"/><path fill="#fff" d="M594.64,552.6a11.32,11.32,0,0,1-3.24,1c1.27,0,1.14.78,2.46,1,.52-.07,2.36-1.54,2.12-2C595.68,551.82,595.18,552.3,594.64,552.6Z"/><path fill="#fff" d="M602.53,556a19.4,19.4,0,0,0-2.94-.88c-.24-.06-3.67-1-5.23-1.2a27.79,27.79,0,0,0-3.91-.34A27.32,27.32,0,0,0,588.7,559c2.2.37,9.12,1,9.28,1,2.66.77,3.53.08,3.18-.63-.08-.17,1.85-.26,1.67-1a.9.9,0,0,0,.6-.81A3,3,0,0,0,602.53,556Z"/><path fill="#1966e6" d="M558.2 540a21.16 21.16 0 00-1.27-2c-2.81-3.89-6.29-10.29-9.65-16.47s-6.51-12-8.59-14.45a1.65 1.65 0 00-1.36-.57c-2.36.13-11.72 7.82-12.92 9.88-3.6 6.14 18.54 27.52 25.11 32.38 6.27 4.77 29.71 10.41 39.88 11.77L591 552.2c-4.08-.46-14.4-4.74-22.7-8.18C564.51 542.45 560.91 541 558.2 540zM481.46 589.71l3.51-11-.43 11.59a54.79 54.79 0 0031.17 5.79h0a22.1 22.1 0 002.68-5.28c1 1.87 1.89 3.56 2.34 4.33a31.68 31.68 0 006.57-2.34 17.59 17.59 0 002.13-1.23l-.07-3-3.49-13.77-41-12.83-6.41 24.28 0 3C479.43 589.4 480.77 589.53 481.46 589.71z"/><path fill="#347edf" d="M481.25,586.73l6-20.07-1.43,21.17a50,50,0,0,0,29.85,5.25h0a22.1,22.1,0,0,0,2.68-5.28c1,1.87,1.89,3.56,2.34,4.33a31.68,31.68,0,0,0,6.57-2.34,13.44,13.44,0,0,0,4.07-2.89l-.06-1c-.28-5.36-.26-10.73,0-16,.19-3.89.48-7.7.86-11.37,2-19.09,6-34.29,6.36-36.61.81-5.88,3.46-12.61-1.48-16.39-1.27-1-8.53-4.24-8.53-4.24s-2.07,2-4.15,1.62c-3-.62-7.15-5.23-7.15-5.23s-6.83.63-9,1.21c-19.73,5.2-31.72,30.14-31.72,87.09C477.42,586.19,480,586.42,481.25,586.73Z"/><path fill="#fff" d="M529.87,491.18c-.09.59-2.31,6.62-1.37,10.13-1,3-9.6,2-11.3-3.61,1.18-1.37,3-9.24,3-12.16C520.82,486.16,527.71,491.23,529.87,491.18Z"/><path fill="#fff" d="M529.27,476.23c3.94.23,7.6,1.62,8,5.42.14,1.36-2,13.2-8.53,14.19-2.79.42-7.36-4.84-7.18-8,0,0,.26-4.3.26-4.34C522.06,479.31,525.05,476,529.27,476.23Z"/><path fill="#0030a6" d="M521,469c8.29-6.52,21.74,1,21.49,9.34,0,1.84-2.09,6.2-19.16,1.34-2.3,2.85-3.55,9.43-3.55,9.43C514.94,484.2,514.68,474,521,469Z"/><path fill="#fff" d="M521.29,481.75a3.5,3.5,0,0,1,1.82.38,49.92,49.92,0,0,1-1.23,5,3.77,3.77,0,0,1-2.5-2.68C519.29,483.38,520.2,481.84,521.29,481.75Z"/><path fill="#edf6fc" d="M517.2,497.7s4.12,4.61,7.15,5.22c2.08.43,4.15-1.61,4.15-1.61s6.79,3.06,8.38,4.13c-1.23,6.13-11.77,26-11.77,26s-8.91-27.29-16.94-32.52a19.77,19.77,0,0,1,4.44-.88Z"/><path fill="#fe561c" d="M527,508.36l2,6.92a2,2,0,0,1,.07.81l-.91,7.73-2.41,6.28h-1.53l-1.22-8.25-.18-6.25a1.94,1.94,0,0,1,.14-.79l2.37-6.19Z"/><path fill="#fe561c" d="M528.32,507.48l-.23.63a1.47,1.47,0,0,1-1.38,1h-1a1.49,1.49,0,0,1-1.26-.72l-.91-1.54a1.47,1.47,0,0,1,.09-1.62l1.67-2.24.5-.16,2.33,3.35A1.51,1.51,0,0,1,528.32,507.48Z"/><path fill="#c6d8f6" d="M525.39 503l-2.23 4.93s-7.92-3.88-9.47-10.7l4-.26S519 500.17 525.39 503zM532.21 502.47s-.83 3.66-2.86 5.25l-4-4.77s3.27-.81 2.88-3.39A13.71 13.71 0 01532.21 502.47z"/><path fill="#1966e6" d="M513.9,497.44s8.62,15.4,11.21,31.31a43.11,43.11,0,0,1-.22,5.26s-5.54-15.26-14.27-21.92l1.88-4-4.3-1.85a19.44,19.44,0,0,0-2.93-7.23A34.55,34.55,0,0,1,513.9,497.44Z"/><path fill="#1966e6" d="M525.11,528.75s8-14.71,7.94-25.78c0,0,3.68,1.44,5,3.47,0,0-.46,5.65-2.06,7.62l-2.62,1,1.31,3.34s-4.6,10.84-9.76,15.58C524.89,534,525.23,529.43,525.11,528.75Z"/><path fill="#1966e6" d="M518.59,588.27c3.35-20.24,6.62-54.49,6.65-54.83l-.54-.23c0,.34-3.32,34.74-6.66,55Z"/><path fill="#c5431a" d="M463.74,602.28c-1.83-4.52-1.47-8.91.78-9.82l-16.68,6.73c-2.25.91-2.61,5.31-.79,9.82s5.13,7.43,7.39,6.52l16.68-6.73C468.86,609.71,465.56,606.79,463.74,602.28Z"/><path fill="#fe561c" d="M464.52,592.46c-2.25.91-2.61,5.3-.78,9.82s5.12,7.43,7.38,6.52l146.73-59.25-6.6-16.34Z"/><path fill="#c5431a" d="M627,530.1a102.23,102.23,0,0,0-15.76,3.11c-2.26.91-2.61,5.31-.79,9.82s5.13,7.43,7.39,6.52a99.94,99.94,0,0,0,13.5-8.7A15.93,15.93,0,0,1,627,530.1Z"/><path fill="#0030a6" d="M639.06,531.49c-.83-2.06-6.22-2.07-12-1.39a15.93,15.93,0,0,0,4.34,10.75C636,537.29,639.89,533.54,639.06,531.49Z"/><path fill="#1966e6" d="M507.38,554c3.31,4.22,14.35,10.92,23.91,15.91.19-3.89.48-7.7.86-11.37-1.94-1.44-3.89-2.93-5.72-4.32-3.21-2.45-6.26-4.77-8.59-6.41a20.07,20.07,0,0,0-.72-2.2c-1.69-4.4-3.4-11.36-5-18.08s-3.18-13-4.54-15.9a1.64,1.64,0,0,0-1.15-.87c-2.28-.47-12.46,1.2-14.12,2.86C487.3,518.56,502.34,547.74,507.38,554Z"/><path fill="#fff" d="M549.81,563.89a11,11,0,0,1-3.37.39c1.24.26,1,1,2.23,1.44.53,0,2.61-1.06,2.46-1.58C551,563.32,550.4,563.7,549.81,563.89Z"/><path fill="#fff" d="M556.92,568.73a20.18,20.18,0,0,0-2.72-1.42c-.22-.11-3.42-1.64-4.91-2.16a27.21,27.21,0,0,0-3.78-1.08,27.79,27.79,0,0,0-2.73,5c2.08.79,8.77,2.68,8.91,2.75,2.48,1.26,3.46.75,3.25,0-.05-.19,1.86.09,1.83-.68a.9.9,0,0,0,.74-.68A3,3,0,0,0,556.92,568.73Z"/><path fill="#347edf" d="M507.08,506a1.61,1.61,0,0,1,1.15.88c1.36,2.88,2.91,9.2,4.55,15.89s3.35,13.68,5.05,18.08a22.47,22.47,0,0,1,.72,2.2c2.32,1.65,5.37,4,8.59,6.41,7,5.35,15.78,12,19.54,13.47l-3.62,7.49c-9.33-3.84-30.2-15.08-35-21.18-5-6.27-20.73-32.15-15.77-37.09C494,510.48,504.81,505.51,507.08,506Z"/><polygon fill="#c6d8f6" points="709.86 641.83 613.86 641.83 588.38 689.34 758.92 689.34 744.31 661.66 709.86 641.83"/><path fill="#edf6fc" d="M777.27,665.85c1.21,13.94-7.81,23.5-21.93,23.49s-27.3-10.5-29.61-23.51c0,0-.43-3.26-.76-4.51-3.47-13.17-11.52-19.49-23.26-19.49H779S776.67,659,777.27,665.85Z"/><path fill="#fff" d="M613,641.83H535.7l.54,0c-13.77.39-25.4,10.73-26.33,23.49,0,0-.09,3.26-.28,4.51-2.1,13.17-9.49,19.49-21.22,19.49h77.31s-2.06-8.52-3.32-16a31.34,31.34,0,0,0,26.92,16c14.13,0,32.9,12.94,31.68-1C620.4,681.5,613,641.83,613,641.83Z"/><polygon fill="#c6d8f6" points="589.03 661.59 497.77 661.43 472.78 718.4 643.32 718.4 634.38 662.54 589.03 661.59"/><path fill="#fff" d="M602.75,641.83s2.25,9.36,4.18,19.33l-20-.42c11.09,0,19.06,8.86,22.92,22.54,1.61,20.58,13.88,34.44,30.65,34.43H641a23.29,23.29,0,0,0,8.65-1.58c13.31-4.62,23.42-18.94,24.19-36,0,0,0-5.2.27-7.2,2.37-21,11.46-31.12,26.08-31.13Z"/><path fill="#edf6fc" d="M508.21,690.27c.36,16.74,11.14,28.21,26.25,28.2s28-12.61,28.88-28.22c0,0,.07-3.92.27-5.42,2.16-15.8,10-23.39,22.57-23.4H502.51S508,682.06,508.21,690.27Z"/><path fill="#edf6fc" d="M442.1,661.43c-12.56,0-20.42,7.6-22.57,23.4-.21,1.5-.27,5.42-.27,5.42-.78,13.15-10,24.8-21.91,28v.27H535.19l-10.32-57Z"/><path fill="#c6d8f6" d="M519.33 707.68s-.19-1.48-.34-2.06c-1.59-6-5.26-8.88-10.61-8.88l-135 0v.08c4.7.42 7.93 3.3 9.39 8.84.15.57.35 2 .35 2 .72 4.09 3.86 10.07 12.9 10.71H532.83C523 717 520.06 711.78 519.33 707.68zM153.86 220.77l20.92 222.56a9.51 9.51 0 009.29 8.54H480.13a7.78 7.78 0 006.22-3 7.94 7.94 0 001.58-5.58L467 220.77a9.51 9.51 0 00-9.3-8.54H161.65A7.71 7.71 0 00153.86 220.77z"/><path fill="#edf6fc" d="M163.43,220.77l20.92,222.56a9.52,9.52,0,0,0,9.29,8.54H489.7a7.7,7.7,0,0,0,7.8-8.54L476.58,220.77a9.52,9.52,0,0,0-9.3-8.54H171.22A7.71,7.71,0,0,0,163.43,220.77Z"/><path fill="#002880" d="M153.86,220.77l.72,8.21h26.53l-1.46-16.75h-18A7.7,7.7,0,0,0,153.86,220.77Z"/><path fill="#0030a6" d="M163.43,220.77l.72,8.21,313.11-.37-.68-7.84a9.52,9.52,0,0,0-9.3-8.54H171.22A7.7,7.7,0,0,0,163.43,220.77Z"/><path fill="#edf6fc" d="M190.1 224l-13.57 0a.85.85 0 00-.9.69.75.75 0 00.83.69H190a.81.81 0 00.87-.68A.73.73 0 00190.1 224zM189.1 220l-13.54-.06a.84.84 0 00-.9.69c0 .38.35.68.82.69l13.56 0a.8.8 0 00.87-.68A.73.73 0 00189.1 220zM174.51 217.26l13.53.07a.8.8 0 00.87-.68.73.73 0 00-.81-.68l-13.52-.08a.84.84 0 00-.9.68A.75.75 0 00174.51 217.26z"/><path fill="#fff" d="M231.63,295.3l20.93,222.56a9.51,9.51,0,0,0,9.29,8.54H457.32a7.71,7.71,0,0,0,7.8-8.54L444.2,295.3a9.53,9.53,0,0,0-9.3-8.55H239.43A7.71,7.71,0,0,0,231.63,295.3Z"/><polygon fill="#0030a6" points="277.79 483.87 368.55 483.51 368.27 481.15 277.51 481.51 277.79 483.87"/><polygon fill="#0030a6" points="373.05 483.46 425.56 482.86 425.29 480.5 372.77 481.1 373.05 483.46"/><polygon fill="#0030a6" points="398.21 478.65 444.92 478.12 444.64 475.76 397.94 476.3 398.21 478.65"/><polygon fill="#0030a6" points="352.08 479.18 392.96 478.71 392.69 476.36 351.8 476.82 352.08 479.18"/><polygon fill="#0030a6" points="277.26 479.36 347.2 479.23 346.92 476.88 276.98 477 277.26 479.36"/><polygon fill="#0030a6" points="276.73 474.85 447.83 473.57 447.55 471.21 276.45 472.49 276.73 474.85"/><polygon fill="#0030a6" points="397.15 469.63 441.86 469.12 441.58 466.76 396.88 467.28 397.15 469.63"/><polygon fill="#0030a6" points="351.01 470.16 391.9 469.69 391.62 467.34 350.74 467.8 351.01 470.16"/><polygon fill="#0030a6" points="276.2 470.33 346.14 470.21 345.86 467.86 275.92 467.98 276.2 470.33"/><polygon fill="#0030a6" points="274.68 457.44 365.44 457.08 365.16 454.73 274.4 455.08 274.68 457.44"/><polygon fill="#0030a6" points="348.97 452.75 389.86 452.28 389.58 449.93 348.69 450.4 348.97 452.75"/><polygon fill="#0030a6" points="274.15 452.93 344.09 452.81 343.81 450.45 273.87 450.57 274.15 452.93"/><polygon fill="#0030a6" points="370.93 465.41 423.44 464.81 423.17 462.46 370.65 463.06 370.93 465.41"/><polygon fill="#0030a6" points="275.67 465.82 366.43 465.47 366.15 463.11 275.39 463.47 275.67 465.82"/><polygon fill="#0030a6" points="271.79 436.87 362.55 436.51 362.27 434.15 271.51 434.51 271.79 436.87"/><polygon fill="#0030a6" points="367.05 436.46 419.56 435.86 419.29 433.5 366.77 434.1 367.05 436.46"/><polygon fill="#0030a6" points="392.21 431.65 438.92 431.12 438.64 428.76 391.94 429.3 392.21 431.65"/><polygon fill="#0030a6" points="346.08 432.18 386.96 431.71 386.69 429.36 345.8 429.82 346.08 432.18"/><polygon fill="#0030a6" points="271.26 432.36 341.2 432.23 340.92 429.88 270.98 430 271.26 432.36"/><polygon fill="#0030a6" points="270.73 427.85 441.83 426.57 441.55 424.21 270.45 425.49 270.73 427.85"/><polygon fill="#0030a6" points="391.15 422.63 435.86 422.12 435.58 419.76 390.88 420.28 391.15 422.63"/><polygon fill="#0030a6" points="345.01 423.16 385.9 422.69 385.62 420.34 344.74 420.8 345.01 423.16"/><polygon fill="#0030a6" points="270.2 423.33 340.14 423.21 339.86 420.86 269.92 420.98 270.2 423.33"/><polygon fill="#0030a6" points="268.68 410.44 347.03 410.08 346.75 407.73 268.4 408.08 268.68 410.44"/><polygon fill="#0030a6" points="268.15 405.93 338.09 405.81 337.81 403.45 267.87 403.57 268.15 405.93"/><polygon fill="#0030a6" points="364.93 418.41 417.44 417.81 417.17 415.46 364.65 416.06 364.93 418.41"/><polygon fill="#0030a6" points="269.67 418.82 360.43 418.47 360.15 416.11 269.39 416.47 269.67 418.82"/><polygon fill="#0030a6" points="265.63 390.21 321.12 389.85 320.84 387.49 265.35 387.85 265.63 390.21"/><polygon fill="#0030a6" points="265.1 385.7 315.05 385.64 314.77 383.28 264.82 383.34 265.1 385.7"/><polygon fill="#0030a6" points="264.04 376.68 298.71 376.56 298.43 374.2 263.76 374.32 264.04 376.68"/><polygon fill="#0030a6" points="262.52 363.78 284.06 363.6 283.78 361.25 262.24 361.43 262.52 363.78"/><polygon fill="#0030a6" points="261.99 359.27 291 359.21 290.72 356.85 261.71 356.91 261.99 359.27"/><polygon fill="#0030a6" points="263.51 372.17 301.5 371.99 301.22 369.63 263.23 369.81 263.51 372.17"/><path fill="#002880" d="M425.19,524.77l21.66,45.41a1.18,1.18,0,0,1-1.7,1.51L434.61,565l-1.46,12.41a1.18,1.18,0,0,1-2.24.37l-21.66-45.42a1.19,1.19,0,0,1,.56-1.58l13.81-6.58A1.18,1.18,0,0,1,425.19,524.77Z"/><path fill="#0030a6" d="M424.88,527.49l-22,45.89a1,1,0,0,1-2-.33L399.4,560.2l-11,6.89a1.05,1.05,0,0,1-1.51-1.34l22-45.9a1,1,0,0,1,1.4-.49l14,6.73A1.05,1.05,0,0,1,424.88,527.49Z"/><path fill="#fe561c" d="M395.93,538.67h0a4.57,4.57,0,0,1,5.64,5h0a4.57,4.57,0,0,0,8,3.52h0a4.58,4.58,0,0,1,7.51.74h0a4.57,4.57,0,0,0,8.57-1.87h0a4.57,4.57,0,0,1,6.51-3.81h0A4.57,4.57,0,0,0,438,535.7h0a4.58,4.58,0,0,1,3-6.91h0a4.57,4.57,0,0,0,.86-8.73h0a4.58,4.58,0,0,1-1.61-7.37h0a4.57,4.57,0,0,0-4.43-7.57h0a4.58,4.58,0,0,1-5.64-5h0a4.57,4.57,0,0,0-8-3.53h0a4.57,4.57,0,0,1-7.51-.74h0a4.57,4.57,0,0,0-8.57,1.88h0a4.58,4.58,0,0,1-6.51,3.81h0a4.57,4.57,0,0,0-5.83,6.55h0a4.57,4.57,0,0,1-3,6.91h0a4.57,4.57,0,0,0-.87,8.73h0a4.57,4.57,0,0,1,1.62,7.37h0A4.58,4.58,0,0,0,395.93,538.67Z"/><path fill="#1966e6" d="M368.17,410.34h15.15l0-7.33C506.59,337.07,492,177.45,492,177.45c-51.16-4.42-88.58-21.71-108-32.86l0-9.77H368.91s-46.15,36-123.32,42.63C245.59,177.45,228.9,349.86,368.17,410.34Z"/><path fill="#1966e6" d="M368.17,410.34h15.12l.15-54.95L260.72,177.45H245.59S228.9,349.86,368.17,410.34Z"/><path fill="#347edf" d="M383.28,410.34h0c60-26,91.31-72.68,107.49-117.46q2.06-5.65,3.78-11.26c17.07-55,12.58-104.18,12.58-104.18-76.53-6.61-122.39-42.06-123.1-42.61h0s-46.17,36-123.32,42.62h0C260.56,179.19,244.74,350.15,383.28,410.34Z"/><path fill="#c5431a" d="M383.34,396.33c125.4-54.32,111.24-209.2,111.24-209.2-69.27-6-110.57-38.28-110.57-38.28s-41.46,32.3-110.76,38.28C273.25,187.13,258.26,342,383.34,396.33Z"/><path fill="#fe561c" d="M384,148.85l-.67,247.48c125.4-54.32,111.24-209.2,111.24-209.2C425.31,181.15,384,148.85,384,148.85Z"/><path fill="#fff" d="M332.05,263.59v68.32a9.83,9.83,0,0,0,9.83,9.82h86.78a9.82,9.82,0,0,0,9.82-9.82V263.59a9.82,9.82,0,0,0-9.82-9.82h-3.23V235.64a40.17,40.17,0,0,0-80.33,0v18.13h-3.22A9.82,9.82,0,0,0,332.05,263.59Zm80.81-9.82H357.67V235.64a27.6,27.6,0,0,1,55.19,0Z" opacity=".15"/><rect width="106.42" height="87.97" x="349.75" y="241.19" fill="#002880" rx="9.82"/><path fill="#002880" d="M362.8,223.07v60.37h80.33V223.07a40.23,40.23,0,0,0-23.74-36.65,39.51,39.51,0,0,0-11.48-3.2,38.43,38.43,0,0,0-4.94-.31A40.21,40.21,0,0,0,362.8,223.07Zm12.57,0A27.58,27.58,0,0,1,403,195.48c.61,0,1.21,0,1.81.06a27.59,27.59,0,0,1,25.78,27.53v47.8H375.37Z"/><path fill="#0030a6" d="M372.7,223.07v60.37H453V223.07a40.21,40.21,0,0,0-35.54-39.89,37.38,37.38,0,0,0-4.63-.27,38.59,38.59,0,0,0-4.95.31,39.47,39.47,0,0,0-9,2.2c-1.06.39-2.1.83-3.12,1.31a40.65,40.65,0,0,0-6,3.52,39.45,39.45,0,0,0-5.16,4.33c-.89.88-1.74,1.81-2.54,2.77a39.93,39.93,0,0,0-6.13,10,39.11,39.11,0,0,0-2.6,8.73A40.49,40.49,0,0,0,372.7,223.07Zm12.57,47.8v-47.8A27.45,27.45,0,0,1,389,209.26a28.44,28.44,0,0,1,2.24-3.29,27.81,27.81,0,0,1,10.91-8.32,27.26,27.26,0,0,1,3.22-1.13,24.17,24.17,0,0,1,2.58-.59,26.67,26.67,0,0,1,4.93-.45,27.61,27.61,0,0,1,27.6,27.06v48.33Z"/><path fill="#0030a6" d="M359.65,251v68.32a9.82,9.82,0,0,0,9.82,9.82h86.78a9.8,9.8,0,0,0,3.91-.81,11,11,0,0,0,1.08-.55,3.87,3.87,0,0,0,.34-.21,6.65,6.65,0,0,0,.71-.51l.48-.39.1-.09.4-.39c.14-.14.27-.28.4-.43l.24-.29a2.27,2.27,0,0,0,.18-.25,1.91,1.91,0,0,0,.25-.33q.24-.35.45-.72c.12-.2.23-.41.33-.62s.09-.22.15-.33a8.53,8.53,0,0,0,.37-1h0c.07-.23.13-.46.19-.7s.05-.24.07-.36.08-.48.11-.72a10.51,10.51,0,0,0,.06-1.12V251a9.82,9.82,0,0,0-9.82-9.82H369.47a9.82,9.82,0,0,0-9.82,9.82Z"/><path fill="#c6d8f6" d="M403.2,275.81a9.66,9.66,0,1,1,15.29,7.83v17.85a5.3,5.3,0,0,1-5.3,5.3h0a5.3,5.3,0,0,1-5.3-5.3V284.08A9.66,9.66,0,0,1,403.2,275.81Z"/><path fill="#002880" d="M415.32,301.49V283.64a9.64,9.64,0,0,0-4.05-17.35,9.31,9.31,0,0,1,1.59-.14,9.65,9.65,0,0,1,5.63,17.49v17.85a5.3,5.3,0,0,1-5.3,5.3h0a5.17,5.17,0,0,1-1.58-.24A5.29,5.29,0,0,0,415.32,301.49Z"/><g opacity=".5"><path fill="#fff" d="M427.52 241.2H407.6l50.83 87.15h1.73a9.82 9.82 0 005.92-9v-12zM419.76 282.55a9.48 9.48 0 01-1.27 1.09v9.92l20.76 35.6h7.69l-26.65-45.71zM388 241.2l17 29.1a9.62 9.62 0 015.46-3.83L395.65 241.2zM412.86 195.48a27.33 27.33 0 0114.06 3.86l-9.43-16.16a39.3 39.3 0 00-4.63-.27 39.83 39.83 0 00-14 2.51l6.47 11.1A27.41 27.41 0 01412.86 195.48zM396.1 201.16l-6.36-10.91a39.45 39.45 0 00-5.16 4.33L391.22 206A28.12 28.12 0 01396.1 201.16z" opacity=".22"/></g><path fill="#1966e6" d="M820.5,119.21v93a7.3,7.3,0,0,1-7.3,7.29H627.79a7.29,7.29,0,0,1-7.3-7.29v-93a7.3,7.3,0,0,1,7.3-7.3H813.2A7.3,7.3,0,0,1,820.5,119.21Z"/><path fill="#347edf" d="M814.88,119.21v93a7.3,7.3,0,0,1-7.29,7.29H622.18a7.3,7.3,0,0,1-7.3-7.29v-93a7.3,7.3,0,0,1,7.3-7.29H807.59A7.3,7.3,0,0,1,814.88,119.21Z"/><path fill="#002880" d="M820.5,119.22v7H797.83V111.92H813.2A7.3,7.3,0,0,1,820.5,119.22Z"/><path fill="#0030a6" d="M814.88,119.22v7l-200-.32v-6.69a7.3,7.3,0,0,1,7.3-7.3H807.59A7.29,7.29,0,0,1,814.88,119.22Z"/><path fill="#edf6fc" d="M798.65,115.76l5.57,5.71a.6.6,0,0,1,0,.81.5.5,0,0,1-.74,0L798,116.56a.61.61,0,0,1,0-.8A.5.5,0,0,1,798.65,115.76Z"/><path fill="#edf6fc" d="M803.18 115.76a.5.5 0 01.74 0 .6.6 0 010 .81l-5 5.7a.51.51 0 01-.75 0 .61.61 0 010-.81zM790.14 115.07a3.58 3.58 0 00-3.48 3.89 4 4 0 003.84 3.92A3.58 3.58 0 00794 119 4 4 0 00790.14 115.07zm.32 6.92a3.1 3.1 0 01-3-3 2.75 2.75 0 012.69-3 3.11 3.11 0 013 3A2.76 2.76 0 01790.46 122zM776.29 121.44h6.81a.47.47 0 01.45.45.41.41 0 01-.41.45h-6.81a.45.45 0 01-.44-.45A.41.41 0 01776.29 121.44zM627.07 122.13l13.58 0a.73.73 0 01.81.69.83.83 0 01-.88.68l-13.58 0a.73.73 0 01-.82-.68A.84.84 0 01627.07 122.13zM627.29 118.1l13.55.05a.73.73 0 01.81.69.81.81 0 01-.88.67l-13.55 0a.74.74 0 01-.82-.69A.82.82 0 01627.29 118.1zM627.5 114.08l13.53.09a.74.74 0 01.81.68.82.82 0 01-.88.68l-13.53-.08a.74.74 0 01-.82-.69A.83.83 0 01627.5 114.08z"/><polygon fill="#c6d8f6" points="677.91 165.3 805 165.3 804.68 148.29 677.59 148.29 677.91 165.3"/><polygon fill="#c6d8f6" points="678.39 192.14 805.48 192.14 805.17 175.12 678.08 175.12 678.39 192.14"/><path fill="#0030a6" d="M688.56 156.8l.47-1.45a15.61 15.61 0 012.36 1c-.13-1.24-.2-2.08-.21-2.55h1.48c0 .68-.1 1.52-.23 2.54a16.74 16.74 0 012.41-1l.47 1.45a13.56 13.56 0 01-2.54.57 16.69 16.69 0 011.75 1.93l-1.22.87a24.52 24.52 0 01-1.4-2.2 17.83 17.83 0 01-1.33 2.2l-1.2-.87a20.19 20.19 0 011.69-1.93C690.18 157.2 689.35 157 688.56 156.8zM702.51 156.8l.47-1.45a15.4 15.4 0 012.35 1c-.12-1.24-.19-2.08-.2-2.55h1.48c0 .68-.1 1.52-.23 2.54a16.74 16.74 0 012.41-1l.46 1.45a13.39 13.39 0 01-2.54.57 16.55 16.55 0 011.76 1.93l-1.23.87c-.39-.54-.86-1.27-1.4-2.2a16.79 16.79 0 01-1.32 2.2l-1.21-.87a19.85 19.85 0 011.7-1.93C704.13 157.2 703.29 157 702.51 156.8zM716.45 156.8l.47-1.45a15.61 15.61 0 012.36 1c-.13-1.24-.2-2.08-.2-2.55h1.48a24.56 24.56 0 01-.24 2.54 17.22 17.22 0 012.41-1l.47 1.45a13.39 13.39 0 01-2.54.57 16.55 16.55 0 011.76 1.93l-1.23.87c-.39-.54-.86-1.27-1.4-2.2a15.65 15.65 0 01-1.33 2.2l-1.2-.87a18.54 18.54 0 011.7-1.93C718.08 157.2 717.24 157 716.45 156.8zM730.4 156.8l.47-1.45a15.61 15.61 0 012.36 1c-.13-1.24-.2-2.08-.21-2.55h1.48c0 .68-.1 1.52-.23 2.54a16.74 16.74 0 012.41-1l.47 1.45a13.48 13.48 0 01-2.55.57 15.69 15.69 0 011.76 1.93l-1.22.87a24.52 24.52 0 01-1.4-2.2 17.83 17.83 0 01-1.33 2.2l-1.2-.87a20.19 20.19 0 011.69-1.93C732 157.2 731.19 157 730.4 156.8zM744.35 156.8l.47-1.45a15 15 0 012.35 1c-.13-1.24-.19-2.08-.2-2.55h1.48a24.56 24.56 0 01-.24 2.54 17.73 17.73 0 012.41-1l.48 1.45a13.66 13.66 0 01-2.55.57 16.55 16.55 0 011.76 1.93l-1.23.87c-.39-.54-.86-1.27-1.4-2.2a16.79 16.79 0 01-1.32 2.2l-1.21-.87a19.85 19.85 0 011.7-1.93C746 157.2 745.14 157 744.35 156.8zM758.29 156.8l.47-1.45a15.61 15.61 0 012.36 1c-.13-1.24-.2-2.08-.2-2.55h1.48a24.56 24.56 0 01-.24 2.54 17.22 17.22 0 012.41-1l.47 1.45a13.39 13.39 0 01-2.54.57 15.81 15.81 0 011.75 1.93l-1.22.87a24.52 24.52 0 01-1.4-2.2 15.65 15.65 0 01-1.33 2.2l-1.2-.87a20.19 20.19 0 011.69-1.93C759.92 157.2 759.08 157 758.29 156.8zM772.24 156.8l.47-1.45a15.61 15.61 0 012.36 1c-.13-1.24-.2-2.08-.21-2.55h1.48a24.16 24.16 0 01-.23 2.54 16.74 16.74 0 012.41-1l.47 1.45a13.56 13.56 0 01-2.54.57 16.69 16.69 0 011.75 1.93l-1.22.87a24.52 24.52 0 01-1.4-2.2 16.67 16.67 0 01-1.33 2.2l-1.2-.87a20.19 20.19 0 011.69-1.93C773.86 157.2 773 157 772.24 156.8zM688.56 183.28l.47-1.45a15.61 15.61 0 012.36 1c-.13-1.23-.2-2.08-.21-2.54h1.48c0 .67-.1 1.52-.23 2.53a18 18 0 012.41-1l.47 1.45a12.15 12.15 0 01-2.54.57 18.62 18.62 0 011.75 1.93l-1.22.87a25.65 25.65 0 01-1.4-2.19 16.85 16.85 0 01-1.33 2.19l-1.2-.87a23.2 23.2 0 011.69-1.93C690.18 183.68 689.35 183.49 688.56 183.28zM702.51 183.28l.47-1.45a15.4 15.4 0 012.35 1c-.12-1.23-.19-2.08-.2-2.54h1.48c0 .67-.1 1.52-.23 2.53a18 18 0 012.41-1l.46 1.45a12 12 0 01-2.54.57 18.44 18.44 0 011.76 1.93l-1.23.87c-.39-.54-.86-1.27-1.4-2.19a15.92 15.92 0 01-1.32 2.19l-1.21-.87a22.74 22.74 0 011.7-1.93C704.13 183.68 703.29 183.49 702.51 183.28zM716.45 183.28l.47-1.45a15.61 15.61 0 012.36 1c-.13-1.23-.2-2.08-.2-2.54h1.48a24.4 24.4 0 01-.24 2.53 18.53 18.53 0 012.41-1l.47 1.45a12 12 0 01-2.54.57 18.44 18.44 0 011.76 1.93l-1.23.87c-.39-.54-.86-1.27-1.4-2.19a14.88 14.88 0 01-1.33 2.19l-1.2-.87a21 21 0 011.7-1.93C718.08 183.68 717.24 183.49 716.45 183.28zM730.4 183.28l.47-1.45a15.61 15.61 0 012.36 1c-.13-1.23-.2-2.08-.21-2.54h1.48c0 .67-.1 1.52-.23 2.53a18 18 0 012.41-1l.47 1.45a12.09 12.09 0 01-2.55.57 17.38 17.38 0 011.76 1.93l-1.22.87a25.65 25.65 0 01-1.4-2.19 16.85 16.85 0 01-1.33 2.19l-1.2-.87a23.2 23.2 0 011.69-1.93C732 183.68 731.19 183.49 730.4 183.28zM744.35 183.28l.47-1.45a15 15 0 012.35 1c-.13-1.23-.19-2.08-.2-2.54h1.48a24.4 24.4 0 01-.24 2.53 19.12 19.12 0 012.41-1l.48 1.45a12.23 12.23 0 01-2.55.57 18.44 18.44 0 011.76 1.93l-1.23.87c-.39-.54-.86-1.27-1.4-2.19a15.92 15.92 0 01-1.32 2.19l-1.21-.87a22.74 22.74 0 011.7-1.93C746 183.68 745.14 183.49 744.35 183.28zM758.29 183.28l.47-1.45a15.61 15.61 0 012.36 1c-.13-1.23-.2-2.08-.2-2.54h1.48a24.4 24.4 0 01-.24 2.53 18.53 18.53 0 012.41-1l.47 1.45a12 12 0 01-2.54.57 17.53 17.53 0 011.75 1.93l-1.22.87a25.65 25.65 0 01-1.4-2.19 14.88 14.88 0 01-1.33 2.19l-1.2-.87a23.2 23.2 0 011.69-1.93C759.92 183.68 759.08 183.49 758.29 183.28zM772.24 183.28l.47-1.45a15.61 15.61 0 012.36 1c-.13-1.23-.2-2.08-.21-2.54h1.48a24 24 0 01-.23 2.53 18 18 0 012.41-1l.47 1.45a12.15 12.15 0 01-2.54.57 18.62 18.62 0 011.75 1.93l-1.22.87a25.65 25.65 0 01-1.4-2.19 15.81 15.81 0 01-1.33 2.19l-1.2-.87a23.2 23.2 0 011.69-1.93C773.86 183.68 773 183.49 772.24 183.28z"/><path fill="#edf6fc" d="M661.84,169.23a18.89,18.89,0,0,0-7.56-9.17A20.15,20.15,0,0,0,643.54,157h0a18.58,18.58,0,0,0-17.71,12,.61.61,0,0,0,.24.75.46.46,0,0,0,.64-.28,17.64,17.64,0,0,1,16.83-11.3h0A18.48,18.48,0,0,1,661,169.71a.5.5,0,0,0,.44.33.41.41,0,0,0,.2-.06A.6.6,0,0,0,661.84,169.23Z"/><path fill="#edf6fc" d="M627.17,164.39a.5.5,0,0,0,.4-.24c3.28-5.5,9-8.52,16-8.52h0c7.07,0,12.77,3,16.07,8.52a.47.47,0,0,0,.39.24.45.45,0,0,0,.28-.11.62.62,0,0,0,.12-.78,17.76,17.76,0,0,0-7.38-6.87,21.17,21.17,0,0,0-9.48-2.14h0a21.14,21.14,0,0,0-9.48,2.14,17.63,17.63,0,0,0-7.35,6.87.61.61,0,0,0,.12.78A.43.43,0,0,0,627.17,164.39Z"/><path fill="#edf6fc" d="M628,160.57a.45.45,0,0,0,.37-.2c3.36-4.68,8.77-7.27,15.23-7.27h0c6.45,0,11.87,2.59,15.24,7.27a.47.47,0,0,0,.37.2.43.43,0,0,0,.31-.13.63.63,0,0,0,.05-.8c-3.56-4.94-9.23-7.67-16-7.67h0c-6.74,0-12.41,2.73-16,7.67a.65.65,0,0,0,.06.8A.43.43,0,0,0,628,160.57Z"/><path fill="#edf6fc" d="M629,157a.47.47,0,0,0,.34-.17c3.37-3.91,8.44-6.07,14.28-6.07h0c5.84,0,10.92,2.16,14.31,6.07a.43.43,0,0,0,.33.17.47.47,0,0,0,.35-.17.66.66,0,0,0,0-.81,19.38,19.38,0,0,0-15-6.39h0c-6.09,0-11.41,2.27-15,6.39a.66.66,0,0,0,0,.81A.47.47,0,0,0,629,157Z"/><path fill="#edf6fc" d="M630.89 152.78a.47.47 0 00.28-.11 18.9 18.9 0 0112.43-4.23h0a19 19 0 0112.44 4.23.43.43 0 00.67-.13.62.62 0 00-.11-.79 19.8 19.8 0 00-13-4.45h0a19.77 19.77 0 00-13 4.45.63.63 0 00-.1.79A.45.45 0 00630.89 152.78zM659.3 183.55c-3.24 5.43-8.64 8.3-15.63 8.3h0c-7.06 0-12.77-3-16.07-8.52a.43.43 0 00-.67-.14.63.63 0 00-.11.79 17.74 17.74 0 007.37 6.87 21.31 21.31 0 009.49 2.13h0c7.31 0 13-3 16.41-8.77a.63.63 0 00-.12-.79A.44.44 0 00659.3 183.55z"/><path fill="#edf6fc" d="M658.9,187.1c-3.36,4.69-8.77,7.27-15.22,7.27h0c-6.46,0-11.87-2.58-15.25-7.27a.44.44,0,0,0-.68-.06.62.62,0,0,0,0,.79c3.56,4.95,9.23,7.67,16,7.67h0c6.75,0,12.41-2.72,16-7.67a.63.63,0,0,0-.06-.79A.44.44,0,0,0,658.9,187.1Z"/><path fill="#edf6fc" d="M658,190.69c-3.37,3.92-8.44,6.08-14.28,6.08h0c-5.84,0-10.92-2.16-14.3-6.08a.43.43,0,0,0-.68,0,.63.63,0,0,0,0,.8,19.35,19.35,0,0,0,15,6.4h0c6.1,0,11.41-2.27,15-6.4a.65.65,0,0,0,0-.8A.44.44,0,0,0,658,190.69Z"/><path fill="#edf6fc" d="M656.11 194.8A18.9 18.9 0 01643.69 199h0a19 19 0 01-12.44-4.24.44.44 0 00-.67.13.62.62 0 00.11.79 19.81 19.81 0 0013 4.45h0a19.77 19.77 0 0013-4.45.65.65 0 00.11-.79A.45.45 0 00656.11 194.8zM633.19 149a.46.46 0 00.22-.06 19.81 19.81 0 0110.18-2.64h0a19.88 19.88 0 0110.19 2.64.43.43 0 00.22.06.49.49 0 00.43-.31.61.61 0 00-.22-.76 20.71 20.71 0 00-10.63-2.76h0A20.67 20.67 0 00633 147.92a.61.61 0 00-.21.76A.46.46 0 00633.19 149zM659.74 169.66c-.33-.63-.66-1.29-1.08-2l-.19-.31a16.34 16.34 0 00-4.24-4.93 19.32 19.32 0 00-21.21 0 16.28 16.28 0 00-4.23 4.93l-.19.31c-.41.68-.75 1.34-1.07 2a7.7 7.7 0 01-2 2.91.62.62 0 00-.17.78.48.48 0 00.41.27.39.39 0 00.25-.08 8.49 8.49 0 002.37-3.29c.31-.62.64-1.26 1-1.89l.19-.32c1.38-2.29 4.59-7.63 14-7.63s12.68 5.34 14.06 7.63l.2.32c.39.63.72 1.27 1 1.89a8.51 8.51 0 002.38 3.29.39.39 0 00.25.08.48.48 0 00.41-.27.62.62 0 00-.17-.78A7.6 7.6 0 01659.74 169.66zM629.64 182.44a.44.44 0 00-.68-.1.63.63 0 00-.08.8c1.49 2.23 5 7.47 14.79 7.47s13.28-5.24 14.76-7.47a.65.65 0 00-.08-.8.44.44 0 00-.68.1c-1.39 2.11-4.66 7-14 7S631 184.55 629.64 182.44z"/><path fill="#edf6fc" d="M655.81,181.26c-2.63,3.87-6.72,5.83-12.15,5.83-6.67,0-9.83-2.75-11.3-5.06a.44.44,0,0,0-.68-.11.63.63,0,0,0-.09.79c1.61,2.51,5,5.51,12.07,5.51,5.74,0,10.09-2.1,12.91-6.25a.65.65,0,0,0-.08-.8A.45.45,0,0,0,655.81,181.26Z"/><path fill="#edf6fc" d="M654.16 179.59c-2.93 4.44-7.4 5-10.53 5-3.66 0-6.51-.78-7.8-2.12a.44.44 0 00-.69.05.65.65 0 00.05.8c2 2.07 6.08 2.4 8.39 2.4h.08c3.33 0 8.08-.59 11.27-5.42a.63.63 0 00-.09-.79A.44.44 0 00654.16 179.59zM661.92 175.8c-1.4-.59-3.32-3.49-4.84-6-1.68-2.73-3.23-4.83-5.32-6.21s-4.56-2-8.14-2-6.08.6-8.13 2-3.62 3.48-5.3 6.21c-1.51 2.47-3.42 5.37-4.82 6a.59.59 0 00-.29.72.5.5 0 00.46.38.53.53 0 00.16 0c1.64-.69 3.59-3.6 5.28-6.36 3.32-5.43 5.82-7.7 12.64-7.7s9.33 2.27 12.68 7.7c1.7 2.76 3.65 5.67 5.29 6.36a.53.53 0 00.17 0 .49.49 0 00.45-.38A.59.59 0 00661.92 175.8zM635 145.56l.14 0a22.85 22.85 0 0117 0l.14 0a.49.49 0 00.46-.4.58.58 0 00-.32-.71 23.75 23.75 0 00-8.56-1.69h-.46a23.78 23.78 0 00-8.55 1.69.59.59 0 00-.32.71A.51.51 0 00635 145.56z"/><path fill="#edf6fc" d="M636.32 181.59a23.5 23.5 0 007.48 1.35c4.47 0 8.09-4.27 8.08-9.5s-3.64-9.51-8.1-9.51c-7.2 0-9.75 4.13-12.22 8.13-1.63 2.63-3.17 5.12-6 6.52a.61.61 0 00-.25.74.46.46 0 00.63.3c3.08-1.52 4.77-4.25 6.4-6.9 2.43-3.94 4.73-7.65 11.44-7.65 3.93 0 7.13 3.75 7.14 8.37s-3.19 8.36-7.12 8.36a22.71 22.71 0 01-7.24-1.3c-3.13-1-5.83-1.81-10.38 0a.59.59 0 00-.3.72.47.47 0 00.61.36C630.76 179.87 633.34 180.67 636.32 181.59zM661.73 178.58c-2.83-1.4-4.38-3.89-6-6.52a27.57 27.57 0 00-3.28-4.56.44.44 0 00-.69 0 .65.65 0 000 .8 25.9 25.9 0 013.15 4.38c1.64 2.65 3.34 5.38 6.42 6.9a.41.41 0 00.19 0 .49.49 0 00.44-.34A.6.6 0 00661.73 178.58z"/><path fill="#edf6fc" d="M636.8,179.4a22.05,22.05,0,0,0,7,1.27c3.4,0,6.16-3.25,6.15-7.23s-2.77-7.24-6.17-7.24c-5.74,0-8.41,3.55-10.66,7.19a34.24,34.24,0,0,1-2.71,4,.64.64,0,0,0-.1.63.5.5,0,0,0,.45.34A17.51,17.51,0,0,1,636.8,179.4Zm-2.9-5.34c2.19-3.55,4.59-6.73,9.88-6.73,2.87,0,5.2,2.74,5.21,6.11s-2.32,6.1-5.19,6.1a21.35,21.35,0,0,1-6.75-1.23,20.66,20.66,0,0,0-5.21-1.13C632.61,176.15,633.26,175.09,633.9,174.06Z"/><path fill="#edf6fc" d="M643.8,178.41c2.33,0,4.23-2.24,4.22-5s-1.9-5-4.24-5c-4.34,0-6.78,2.5-9.1,6.26l-.5.81a.64.64,0,0,0-.06.54.51.51,0,0,0,.36.35c1,.22,1.91.51,2.81.79A20.41,20.41,0,0,0,643.8,178.41Zm-8.34-3c2.21-3.58,4.37-5.79,8.32-5.79a3.88,3.88,0,0,1,0,7.67,19.39,19.39,0,0,1-6.26-1.16c-.7-.21-1.41-.43-2.14-.62Z"/><path fill="#edf6fc" d="M637.73 175l0 0a18.63 18.63 0 006 1.12 2.74 2.74 0 000-5.41 8 8 0 00-6.31 3.38.63.63 0 00-.08.52A.54.54 0 00637.73 175zm6.06-3.14a1.6 1.6 0 010 3.15 16.16 16.16 0 01-5-.86A6.82 6.82 0 01643.79 171.86zM661.48 180.88c-3.44-.45-5.71-4.67-6.94-6.94-.29-.54-.51-1-.7-1.24a.44.44 0 00-.58-.16.6.6 0 00-.27.62s.53 3.53-1.22 5.81a.63.63 0 000 .8.43.43 0 00.68 0 8.37 8.37 0 001.53-4.66c1.36 2.51 3.73 6.47 7.35 6.94h.06a.5.5 0 00.47-.5A.56.56 0 00661.48 180.88z"/><path fill="#347edf" d="M219.22 495a85.56 85.56 0 00-15-8.3c-5.83-2.64-12.26-5.2-18.67-7.8S156.4 465 152.71 461.72c28.4 28.13 47.27 77 71.76 57.26C233.62 511.58 227.18 500.88 219.22 495zM191.9 527.31a66.42 66.42 0 00-20.59-.07 76.6 76.6 0 00-16.89 4.31c3.24-1 7.67-.3 12.76 1.25 12.25 2.4 21.2 11.36 30.15 19.19 5.6 3.36 10.08 10.07 17.91 6.71 7.83-2.24 1.12-16.78-5.89-23.66C204.65 530.86 198.53 528.46 191.9 527.31z"/><path fill="#dfe6f8" d="M154.42,531.55a7.87,7.87,0,0,0-1.33.54Z"/><path fill="#347edf" d="M269.33 545.16c-7.3-3.53-18.66-3.52-22.76-2.11-12.81 4.38-17.89 15.34-11.18 23.17 6.72 10.08 32.44-11.25 53.71 9.83C290.22 565.55 285.39 553 269.33 545.16zM186.14 567.66c-8.95-2.24-19-2.24-27.35 2.81 8.85-4.34 17.26 1.38 24.41 9 7.42 8.37 14.13 28.51 23.09 17.32S198.45 571 186.14 567.66zM247.65 603.6c-5.4-.86-10.08-.19-13.66 2.08-10.59 6.71-12.67 19.06-2 22.05 5.12 1.43 10.6-2.9 16-6s10.88-5.38 16.48-1.47C262.86 610.45 258.35 605.3 247.65 603.6zM164.39 596.86c1.57-.33 5.26 8.3 9.78 18.14 4.14 6.37 4.14 14.21 9.74 19.8 4.47 4.48 12.3 4.48 12.3-1.12C197.33 616.9 186.14 591.16 164.39 596.86zM242.8 654a52.74 52.74 0 01-15.11-2.84c-6.86-2.54-15.89 1.41-12.86 9.93 4.39 12.32 19 12.52 29.5 8.39 10.64-4.2 14.55 3.08 14.55 3.08S261.12 655.34 242.8 654z"/><path fill="#edf6fc" d="M222,587.52c.86-5,1.61-13.15,2.22-18.19,1.84-15.13,5.2-37.34.3-50.35-3.21-8.54-18.18-23.65-27.14-25.61,7.42,3.58,23.82,19.52,25.6,26.25,3.73,12.44,1.92,23.63.89,36.25-.52,6.31-1.26,12.62-1.88,18.88s-4.6,22.14-4.6,22.14c4.61-41.68-15.58-57.3-27.45-62.25-4.39-1.83-8.64-2-13.26-2.44-.23,0-.4.19-.17.23A37.74,37.74,0,0,1,195,538.68a51.87,51.87,0,0,1,11.93,12.76,59.61,59.61,0,0,1,7.17,15.38c7.86,22.1-3.51,44.67-9.11,67,1.31-15.58.84-30-3.68-44.53-1.8-5.78-9.61-17-16.28-19.45,29.1,20.15,17.07,62.81,13.71,93-4.57-16-11.62-45.55-19.3-56.1,7.83,25.74,25.32,60.71,11.19,82.81,5.59-9,9.36-2.93,9.36-2.93s.18-18.43,2.46-19.45c8.54-3.77,27.35-11.19,37.42-4.47-11.19-9-38.56,1-38.56,1s19.53-34.55,34.06-45.09a68.38,68.38,0,0,1,15.69-8.49c-9.07,1.79-13.75,3.91-18.28,8.59-7.5,7.07-17.67,19.26-28,31,3.35-21.27,14.71-53.7,25.74-71.56,2.81-4.75,17.9-37.55,35.11-24C243.58,534.36,225.32,584.74,222,587.52Z"/><path fill="#347edf" d="M89.73 503.89c4.58 1.31 12.6 6.56 17.51 16.37 7.38 14.78 23 28.1 41 28.33C133.93 526.31 141.29 514.7 89.73 503.89zM135.38 554c-12.31-2.22-26.33.5-35.18 9.49 2-2.33 9.67-2.67 13.94-2.07 16 1.16 23.61 28.47 37.78 14.07C160.81 566.44 144.29 555.6 135.38 554zM183.16 544.13c-14.43 2-14.73 19.66-10.89 22.21 7.6 5 10.88-7.16 21.32-9.1 3.47-.65 12 1.56 15.19 3.13C200.37 555.82 201.49 541.58 183.16 544.13zM156.1 591.14a46.5 46.5 0 00-19-7.24c-9.19.34-15.1 6.11-19.45 12.72 4.29-6 12.9-4 21.65-.41 7.79 3.29 17.68 11.43 22.25 7.25C164.81 599.57 161.59 594.92 156.1 591.14z"/><path fill="#dfe6f8" d="M117.6,596.62c-.16.23-.32.47-.47.72C117.28,597.1,117.44,596.87,117.6,596.62Z"/><path fill="#347edf" d="M190.2 579.58c-6.76 2.92-10.92 10.55-10.91 17s4.22 13.82 12 9.55c5.13-2.82 2.31-7.28 5.93-13.18s8.43-10.78 12-6.54C204.21 578.89 197.88 576.76 190.2 579.58zM133.46 617.17c8.32.31 9.89 3.18 14.27 12 5.31 10.63 13.16 18 21.18 12.83 4.24-2.77 1-13.73-3.17-18.5C158.37 615.05 144.43 609.09 133.46 617.17zM191.82 647.43c5.85 6 13.88 3.36 18.75-.48s6.75-20.72 6.75-20.72-13 6.44-21.28 8C190.47 636 186.3 641.78 191.82 647.43z"/><path fill="#edf6fc" d="M188,652.33c-4.19,7.67-4.62.95-4.73-4.64-.26-14.07-2-50.59,14.41-64-17.05,8.94-13.7,32.65-16.72,50.12-1.56-22.81-25-75.1,9-84-17.09,1-21.26,19.35-19.49,35.88-7.68-18-20.57-40.29-37.08-51.61,17.16,14.8,30.74,43.24,38.11,63.47-9.93-18.43-35.48-40.14-54.59-38.05-.16,0-.24.2-.08.21,33.14,1.52,61,40,62.05,72.93-5.72-7.52-16.33-45.27-44-44.12,28,1.61,45.36,47.11,47.53,72.27-7.47-12-16-22.72-23.61-32.81-2.87-3.79-6.84-7.73-11.12-9.45,17.8,18.28,39,52.35,38.12,67.41l3.72-1s-11.7-31.25,17.75-48C197.1,636.71,191.2,646.41,188,652.33Z"/><path fill="#002880" d="M215.71,669.67H172.92a2.43,2.43,0,0,0-2.37,3l1.59,7a2.43,2.43,0,0,0,2.37,1.89h39.62a2.44,2.44,0,0,0,2.37-1.89l1.58-7A2.43,2.43,0,0,0,215.71,669.67Z"/><path fill="#002880" d="M178.54,705.38a3.28,3.28,0,0,0,3.25,2.82h25.05a3.29,3.29,0,0,0,3.26-2.82l3.44-23.88H175.09Z"/><path fill="#0030a6" d="M185.34,705.38,181.9,681.5h-.59a2.44,2.44,0,0,1-2.37-1.89l-1.59-7a2.44,2.44,0,0,1,2.38-3h-6.81a2.43,2.43,0,0,0-2.37,3l1.59,7a2.43,2.43,0,0,0,2.37,1.89h.58l3.45,23.88a3.28,3.28,0,0,0,3.25,2.82h6.81A3.29,3.29,0,0,1,185.34,705.38Z"/><path fill="#347edf" d="M957.69,569.21c-1.3,4.69-4.26,8-6.61,7.31l17.33,4.82c2.35.65,5.31-2.62,6.61-7.31s.46-9-1.88-9.67l-17.33-4.82C958.15,560.19,959,564.52,957.69,569.21Z"/><path fill="#1966e6" d="M951.08,576.52c2.35.65,5.31-2.62,6.61-7.31s.46-9-1.88-9.67L803.37,517.1l-4.73,17Z"/><path fill="#347edf" d="M784.25,526.94a101.83,101.83,0,0,0,14.39,7.14c2.35.65,5.31-2.62,6.61-7.31s.46-9-1.88-9.67a101.42,101.42,0,0,0-16-1.32,14.6,14.6,0,0,1-.5,5.87A14.79,14.79,0,0,1,784.25,526.94Z"/><path fill="#0030a6" d="M775.54,518.5c-.59,2.14,3.67,5.43,8.71,8.44a14.79,14.79,0,0,0,2.61-5.29,14.6,14.6,0,0,0,.5-5.87C781.49,515.75,776.14,516.36,775.54,518.5Z"/><path fill="#fff" d="M954.71,575c.42.36,2.38-1.13,2.59-1.64.13-1.4-.68-1.47-.38-2.75a11.77,11.77,0,0,1-1.86,3C954.62,574.06,954,574.45,954.71,575Z"/><path fill="#fff" d="M956.48,573.66c-.16,1.64-.13,5.34-.12,5.61a20.46,20.46,0,0,0,.14,3.21,3.18,3.18,0,0,0,1.34,1.3,1,1,0,0,0,1-.39c.71.37,1.29-1.57,1.45-1.44.63.53,1.55-.17,1.45-3.07,0-.17,1.16-7.35,1.34-9.67a29.43,29.43,0,0,0-5.93.38A29,29,0,0,0,956.48,573.66Z"/><path fill="#ffbe8e" d="M953,528.42a4.11,4.11,0,0,0-.21,1.32c.16,7,5.28,32.92,4.29,40.27a23.34,23.34,0,0,1,5.93.12c1.39-12.12,1.46-42.68-3-44.58C955.83,523.81,953.61,526.31,953,528.42Z"/><path fill="#c5431a" d="M955.58,569.81c.58-4.26-1.11-15.83-2.47-25.13-.62-4.26-1.21-8.29-1.54-11.31a0,0,0,0,1,0,0c3-3,7.49-4.14,11.84-4.49,2.5,9.29,2.17,31.58,1,41.44Z"/><path fill="#c5431a" d="M963.39,528.86a22.61,22.61,0,0,0-2.29-5.76c-1.59-2.67-36.4-13.6-36.4-13.6l8.84,22.19,19.91,1.87Z"/><path fill="#fff" d="M948.46,708.25A23.92,23.92,0,0,0,952,713.9a18.11,18.11,0,0,0,5.86-4.89s-1.93-1.9-3.43-3.72C951.5,703.6,948.81,708.2,948.46,708.25Z"/><path fill="#0030a6" d="M957.49,708.84l-.06,0a4.51,4.51,0,0,0-4.82,0l-.06,0a3.12,3.12,0,0,0-1.14,3.49,8.3,8.3,0,0,0,1.72,3.39c.71.61,4.6,3.23,6.31,3.59,1.37.29,3.28-.22,5.39-1s4.35-2.8,3.93-4C967.93,711.76,959.54,710.08,957.49,708.84Z"/><path fill="#002880" d="M956.88,711c-2.46-1-5.55,2.37-2.3,5.25a20.75,20.75,0,0,0,5.32,3,9.06,9.06,0,0,0,4.54-.87c1.77-.67,3.66-2.35,3.31-3.4C967.05,712.92,959.42,712,956.88,711Z"/><path fill="#1966e6" d="M902.67,655.48c24.8,28.47,45.63,54.83,45.63,54.83,1.67-1.22,5.15-5,7.85-4.19,0,0-16-32.9-33.76-61.59C910.67,625.62,892.55,643.87,902.67,655.48Z"/><path fill="#1966e6" d="M913.56,572.17c-4.13,6.51-16.79,53.37-14.28,74.13,1.06,8.82,17.62,11.93,19.55,4.4,3.44-13.44,26.25-54.23,23.88-66.28C938.94,565.26,915.76,568.7,913.56,572.17Z"/><path fill="#0030a6" d="M862,714.16l-4.9-3.47s-1.3,1.55-2.33,2.54c-2,1.89-10.59,2.48-10.91,5.44-.17,1.5,2.83,3.18,5.38,3.56a17.74,17.74,0,0,0,6.28-.18c1.56-.33,5.17-1.36,5.82-2.22a4.29,4.29,0,0,0,.57-3.43C862.36,714.77,862,714.16,862,714.16Z"/><path fill="#fff" d="M855.61,710.36a2.58,2.58,0,0,1-.84,2.87s-.13,1.1,1.73,2.4c1,.74,5.41.77,5.41.77a22.92,22.92,0,0,0,.57-4,18.72,18.72,0,0,0-2.86-1.68A22.64,22.64,0,0,0,855.61,710.36Z"/><path fill="#347edf" d="M906.37,571.67c-7.53,3.13-45.87,37.63-55.31,58.58-4,8.91,9.62,23.33,15.68,17.72,10.82-10,55.15-31.82,59.77-44.62C933.87,583,910.38,570,906.37,571.67Z"/><path fill="#347edf" d="M847.23,640.85c4.25,37.51,7.38,69.27,7.38,69.27,1.22.77,6.59,1,7.89,2.78,0,0,5.52-36.16,7.18-69.87C870.77,620.81,845.49,625.55,847.23,640.85Z"/><path fill="#c5431a" d="M934.67,575.5c-11,1.39-21.9,2.93-33,3.17a67.15,67.15,0,0,1-19.47-2.27c0,10.27-2.41,14.34-7,17.11,3.24,11.28,10.09,11.92,15.73,13.76,14.84,4.85,52-6.26,53-6.34a248.82,248.82,0,0,0-1.85-26.52C939.69,574.86,937.2,575.18,934.67,575.5Z"/><path fill="#fff" d="M911.94,493.58c-.77.56-8.72,5-11,4.67,0,.63,1.57,7.29.11,10.88.64,3.33,9.88,3.33,12.41-2.33C912.41,505.2,911.5,496.65,911.94,493.58Z"/><path fill="#fe561c" d="M922.85,509c-2.37-.5-9.38-2.21-9.38-2.21s-1.38,1.72-5.65,2.54a13,13,0,0,1-6.76-.46s-8.1,2.22-9.57,3c-5.71,3-5.74,5.12-6.11,12.13-.17,3.26-.6,55.92-9.48,67.45.3.47,3.85,4.81,11.18,6.54l1.79-14.19,1.63,14.84c17.18,3.29,30.33-2.77,44.13-4.65L936,575.37l4,18c1.34-.15,2.54-.27,3.6-.34-.19-28.44-9-71.17-9.39-72.46C932.48,515,929.94,510.51,922.85,509Z"/><path fill="#fff" d="M820,535.42c-.47.3.37,2.61.8,3,1.29.54,1.6-.22,2.73.46a11.74,11.74,0,0,1-2.33-2.68C820.86,535.6,820.68,534.9,820,535.42Z"/><path fill="#fff" d="M820.7,537.5c-1.52-.64-5.07-1.71-5.32-1.78a20.91,20.91,0,0,0-3.11-.82,3.15,3.15,0,0,0-1.65.9.94.94,0,0,0,.09,1.05c-.57.57,1.11,1.71.94,1.82-.69.44-.3,1.53,2.5,2.29.17,0,6.68,3.29,8.84,4.15a29.69,29.69,0,0,0,1.4-5.78A30.91,30.91,0,0,0,820.7,537.5Z"/><path fill="#ffbe8e" d="M862.57,545.49a4,4,0,0,0-1.31-.27c-7-.16-30.79-4.85-38.09-6.18a23.72,23.72,0,0,1-.39,5.92c12,1.95,40.23,12,42.33,7.63C867,548.56,864.64,546.23,862.57,545.49Z"/><path fill="#fe561c" d="M888.1,514.13c-4.48,4.91-29.86,29.2-30.42,29.74-3,.19-28.72-5.07-32.95-5.84l-2.19,8.38c10,3,33.46,11.77,41.16,8.9,8.08-2.89,35.86-16.59,36-24S888.46,513.74,888.1,514.13Z"/><path fill="#fff" d="M905,482.41c-4-.74-8.06-.25-9.39,3.48-.48,1.33-1.31,13.78,5.09,16.41,2.7,1.12,8.61-3.05,9.21-6.28,0,0,.81-4.4.81-4.44C911.48,487.3,909.29,483.21,905,482.41Z"/><path fill="#0030a6" d="M915.09,477.17c-6.74-8.63-22.15-4.41-24,4.08-.41,1.88.57,6.78,19,6.11,1.6,3.43,1.24,10.38,1.24,10.38C917.44,494,920.24,483.77,915.09,477.17Z"/><path fill="#fff" d="M911.65,489.94a3.79,3.79,0,0,0-1.93-.06,53.16,53.16,0,0,0,0,5.36,3.92,3.92,0,0,0,3.19-2.08C913.27,492.08,912.72,490.3,911.65,489.94Z"/><path fill="#347edf" d="M855.6,397.05l118.29,0a16.64,16.64,0,0,1,16.64,16.64V442a16.65,16.65,0,0,1-16.65,16.64H890l-24.85,28v-28h-9.56A16.63,16.63,0,0,1,839,442V413.69A16.64,16.64,0,0,1,855.6,397.05Z"/><path fill="#fff" d="M975.8 406.08H925.44a1.39 1.39 0 00-1.06.45 1.14 1.14 0 00-.29.92 1.61 1.61 0 001.61 1.32h50.36a1.4 1.4 0 001.07-.46 1.14 1.14 0 00.29-.92A1.62 1.62 0 00975.8 406.08zM899.75 408.76h19.88a1.45 1.45 0 001.07-.45 1.16 1.16 0 00.28-.93 1.61 1.61 0 00-1.61-1.31H899.49a1.42 1.42 0 00-1.07.45 1.14 1.14 0 00-.28.92A1.61 1.61 0 00899.75 408.76zM855.15 408.75H890.7a1.39 1.39 0 001.06-.45 1.14 1.14 0 00.29-.92 1.62 1.62 0 00-1.62-1.31H854.89a1.41 1.41 0 00-1.07.45 1.14 1.14 0 00-.29.92A1.62 1.62 0 00855.15 408.75zM968.74 415.72a1.39 1.39 0 001.07-.45 1.14 1.14 0 00.29-.92 1.62 1.62 0 00-1.62-1.32H937a1.39 1.39 0 00-1.06.45 1.15 1.15 0 00-.29.92 1.61 1.61 0 001.61 1.32zM927.8 413H881.86a1.46 1.46 0 00-1.07.45 1.2 1.2 0 00-.29.93 1.63 1.63 0 001.62 1.31h45.94a1.45 1.45 0 001.07-.45 1.21 1.21 0 00.29-.93A1.6 1.6 0 00927.8 413zM874.89 415.71a1.43 1.43 0 001.07-.45 1.15 1.15 0 00.29-.92 1.62 1.62 0 00-1.62-1.32H854.81a1.39 1.39 0 00-1.07.45 1.1 1.1 0 00-.28.92 1.6 1.6 0 001.61 1.32zM898.18 420.78a1.15 1.15 0 00-.29.92A1.6 1.6 0 00899.5 423h67.69a1.45 1.45 0 001.07-.45 1.17 1.17 0 00.29-.93 1.6 1.6 0 00-1.62-1.31H899.24A1.42 1.42 0 00898.18 420.78zM886.19 423a1.42 1.42 0 001.06-.45 1.17 1.17 0 00.29-.93 1.6 1.6 0 00-1.61-1.31H855.3a1.43 1.43 0 00-1.07.45 1.18 1.18 0 00-.29.93 1.62 1.62 0 001.62 1.31zM865.39 430.76a1.45 1.45 0 00-1.07.45 1.2 1.2 0 00-.29.93 1.62 1.62 0 001.62 1.31h59.1a1.42 1.42 0 001.07-.45 1.18 1.18 0 00.29-.92 1.62 1.62 0 00-1.62-1.32zM961.23 437.69H856.47a1.42 1.42 0 00-1.07.45 1.17 1.17 0 00-.28.92 1.58 1.58 0 001.61 1.32H961.49a1.42 1.42 0 001.07-.45 1.17 1.17 0 00.28-.92A1.61 1.61 0 00961.23 437.69zM925.76 446.26H864.58a1.39 1.39 0 00-1.06.45 1.14 1.14 0 00-.29.92 1.61 1.61 0 001.61 1.32H926a1.46 1.46 0 001.07-.45 1.21 1.21 0 00.29-.93A1.6 1.6 0 00925.76 446.26zM975.1 430.78H930.92a1.42 1.42 0 00-1.06.45 1.17 1.17 0 00-.29.93 1.6 1.6 0 001.62 1.31h44.17a1.46 1.46 0 001.07-.45 1.21 1.21 0 00.28-.93A1.61 1.61 0 00975.1 430.78zM551 105.17a25.93 25.93 0 00-17.59 48.44 17.47 17.47 0 017.83 9 2.91 2.91 0 00-.59.8 3 3 0 00-.16 2.29l1.63 4.85c0 .14.11.27.16.41a.61.61 0 000 .13l.2.43a11.77 11.77 0 002.76 3.91l.23.2s0 0 0 0a12.11 12.11 0 002.52 1.7 11.73 11.73 0 009 .61l6.57-2.22h0l.16-.06h.06l.27-.1.53-.23.66-.28a11.74 11.74 0 005.94-14.35l-1.63-4.84a2.9 2.9 0 00-2.26-2 17.46 17.46 0 01.74-12 26 26 0 00-11.71-34.75A26.69 26.69 0 00551 105.17zm-8.53 59.16h0a.9.9 0 01.2-.27l.06-.05a.89.89 0 01.27-.15l23.54-7.94a1 1 0 01.72.05 1 1 0 01.49.56l1.63 4.84a8.08 8.08 0 01.26.93.64.64 0 010 .07 9.74 9.74 0 01-.78 6.47 9.62 9.62 0 01-3 3.58l-.19.13c-.17.12-.35.23-.53.34l-.45.25-.23.11-.79-2.36a3.09 3.09 0 00-1.54-1.77 3 3 0 00-2.35-.15l-13.52 4.55-.11-.11a6.57 6.57 0 01-.48-.57l-.17-.21c-.19-.26-.36-.51-.52-.78l0-.06 14.48-4.88a3.06 3.06 0 10-1.95-5.81l-14.7 5-.33-1A.89.89 0 01542.48 164.33zm15.63-1.3a1 1 0 011.3.64 1 1 0 01-.64 1.31l-14.7 5v0l-.65-1.93zm2.31 7.86a1 1 0 01.79.06 1 1 0 01.52.59l.83 2.45-6.11 2.06a9.65 9.65 0 01-7.47-.51 9.42 9.42 0 01-.88-.49zm1.46-15.54l-5.73-17a2.45 2.45 0 00-3.13-1.46 2.54 2.54 0 00-1.42 1.17 2.29 2.29 0 00-.19 1.89l5.73 17-5.71 1.93-5.78-17.09a2.32 2.32 0 00-1.29-1.4 2.58 2.58 0 00-3.26 1.11 2.26 2.26 0 00-.18 1.88l5.77 17.09-3.6 1.22c-1.36-3.41-4.57-7.81-8.76-9.89a23.88 23.88 0 1132-10.8 19.85 19.85 0 00-1 13.18zM530.27 95.74l1-.34.11-.05a.58.58 0 00.18-.2.55.55 0 000-.38L525 75.65a.51.51 0 00-.64-.31l-1 .33a.51.51 0 00-.29.25.53.53 0 000 .39l6.54 19.11a.53.53 0 00.26.29A.5.5 0 00530.27 95.74zM510.74 113.84a.43.43 0 00.2-.07.37.37 0 00.13-.12l.62-.83a.51.51 0 00-.1-.7L495.39 100a.48.48 0 00-.37-.1.46.46 0 00-.32.2l-.62.82a.5.5 0 00.1.7l16.19 12.09A.49.49 0 00510.74 113.84zM508.42 137.16l-20.15 1.53a.5.5 0 00-.46.54l.08 1a.51.51 0 00.17.34.52.52 0 00.36.12l20.15-1.53a.53.53 0 00.24-.08l.1-.09a.49.49 0 00.12-.37l-.08-1A.5.5 0 00508.42 137.16zM593.75 100.32l-17.49 10.12a.5.5 0 00-.18.68l.52.89a.5.5 0 00.68.19l17.49-10.12 0 0a.49.49 0 00.16-.66l-.52-.9A.49.49 0 00593.75 100.32zM561.85 75.71a.48.48 0 00-.31-.23l-1-.26a.51.51 0 00-.61.37l-5 19.58a.5.5 0 00.06.38.48.48 0 00.31.23l1 .25a.48.48 0 00.39-.06.5.5 0 00.21-.3l5-19.58A.46.46 0 00561.85 75.71zM598.4 266.94l.06-.06a1.39 1.39 0 00.39-.9v-.07a1.37 1.37 0 00-2.34-.92s-.69.71-1.88 2a1.37 1.37 0 00-.36.81 1.5 1.5 0 00.43 1.1 1.29 1.29 0 001 .36 1.34 1.34 0 001-.43C597.58 267.8 598.21 267.14 598.4 266.94zM563.32 311.89a1.36 1.36 0 001.81-.64c.71-1.47 1.53-3 2.44-4.65a1.35 1.35 0 00-.51-1.85 1.37 1.37 0 00-1-.12 1.32 1.32 0 00-.82.64c-.93 1.65-1.78 3.27-2.52 4.8h0a1.41 1.41 0 00-.13.48A1.35 1.35 0 00563.32 311.89zM535.08 312a1.34 1.34 0 00.49-.92.28.28 0 000-.09 1.33 1.33 0 00-.31-.9 1.35 1.35 0 00-1.9-.2 41.22 41.22 0 00-4 3.75h0a1.32 1.32 0 00-.37.83 1.28 1.28 0 00.43 1.09 1.35 1.35 0 001.91-.06A39.26 39.26 0 01535.08 312zM525.31 323.86a39.47 39.47 0 012.72-4.38 1.34 1.34 0 00.25-.74 1.36 1.36 0 00-2.46-.84 41.5 41.5 0 00-2.9 4.68 1.3 1.3 0 00-.16.54 1.36 1.36 0 002.55.74zM557.3 301.47v.06a1.36 1.36 0 001.34 1.37c.53 0 1.06 0 1.57.06a23.81 23.81 0 013.43.52 1.33 1.33 0 001-.18 1.27 1.27 0 00.59-.84 1.26 1.26 0 000-.27 1.28 1.28 0 00-.21-.75 1.37 1.37 0 00-.84-.61 27.13 27.13 0 00-3.84-.57c-.57 0-1.15-.07-1.74-.08h0a1.34 1.34 0 00-1.36 1.18zM542.38 307.26l1.45-.72a1.36 1.36 0 00.77-1.18 1.55 1.55 0 00-.13-.63 1.37 1.37 0 00-1.81-.64c-.5.24-1 .49-1.53.76-1.12.58-2.23 1.21-3.28 1.86h0a1.36 1.36 0 101.43 2.31C540.29 308.39 541.33 307.8 542.38 307.26zM593 272.75a1.36 1.36 0 00.35-.86 1.34 1.34 0 00-.45-1.05 1.36 1.36 0 00-1.92.1c-1.08 1.2-2.27 2.55-3.54 4a1.36 1.36 0 002 1.78C590.79 275.28 592 273.94 593 272.75zM547.58 304.52a1.36 1.36 0 001 .08 33.37 33.37 0 015-1.28 1.36 1.36 0 00.89-.56 1.38 1.38 0 00.24-.72 1.43 1.43 0 000-.29 1.35 1.35 0 00-1.57-1.1 37 37 0 00-5.36 1.37h0a1.36 1.36 0 00-.92 1.18 1.39 1.39 0 00.07.54A1.31 1.31 0 00547.58 304.52zM579.73 329.86a6.76 6.76 0 01-3.22 3h0a1.33 1.33 0 00-.8 1.13 1.35 1.35 0 001.9 1.35 9.44 9.44 0 004.49-4.12 1.43 1.43 0 00.18-.63 1.83 1.83 0 000-.4 1.36 1.36 0 00-2.5-.3zM576.32 309.54a1.4 1.4 0 00-.5 1 1.29 1.29 0 00.29.94 23.71 23.71 0 012.68 4.27 1.36 1.36 0 002.58-.56 1.48 1.48 0 00-.14-.64 26.4 26.4 0 00-3-4.75 1.36 1.36 0 00-1.9-.22zM586.4 280a1.38 1.38 0 00-.49-1.09 1.29 1.29 0 00-1-.31 1.31 1.31 0 00-.92.48c-1.11 1.32-2.25 2.71-3.4 4.15a1.33 1.33 0 00-.3.74 1.34 1.34 0 00.51 1.17 1.31 1.31 0 001 .29 1.35 1.35 0 00.91-.5c1.15-1.42 2.28-2.8 3.37-4.11A1.3 1.3 0 00586.4 280zM574.06 291.74h0a1.33 1.33 0 00-.26.69 1.36 1.36 0 002.45.9c1-1.43 2.12-2.85 3.18-4.24a1.26 1.26 0 00.28-.78.79.79 0 000-.22 1.34 1.34 0 00-.51-.9 1.37 1.37 0 00-1-.28 1.39 1.39 0 00-.9.52C576.2 288.84 575.12 290.28 574.06 291.74zM571 296.13c-1 1.52-2 3-3 4.5a1.43 1.43 0 00-.21.62 1.36 1.36 0 00.63 1.25.91.91 0 00.22.11l-.11 0a1.29 1.29 0 00-.77.68 1.16 1.16 0 00-.14.5 1.38 1.38 0 00.75 1.32 21.34 21.34 0 014.22 2.71 1.36 1.36 0 001.91-.2 1.25 1.25 0 00.3-.81 1.34 1.34 0 00-.49-1.1 24.78 24.78 0 00-4.74-3l-.09 0a1.28 1.28 0 00.81-.59c.88-1.39 1.86-2.88 2.91-4.42a1.36 1.36 0 00.22-1 1.39 1.39 0 00-.57-.87A1.36 1.36 0 00571 296.13zM581.51 318.8a1.37 1.37 0 00-1 1.21 1.51 1.51 0 000 .42 16.86 16.86 0 01.46 4.91 1.36 1.36 0 00.34 1 1.34 1.34 0 00.94.45 1.38 1.38 0 001.43-1.27c0-.16 0-.33 0-.49a20 20 0 00-.54-5.19 1.35 1.35 0 00-.6-.85 1.38 1.38 0 00-1-.17zM562.28 314.3a1.34 1.34 0 00-1 0 1.43 1.43 0 00-.7.77 34.47 34.47 0 00-1.5 5.35l0 .15a1.36 1.36 0 002.69.34 32.27 32.27 0 011.38-4.92 1.15 1.15 0 00.08-.41A1.36 1.36 0 00562.28 314.3zM517.76 338.13c-.29 1.75-.51 3.57-.65 5.42h0a1.34 1.34 0 001.24 1.45 1.36 1.36 0 001.46-1.25c.14-1.75.35-3.49.63-5.2a.66.66 0 000-.14 1.37 1.37 0 00-1.13-1.4 1.34 1.34 0 00-1 .24A1.32 1.32 0 00517.76 338.13zM521.54 333.49a48.36 48.36 0 011.61-4.94 1.32 1.32 0 00.09-.43 1.38 1.38 0 00-.86-1.32 1.34 1.34 0 00-1 0 1.3 1.3 0 00-.72.75 49.43 49.43 0 00-1.7 5.2 1.47 1.47 0 000 .26 1.34 1.34 0 001 1.41A1.38 1.38 0 00521.54 333.49zM516.92 348.82V349c0 1.79.07 3.62.21 5.43a1.38 1.38 0 001.46 1.25 1.36 1.36 0 001.25-1.31v-.15c-.14-1.74-.21-3.5-.21-5.23a1.35 1.35 0 00-2.7-.16zM573.2 335v0a1.36 1.36 0 00-1.27-1.4h-.15a18.63 18.63 0 01-2.78-.45 17.39 17.39 0 01-1.88-.57 1.34 1.34 0 00-1 0 1.32 1.32 0 00-.7.75 1.48 1.48 0 00-.09.38 1.34 1.34 0 00.88 1.38 19.09 19.09 0 002.2.67 19.55 19.55 0 003.21.51l.18 0a1.36 1.36 0 001.4-1zM562.15 332.19a1.36 1.36 0 001.46-1.31 1.36 1.36 0 00-.33-.93 7.86 7.86 0 01-1.78-4.12 1.34 1.34 0 00-1.53-1.16 1.37 1.37 0 00-1.17 1.24.88.88 0 000 .29 10.45 10.45 0 002.4 5.52A1.36 1.36 0 00562.15 332.19zM517.75 359.59a1.08 1.08 0 000 .32c.25 1.6.47 2.58.52 2.77a1.33 1.33 0 00.61.84 1.31 1.31 0 001 .16 1.37 1.37 0 001-1.29 1.47 1.47 0 000-.36c-.09-.41-.27-1.27-.47-2.55a1.36 1.36 0 00-2.7.11z"/><path fill="#fff" d="M582.21 252.8l15.53 10.75.74.55 6.21-4.87-4.2 5.7-.44.68 10.59 16.27 13.15-42zm20.73 12.85l14.14-19.21L598.42 261.1l-10.79-7.47 32.49-10.07-10.25 32.73zM1021 601.46a27.93 27.93 0 00-12.15-9.35l.53-3.82a2.91 2.91 0 00-.57-2.19 2.94 2.94 0 00-1.94-1.15l-8-1.11a3 3 0 00-2.19.57 2.94 2.94 0 00-1.15 2l-.49 3.57c-9.61.71-16.25 6.17-17.39 14.32-2 13.24 9 18.28 16.19 21.62 8.51 3.93 9.17 5.3 8.8 8-.17 1.18-1.22 2-3.12 2.41a17.45 17.45 0 01-5.72.1 18.38 18.38 0 01-8.62-3.62 3 3 0 00-4.17.31l-5.25 6.08a3 3 0 00.3 4.18A30.47 30.47 0 00986.85 649l-.47 3.32a3 3 0 002.52 3.34l8 1.11a1.89 1.89 0 00.41 0h.12a3 3 0 002.8-2.55l.57-4.07c8.78-1.3 14.65-6.67 15.73-14.44 1.94-13.93-9.32-19.12-16.77-22.56-8-3.67-8.55-4.77-8.22-7 .34-2.44 5.2-2.68 8.37-2.23a15.39 15.39 0 019.78 5.57 2.9 2.9 0 001.9 1.19 2.93 2.93 0 002.22-.5l6.55-4.68A3 3 0 001021 601.46zM989.66 606c-.59 4 2.08 5.61 9.29 8.95 6.95 3.2 17.45 8 15.7 20.59-1 7.1-6.53 11.93-14.82 12.93l-.72.09-.76 5.49a1.07 1.07 0 01-1.21.92l-8-1.11a1.08 1.08 0 01-.91-1.22l.69-4.93-.79-.22a28.88 28.88 0 01-10.81-5.59 1.07 1.07 0 01-.38-.74 1.06 1.06 0 01.27-.77l5.25-6.09a1.12 1.12 0 01.78-.38 1.05 1.05 0 01.74.26 20.36 20.36 0 009.59 4.06 19.71 19.71 0 006.38-.12c3.43-.75 4.38-2.58 4.58-4 .61-4.35-1.81-6.2-9.87-9.93-6.72-3.1-16.87-7.79-15.12-19.64 1-7.45 7.32-12.34 16.39-12.76l.79 0 .71-5.11a1 1 0 01.42-.71 1.07 1.07 0 01.79-.21l8 1.12a1 1 0 01.7.41 1.07 1.07 0 01.21.79l-.74 5.3.7.26a26.36 26.36 0 0112 9 1.08 1.08 0 01-.25 1.5l-6.56 4.68a1.08 1.08 0 01-1.49-.25 17.38 17.38 0 00-11.05-6.34C995.64 601.51 990.2 602.14 989.66 606zM757.2 289.7a14.73 14.73 0 00-17.49-13.94 18.09 18.09 0 00-15 18.95 14.72 14.72 0 005.59 11 14.3 14.3 0 009.15 3.22A17.69 17.69 0 00753.37 302 17.52 17.52 0 00757.2 289.7zm-5.38 11.09a15.23 15.23 0 01-9.92 5.92 12.77 12.77 0 01-10.37-2.58 12.91 12.91 0 01-4.86-9.56 15.9 15.9 0 0115.84-17.07 12.93 12.93 0 014 .6 12.51 12.51 0 013.94 2.13 12.94 12.94 0 014.82 9.61A15.63 15.63 0 01751.82 300.79zM711.06 252.43a9.21 9.21 0 00-7.45-1.86 10.9 10.9 0 00-6.88 4 10.76 10.76 0 00-2.45 7.76 9.25 9.25 0 003.5 6.86 9 9 0 005.72 2 10.26 10.26 0 001.73-.14 10.7 10.7 0 006.92-4.09 10.82 10.82 0 002.41-7.69A9.27 9.27 0 00711.06 252.43zm-.45 13.34a8.81 8.81 0 01-5.69 3.37 7.17 7.17 0 01-5.92-1.46 7.25 7.25 0 01-2.76-5.46 8.8 8.8 0 012-6.38 9 9 0 015.65-3.33 9.37 9.37 0 011.46-.12 7.1 7.1 0 012.18.33h0a7.4 7.4 0 015.05 6.72A8.89 8.89 0 01710.61 265.77z"/><path fill="#fff" d="M716.83 270.62a17.52 17.52 0 003.83-12.3 14.73 14.73 0 00-17.49-13.94 18.09 18.09 0 00-15 18.95 14.94 14.94 0 0010.24 13.48 14.56 14.56 0 004.5.69 17.69 17.69 0 0013.91-6.88zm-1.55-1.21a15.23 15.23 0 01-9.92 5.92 12.89 12.89 0 01-15.23-12.14A15.91 15.91 0 01706 246.12a12.92 12.92 0 014 .6 12.4 12.4 0 013.94 2.13 12.94 12.94 0 014.82 9.61A15.63 15.63 0 01715.28 269.41zM739 240.07a.47.47 0 00-.46-.17l-7.36 1.17a.51.51 0 00-.39.33l-24.67 71.09a.49.49 0 00.09.49.49.49 0 00.38.18h.08l7.36-1.17a.51.51 0 00.39-.33l24.67-71.1A.47.47 0 00739 240.07zm-30.23 70.76l23.59-68 4.07-.65-23.58 68zM747.6 283.81a9.22 9.22 0 00-7.46-1.86 10.91 10.91 0 00-6.87 4 10.76 10.76 0 00-2.45 7.76 9.31 9.31 0 006.39 8.43 9.15 9.15 0 002.83.43 10.26 10.26 0 001.73-.14 11.21 11.21 0 009.32-11.78A9.26 9.26 0 00747.6 283.81zm-.45 13.34a8.81 8.81 0 01-5.69 3.37 7.32 7.32 0 01-8.68-6.92 8.83 8.83 0 012-6.38 9 9 0 015.66-3.33 9.34 9.34 0 011.45-.12 6.93 6.93 0 014.48 1.58 7.29 7.29 0 012.76 5.47A8.89 8.89 0 01747.15 297.15z"/><path fill="#edf6fc" d="M240.45 116.5a15.75 15.75 0 00-4.31.62 16.42 16.42 0 00.18-2.34A17 17 0 00208 102.08a24.88 24.88 0 00-47.68 10 23.42 23.42 0 00.13 2.53A17.7 17.7 0 10152.38 148H242V148a15.76 15.76 0 00-1.56-31.45zM1033.26 232.33a26.75 26.75 0 00-7.32 1 28.85 28.85 0 00-47.79-25.52 42.21 42.21 0 00-80.89 16.9 40.59 40.59 0 00.22 4.3 30 30 0 10-13.65 56.77h152.06v-.14a26.74 26.74 0 00-2.63-53.35zM864.7 84.58a13.7 13.7 0 013.81.54 14.07 14.07 0 01-.16-2.06 15 15 0 0125-11.22 22 22 0 0142.08 8.79 20.6 20.6 0 01-.12 2.24 15.62 15.62 0 117.1 29.53H863.33v-.07a13.91 13.91 0 011.37-27.75z"/></g></svg>