<svg xmlns="http://www.w3.org/2000/svg" viewBox="0 0 2000 2000"><g data-name="Secondary shapes"><path fill="#f1f1f6" d="M128 1654.52c0-22.31 341.6-40.4 763-40.4s763 18.09 763 40.4-341.59 40.4-763 40.4-763-18.08-763-40.4Z"/><path fill="#e9edf7" d="M1479.56 1472.73c3.26 11.64 108.39 55 118 35.42 7.48-15.24-8.52-23.52-14.56-26.07-9.52-4-33-12.17-29-18.75 7.39-11.89 64.26 16.34 78.54 22.37s43.64 13.83 57.77 4.12 18.74-15.28-6.83-24.43-78.19-20.9-60.85-30.57 56.06 9 82.16 11.48 76.65-1.54 67.08-18.72c-8.55-15.37-85.92-11.76-80.66-24.24 4.22-10 25.51-2.95 60-2.75s67.11 0 69.12-20.48c1.61-16.46-20.53-11.92-39.13-12.27s-44.52-1.8-38.08-10.18 97.3 2.09 105.83-23.92c5.64-17.21-14.45-13.28-36.09-14.9s-29.12-3.79-27.36-8 31.29-6.71 47.55-7.69 39.25-7.93 38.86-23.12-26.28-10.92-35.48-7.13-19.58 3.5-20.69.74 28.37-17.42 18.43-31.4-36.75 2.78-43.41 18.58-16.23 36.91-22 34.48 2-20.73 8-35.15 5.2-21.52 1.36-23.15c-12.81-5.4-31.52 8.8-36 19.33s-21.66 72.82-30.17 69.23.41-26.28 5.32-37.92 16.37-38.81 2.1-44.83-37.4 27.32-45.39 50.08-18.13 60.6-24.71 57.82-3.57-34.49 2.4-48.62 23.74-36.36 6.17-43.76-30.25 12.66-42 40.42c-4.9 11.6-16.72 40.43-13.53 60.11 3.62 22.4 1.75 34.17-3.42 35.27-10.3 2.19-10.85-18-8-32.43s14.48-58.87-8.56-59.45-23.28 37.53-24.89 52.85-2.58 69.77-14.5 69.63-3.75-28.67-2.16-37.8-1.16-29.06-9.18-25.75-57.84 90.82-52.04 111.55Z"/><path fill="#423eaf" d="M412.81 1451.71c-63.85 68.13-148.87 48-217.89-37.6 69.91-49.96 179.91-57.11 217.89 37.6Z"/><path fill="#5652cc" d="M412.82 1454.48a2.7 2.7 0 0 1-.63-.07c-17.25-4-46.85-8.27-78.19-12.77-38.11-5.49-81.31-11.71-113.23-19a2.76 2.76 0 1 1 1.22-5.39c31.71 7.21 74.79 13.41 112.8 18.88 31.46 4.53 61.17 8.8 78.65 12.86a2.77 2.77 0 0 1-.62 5.46Z"/><path fill="#ced3f8" d="M1132.52 1339c-15.16-6-28.42-17.06-24-26.18 4.18-8.68 20-5.54 34.28 1.21-3.8-13.64-3.24-27.22 5.28-29.69 16.73-4.86 30.17 44.46 24 57.1-5.46 17.86-52.14 35.21-58.18 18.83-2.9-7.78 6.52-15.68 18.62-21.27Z"/><path fill="#dde2f8" d="M1243.29 1467.76a2.76 2.76 0 0 1-2.7-2.22c-12.27-61.68-52.1-113.77-69.7-121.58a2.76 2.76 0 1 1 2.24-5c20.92 9.28 60.66 64.08 72.88 125.55a2.76 2.76 0 0 1-2.17 3.25 2.56 2.56 0 0 1-.55 0Z"/><path fill="#dde2f8" d="M1154.94 1348c.67-2.72 3.54-4.79 6.28-6.42-3.85-2.18-8-7.71-5.07-11.54 2.11-2.74 7 .48 10.77 3.94a19.8 19.8 0 0 1 .16-5.37c2.81-14.33 11.18 7.18 6.9 13.79a41.82 41.82 0 0 1-5.66 6.25c-5.32 4.98-14.68 4.63-13.38-.65Z"/><path fill="#6b67e9" d="M1380.31 1479.8c74.31-107.65 21.51-218.07-116.19-287.18-47.65 110.55-24.81 263.3 116.19 287.18Z"/><path fill="#5652cc" d="M1435 1492.62c48 83 137.68 82.59 226.6 13.06-58.31-66.21-166.6-98.96-226.6-13.06Z"/><path fill="#807dfb" d="M1394 1499.75c150.66-6.54 215.46-131.89 183.25-306.54-134.84 33.07-259.38 160.29-183.25 306.54Z"/><path fill="#6b67e9" d="M1394 1502.52a2.7 2.7 0 0 1-1.28-.32 2.76 2.76 0 0 1-1.17-3.73c13.41-25.65 39.45-66.56 67-109.88 33.3-52.32 71-111.61 95.59-158.08a2.77 2.77 0 0 1 4.89 2.59c-24.65 46.66-62.46 106.05-95.81 158.46-27.5 43.21-53.48 84-66.78 109.47a2.75 2.75 0 0 1-2.44 1.49Z"/><path fill="#9f9cff" d="M337.29 718.05c-28.5 3.12-40.64-21-46.61-36 8.78-.27 44.42.62 46.61 36Z"/><path fill="#9f9cff" d="M510.1 906a2.77 2.77 0 0 1-2.47-1.51C481 852.37 421 776.12 332.88 718.44a2.77 2.77 0 0 1 3-4.63C425 772.08 485.55 849.21 512.56 902a2.77 2.77 0 0 1-2.46 4zm-8.98-43.35C496.55 805 537 791.9 567.5 780.73c.07 17.77 5.16 79.65-66.38 81.92zm-30.94-46.04c-15.08-44 13.78-62.18 35.25-77 3.57 13.85 19.92 60.95-35.25 77zm-42.96-42.45c-21.46-33.69-1-54.73 14-71.39 5.78 10.8 28.86 46.88-14 71.39zm-44.74-37.55c-18.65-16.4-10.08-32.5-4-45 5.3 5.39 25.33 22.94 4 45zM473.57 875c-41.75-29.44-69.86-4.57-92 13.54 13.43 8.09 58.1 39.79 92-13.54z"/><path fill="#9f9cff" d="M439 825.6c-31.62-30.69-58.9-13.27-80.25-.81 10.36 8.64 44.19 41.66 80.25.81zm-49.51-52.04c-26.57-14.17-41.19 2.42-52.84 14.63 8.45 3.72 36.9 19.01 52.84-14.63zm-35.82-32.71c-13.7-11-23.85-3-31.82 2.73 4.44 3.03 19.15 14.83 31.82-2.73z"/><path fill="#807dfb" d="M483.81 1474.39c39.76-9.1 82.72-61.7 78.56-101.57s-41.73-46.18-38-68.4 42.94-50 34.6-79.58c-14.82-52.54-95.7-13.12-110.59-50.7s31.57-56.71 23.16-94-73.28-.91-100.34-38.92S272 933 236.48 979.5c-28.07 36.75 28.83 50.83 28.75 70.8-.08 22.77-29 26.13-23.58 51.24 7.64 35.49 55.73 35.77 57.18 65.93s-37.19 40-14.09 72.42c28.59 40.17 89.74-8 99.08 56.11s-71.13 41.77-70.95 82.17c.2 44.09 79.31 35.18 72.4 64.4-9.42 39.76 36.88 45.91 98.54 31.82Z"/><path fill="#6b67e9" d="M494.16 1473.85a2.77 2.77 0 0 1-2.76-2.54c-.3-3.7.63-8.69 1.7-14.47 2.32-12.47 5.2-28-2.37-38.6-4.34-6.1-9.56-11.49-15.09-17.2-9.21-9.51-18.74-19.34-24.21-32.91-11.06-27.46-6.43-50.35-2.34-70.55 3-14.67 5.52-27.33 1.48-38.94-3.34-9.61-10-12-18.36-14.93-8.81-3.12-18.78-6.65-27.51-18.92-8.5-11.93-8.21-19.87-7.92-27.55.29-7.91.59-16.09-9.54-30.33-8.58-12.05-16.52-14.77-24.92-17.66-8.91-3.07-18.14-6.24-28.51-19.45-19.35-24.64-19.87-47.24-20.25-63.75-.2-9.15-.37-16.38-3.7-20.58-8-10.08-17.4-7.78-17.5-7.75a2.77 2.77 0 0 1-1.38-5.36c.52-.13 13-3.2 23.22 9.68 4.48 5.65 4.66 13.7 4.89 23.89.37 15.72.86 37.26 19.07 60.45 9.37 11.93 17.43 14.7 26 17.64 8.86 3 18 6.19 27.62 19.69 11.23 15.76 10.88 25.31 10.56 33.73-.27 7.38-.5 13.75 6.9 24.15 7.72 10.84 16.43 13.92 24.85 16.9 9 3.19 17.53 6.21 21.75 18.33 4.54 13 1.71 27-1.29 41.85-3.93 19.44-8.39 41.47 2.05 67.39 5.06 12.57 14.21 22 23.05 31.13 5.43 5.61 11.05 11.4 15.63 17.84 8.92 12.53 5.67 30 3.3 42.82-1 5.39-1.87 10-1.62 13a2.77 2.77 0 0 1-2.53 3Z"/><path fill="#dde2f8" d="M1350.31 308.26h-1.62a39.08 39.08 0 0 1-30.86-17.13c-12.35 3.7-26.28 1.22-37.71-6.81-16.89-11.87-26.53-34-26.44-60.87a2.77 2.77 0 0 1 2.77-2.75 2.75 2.75 0 0 1 2.75 2.77c-.08 25 8.7 45.51 24.09 56.33 10.78 7.57 23.45 9.55 34.78 5.43a2.75 2.75 0 0 1 3.33 1.21 33.48 33.48 0 0 0 27.5 16.3c13.41.53 34.54-6.28 59-41.71a2.77 2.77 0 1 1 4.55 3.15c-24.95 36.11-47.3 44.08-62.14 44.08Z"/><path fill="#dde2f8" d="M1341.48 294a41 41 0 0 1-22.3-6.45h-.52c-11.4 0-24-6.31-33.28-16.71-14.5-16.29-19.94-40.67-15.32-68.66a2.77 2.77 0 1 1 5.46.9c-4.34 26.31.62 49.07 14 64.08 8.57 9.63 20.16 15.31 30.33 14.83a2.8 2.8 0 0 1 1.68.47c9.87 6.67 22 7.87 34.26 3.39 19.1-7 34.26-26 41.57-52.07a2.77 2.77 0 0 1 5.33 1.5c-7.8 27.81-24.2 48.13-45 55.76a46.92 46.92 0 0 1-16.21 2.96Z"/><path fill="#dde2f8" d="M1331.3 284.78a34.76 34.76 0 0 1-10.15-1.58c-6.88.37-13.8-3.45-20.07-11.1-13.85-16.89-23.34-52.8-13.64-86.07a2.77 2.77 0 1 1 5.31 1.55c-9.18 31.45-.35 65.22 12.61 81 5.15 6.28 10.78 9.5 15.87 9a2.83 2.83 0 0 1 1.08.12c10 3.17 19.1 1.11 27-6.12 19.11-17.45 25.55-59 23.39-68.82a2.76 2.76 0 1 1 5.4-1.19c2.7 12.31-4.36 55.19-25.06 74.09-6.57 6.1-13.86 9.12-21.74 9.12Z"/><path fill="#dde2f8" d="M1321.47 283.17a3 3 0 0 1-.42 0 2.76 2.76 0 0 1-1.89-1.22c-6.1-9.35-12.58-23.41-17.78-38.6-4.78-13.95-7.58-26.21-7.31-32a2.77 2.77 0 0 1 5.53.26c-.47 9.89 10.26 44.28 22.48 64.59 15-14.44 30.14-47.86 30.51-60.14a2.78 2.78 0 0 1 2.76-2.68h.09a2.77 2.77 0 0 1 2.68 2.85c-.44 14.51-17.51 52-34.89 66.35a2.77 2.77 0 0 1-1.76.59Z"/><path fill="#dde2f8" d="M1321.47 283.17a2.77 2.77 0 0 1-2.66-2c-6.26-22.06-13.37-47.06-8.58-85.86a2.77 2.77 0 0 1 5.49.68c-4.65 37.68 2.29 62.12 8.41 83.67a2.77 2.77 0 0 1-1.9 3.42 2.84 2.84 0 0 1-.76.09Z"/><path fill="#dde2f8" d="M1319.91 277.64a2.73 2.73 0 0 1-1.37-.36 2.78 2.78 0 0 1-1-3.77c10.19-17.82 17.71-72 12.37-89.27a2.76 2.76 0 1 1 5.28-1.64c5.89 19-1.68 74.13-12.85 93.65a2.76 2.76 0 0 1-2.43 1.39zm-51.41 189.64a2.73 2.73 0 0 1-1.14-.25 2.76 2.76 0 0 1-1.37-3.66c20.36-44.67 49.75-157.48 50.27-175.66a2.77 2.77 0 0 1 5.53.15c-.58 20.55-31.38 135.29-50.77 177.8a2.76 2.76 0 0 1-2.52 1.62z"/><path fill="#5652cc" d="M1099.35 485.81c-81.68 61.94-170 24.46-228.89-80.92 84.89-41.17 205.27-28.63 228.89 80.92Z"/><path fill="#807dfb" d="M1125.17 465c-139.64-27-182.69-152.95-128.38-311.4 121.14 49.59 219.67 185.57 128.38 311.4Z"/><path fill="#6b67e9" d="M1125.17 467.79a2.76 2.76 0 0 1-2.61-1.86c-8.86-25.55-27.41-67.19-47-111.28-23.85-53.56-50.89-114.26-67.4-161.24a2.76 2.76 0 1 1 5.21-1.83c16.45 46.77 43.43 107.36 67.24 160.82 19.69 44.2 38.29 85.94 47.22 111.72a2.77 2.77 0 0 1-1.7 3.52 2.89 2.89 0 0 1-.96.15Z"/><path fill="#6b67e9" d="M1073.49 346.08a2.73 2.73 0 0 1-1.54-.47 2.77 2.77 0 0 1-.75-3.84l39.25-58.14a2.76 2.76 0 1 1 4.58 3.09l-39.24 58.14a2.78 2.78 0 0 1-2.3 1.22zm-17.15-37.69a2.7 2.7 0 0 1-.92-.16l-56.05-19.88a2.76 2.76 0 1 1 1.84-5.21l56.06 19.86a2.76 2.76 0 0 1-.93 5.37zM1029.65 241a2.83 2.83 0 0 1-1-.19 2.77 2.77 0 0 1-1.56-3.59l9.47-24.06a2.77 2.77 0 0 1 5.15 2l-9.47 24.06a2.76 2.76 0 0 1-2.59 1.78zm66.17 155.37a2.86 2.86 0 0 1-.58-.06l-74.7-15.93a2.77 2.77 0 1 1 1.15-5.41l74.7 15.93a2.77 2.77 0 0 1-.57 5.47z"/><path fill="#e19100" d="m1386.43 1446.58 22.19 31c18.68 26.09 15.23 66.59-12.9 105.48-39.6 54.74-113.32 85.85-164.36 69.42-14.79-4.78-26.08-13-33.7-23.66l-22.2-31c7.61 10.64 18.91 18.88 33.69 23.66 51.07 16.43 124.79-14.68 164.39-69.41 28.11-38.9 31.55-79.4 12.89-105.49Z"/><path fill="#ffd03e" d="M1352.76 1422.93c51 16.45 60.35 74.37 20.78 129.12s-113.32 85.84-164.39 69.41-60.38-74.32-20.8-129.06 113.35-85.92 164.41-69.47Z"/><path fill="#ffe357" d="m1336.72 1447.54-9.46 13.38c11.86 8.38 12.77 25.85.94 42.53l-15.84-5c7.29-10.26 5.38-21.11-4.26-24.16s-23.38 2.85-30.64 13.11c-3.54 5-5.06 10.27-4.26 14.84a11.68 11.68 0 0 0 8.5 9.36c18.34 5.82 22 26.51 8.08 46.12-11.85 16.74-32.57 27.29-49.84 26.53l-8.74 12.34-15.83-5 8.73-12.36c-11.82-8.43-12.69-25.82-.84-42.56l15.79 5c-7.31 10.32-5.42 21.16 4.22 24.21s23.39-2.86 30.69-13.17 5.36-21.11-4.28-24.14c-8.86-2.81-14.56-9.18-16.1-17.91s1.34-18.69 8.09-28.23c11.82-16.69 32.54-27.33 49.77-26.5l9.46-13.37Z"/><path fill="#4c4c4c" style="mix-blend-mode:screen" d="M1384.61 1444.37c-7.54-9.54-18.13-17-31.85-21.44-51.06-16.45-124.81 14.72-164.41 69.47-15.1 20.87-23 42.19-24.28 61.52Z"/><path fill="#fcba06" d="M1413.73 1473.87c40.32-7.4 89.1 24.1 108.69 70.21s2.74 89.65-37.57 97.05-89.1-24.09-108.7-70.2-2.75-89.65 37.58-97.06Z"/><path fill="#ffe357" d="m1430.6 1490 4.76 11.17c12.75 1.12 26.19 11.26 32.15 25.26l-12.4 2.28c-3.66-8.62-12.76-14.5-20.31-13.12s-10.65 9.51-7 18.13a23.19 23.19 0 0 0 8.68 10.28c3.83 2.47 7.92 3.47 11.57 2.8 14.38-2.64 31.74 8.58 38.73 25 5.94 14 2.45 27.26-7.59 32.51l4.4 10.33-12.4 2.27-4.39-10.33c-12.69-1.07-26.16-11.25-32.1-25.22l12.39-2.27c3.65 8.58 12.76 14.46 20.26 13.08s10.69-9.51 7-18.1-12.77-14.49-20.31-13.11c-6.95 1.28-14.79-.6-22.11-5.32a44.26 44.26 0 0 1-16.56-19.65c-6-14-2.45-27.26 7.54-32.54l-4.76-11.19Z"/><path fill="#4c4c4c" style="mix-blend-mode:screen" d="M1465.7 1483.17c-17-8.66-35.2-12.38-52-9.3-40.33 7.41-57.19 51-37.58 97.06a123.83 123.83 0 0 0 29.82 42l56.6-95.35a87.1 87.1 0 0 1 3.16-34.41Z"/><path fill="#e19100" d="M1484.85 1641.13c-38.07 7-83.65-20.7-105.13-62.6l-20.86 12.75c20.61 44 67.78 73.57 107 66.37a54.53 54.53 0 0 0 26.26-12.34l19-16.51a54.35 54.35 0 0 1-26.27 12.33Z"/><path fill="#ed9f00" d="M1376.15 1570.93c-14.56-34.23-9-67 11.32-84.72l-19 16.52c-20.33 17.67-25.87 50.49-11.32 84.72.55 1.29 1.13 2.57 1.72 3.83l20.86-12.75c-1.28-2.53-2.49-5.02-3.58-7.6Z"/><rect width="600.69" height="754.07" x="1132.79" y="366.54" fill="#dde2f8" rx="40.48" transform="rotate(90 1433.135 743.575)"/><rect width="698.76" height="545.38" x="1083.75" y="470.89" fill="#fff" rx="19.14"/><path fill="#5652cc" d="M1726.87 565.44h26.62v166.54h-26.62z"/><path fill="#807dfb" d="M1694.55 674.11h26.62v149.24h-26.62z"/><path fill="#ed9f00" d="M1662.23 815.51h26.62v40.94h-26.62z"/><path fill="#fcba06" d="M1629.91 784.48h26.62v45.74h-26.62zM1597.59 722.56h26.62v61.92h-26.62z"/><path fill="#5652cc" d="M1565.26 594.33h26.62v149.24h-26.62z"/><path fill="#807dfb" d="M1532.94 668.95h26.62v149.24h-26.62zM1500.62 791.85h26.62v83.58h-26.62zM1468.3 824.84h26.62v118.81h-26.62zM1435.98 760.36h26.62v106.11h-26.62z"/><path fill="#fcba06" d="M1403.66 731.55h26.62v57.75h-26.62zM1371.34 712.42h26.62v29.5h-26.62z"/><path fill="#807dfb" d="M1339.02 622.11h26.62v92.57h-26.62z"/><path fill="#5652cc" d="M1306.7 520.26h26.62v137.77h-26.62zM1274.38 553.89H1301v173.28h-26.62z"/><path fill="#807dfb" d="M1242.06 648.71h26.62v221.34h-26.62zM1209.74 818.26h26.62v85.91h-26.62z"/><path fill="#fcba06" d="M1177.42 883.96h26.62v46.93h-26.62z"/><path fill="#ed9f00" d="M1145.1 923.1h26.62v35.48h-26.62z"/><path fill="#fcba06" d="M1112.78 888.88h26.62v61.18h-26.62z"/><path fill="#dde2f8" d="M524.52 1499.66c0-85.53 39.62-154.87 88.49-154.87H447.09c-48.88 0-88.5 69.34-88.5 154.87s39.62 154.86 88.5 154.86H613c-48.86 0-88.48-69.34-88.48-154.86Z"/><ellipse cx="613.01" cy="1499.66" fill="#bbc0e6" rx="88.49" ry="154.87"/><ellipse cx="613.01" cy="1499.66" fill="#5652cc" rx="71.52" ry="125.15"/><path fill="#423eaf" d="M543.18 1472.8h139.7c-7-56.21-35.62-98.3-69.85-98.3s-62.82 42.09-69.85 98.3Z"/><path fill="#f6f6fb" d="M613 1344.79H447.09c-47.29 0-85.9 64.89-88.37 146.56 2.9 0 6.32-4.14 10.47-20.27s12.91-29.5 27.2-29.5h100.93c20.75 0 32.27-6.45 41.12-25.31 15.75-42.98 43.25-71.48 74.56-71.48Z"/><path fill="#dde2f8" d="M447.09 1654.52H613c-26.83 0-50.85-20.93-67.08-53.93H380c16.23 33 40.25 53.93 67.09 53.93zm296.11-117.99h-97.46c-25.35 0-71.43-24.53-71.43-111.36 0-59 4.18-94 12.89-124.63H849c6.91 22.99 34.52 235.99-105.8 235.99z"/><path fill="#ced3f8" d="M706.58 1536.53h36.62c140.32 0 112.71-213 105.8-236h-69.83c44.94 190.79-53.93 236-72.59 236Z"/><path fill="#f6f6fb" d="M607 1300.54h-19.8c-8.71 30.65-12.89 65.62-12.89 124.63 0 28.93 5.13 50.9 12.89 67.4-5.07-27.39-2.98-128.46 19.8-192.03Z"/><path fill="#dde2f8" d="M916.75 1499.66c0-85.53 39.62-154.87 88.5-154.87H839.32c-48.88 0-88.5 69.34-88.5 154.87s39.62 154.86 88.5 154.86h165.93c-48.88 0-88.5-69.34-88.5-154.86Z"/><ellipse cx="1005.25" cy="1499.66" fill="#bbc0e6" rx="88.49" ry="154.87"/><ellipse cx="1005.25" cy="1499.66" fill="#5652cc" rx="71.52" ry="125.15"/><path fill="#f6f6fb" d="M1005.25 1344.79H839.32c-47.28 0-85.9 64.89-88.37 146.56 2.89 0 6.32-4.14 10.47-20.27s12.9-29.5 27.19-29.5h100.95c20.74 0 32.26-6.45 41.11-25.31 15.76-42.98 43.26-71.48 74.58-71.48Z"/><path fill="#dde2f8" d="M839.32 1654.52h165.93c-26.83 0-50.86-20.93-67.09-53.93H772.24c16.22 33 40.25 53.93 67.08 53.93Z"/><path fill="#423eaf" d="M935.4 1472.8h139.69c-7-56.21-35.62-98.3-69.84-98.3s-62.83 42.09-69.85 98.3Z"/><path fill="#807dfb" d="M600.26 1288.79h234.37v11.75H600.26z"/><path fill="#5652cc" d="M754.39 1288.79h80.25v11.75h-80.25z"/><path fill="#9f9cff" d="M600.26 1288.79h37.95v11.75h-37.95z"/><path fill="#dde2f8" d="M866.74 874.89H563.4c-55.31 0-77.6 35-77.6 69.89 0 209.31 29.66 344 77.6 344h303.34c47.94 0 77.59-165.71 77.59-344 0-34.88-22.33-69.89-77.59-69.89Z"/><path fill="#ced3f8" d="M772.24 1288.79h94.5c47.94 0 77.59-165.71 77.59-344 0-32.4-19.25-64.88-66.29-69.35-71.29-.54-67.9 89.86-66.68 152.71 1.39 71.72 26.5 140.12 12 191.28-9.72 34.19-22.14 58.07-51.12 69.36Z"/><path fill="#f6f6fb" d="M866.74 874.89H563.4c-55.31 0-77.6 35-77.6 69.89 0 182.34 22.51 308 60 337.41-46.48-102-43-290.46-41.64-319s26-47.71 54.62-47.71h242.9c34.34 0 22.81-40 76.35-40-3.6-.39-7.35-.59-11.29-.59Z"/><path fill="#ced3f8" d="M646.31 1075a17.58 17.58 0 0 1-11.79-4.67 17.78 17.78 0 0 1-5.86-11.29 14.13 14.13 0 0 1 14.29-16 18.21 18.21 0 0 1 17.65 16h14.5c-1.51-14.3-12.68-26.3-26.33-29.55l-1.2-11.44h-14.5l1.21 11.44c-13 3.25-21.61 15.25-20.11 29.55a34.67 34.67 0 0 0 33.66 30.46 18.2 18.2 0 0 1 17.65 16 14.12 14.12 0 0 1-14.29 16 18.19 18.19 0 0 1-17.65-16h-14.49c1.5 14.3 12.67 26.29 26.32 29.55l1.11 10.55H661l-1.11-10.55c13-3.26 21.62-15.25 20.12-29.55-1.8-16.8-16.9-30.5-33.7-30.5Z"/><path fill="#dde2f8" d="M740.65 836.3c0-17.69 3.44-123.88 53.1-123.88H649.22c-49.65 0-53.09 106.19-53.09 123.88s0 38.59 19.85 38.59h144.53c-19.86 0-19.86-20.89-19.86-38.59Z"/><path fill="#ced3f8" d="M793.75 712.42c-49.66 0-53.1 106.19-53.1 123.88s0 38.59 19.86 38.59H827c19.86 0 19.86-20.89 19.86-38.59s-3.46-123.88-53.11-123.88Z"/><path fill="#f6f6fb" d="M793.75 712.42H649.22c-25.89 0-39.2 28.86-46 59 6.75-15.21 15.51-16.59 30.25-16.59h98.63c12.91 0 20.53-5 26-14.62l.06-.1c7.89-16.11 19.21-27.69 35.59-27.69Z"/><path fill="#e9edf7" d="M769.58 840.79c0-7.06 3.26-12.77 7.29-12.77h-6.38c-4 0-7.3 5.71-7.3 12.77s3.27 12.76 7.3 12.76h6.38c-4.03 0-7.29-5.71-7.29-12.76Z"/><path fill="#ced3f8" d="M769.58 840.79c0-7.06 3.26-12.77 7.29-12.77s7.3 5.71 7.3 12.77-3.27 12.76-7.3 12.76-7.29-5.71-7.29-12.76Z"/><path fill="#5652cc" d="M841.34 874.89h6.35c-19.9-37-54.37-36.93-69.35-36.87h-1.47c-.87 0-1.58 1.24-1.58 2.77s.71 2.76 1.58 2.76h1.49c14.7-.06 44.51-.13 62.98 31.34zM726.83 836.3c0-11.63 1.5-61.48 16.63-94.28a7.4 7.4 0 0 0-6.76-10.47H636.5a7.5 7.5 0 0 0-6.51 3.82c-18.31 32.25-20 88.48-20 100.93a133.55 133.55 0 0 0 .89 18.87 7.46 7.46 0 0 0 7.37 6.36h101.84a7.4 7.4 0 0 0 7.39-8.18 148.31 148.31 0 0 1-.65-17.05z"/><path fill="#807dfb" d="M736.7 731.55H636.5a7.5 7.5 0 0 0-6.51 3.82 110.56 110.56 0 0 0-8.65 20.23 69.58 69.58 0 0 1 12.11-.77h98.63a39.43 39.43 0 0 0 6.58-.57 124.09 124.09 0 0 1 4.8-12.24 7.4 7.4 0 0 0-6.76-10.47Z"/><path fill="#ed9f00" style="mix-blend-mode:screen" d="M688.5 784.48a7.37 7.37 0 1 1 7.37 7.37 7.37 7.37 0 0 1-7.37-7.37zm-51.9 0a7.37 7.37 0 1 1 7.37 7.37 7.37 7.37 0 0 1-7.37-7.37z"/><path fill="#ed9f00" d="M667.25 829a43.44 43.44 0 0 1-35-17.88 4.15 4.15 0 0 1 6.72-4.87 35.12 35.12 0 0 0 28.33 14.46 34.7 34.7 0 0 0 28-14.05 4.15 4.15 0 0 1 6.65 5 43 43 0 0 1-34.7 17.34Z"/><path fill="#e9edf7" d="M1177.14 788c5.79-23.91 11.94-93.12 28.53-88.51s1.12 62.72 4.37 64.67c6.92 4.15 44.25-76.66 61.77-63.75s-32.73 80.5-28.12 84 43.33-39.17 52.55-28.88-30.06 60.59-67.11 73.69Z"/><path fill="#ced3f8" d="M1229.13 829.29c30.6-10.82 62.7-47 67.75-65.07-19.85 36.49-67.76 49.38-76.69 57.9v.07zm19.63-73.69c-6.45 9.53-15.67 28.88-5.07 28.88-4.61-3.54 45.63-71.14 28.12-84 2.76 19.78-16.6 45.59-23.05 55.12zm-43.21-18.87c-2.07 10.72-3.46 30.08 4.49 27.46-3.25-2 12.23-60.06-4.37-64.67 5.13 5.13 1.96 26.48-.12 37.21z"/><path fill="#fff" d="M598.62 1193.12c23.24-8.08 84.77-40.36 89.88-23.91s-52.14 34.88-52 38.67c.25 8.07 88.41-4.27 87 17.44s-85.4 16-85.88 21.84 56.38 15.23 52.72 28.55-67.22 7.52-98.29-16.55Z"/><path fill="#e9edf7" d="M592.06 1259.16c25.67 19.88 73.46 27.29 91.39 21.76-41.43 3.06-78.19-30.26-90.2-33.16h-.06c-.4 4.02-.78 7.86-1.13 11.4zm72.6-23.37c-11.51-.27-32.77 2.45-27 11.37.48-5.79 84.51-.13 85.88-21.84-15.2 13.05-47.38 10.74-58.88 10.47zm-7.53-46.54c-10.13 4-27.16 13.37-20.65 18.63-.12-3.79 57.12-22.22 52-38.67-1.48 7.09-21.21 15.98-31.35 20.04z"/><path fill="#ced3f8" d="M865.45 980.45c7.67 22.34 43.89 55.64 75.34 69.57 1.77-25.71 2.89-52.45 3.33-79.67Z"/><path fill="#5652cc" d="M1177.14 788c-40.56 51.1-90.47 89.36-148.35 113.72a381.66 381.66 0 0 1-146.7 29.6c-10.47 0-19 14.86-19 33.19s8.49 33.18 19 33.18a448.64 448.64 0 0 0 172.45-34.8c68.28-28.73 127-73.69 174.59-133.63Z"/><path fill="#423eaf" d="M895.47 987c-20.7 1.1-27.29-5.17-31.37-12 2.5 13.21 9.6 22.74 18 22.74a448.64 448.64 0 0 0 172.45-34.8c68.28-28.73 127-73.69 174.59-133.63l-7.49-5.94C1121.44 948.52 988.35 982.05 895.47 987Z"/><path fill="#423eaf" d="M896.17 990.12c-7.16-12.69-3.81-44.94 0-45.63s-4.21 35.9 10 45.63a12.09 12.09 0 0 1-10 0zm34.75-3c-8-12.16-6.94-44.56-3.19-45.52s-1.69 36.1 13.19 44.82a12.1 12.1 0 0 1-10 .7zm34.19-6.19c-8.92-11.51-10.29-43.9-6.63-45.14s1.06 36.13 16.55 43.69a12.08 12.08 0 0 1-9.92 1.45zm37.66-9.54c-10.26-10.34-15.58-42.32-12.1-44s5.47 35.73 21.77 41.34a12.12 12.12 0 0 1-9.67 2.66zm37.07-12.81c-11.73-8.64-21.89-39.44-18.71-41.62s10.87 34.46 27.87 37.51a12.12 12.12 0 0 1-9.16 4.11zm35.26-14.93c-12.59-7.32-26-36.84-23.09-39.36s14.54 33.09 31.74 34.28a12.11 12.11 0 0 1-8.65 5.08zm33.36-17.8c-13.53-5.39-31.14-32.62-28.61-35.54s19.23 30.6 36.42 29.26a12.1 12.1 0 0 1-7.81 6.28zm31.11-21.68c-13.8-4.65-32.89-30.86-30.52-33.92s20.89 29.49 38 27.21a12.11 12.11 0 0 1-7.48 6.71zm31.79-24.78c-14.18-3.33-35.63-27.65-33.56-30.92s23.56 27.41 40.35 23.54a12.1 12.1 0 0 1-6.79 7.38zm25.79-24.88c-14.18-3.33-35.63-27.65-33.56-30.91s23.56 27.41 40.35 23.54a12.1 12.1 0 0 1-6.79 7.37z"/><path fill="#5652cc" d="M489.14 1123.13c-5.72-17-5.43-35.77.59-55.62-2.48-36-3.82-75.63-3.91-118.49-36.91 41-86.65 115-59.56 195.33 20.42 60.52 86 106.88 165.8 114.81l6.56-66c-54.9-5.5-97.07-33.26-109.48-70.03Z"/><path fill="#423eaf" d="M560.79 1244.55c-4-14 6.66-44.6 10.52-44.4s-12.37 34-.77 46.71a12.09 12.09 0 0 1-9.75-2.31zm-37.71-9.24c-2.42-14.36 11.68-43.56 15.49-42.92s-16.14 32.34-6.06 46.33a12.14 12.14 0 0 1-9.43-3.41zM487 1217.53c.4-14.56 19.87-40.48 23.49-39.12s-22.08 28.62-14.89 44.28a12.11 12.11 0 0 1-8.6-5.16zm-8.93-158.16c-12-8.32-44.38-8-45.43-4.3s36.14-.8 44.48 14.28a12.12 12.12 0 0 0 .95-9.98zm9.17-12.07c-4.95-13.7-31.59-32.19-34.6-29.76s30 20.22 28.06 37.36a12.13 12.13 0 0 0 6.54-7.6zm-13.73 38.88c-13.94-4.23-44.69 6-44.54 9.92s34.13-11.9 46.72-.13a12.11 12.11 0 0 0-2.18-9.79zm5.88 28.08c-14.49-1.42-42.64 14.68-41.74 18.44s31.14-18.35 45.79-9.27a12.12 12.12 0 0 0-4.05-9.17zm-23.14 76.91c1.69-14.47 23.41-38.55 26.89-36.86s-24.55 28-18.8 44.27c-5.89-1.31-8.09-7.41-8.09-7.41z"/><path fill="#423eaf" d="M593.19 1247.75c-40-6.21-125.08-16.13-164.05-95.76 23.18 56.75 86.47 99.58 162.92 107.17zm-90.59-100.4a79.84 79.84 0 0 1-13.46-24.22c-5.72-17-5.43-35.77.59-55.62-.84-12.26-1.55-25-2.12-38.07a.36.36 0 0 0 0 .09c-31.84 80.89-.73 103.7 14.99 117.82z"/><path fill="#807dfb" d="m1471.28 1772.65-31 6.3a6.94 6.94 0 0 0-5.2 4.58l-10 30a6.92 6.92 0 0 0 1.38 6.79l21 23.71a6.93 6.93 0 0 0 6.56 2.2l31-6.29a6.94 6.94 0 0 0 5.19-4.59l10.06-30a6.93 6.93 0 0 0-1.38-6.79l-21-23.71a6.92 6.92 0 0 0-6.61-2.2Z"/><path fill="#9f9cff" d="m1779.65 207.33 13.35 47.39a6.92 6.92 0 0 0 11.62 3l34.4-35.22a6.93 6.93 0 0 0-3.24-11.55L1788 198.74a6.93 6.93 0 0 0-8.35 8.59Z"/><path fill="#ffd03e" d="m296.27 492-33.63 35.95a6.92 6.92 0 0 0 3.48 11.48l48 11.15a6.92 6.92 0 0 0 8.19-8.76L308 494.7a6.92 6.92 0 0 0-11.73-2.7Z"/></g></svg>