<svg xmlns="http://www.w3.org/2000/svg" enable-background="new 0 0 3000 2500" viewBox="0 0 3000 2500"><rect width="2918.6" height="2432.2" x="40.7" y="33.9" fill="none"/><g opacity=".25"><path fill="#4c0000" d="M1579.4,1720.2c-0.1,83.2,194.4,150.9,434.3,151.2c239.9,0.3,434.4-66.9,434.5-150.1    c0.1-83.2-194.4-150.9-434.3-151.2S1579.5,1637,1579.4,1720.2z" opacity="0"/><path fill="#4a0101" d="M1590.6,1720.2c-0.1,81.1,189.4,147,423.1,147.3c233.7,0.3,423.3-65.2,423.3-146.2    c0.1-81.1-189.4-147-423.1-147.3C1780.2,1573.7,1590.6,1639.1,1590.6,1720.2z" opacity=".038"/><path fill="#480202" d="M1601.8,1720.2c-0.1,78.9,184.4,143.1,411.9,143.4c227.5,0.3,412.1-63.4,412.1-142.3    c0.1-78.9-184.4-143.1-411.9-143.4S1601.8,1641.3,1601.8,1720.2z" opacity=".077"/><path fill="#460303" d="M1613,1720.2c-0.1,76.8,179.4,139.3,400.7,139.5c221.4,0.3,400.9-61.7,400.9-138.5s-179.4-139.3-400.7-139.5    C1792.5,1581.5,1613,1643.5,1613,1720.2z" opacity=".115"/><path fill="#440404" d="M1624.2,1720.2c-0.1,74.6,174.3,135.4,389.5,135.7c215.2,0.3,389.7-60,389.7-134.6    c0.1-74.6-174.3-135.4-389.5-135.7C1798.7,1585.3,1624.2,1645.6,1624.2,1720.2z" opacity=".154"/><path fill="#420505" d="M1635.3,1720.3c-0.1,72.5,169.3,131.5,378.3,131.8c209,0.3,378.5-58.3,378.5-130.8    c0.1-72.5-169.3-131.5-378.3-131.8C1804.9,1589.2,1635.4,1647.8,1635.3,1720.3z" opacity=".192"/><path fill="#400606" d="M1646.5,1720.3c-0.1,70.3,164.3,127.6,367.2,127.9c202.8,0.3,367.3-56.5,367.3-126.9    c0.1-70.3-164.3-127.6-367.2-127.9C1811.1,1593.1,1646.6,1649.9,1646.5,1720.3z" opacity=".231"/><path fill="#3e0606" d="M1657.7,1720.3c0,68.2,159.3,123.7,356,124c196.6,0.3,356.1-54.8,356.2-123s-159.3-123.7-356-124    C1817.2,1597,1657.8,1652.1,1657.7,1720.3z" opacity=".269"/><path fill="#3c0707" d="M1668.9,1720.3c0,66.1,154.3,119.8,344.8,120.1c190.5,0.3,344.9-53.1,345-119.2    c0-66.1-154.3-119.8-344.8-120.1C1823.4,1600.9,1669,1654.2,1668.9,1720.3z" opacity=".308"/><path fill="#3a0808" d="M1680.1,1720.3c0,63.9,149.3,115.9,333.6,116.2c184.3,0.2,333.7-51.4,333.8-115.3    c0-63.9-149.3-115.9-333.6-116.2C1829.6,1604.8,1680.1,1656.4,1680.1,1720.3z" opacity=".346"/><path fill="#380909" d="M1691.3,1720.3c0,61.8,144.3,112,322.4,112.3c178.1,0.2,322.5-49.6,322.6-111.4    c0-61.8-144.3-112-322.4-112.3S1691.3,1658.6,1691.3,1720.3z" opacity=".385"/><path fill="#360a0a" d="M1702.5,1720.3c0,59.6,139.3,108.2,311.2,108.4c171.9,0.2,311.3-47.9,311.4-107.6s-139.3-108.2-311.2-108.4    S1702.5,1660.7,1702.5,1720.3z" opacity=".423"/><path fill="#340b0b" d="M1713.7,1720.4c0,57.5,134.3,104.3,300,104.5c165.8,0.2,300.2-46.2,300.2-103.7s-134.3-104.3-300-104.5    S1713.7,1662.9,1713.7,1720.4z" opacity=".462"/><path fill="#330c0c" d="M1724.9,1720.4c0,55.3,129.3,100.4,288.9,100.6c159.6,0.2,289-44.5,289-99.8c0-55.3-129.3-100.4-288.9-100.6    S1724.9,1665,1724.9,1720.4z" opacity=".5"/><path fill="#310d0d" d="M1736.1,1720.4c0,53.2,124.3,96.5,277.7,96.7s277.8-42.8,277.8-96c0-53.2-124.3-96.5-277.7-96.7    C1860.5,1624.2,1736.1,1667.2,1736.1,1720.4z" opacity=".538"/><path fill="#2f0e0e" d="M1747.2,1720.4c0,51.1,119.3,92.6,266.5,92.8c147.2,0.2,266.6-41,266.6-92.1c0-51.1-119.3-92.6-266.5-92.8    S1747.3,1669.3,1747.2,1720.4z" opacity=".577"/><path fill="#2d0f0f" d="M1758.4,1720.4c0,48.9,114.3,88.7,255.3,88.9c141,0.2,255.4-39.3,255.4-88.2c0-48.9-114.3-88.7-255.3-88.9    C1872.8,1632,1758.5,1671.5,1758.4,1720.4z" opacity=".615"/><path fill="#2b1010" d="M1769.6,1720.4c0,46.8,109.3,84.8,244.1,85c134.9,0.2,244.2-37.6,244.2-84.4s-109.3-84.8-244.1-85    S1769.7,1673.7,1769.6,1720.4z" opacity=".654"/><path fill="#291111" d="M1780.8,1720.5c0,44.6,104.3,80.9,232.9,81.1c128.7,0.2,233-35.9,233-80.5s-104.3-80.9-232.9-81.1    S1780.8,1675.8,1780.8,1720.5z" opacity=".692"/><path fill="#271212" d="M1792,1720.5c0,42.5,99.2,77.1,221.7,77.2c122.5,0.2,221.8-34.1,221.8-76.6c0-42.5-99.2-77.1-221.7-77.2    C1891.4,1643.7,1792,1678,1792,1720.5z" opacity=".731"/><path fill="#251212" d="M1803.2,1720.5c0,40.3,94.2,73.2,210.5,73.3c116.3,0.2,210.6-32.4,210.7-72.8c0-40.3-94.2-73.2-210.5-73.3    C1897.5,1647.6,1803.2,1680.1,1803.2,1720.5z" opacity=".769"/><path fill="#231313" d="M1814.4,1720.5c0,38.2,89.2,69.3,199.4,69.4s199.4-30.7,199.5-68.9c0-38.2-89.2-69.3-199.4-69.4    C1903.7,1651.5,1814.4,1682.3,1814.4,1720.5z" opacity=".808"/><path fill="#211414" d="M1825.6,1720.5c0,36.1,84.2,65.4,188.2,65.5c104,0.1,188.2-29,188.3-65s-84.2-65.4-188.2-65.5    C1909.9,1655.3,1825.6,1684.5,1825.6,1720.5z" opacity=".846"/><path fill="#1f1515" d="M1836.8,1720.5c0,33.9,79.2,61.5,177,61.6c97.8,0.1,177.1-27.3,177.1-61.2c0-33.9-79.2-61.5-177-61.6    C1916.1,1659.2,1836.8,1686.6,1836.8,1720.5z" opacity=".885"/><path fill="#1d1616" d="M1847.9,1720.5c0,31.8,74.2,57.6,165.8,57.7c91.6,0.1,165.9-25.5,165.9-57.3c0-31.8-74.2-57.6-165.8-57.7    C1922.2,1663.1,1848,1688.8,1847.9,1720.5z" opacity=".923"/><path fill="#1b1717" d="M1859.1,1720.6c0,29.6,69.2,53.7,154.6,53.8c85.4,0.1,154.7-23.8,154.7-53.4c0-29.6-69.2-53.7-154.6-53.8    C1928.4,1667,1859.2,1690.9,1859.1,1720.6z" opacity=".962"/><path fill="#191818" d="M1870.3,1720.6c0,27.5,64.2,49.8,143.4,49.9s143.5-22.1,143.5-49.6c0-27.5-64.2-49.8-143.4-49.9    S1870.3,1693.1,1870.3,1720.6z"/></g><g opacity=".25"><path fill="#4c0000" d="M554.3,2130c-0.1,83.2,194.4,150.9,434.3,151.2c239.9,0.3,434.4-66.9,434.5-150.1    c0.1-83.2-194.4-150.9-434.3-151.2S554.4,2046.8,554.3,2130z" opacity="0"/><path fill="#4a0101" d="M565.5,2130c-0.1,81.1,189.4,147,423.1,147.3c233.7,0.3,423.3-65.2,423.3-146.2    c0.1-81.1-189.4-147-423.1-147.3C755.1,1983.5,565.6,2049,565.5,2130z" opacity=".038"/><path fill="#480202" d="M576.7,2130c-0.1,78.9,184.4,143.1,411.9,143.4s412.1-63.4,412.1-142.3c0.1-78.9-184.4-143.1-411.9-143.4    C761.3,1987.4,576.8,2051.1,576.7,2130z" opacity=".077"/><path fill="#460303" d="M587.9,2130.1c-0.1,76.8,179.4,139.3,400.7,139.5c221.4,0.3,400.9-61.7,400.9-138.5    c0.1-76.8-179.4-139.3-400.7-139.5S588,2053.3,587.9,2130.1z" opacity=".115"/><path fill="#440404" d="M599.1,2130.1c-0.1,74.6,174.3,135.4,389.5,135.7c215.2,0.3,389.7-60,389.7-134.6    c0.1-74.6-174.3-135.4-389.5-135.7C773.6,1995.2,599.2,2055.4,599.1,2130.1z" opacity=".154"/><path fill="#420505" d="M610.3,2130.1c-0.1,72.5,169.3,131.5,378.3,131.8s378.5-58.3,378.5-130.8c0.1-72.5-169.3-131.5-378.3-131.8    S610.3,2057.6,610.3,2130.1z" opacity=".192"/><path fill="#400606" d="M621.5,2130.1c-0.1,70.3,164.3,127.6,367.2,127.9c202.8,0.3,367.3-56.5,367.3-126.9    c0.1-70.3-164.3-127.6-367.2-127.9S621.5,2059.8,621.5,2130.1z" opacity=".231"/><path fill="#3e0606" d="M632.7,2130.1c0,68.2,159.3,123.7,356,124c196.6,0.3,356.1-54.8,356.2-123s-159.3-123.7-356-124    C792.2,2006.8,632.7,2061.9,632.7,2130.1z" opacity=".269"/><path fill="#3c0707" d="M643.9,2130.1c0,66.1,154.3,119.8,344.8,120.1s344.9-53.1,345-119.2c0-66.1-154.3-119.8-344.8-120.1    C798.4,2010.7,643.9,2064.1,643.9,2130.1z" opacity=".308"/><path fill="#3a0808" d="M655,2130.1c0,63.9,149.3,115.9,333.6,116.2c184.3,0.2,333.7-51.4,333.8-115.3    c0-63.9-149.3-115.9-333.6-116.2S655.1,2066.2,655,2130.1z" opacity=".346"/><path fill="#380909" d="M666.2,2130.2c0,61.8,144.3,112,322.4,112.3c178.1,0.2,322.5-49.6,322.6-111.4c0-61.8-144.3-112-322.4-112.3    S666.3,2068.4,666.2,2130.2z" opacity=".385"/><path fill="#360a0a" d="M677.4,2130.2c0,59.6,139.3,108.2,311.2,108.4S1300,2190.6,1300,2131c0-59.6-139.3-108.2-311.2-108.4    C816.9,2022.4,677.5,2070.5,677.4,2130.2z" opacity=".423"/><path fill="#340b0b" d="M688.6,2130.2c0,57.5,134.3,104.3,300,104.5c165.8,0.2,300.2-46.2,300.2-103.7s-134.3-104.3-300-104.5    C823.1,2026.3,688.7,2072.7,688.6,2130.2z" opacity=".462"/><path fill="#330c0c" d="M699.8,2130.2c0,55.3,129.3,100.4,288.9,100.6s289-44.5,289-99.8c0-55.3-129.3-100.4-288.9-100.6    S699.8,2074.9,699.8,2130.2z" opacity=".5"/><path fill="#310d0d" d="M711,2130.2c0,53.2,124.3,96.5,277.7,96.7s277.8-42.8,277.8-96c0-53.2-124.3-96.5-277.7-96.7    C835.4,2034.1,711,2077,711,2130.2z" opacity=".538"/><path fill="#2f0e0e" d="M722.2,2130.2c0,51.1,119.3,92.6,266.5,92.8s266.6-41,266.6-92.1c0-51.1-119.3-92.6-266.5-92.8    S722.2,2079.2,722.2,2130.2z" opacity=".577"/><path fill="#2d0f0f" d="M733.4,2130.2c0,48.9,114.3,88.7,255.3,88.9s255.4-39.3,255.4-88.2s-114.3-88.7-255.3-88.9    C847.8,2041.8,733.4,2081.3,733.4,2130.2z" opacity=".615"/><path fill="#2b1010" d="M744.6,2130.3c0,46.8,109.3,84.8,244.1,85s244.2-37.6,244.2-84.4c0-46.8-109.3-84.8-244.1-85    C853.9,2045.7,744.6,2083.5,744.6,2130.3z" opacity=".654"/><path fill="#291111" d="M755.8,2130.3c0,44.6,104.3,80.9,232.9,81.1c128.7,0.2,233-35.9,233-80.5s-104.3-80.9-232.9-81.1    S755.8,2085.6,755.8,2130.3z" opacity=".692"/><path fill="#271212" d="M766.9,2130.3c0,42.5,99.2,77.1,221.7,77.2c122.5,0.2,221.8-34.1,221.8-76.6c0-42.5-99.2-77.1-221.7-77.2    S767,2087.8,766.9,2130.3z" opacity=".731"/><path fill="#251212" d="M778.1,2130.3c0,40.3,94.2,73.2,210.5,73.3s210.6-32.4,210.7-72.8c0-40.3-94.2-73.2-210.5-73.3    C872.5,2057.4,778.2,2090,778.1,2130.3z" opacity=".769"/><path fill="#231313" d="M789.3,2130.3c0,38.2,89.2,69.3,199.4,69.4c110.1,0.1,199.4-30.7,199.5-68.9c0-38.2-89.2-69.3-199.4-69.4    C878.7,2061.3,789.4,2092.1,789.3,2130.3z" opacity=".808"/><path fill="#211414" d="M800.5,2130.3c0,36.1,84.2,65.4,188.2,65.5s188.2-29,188.3-65c0-36.1-84.2-65.4-188.2-65.5    C884.8,2065.2,800.5,2094.3,800.5,2130.3z" opacity=".846"/><path fill="#1f1515" d="M811.7,2130.3c0,33.9,79.2,61.5,177,61.6c97.8,0.1,177.1-27.3,177.1-61.2s-79.2-61.5-177-61.6    S811.7,2096.4,811.7,2130.3z" opacity=".885"/><path fill="#1d1616" d="M822.9,2130.4c0,31.8,74.2,57.6,165.8,57.7s165.9-25.5,165.9-57.3c0-31.8-74.2-57.6-165.8-57.7    S822.9,2098.6,822.9,2130.4z" opacity=".923"/><path fill="#1b1717" d="M834.1,2130.4c0,29.6,69.2,53.7,154.6,53.8s154.7-23.8,154.7-53.4c0-29.6-69.2-53.7-154.6-53.8    C903.4,2076.8,834.1,2100.8,834.1,2130.4z" opacity=".962"/><path fill="#191818" d="M845.3,2130.4c0,27.5,64.2,49.8,143.4,49.9s143.5-22.1,143.5-49.6c0-27.5-64.2-49.8-143.4-49.9    C909.5,2080.7,845.3,2102.9,845.3,2130.4z"/></g><g opacity=".25"><path fill="#4c0000" d="M1175.1,2184.3c34,76,275.8,41.9,540.1-76.2c264.3-118,451-275.3,417-351.2c-34-76-275.8-41.9-540.1,76.2    C1327.9,1951.1,1141.1,2108.4,1175.1,2184.3z" opacity="0"/><path fill="#4a0101" d="M1187.4,2178.8c33.1,74,268.7,40.8,526.2-74.2s439.4-268.2,406.3-342.2c-33.1-74-268.7-40.8-526.2,74.2    C1336.2,1951.6,1154.3,2104.8,1187.4,2178.8z" opacity=".038"/><path fill="#480202" d="M1199.8,2173.3c32.2,72,261.6,39.7,512.2-72.2c250.7-111.9,427.8-261.1,395.6-333.1    c-32.2-72-261.6-39.7-512.2,72.2C1344.6,1952.1,1167.5,2101.3,1199.8,2173.3z" opacity=".077"/><path fill="#460303" d="M1212.1,2167.8c31.3,70.1,254.5,38.6,498.3-70.3c243.9-108.9,416.2-254,384.8-324.1    c-31.3-70.1-254.5-38.6-498.3,70.3S1180.7,2097.7,1212.1,2167.8z" opacity=".115"/><path fill="#440404" d="M1224.4,2162.3c30.5,68.1,247.4,37.5,484.4-68.3c237.1-105.9,404.5-246.9,374.1-315    c-30.5-68.1-247.4-37.5-484.4,68.3S1193.9,2094.2,1224.4,2162.3z" opacity=".154"/><path fill="#420505" d="M1236.7,2156.8c29.6,66.2,240.3,36.5,470.5-66.3c230.3-102.8,392.9-239.8,363.3-306    c-29.6-66.2-240.3-36.5-470.5,66.3C1369.8,1953.6,1207.1,2090.6,1236.7,2156.8z" opacity=".192"/><path fill="#400606" d="M1249.1,2151.3c28.7,64.2,233.1,35.4,456.6-64.4c223.5-99.8,381.3-232.7,352.6-296.9    c-28.7-64.2-233.1-35.4-456.6,64.4C1378.2,1954.1,1220.4,2087.1,1249.1,2151.3z" opacity=".231"/><path fill="#3e0606" d="M1261.4,2145.8c27.8,62.3,226,34.3,442.7-62.4c216.6-96.7,369.7-225.6,341.8-287.9    c-27.8-62.3-226-34.3-442.7,62.4S1233.6,2083.5,1261.4,2145.8z" opacity=".269"/><path fill="#3c0707" d="M1273.7,2140.3c27,60.3,218.9,33.2,428.8-60.5c209.8-93.7,358.1-218.5,331.1-278.8    c-27-60.3-218.9-33.2-428.8,60.5C1395,1955.2,1246.8,2080,1273.7,2140.3z" opacity=".308"/><path fill="#3a0808" d="M1286.1,2134.8c26.1,58.3,211.8,32.2,414.9-58.5c203-90.7,346.5-211.4,320.4-269.8s-211.8-32.2-414.9,58.5    S1260,2076.4,1286.1,2134.8z" opacity=".346"/><path fill="#380909" d="M1298.4,2129.3c25.2,56.4,204.7,31.1,401-56.5s334.8-204.3,309.6-260.7c-25.2-56.4-204.7-31.1-401,56.5    C1411.8,1956.2,1273.2,2072.9,1298.4,2129.3z" opacity=".385"/><path fill="#360a0a" d="M1310.7,2123.8c24.3,54.4,197.6,30,387-54.6c189.4-84.6,323.2-197.3,298.9-251.7    c-24.3-54.4-197.6-30-387,54.6C1420.2,1956.7,1286.4,2069.3,1310.7,2123.8z" opacity=".423"/><path fill="#340b0b" d="M1323,2118.3c23.5,52.5,190.5,28.9,373.1-52.6c182.6-81.5,311.6-190.2,288.1-242.6    c-23.5-52.5-190.5-28.9-373.1,52.6S1299.6,2065.8,1323,2118.3z" opacity=".462"/><path fill="#330c0c" d="M1335.4,2112.8c22.6,50.5,183.4,27.8,359.2-50.7c175.8-78.5,300-183.1,277.4-233.6    c-22.6-50.5-183.4-27.8-359.2,50.7C1437,1957.7,1312.8,2062.3,1335.4,2112.8z" opacity=".5"/><path fill="#310d0d" d="M1347.7,2107.3c21.7,48.6,176.3,26.8,345.3-48.7c169-75.5,288.4-176,266.6-224.6    c-21.7-48.6-176.3-26.8-345.3,48.7C1445.4,1958.2,1326,2058.7,1347.7,2107.3z" opacity=".538"/><path fill="#2f0e0e" d="M1360,2101.8c20.8,46.6,169.2,25.7,331.4-46.7c162.2-72.4,276.8-168.9,255.9-215.5    c-20.8-46.6-169.2-25.7-331.4,46.7C1453.7,1958.7,1339.2,2055.2,1360,2101.8z" opacity=".577"/><path fill="#2d0f0f" d="M1372.3,2096.3c20,44.6,162.1,24.6,317.5-44.8c155.4-69.4,265.1-161.8,245.2-206.5    c-20-44.6-162.1-24.6-317.5,44.8C1462.1,1959.2,1352.4,2051.6,1372.3,2096.3z" opacity=".615"/><path fill="#2b1010" d="M1384.7,2090.8c19.1,42.7,155,23.5,303.6-42.8c148.6-66.3,253.5-154.7,234.4-197.4    c-19.1-42.7-155-23.5-303.6,42.8S1365.6,2048.1,1384.7,2090.8z" opacity=".654"/><path fill="#291111" d="M1397,2085.2c18.2,40.7,147.9,22.4,289.7-40.8c141.8-63.3,241.9-147.6,223.7-188.4s-147.9-22.4-289.7,40.8    C1478.9,1960.2,1378.8,2044.5,1397,2085.2z" opacity=".692"/><path fill="#271212" d="M1409.3,2079.7c17.3,38.8,140.8,21.4,275.7-38.9s230.3-140.5,212.9-179.3c-17.3-38.8-140.8-21.4-275.7,38.9    S1392,2041,1409.3,2079.7z" opacity=".731"/><path fill="#251212" d="M1421.7,2074.2c16.5,36.8,133.7,20.3,261.8-36.9s218.7-133.4,202.2-170.3c-16.5-36.8-133.7-20.3-261.8,36.9    C1495.7,1961.2,1405.2,2037.4,1421.7,2074.2z" opacity=".769"/><path fill="#231313" d="M1434,2068.7c15.6,34.9,126.6,19.2,247.9-35c121.3-54.2,207-126.4,191.5-161.2    c-15.6-34.9-126.6-19.2-247.9,35C1504.1,1961.7,1418.4,2033.9,1434,2068.7z" opacity=".808"/><path fill="#211414" d="M1446.3,2063.2c14.7,32.9,119.5,18.1,234-33c114.5-51.1,195.4-119.3,180.7-152.2s-119.5-18.1-234,33    C1512.5,1962.2,1431.6,2030.3,1446.3,2063.2z" opacity=".846"/><path fill="#1f1515" d="M1458.6,2057.7c13.8,31,112.4,17.1,220.1-31c107.7-48.1,183.8-112.2,170-143.1s-112.4-17.1-220.1,31    C1520.9,1962.7,1444.8,2026.8,1458.6,2057.7z" opacity=".885"/><path fill="#1d1616" d="M1471,2052.2c13,29,105.3,16,206.2-29.1c100.9-45.1,172.2-105.1,159.2-134.1s-105.3-16-206.2,29.1    C1529.3,1963.2,1458,2023.2,1471,2052.2z" opacity=".923"/><path fill="#1b1717" d="M1483.3,2046.7c12.1,27,98.2,14.9,192.3-27.1c94.1-42,160.6-98,148.5-125c-12.1-27-98.2-14.9-192.3,27.1    C1537.7,1963.7,1471.2,2019.7,1483.3,2046.7z" opacity=".962"/><path fill="#191818" d="M1495.6,2041.2c11.2,25.1,91.1,13.8,178.4-25.2c87.3-39,149-90.9,137.7-116c-11.2-25.1-91.1-13.8-178.4,25.2    C1546.1,1964.2,1484.4,2016.1,1495.6,2041.2z"/></g><linearGradient id="a" x1="-11534.772" x2="-11563.64" y1="3686.247" y2="3694.417" gradientTransform="matrix(-.6509 -15.023 14.8859 -.2805 -60596.691 -171061.297)" gradientUnits="userSpaceOnUse"><stop offset="0" stop-color="#303030"/><stop offset="1" stop-color="#727272"/></linearGradient><path fill="url(#a)" d="M1952.2,1561.1c-3.2-3.2-6.4-6.5-9.5-9.9c-3.4-3.7-6.8-7.6-10.1-11.6c-2.3-2.7-4.5-5.3-6.7-8.1       c-2.1-2.6-4-5.3-6-7.9c-2.8-3.7-5.6-7.4-8.2-11.3c-1.6-2.2-3.1-4.5-4.6-6.8c-3-4.4-5.8-8.9-8.6-13.5c-1.2-1.9-2.3-3.7-3.5-5.6       c-3.8-6.4-7.5-12.9-11-19.5c-0.4-0.8-0.8-1.6-1.2-2.3c-3.1-6-6.1-12.1-8.9-18.2c-0.9-1.9-1.8-3.8-2.6-5.8       c-2.6-5.9-5.2-11.8-7.6-17.8c-0.5-1.2-1-2.3-1.4-3.5c-2.8-7.1-5.3-14.2-7.7-21.3c-0.7-2.1-1.3-4.2-2-6.3       c-1.7-5.2-3.3-10.4-4.7-15.7c-0.8-2.8-1.6-5.7-2.3-8.5c-1.2-4.5-2.2-8.9-3.2-13.4c-0.9-3.8-1.7-7.5-2.4-11.3       c-0.7-3.6-1.3-7.1-1.9-10.7c-1-6.1-2-12.1-2.7-18.1c-0.5-3.8-1-7.5-1.3-11.2c-0.3-2.9-0.5-5.8-0.7-8.7       c-0.3-4.7-0.6-9.4-0.7-14.1c-0.1-2.8-0.2-5.6-0.2-8.3c0-5,0.1-9.9,0.3-14.8c0.1-2.3,0.1-4.7,0.3-7c0.5-7.1,1.1-14.2,2.1-21.1       c0.9-6.6,2.2-12.9,3.6-19c0.4-1.6,0.8-3.1,1.1-4.7c0.8-3.3,1.8-6.4,2.8-9.6c1.4-4.5,2.9-8.9,4.6-13.1c1.1-2.7,2.1-5.4,3.3-7.9       c1.1-2.4,2.2-4.7,3.4-7c1.6-3,3.2-5.9,4.9-8.6c1-1.6,2-3.2,3-4.7c2.3-3.3,4.7-6.5,7.2-9.4c0.6-0.7,1.1-1.4,1.7-2.1       c3.1-3.5,6.4-6.7,9.9-9.6c0.8-0.7,1.7-1.4,2.6-2.1c2.8-2.2,5.7-4.2,8.7-6.1c0.9-0.6,1.9-1.2,2.8-1.7c3.9-2.2,7.9-4.2,12.1-5.7       l-161.3,60.8c-0.4,0.1-0.7,0.3-1.1,0.4c-3.2,1.3-6.3,2.7-9.4,4.3c-0.6,0.3-1.1,0.7-1.6,1c-1,0.5-1.9,1.2-2.8,1.7       c-1.4,0.9-2.9,1.7-4.3,2.7c-1.5,1-2.9,2.3-4.3,3.4c-0.9,0.7-1.8,1.3-2.6,2.1c-0.5,0.4-1,0.7-1.4,1.1c-2.8,2.4-5.4,5.1-8,7.9       c-0.2,0.2-0.3,0.4-0.5,0.6c-0.6,0.7-1.1,1.4-1.7,2.1c-1.9,2.2-3.8,4.4-5.5,6.8c-0.6,0.8-1.1,1.8-1.7,2.6c-1,1.5-2,3.1-3,4.7       c-0.9,1.5-1.9,2.8-2.8,4.4c-0.8,1.3-1.4,2.9-2.1,4.2c-1.2,2.3-2.3,4.6-3.4,7c-0.6,1.3-1.3,2.4-1.8,3.8       c-0.6,1.3-0.9,2.8-1.5,4.2c-1.6,4.2-3.2,8.6-4.6,13.1c-0.5,1.6-1.2,3-1.6,4.6c-0.4,1.6-0.8,3.3-1.2,4.9       c-0.4,1.6-0.8,3.1-1.1,4.7c-1.4,6.1-2.6,12.3-3.6,18.9c-1,6.9-1.6,13.9-2.1,21.1c-0.1,2.3-0.2,4.7-0.3,7       c-0.2,4.9-0.3,9.8-0.3,14.8c0,2.8,0.1,5.5,0.2,8.3c0.1,4.7,0.4,9.4,0.7,14.1c0.2,2.9,0.4,5.8,0.7,8.7c0.2,1.8,0.2,3.6,0.5,5.4       c0.2,1.9,0.6,3.9,0.9,5.8c0.8,6,1.7,12.1,2.7,18.2c0.3,1.9,0.5,3.8,0.9,5.8c0.3,1.6,0.7,3.2,1.1,4.8c0.8,3.8,1.6,7.5,2.5,11.3       c0.6,2.5,1,4.9,1.6,7.4c0.5,2,1.1,4,1.6,6c0.7,2.8,1.5,5.7,2.3,8.5c0.6,2,1,3.9,1.6,5.9c1,3.3,2.1,6.5,3.1,9.8       c0.7,2.1,1.3,4.2,2,6.3c0.3,0.9,0.5,1.7,0.8,2.6c2,5.9,4.2,11.8,6.4,17.6c0.2,0.4,0.3,0.8,0.5,1.1c0.5,1.2,1,2.4,1.5,3.5       c1.6,4.1,3.3,8.2,5,12.2c0.8,1.9,1.7,3.7,2.6,5.6c0.9,1.9,1.7,3.8,2.6,5.8c0.8,1.7,1.5,3.4,2.3,5c2.1,4.4,4.4,8.8,6.6,13.2       c0.4,0.8,0.8,1.6,1.2,2.3c0.1,0.2,0.2,0.4,0.3,0.6c2.9,5.4,5.8,10.8,8.9,16c0.6,1,1.2,1.9,1.8,2.9c1.1,1.9,2.3,3.8,3.5,5.6       c1.6,2.6,3.1,5.2,4.7,7.7c1.3,2,2.6,3.9,3.9,5.8c1.5,2.3,3,4.5,4.6,6.8c1,1.4,1.8,2.8,2.8,4.1c1.8,2.4,3.6,4.7,5.4,7.1       c2,2.7,4,5.4,6.1,8c0.7,0.9,1.4,1.9,2.1,2.7c1.5,1.9,3.1,3.5,4.7,5.3c3.3,3.9,6.7,7.8,10.1,11.6c0.9,1,1.8,2.2,2.8,3.2       c2.2,2.3,4.5,4.4,6.7,6.7c1.6,1.6,3.2,3.2,4.8,4.8c5.1,4.9,10.3,9.5,15.7,13.9c46.2,37.6,91.5,48.1,127.5,34.6l161.3-60.8       c-35.9,13.5-81.2,3-127.4-34.6c-5.3-4.4-10.5-9-15.7-13.9C1955.4,1564.3,1953.8,1562.7,1952.2,1561.1z"/><linearGradient id="b" x1="-2947.173" x2="-2922.178" y1="8248.001" y2="8248.001" gradientTransform="matrix(9.2107 -11.5743 11.711 9.5829 -67558.594 -111640.633)" gradientUnits="userSpaceOnUse"><stop offset="0" stop-color="#303030"/><stop offset="1" stop-color="#727272"/></linearGradient><path fill="url(#b)" d="M1834.8,1228.8c16.9-118,106-152.4,199.2-76.6c93,75.7,154.8,232.9,137.9,350.9        c-16.9,118.1-106.1,152.3-199.2,76.6C1879.6,1504,1817.9,1346.9,1834.8,1228.8z"/><linearGradient id="c" x1="2079.054" x2="1937.35" y1="1514.133" y2="1167.276" gradientUnits="userSpaceOnUse"><stop offset="0" stop-color="#e6e6e6"/><stop offset="1" stop-color="#f9f9f9"/></linearGradient><path fill="url(#c)" d="M2098.4,1474.1c-2.8-2.8-5.5-5.6-8.2-8.5c-3-3.2-5.9-6.6-8.7-10c-2-2.3-3.9-4.6-5.8-7       c-1.8-2.2-3.5-4.6-5.2-6.9c-2.4-3.2-4.8-6.4-7.1-9.8c-1.3-1.9-2.6-3.9-4-5.8c-2.6-3.8-5-7.7-7.5-11.6c-1-1.6-2-3.2-3-4.9       c-3.3-5.5-6.5-11.1-9.5-16.9c-0.4-0.7-0.7-1.4-1-2c-2.7-5.2-5.2-10.4-7.7-15.7c-0.8-1.7-1.5-3.3-2.3-5       c-2.3-5.1-4.5-10.2-6.5-15.4c-0.4-1-0.8-2-1.2-3c-2.4-6.1-4.6-12.3-6.7-18.4c-0.6-1.8-1.2-3.6-1.7-5.4c-1.4-4.5-2.8-9-4.1-13.6       c-0.7-2.5-1.4-4.9-2-7.4c-1-3.9-1.9-7.7-2.8-11.6c-0.7-3.2-1.5-6.5-2.1-9.7c-0.6-3.1-1.1-6.1-1.7-9.2       c-0.9-5.2-1.7-10.5-2.3-15.7c-0.4-3.2-0.8-6.5-1.1-9.7c-0.2-2.5-0.4-5-0.6-7.5c-0.3-4.1-0.5-8.1-0.6-12.2       c-0.1-2.4-0.2-4.8-0.2-7.2c0-4.3,0.1-8.6,0.3-12.8c0.1-2,0.1-4,0.2-6c0.4-6.2,1-12.2,1.8-18.2c0.8-5.7,1.9-11.1,3.1-16.4       c0.3-1.4,0.7-2.7,1-4.1c0.7-2.9,1.6-5.5,2.4-8.3c1.2-3.9,2.5-7.7,3.9-11.3c0.9-2.3,1.8-4.6,2.8-6.8c0.9-2.1,1.9-4.1,3-6       c1.4-2.6,2.8-5.1,4.2-7.5c0.9-1.4,1.7-2.8,2.6-4.1c2-2.9,4-5.6,6.2-8.1c0.5-0.6,1-1.2,1.5-1.8c2.7-3,5.6-5.8,8.5-8.3       c0.7-0.6,1.5-1.2,2.3-1.8c2.4-1.9,4.9-3.6,7.5-5.2c0.8-0.5,1.6-1,2.4-1.5c3.4-1.9,6.8-3.6,10.5-5l-139.3,52.4       c-0.3,0.1-0.6,0.2-0.9,0.4c-2.8,1.1-5.5,2.3-8.1,3.7c-0.5,0.3-0.9,0.6-1.4,0.9c-0.8,0.5-1.6,1-2.4,1.5       c-1.2,0.8-2.5,1.4-3.7,2.3c-1.3,0.9-2.5,1.9-3.7,2.9c-0.8,0.6-1.5,1.2-2.3,1.8c-0.4,0.3-0.8,0.6-1.2,1       c-2.4,2.1-4.7,4.4-6.9,6.8c-0.1,0.1-0.3,0.3-0.4,0.5c-0.5,0.6-1,1.2-1.5,1.8c-1.6,1.9-3.3,3.8-4.8,5.9       c-0.5,0.7-0.9,1.5-1.4,2.2c-0.9,1.3-1.8,2.7-2.6,4.1c-0.8,1.3-1.7,2.4-2.4,3.8c-0.7,1.1-1.2,2.5-1.8,3.7c-1,2-2,4-3,6       c-0.5,1.1-1.1,2.1-1.6,3.2c-0.5,1.1-0.8,2.4-1.3,3.6c-1.4,3.6-2.7,7.4-3.9,11.3c-0.4,1.4-1,2.6-1.4,4c-0.4,1.4-0.7,2.8-1,4.3       c-0.3,1.3-0.7,2.7-1,4.1c-1.2,5.3-2.3,10.7-3.1,16.4c-0.9,6-1.4,12-1.8,18.2c-0.1,2-0.1,4-0.2,6c-0.2,4.2-0.3,8.5-0.3,12.8       c0,2.4,0.1,4.8,0.2,7.2c0.1,4,0.3,8.1,0.6,12.2c0.2,2.5,0.4,5,0.6,7.5c0.2,1.6,0.2,3.1,0.4,4.7c0.2,1.7,0.5,3.3,0.8,5       c0.7,5.2,1.4,10.4,2.3,15.7c0.3,1.7,0.4,3.3,0.8,5c0.3,1.4,0.6,2.8,0.9,4.2c0.7,3.3,1.4,6.5,2.1,9.8c0.5,2.1,0.9,4.3,1.4,6.4       c0.4,1.7,1,3.5,1.4,5.2c0.6,2.5,1.3,4.9,2,7.3c0.5,1.7,0.9,3.4,1.4,5.1c0.8,2.8,1.8,5.7,2.7,8.5c0.6,1.8,1.1,3.6,1.7,5.4       c0.3,0.7,0.5,1.5,0.7,2.3c1.7,5.1,3.6,10.2,5.5,15.2c0.1,0.3,0.3,0.7,0.4,1c0.4,1,0.8,2,1.3,3.1c1.4,3.5,2.8,7.1,4.3,10.5       c0.7,1.6,1.5,3.2,2.2,4.8c0.7,1.7,1.5,3.3,2.3,5c0.7,1.4,1.3,2.9,2,4.4c1.8,3.8,3.8,7.6,5.7,11.4c0.4,0.7,0.7,1.4,1,2       c0.1,0.2,0.2,0.4,0.3,0.5c2.5,4.7,5,9.3,7.7,13.9c0.5,0.8,1,1.6,1.5,2.5c1,1.7,2,3.3,3,4.9c1.4,2.2,2.7,4.5,4.1,6.6       c1.1,1.7,2.3,3.3,3.4,5c1.3,2,2.6,3.9,4,5.8c0.8,1.2,1.6,2.4,2.4,3.6c1.5,2.1,3.1,4.1,4.7,6.2c1.7,2.3,3.4,4.6,5.2,6.9       c0.6,0.8,1.2,1.6,1.8,2.4c1.3,1.6,2.7,3,4,4.6c2.9,3.4,5.8,6.8,8.7,10c0.8,0.9,1.6,1.9,2.4,2.7c1.9,2,3.9,3.8,5.8,5.8       c1.4,1.4,2.7,2.8,4.1,4.1c4.4,4.2,8.9,8.2,13.5,12c39.9,32.5,79,41.6,110.1,30l139.3-52.4c-31,11.6-70.2,2.5-110.1-30       c-4.6-3.8-9.1-7.8-13.5-12C2101.1,1476.9,2099.8,1475.5,2098.4,1474.1z"/><linearGradient id="d" x1="6424.065" x2="6460.02" y1="-88137.086" y2="-88505.086" gradientTransform="matrix(7.955 -9.9945 10.115 8.2873 -57786.102 -97267.648)" gradientUnits="userSpaceOnUse"><stop offset="0" stop-color="#e6e6e6"/><stop offset="1" stop-color="#d7d7d7"/></linearGradient><path fill="url(#d)" d="M1997,1187c14.6-102,91.6-131.6,172-66.1c80.4,65.5,133.7,201.3,119.1,303.3        c-14.6,102.1-91.7,131.6-172,66.1C2035.6,1424.7,1982.3,1289,1997,1187z"/><linearGradient id="e" x1="208.594" x2="241.562" y1="363.878" y2="185.608" gradientTransform="matrix(.9051 -.2632 .2853 .9227 2000.818 669.727)" gradientUnits="userSpaceOnUse"><stop offset="0" stop-color="#e08282"/><stop offset="1" stop-color="#ffc0c0"/></linearGradient><path fill="url(#e)" d="M2338,819.2c12.6,61.1,24.8,121.2,31.8,155.4l-55.7,31.3c0,0-18.5-90.8-37.7-184.2      c-6-29.5-17.7-46.2-30.9-55.4c-0.3-0.2-0.6-0.5-1-0.7c-6.9-4.5-14.1-7.1-21.1-8.3c-9.9-1.8-19.3-1-26.8,0.4      c1.8-0.5,64.8-15.4,94.1-1.5l0,0c5.2,1.5,10.3,3.7,15.3,7C2319.6,772.1,2331.8,789,2338,819.2z"/><path fill="#c67171" d="M2697,1301.1c0,0-400.5,148.1-429.2,148.7c-11.5,0.3-29.8,0.2-47.5,0c65-15,301.9-94,301.9-94      l-114.5-370.4l53.1-29.8L2697,1301.1z"/><linearGradient id="f" x1="-69.106" x2="292.398" y1="725.165" y2="442.405" gradientTransform="matrix(.9051 -.2632 .2853 .9227 2000.818 669.727)" gradientUnits="userSpaceOnUse"><stop offset="0" stop-color="#e08282"/><stop offset="1" stop-color="#ffc0c0"/></linearGradient><path fill="url(#f)" d="M2399.2,958l123,397.8c0,0-236.9,79-301.9,94c-6.6,1.5-11.4,2.4-14,2.4c-5.4,0.1-11.3-1-17.2-2.9      c-8.6-2.7-17.5-7.1-25.4-11.8c-15.5-9-27.4-18.9-27.4-18.9s-117.9-152.1-84.6-244.3c0,0,76.5-79.1,81.7-105.3      c5.3-26.2,56.4-95,67.3-127.1c10.8-32.2,0-106-7.6-140.2c-7.6-34.2-12.2-39.5-12.2-39.5l0.2-0.1c1.1-0.4,7-2.9,15.5-4.5l0,0      c7.5-1.4,16.9-2.2,26.8-0.4c7,1.3,14.2,3.8,21.1,8.3c0.4,0.2,0.7,0.5,1,0.7c13.2,9.2,24.9,26,30.9,55.4      c19.2,93.4,37.7,184.2,37.7,184.2l55.7-31.3L2399.2,958z"/><linearGradient id="g" x1="418.811" x2="419.781" y1="508.893" y2="419.638" gradientTransform="matrix(.9051 -.2632 .2853 .9227 2000.818 669.727)" gradientUnits="userSpaceOnUse"><stop offset="0" stop-color="#e08282"/><stop offset="1" stop-color="#ffc0c0"/></linearGradient><path fill="url(#g)" d="M2609.8,962.7c8,34.6-8.8,48.9-8.8,48.9l-173.6,37.7l-28.2-91.3l182.4-30      C2581.7,928,2601.9,928.1,2609.8,962.7z"/><linearGradient id="h" x1="416.236" x2="421.086" y1="620.939" y2="504.526" gradientTransform="matrix(.9051 -.2632 .2853 .9227 2000.818 669.727)" gradientUnits="userSpaceOnUse"><stop offset="0" stop-color="#e08282"/><stop offset="1" stop-color="#ffc0c0"/></linearGradient><path fill="url(#h)" d="M2641.1,1063.1c11,45.1-7,59.5-7,59.5l-170.6,43.1l-36-116.4l173.6-37.7      C2601.1,1011.6,2630.1,1017.9,2641.1,1063.1z"/><linearGradient id="i" x1="416.988" x2="426.688" y1="731.797" y2="635.761" gradientTransform="matrix(.9051 -.2632 .2853 .9227 2000.818 669.727)" gradientUnits="userSpaceOnUse"><stop offset="0" stop-color="#e08282"/><stop offset="1" stop-color="#ffc0c0"/></linearGradient><path fill="url(#i)" d="M2681.7,1163.3c7,38.7-11.2,51.7-11.2,51.7l-176.8,48.3l-30.2-97.5l170.6-43.1      C2634.1,1122.6,2674.7,1124.6,2681.7,1163.3z"/><linearGradient id="j" x1="412.514" x2="423.185" y1="829.743" y2="721.096" gradientTransform="matrix(.9051 -.2632 .2853 .9227 2000.818 669.727)" gradientUnits="userSpaceOnUse"><stop offset="0" stop-color="#e08282"/><stop offset="1" stop-color="#ffc0c0"/></linearGradient><path fill="url(#j)" d="M2699.9,1253.9c6,36.1-2.8,47.2-2.8,47.2l-174.8,54.7l-28.6-92.6l176.8-48.3      C2670.4,1215,2694,1217.8,2699.9,1253.9z"/><linearGradient id="k" x1="1286.489" x2="1511.201" y1="1399.648" y2="869.667" gradientUnits="userSpaceOnUse"><stop offset="0" stop-color="#303030"/><stop offset="1" stop-color="#727272"/></linearGradient><path fill="url(#k)" d="M1205.6,2062.4L843.7,778c-11.8-42,7.2-86.7,45.7-107.2l524.6-280c40.6-21.7,141.7,0.2,154.2,44.5     l302.5,1253.3c11.1,39.5-5.5,81.7-40.6,103l-482,352.2C1306.9,2168.8,1218.7,2108.8,1205.6,2062.4z"/><linearGradient id="l" x1="1289.708" x2="1514.42" y1="1400.108" y2="870.127" gradientUnits="userSpaceOnUse"><stop offset="0" stop-color="#484848"/><stop offset=".24" stop-color="#676767"/><stop offset=".82" stop-color="#fff"/><stop offset="1" stop-color="#b0b0b0"/></linearGradient><path fill="url(#l)" d="M1208.9,2062.8l-362-1284.4c-11.8-42,7.2-86.7,45.7-107.2l524.6-280c40.6-21.7,141.7,0.2,154.2,44.5     l302.5,1253.3c11.1,39.5-5.5,81.7-40.6,103l-482,352.2C1310.1,2169.3,1221.9,2109.2,1208.9,2062.8z"/><linearGradient id="m" x1="1618.995" x2="1192.359" y1="1890.826" y2="500.494" gradientUnits="userSpaceOnUse"><stop offset="0" stop-color="#303030"/><stop offset="1" stop-color="#727272"/></linearGradient><path fill="url(#m)" d="M1274.9,2091.4L913,807c-11.8-42,7.2-86.7,45.7-107.2l524.6-280c40.6-21.7,90.9-0.3,103.4,44.1L1940,1717.6     c11.1,39.5-5.5,81.7-40.6,103L1383,2133.9C1341.7,2158.9,1288,2137.8,1274.9,2091.4z"/><linearGradient id="n" x1="1597.099" x2="1171.923" y1="1892.387" y2="506.81" gradientUnits="userSpaceOnUse"><stop offset="0" stop-color="#303030"/><stop offset=".995" stop-color="#fefefe"/></linearGradient><path fill="url(#n)" d="M1279.6,2091.8l-362-1284.4c-11.8-42,7.2-86.7,45.7-107.2l524.6-280c12.2-6.5,25.4-9.1,38.1-8.3     c-14.1-1.8-29,0.5-42.7,7.9l-524.6,280c-38.5,20.6-57.6,65.2-45.7,107.2l362,1284.4c8.6,30.6,35,50.2,63.7,52.8     C1311.8,2139.9,1287.8,2120.8,1279.6,2091.8z"/><linearGradient id="o" x1="1177.365" x2="1557.151" y1="637.958" y2="1596.465" gradientUnits="userSpaceOnUse"><stop offset="0" stop-color="#ffe94d"/><stop offset="1" stop-color="#ff9d00"/></linearGradient><path fill="url(#o)" d="M1905.2,1727.4L1551.8,473.7c-4.4-15.4-18.6-26.2-34.6-26.2c-5.9,0-11.5,1.4-16.8,4.3l-170.8,89.7     c-9.1,4.9-13.5,15.4-10.6,25.3l3.9,13.5c3.7,12.6-1.9,26.1-13.5,32.3l-129.8,71.2c-12.6,6.8-28.2,0.2-32.2-13.5l-2.8-9.7     c-2.5-8.4-12.1-12.4-19.8-8.3l-149,79.5c-23.3,12.5-35.1,40-27.9,65.4l362,1284.4c5.2,18.5,21.6,26.8,35.5,26.8     c6.7,0,13.1-1.8,18.9-5.4l516.5-313.4C1901.8,1776.8,1911.9,1751.2,1905.2,1727.4z"/><path fill="#494848" d="M1298.9,582.8l-131.6,72.5c-3.4,1.9-7.8,0.6-9.7-2.8l0,0c-1.9-3.4-0.6-7.8,2.8-9.7l131.6-72.5     c3.4-1.9,7.8-0.6,9.7,2.8l0,0C1303.6,576.5,1302.3,580.9,1298.9,582.8z"/><g><linearGradient id="p" x1="1386.752" x2="1304.47" y1="825.527" y2="1055.313" gradientUnits="userSpaceOnUse"><stop offset="0" stop-color="#0d6d5b"/><stop offset="1" stop-color="#0ba2b3"/></linearGradient><path fill="url(#p)" d="M1522.7,876.7c36,110.3-15.7,232.8-115.5,273.8c-99.8,40.9-210-15.3-246.1-125.6     c-36-110.3,15.7-232.8,115.5-273.8C1376.5,710.2,1486.6,766.4,1522.7,876.7z"/><linearGradient id="q" x1="1209.553" x2="1587.849" y1="1013.228" y2="900.843" gradientUnits="userSpaceOnUse"><stop offset="0" stop-color="#82fb7c"/><stop offset="1" stop-color="#0ba2b3"/></linearGradient><path fill="url(#q)" d="M1553.2,890.7c36,110.3-15.7,232.8-115.5,273.8c-99.8,40.9-210-15.3-246.1-125.6     c-36-110.3,15.7-232.8,115.5-273.8C1407,724.2,1517.2,780.5,1553.2,890.7z"/><polygon fill="#fff" points="1281.3 975.5 1377.2 1037.9 1469.4 892.5 1441 871.6 1365.2 985.8 1300.9 945"/></g><g><linearGradient id="r" x1="1318.816" x2="1775.409" y1="1677.624" y2="1677.624" gradientUnits="userSpaceOnUse"><stop offset="0" stop-color="#3abaf9"/><stop offset="1" stop-color="#267ebd"/></linearGradient><path fill="url(#r)" d="M1416.5,1857.1l325.5-204.7c26.5-15,39.2-46.2,30.8-75.4l2.6-50.4c-9.3-32.4-61.6-41.2-90.9-24.5     L1351,1691.1c-25.6,14.5-37.9,44.6-29.8,72.8l14,49C1344.1,1843.7,1388.7,1872.8,1416.5,1857.1z"/><linearGradient id="s" x1="1693.593" x2="1516.304" y1="1529.281" y2="1753.327" gradientUnits="userSpaceOnUse"><stop offset="0" stop-color="#3abaf9"/><stop offset="1" stop-color="#267ebd"/></linearGradient><path fill="url(#s)" d="M1434.4,1851.1l334.9-190c26.5-15,39.2-46.2,30.8-75.4l-12.6-44c-9.3-32.4-46.5-47.6-75.8-31l-333.4,189.1     c-25.6,14.5-37.9,44.6-29.8,72.8l14,49C1371.4,1852.5,1406.6,1866.9,1434.4,1851.1z"/></g><g opacity=".63"><path fill="#fff" d="M1617.5 1214.9L1303 1385c-4.8 2.6-9.9.5-11.5-4.6l-.7-2.3c-1.6-5.1 1-11.4 5.8-14l314.5-170.1c4.8-2.6 9.9-.5 11.5 4.6l.7 2.3C1624.8 1206.1 1622.2 1212.3 1617.5 1214.9zM1632.7 1267.5l-373.1 201.8c-5.2 2.8-10.8.5-12.5-5l-.2-.7c-1.7-5.5 1.1-12.4 6.3-15.2l373.1-201.8c5.2-2.8 10.8-.5 12.5 5l.2.7C1640.7 1257.9 1637.9 1264.7 1632.7 1267.5zM1648.7 1319.8l-373.1 201.8c-5.2 2.8-10.8.5-12.5-5l-.2-.7c-1.7-5.5 1.1-12.4 6.3-15.2l373.1-201.8c5.2-2.8 10.8-.5 12.5 5l.2.7C1656.7 1310.1 1653.9 1317 1648.7 1319.8zM1613 1393.9L1289.4 1569c-4.8 2.6-10.1.5-11.6-4.7l-.6-2.1c-1.6-5.2 1.1-11.5 5.9-14.2l323.6-175.1c4.8-2.6 10.1-.5 11.6 4.7l.6 2.1C1620.5 1385 1617.8 1391.3 1613 1393.9z"/></g><g><linearGradient id="t" x1="3353.684" x2="3877.462" y1="1678.269" y2="1678.269" gradientTransform="matrix(-.8432 -.545 -.4963 .8687 4435.916 1604.837)" gradientUnits="userSpaceOnUse"><stop offset="0" stop-color="#b92222"/><stop offset=".247" stop-color="#dd2f2f"/><stop offset=".855" stop-color="#ff6757"/></linearGradient><path fill="url(#t)" d="M333.5,949.5c-71.8,125.7-31.1,291.4,90.8,370.3c122,78.8,279,40.9,350.8-84.8s31.1-291.4-90.8-370.3      S405.3,823.9,333.5,949.5z"/><linearGradient id="u" x1="3748.387" x2="3460.833" y1="1503.335" y2="1758.447" gradientTransform="matrix(-.8432 -.545 -.4963 .8687 4435.916 1604.837)" gradientUnits="userSpaceOnUse"><stop offset="0" stop-color="#b92222"/><stop offset=".247" stop-color="#dd2f2f"/><stop offset=".855" stop-color="#ff6757"/></linearGradient><path fill="url(#u)" d="M376.2,946.8c-71.8,125.7-31.1,291.4,90.8,370.3c122,78.8,279,40.9,350.8-84.8      C889.6,1106.6,849,940.8,727,862S448,821.1,376.2,946.8z"/><path fill="#fff" d="M582.4,1025.7c0,0,22.6-66.7,73.7-69.5c89-4.9,134,157.6-26.4,265.3c0,0-125.9-15.6-175.5-105.5     c-35-63.3,12-123.2,50.7-131.8S582.4,1025.7,582.4,1025.7z"/></g><g><linearGradient id="v" x1="2740.049" x2="3263.827" y1="2230.858" y2="2230.858" gradientTransform="matrix(-.8432 -.545 -.4963 .8687 4435.916 1604.837)" gradientUnits="userSpaceOnUse"><stop offset="0" stop-color="#82fb7c"/><stop offset="1" stop-color="#0ba2b3"/></linearGradient><path fill="url(#v)" d="M576.7,1764c-71.8,125.7-31.1,291.4,90.8,370.3s279,40.9,350.8-84.8s31.1-291.4-90.8-370.3      C805.5,1600.4,648.5,1638.3,576.7,1764z"/><linearGradient id="w" x1="3134.752" x2="2847.198" y1="2055.924" y2="2311.036" gradientTransform="matrix(-.8432 -.545 -.4963 .8687 4435.916 1604.837)" gradientUnits="userSpaceOnUse"><stop offset="0" stop-color="#82fb7c"/><stop offset="1" stop-color="#0ba2b3"/></linearGradient><path fill="url(#w)" d="M619.4,1761.2c-71.8,125.7-31.1,291.4,90.8,370.3s279,40.9,350.8-84.8s31.1-291.4-90.8-370.3      C848.2,1597.6,691.2,1635.6,619.4,1761.2z"/></g><g><linearGradient id="x" x1="1989.51" x2="1877.65" y1="228.037" y2="459.215" gradientUnits="userSpaceOnUse"><stop offset="0" stop-color="#8c610a"/><stop offset=".266" stop-color="#e4a663"/><stop offset=".729" stop-color="#ffefab"/><stop offset="1" stop-color="#f8b143"/></linearGradient><path fill="url(#x)" d="M2008.6,242.3c-3.2-1.2-6.6-1.3-9.8-0.5c-3.6,1-6.9,3.1-9.1,6.3c-1.7,2.3-2.8,5.2-3.1,8.4l-8.2,107.5     l-0.1,0.9c-0.3,5-3.1,9.6-7.2,12.4l-89.3,59.6c-5.8,3.9-8,10.3-7,16.3c0.1,1.4,0.5,2.8,1.2,4.1l-1.4,0.7l-23-13.7l-9.1-5.4     c-6.3-7-5.6-18.7,3.1-24.5l89.3-59.6c4.2-2.8,6.9-7.3,7.3-12.4l8.2-108.4c0.8-11.2,12.1-17.5,21.7-14.1v-0.1l0.4,0.3l5.8,3.6     L2008.6,242.3z"/><linearGradient id="y" x1="2003.696" x2="1962.658" y1="513.611" y2="598.423" gradientUnits="userSpaceOnUse"><stop offset="0" stop-color="#8c610a"/><stop offset=".266" stop-color="#e4a663"/><stop offset=".729" stop-color="#ffefab"/><stop offset="1" stop-color="#f8b143"/></linearGradient><path fill="url(#y)" d="M1985.4,604.1l0.2-0.1c-6.5-0.9-12.4-5.5-13.9-13l-20.2-99.9l26,9.9c5.2,2,9,6.5,10.1,12l15.3,75.7l1,4.8     l4.1,20.1c0.8,4.1,3,7.3,5.8,9.6L1985.4,604.1z"/><linearGradient id="z" x1="2009.348" x2="2148.724" y1="547.698" y2="327.869" gradientUnits="userSpaceOnUse"><stop offset="0" stop-color="#8c610a"/><stop offset=".266" stop-color="#e4a663"/><stop offset=".729" stop-color="#ffefab"/><stop offset="1" stop-color="#f8b143"/></linearGradient><path fill="url(#z)" d="M2216.5,536l-101-5.6c-5.4-0.3-10.5,2.1-13.8,6.3l-64.7,83.6c-5.5,7.1-14.8,8-21.4,3.9v-0.1     c-0.1,0-0.2-0.1-0.3-0.1l-0.7-0.4l-0.7-0.5c-2.9-2.2-5-5.5-5.8-9.6l-4.1-20.1l-1-4.8l-15.3-75.7c-1.1-5.5-4.9-10-10.1-12l-26-9.9     l-66.4-25.4c-4.4-1.7-7.5-4.9-9.1-8.6c-0.6-1.3-1-2.7-1.2-4.1c-1-5.9,1.2-12.4,7-16.3l89.3-59.6c4.1-2.8,6.9-7.3,7.2-12.4     l0.1-0.9l8.2-107.5c0.3-3.2,1.4-6.1,3.1-8.4c2.2-3.1,5.5-5.3,9.1-6.3c3.2-0.8,6.6-0.7,9.8,0.5l0.3,0.1l5,3.1l51.9,46.6l21.2,19     c0.3,0.2,0.5,0.4,0.7,0.6c4.2,3.4,9.9,4.5,15,2.9l76.1-23.5l19.1-5.9c4.5-1.4,8.9-0.7,12.4,1.2l1.6,0.9c6,4.1,9.2,12,6,19.7     l-41.2,99.9c-2,4.8-1.6,10.2,1.1,14.6l53.6,89.8C2238.1,522.5,2229.6,536.7,2216.5,536z"/><linearGradient id="A" x1="2154.999" x2="2119.546" y1="254.286" y2="327.557" gradientUnits="userSpaceOnUse"><stop offset="0" stop-color="#8c610a"/><stop offset=".266" stop-color="#e4a663"/><stop offset=".729" stop-color="#ffefab"/><stop offset="1" stop-color="#f8b143"/></linearGradient><path fill="url(#A)" d="M2210.4,286.3c-3.5-2-8-2.7-12.4-1.2l-19.1,5.9l-76.1,23.5c-5.2,1.6-10.8,0.5-15-2.9     c-0.3-0.2-0.5-0.4-0.7-0.6l-21.2-19c0.2,0,0.5-0.1,0.7-0.1l95.3-29.4c7.1-2.2,13.8,0.5,17.7,5.5L2210.4,286.3z"/></g><path fill="#fff" d="M1745.3,1603.7l-323.6,175.1c-4.8,2.6-10.1,0.5-11.6-4.7l-0.6-2.1c-1.6-5.2,1.1-11.5,5.9-14.2l323.6-175.1    c4.8-2.6,10.1-0.5,11.6,4.7l0.6,2.1C1752.7,1594.7,1750.1,1601.1,1745.3,1603.7z" opacity=".47"/></svg>