<svg xmlns="http://www.w3.org/2000/svg" enable-background="new 0 0 750 700" viewBox="0 0 750 700"><path fill="#98b1e6" d="M248.124 582.261c-24.148.002-55.867-6.729-92.766-30.408-46.66-29.94-77.993-64.517-93.134-102.773-27.672-69.917-9.43-155.485 46.473-217.995 50.332-56.28 130.036-94.608 218.679-105.159 98.6-11.733 200.896 10.138 291.147 29.438 21.182 4.529 47.543 10.167 64.436 26.926 18.483 18.34 22.784 48.418 10.956 76.628-10.74 25.616-31.53 46.072-51.904 64.828-1.92 1.768-3.85 3.535-5.782 5.303-18.668 17.085-37.97 34.752-50.772 56.12-9.674 16.148-14.319 32.688-13.431 47.831 1.037 17.681 9.916 33.778 23.753 43.06 6.113 4.1 13.21 6.946 20.076 9.699 3.973 1.593 8.08 3.24 11.975 5.12 7.653 3.69 20.8 11.786 22.865 24.537 3.735 23.062-29.456 36.176-39.718 39.646-31.354 10.602-72.95 5.595-116.99.297-62.242-7.492-132.791-15.981-195.806 15.465l-.113.064c-3.316 1.9-21.305 11.372-49.944 11.373zM385.38 123.627c-19.365 0-38.69 1.008-57.886 3.293-88.404 10.521-167.88 48.731-218.051 104.832-55.653 62.23-73.823 147.392-46.29 216.96 15.062 38.057 46.266 72.475 92.744 102.3 80.17 51.444 135.616 22.48 141.674 19.009a5.2 5.2 0 0 1 .163-.092c63.282-31.58 133.99-23.07 196.374-15.564 43.923 5.287 85.41 10.28 116.549-.25 10.073-3.406 42.66-16.253 39.052-38.54-1.994-12.302-14.835-20.19-22.313-23.796-3.865-1.864-7.957-3.505-11.913-5.092-6.913-2.772-14.06-5.638-20.26-9.797-14.096-9.454-23.14-25.84-24.195-43.831-.9-15.345 3.793-32.083 13.571-48.404 12.877-21.493 32.235-39.21 50.954-56.344a2476.02 2476.02 0 0 0 5.78-5.3c20.294-18.682 40.997-39.05 51.66-64.48 11.669-27.833 7.454-57.48-10.74-75.53-16.683-16.554-42.885-22.158-63.939-26.66-72.59-15.522-152.991-32.714-232.934-32.714zm-87.199 447.197z"/><path fill="#ffd4cf" d="m231.825 328.334 3.17 2.26 6.922 4.93s27.545 12.647 36.4 18.769c7.552 5.21 24.673 0 29.434-7.842l5.493-16.279 23.646-70.154-26.534-17.134-27.103 59.528-8.955-6.157-10.796-6.25-6.298 7.627-.01.003-18.386 22.247-1.116 1.354-5.867 7.098z"/><linearGradient id="a" x1="-4901.947" x2="-4829.253" y1="1353.888" y2="1353.888" gradientTransform="scale(-1 1) rotate(22.032 72.61 12637.928)" gradientUnits="userSpaceOnUse"><stop offset="0" stop-color="#ffd4cf"/><stop offset="1" stop-color="#f8b7b3"/></linearGradient><path fill="url(#a)" d="m234.994 330.594 6.923 4.93s27.545 12.647 36.4 18.769c7.552 5.21 24.673 0 29.434-7.842l5.493-16.279c-8.165 1.34-16.967-1.068-23.907-5.775-3.72-2.532-6.998-5.672-9.843-9.148-2.552-3.122-4.752-6.516-6.687-10.049a10.15 10.15 0 0 1-.017-.031c-1.148-2.103-1.032-4.672.185-6.737.426-.723.868-1.448 1.323-2.177l-10.796-6.25-6.298 7.627-.01.003c-3.06.928-5.925 2.55-8.012 4.317-5.467 4.638-8.68 11.371-11.09 18.123-.133.387-.276.777-.4 1.16a89.73 89.73 0 0 0-2.698 9.36z"/><path fill="#ea4234" d="m214.09 270.636 14.34 25.966 12.066 38.274 7.557 5.75c14.389-10.622 21.165-27.03 20.963-48.744-27.482-15.485-54.926-21.246-54.926-21.246z"/><path fill="#c10b06" d="M261.538 325.388c-3.596-.898-8.136-2.57-11.456-6.638-3.703-4.54-6.571-15.474-9.709-20.335-1.681-2.615-4.977-11.159-8.876-9.41-1.206.546-.867 6.99-.114 14.221l9.113 31.65 7.557 5.75c5.67-4.186 10.14-9.285 13.485-15.238z"/><linearGradient id="b" x1="87.249" x2="193.595" y1="206.783" y2="265.232" gradientUnits="userSpaceOnUse"><stop offset="0" stop-color="#191923"/><stop offset="1" stop-color="#0c0c14"/></linearGradient><path fill="url(#b)" d="M222.299 197.358c-8.294 3.953-3.91 24.06-13.47 40.11-3.95 6.63-7.87 7.3-7.87 7.3s-8.29-10.37-11.81-.27c-.11.3-10.28 10.25-15.23 15.08 1.2 6.8 1.71 13.99-.95 22.61-9.74 31.5-40.42 18.36-40.42 18.36-50.37 45.62-44.23-5.96-44.23-5.96-38.43 5.88-21.26-51.07-21.26-51.07 21.59 42.81 41.38-48.46 76.55-63.56 13.63-5.85 23.15-2.98 29.4 1.66.94-.89 1.91-1.74 2.92-2.56.45-.36.84-.66 1.16-.89 37.47-26.56 66.615 8.988 45.21 19.19z"/><path fill="#262c51" d="M96.763 629.9c.938 0 1.773-.667 1.953-1.622l30.57-161.913a1.99 1.99 0 1 0-3.911-.739l-30.57 161.913a1.99 1.99 0 0 0 1.958 2.36zM262.373 629.9a1.99 1.99 0 0 0 1.958-2.36l-30.57-161.914a1.99 1.99 0 1 0-3.912.739l30.57 161.913a1.991 1.991 0 0 0 1.954 1.621z"/><linearGradient id="c" x1="3164.353" x2="3195.338" y1="587.489" y2="587.489" gradientTransform="translate(-2848.495)" gradientUnits="userSpaceOnUse"><stop offset="0" stop-color="#ececec"/><stop offset=".987" stop-color="#e0e0e0"/></linearGradient><path fill="url(#c)" d="M346.843 577.168v28.368l-24.338 3.274-5.5-3.47-1.147-12.554v-26.618z"/><path fill="#191923" d="M387.116 620.48h-.013a21.775 21.775 0 0 1-.868 2.519 4.642 4.642 0 0 1-3.177 2.73c-.7.167-1.456.335-2.24.475-17.045 3.219-52.705 1.021-63.859.21a4.69 4.69 0 0 1-4.269-3.639c-.223-.966-.42-1.89-.615-2.813-2.575-13.225-2.813-25.247 3.778-27.178 1.61-.462 3.191 5.472 4.913 6.773 3.89 2.953 11.881 4.045 16.752 1.89.924-.42 1.721-.938 2.38-1.582 2.854-2.841.069-12.077 8.06-11.294 6.788.658 5.906 5.85 7.068 8.313.853 1.833 2.183 3.247 3.793 4.38 6.955 4.8 19.453 4.13 25.079 7.544.517.308.98.658 1.371 1.05 3.079 3.078 2.743 7.375 1.847 10.622z"/><path fill="#aecbfa" d="M387.112 620.486h-.014a21.768 21.768 0 0 1-.867 2.52 4.641 4.641 0 0 1-3.177 2.728c-.7.168-1.456.336-2.24.475-17.046 3.22-52.705 1.023-63.859.21a4.692 4.692 0 0 1-4.269-3.638c-.224-.966-.42-1.89-.616-2.813l.015-.014s34.048 3.202 57.448 2.543c4.1-.116 7.639-2.945 8.633-6.924.282-1.129.6-2.14.927-2.77.742-1.47 1.792-2.87 3.275-3.57.49-.223.993-.363 1.525-.419.518.308.98.657 1.372 1.05 3.079 3.079 2.743 7.375 1.847 10.622z"/><path fill="#262c51" d="M314.482 580.035c0 5.584 33.737 5.584 33.737 0v-13.867h-33.737v13.867z"/><linearGradient id="d" x1="2755.474" x2="2786.459" y1="-532.391" y2="-532.391" gradientTransform="rotate(16.193 -2396.85 -8926.678)" gradientUnits="userSpaceOnUse"><stop offset="0" stop-color="#ececec"/><stop offset=".987" stop-color="#e0e0e0"/></linearGradient><path fill="url(#d)" d="m242.702 570.181-7.912 27.243-24.285-3.643-4.314-4.867 2.399-12.375 7.423-25.562z"/><path fill="#191923" d="m269.298 623.006-.013-.003a21.764 21.764 0 0 1-1.536 2.177 4.642 4.642 0 0 1-3.812 1.735 38.966 38.966 0 0 1-2.283-.168c-17.267-1.662-50.9-13.718-61.384-17.608a4.69 4.69 0 0 1-3.085-4.684c.055-.99.124-1.932.193-2.873 1.215-13.419 4.34-25.03 11.208-25.047 1.675.005 1.539 6.145 2.829 7.875 2.913 3.921 10.282 7.198 15.56 6.486 1.005-.145 1.915-.42 2.726-.855 3.534-1.932 3.436-11.579 10.891-8.598 6.335 2.525 4.04 7.265 4.469 9.955.309 1.998 1.191 3.726 2.42 5.264 5.341 6.55 17.53 9.39 21.981 14.238.412.44.758.905 1.025 1.39 2.098 3.816.577 7.848-1.189 10.716z"/><path fill="#aecbfa" d="m269.293 623.01-.014-.003a21.774 21.774 0 0 1-1.535 2.178 4.641 4.641 0 0 1-3.812 1.734 38.378 38.378 0 0 1-2.283-.168c-17.268-1.662-50.9-13.717-61.385-17.607a4.692 4.692 0 0 1-3.085-4.685c.055-.99.124-1.931.194-2.873l.017-.01s31.804 12.57 54.46 18.463c3.97 1.033 8.157-.697 10.222-4.241.585-1.005 1.171-1.887 1.662-2.402 1.123-1.204 2.52-2.256 4.14-2.514a4.868 4.868 0 0 1 1.583.023c.41.44.757.904 1.024 1.39 2.098 3.816.577 7.848-1.188 10.716z"/><path fill="#262c51" d="M210.825 563.91c-1.557 5.362 30.84 14.77 32.398 9.409L247.09 560l-32.398-9.408-3.867 13.317z"/><path fill="#98b1e6" d="M66.55 305.876h136.478c3.878 0 7.301 1.99 8.437 4.903l31.844 142.035c1.736 4.456-2.505 8.962-8.436 8.962H99.029c-3.878 0-7.301-1.99-8.436-4.903l-32.48-142.036c-1.736-4.456 2.506-8.961 8.437-8.961zM284.703 461.776H91.729a4.22 4.22 0 0 0 0 8.438h193.155a4.22 4.22 0 0 0 4.199-4.633c-.21-2.194-2.177-3.805-4.38-3.805z"/><path fill="#30355c" d="m257.077 393.76 2.32-1.305h29.59c22.443 0 41.871 15.596 46.725 37.508L354.2 563.828c.51 11.492-46.238 13.832-46.748 2.34-12.589-38.342-32.436-122.462-32.436-122.462l-51.015-13.338 33.076-36.609z"/><path fill="#ea4234" d="M228.17 277.6c-17.174-14.56-68.397-13.69-85.014 1.5-21.516 19.669-10.338 116.085-10.338 116.085l113.008-2.944c-.31 7.01-3.23-102.41-17.657-114.64z"/><path fill="#c10b06" d="M173.075 322.857c.136 9.236.76 19.243 6.736 26.286 4.146 4.886 10.363 7.609 16.642 8.887 6.28 1.277 12.737 1.263 19.136 1.595a174.92 174.92 0 0 1 34.493 5.282c-3.23 6.432-8.673 11.728-15.192 14.78-6.584 3.083-14.005 3.861-21.273 4.003a134.327 134.327 0 0 1-47.603-7.755c-6.409-2.285-12.882-5.235-17.231-10.468-4.123-4.961-5.9-11.496-6.48-17.92-1.003-11.098 1.51-22.403 6.732-32.216 2.693-5.06 6.111-9.738 10.154-13.804 1.463-1.472 4.225-4.92 6.423-5.081 2.787-.205 4.01 3.24 4.813 5.35 2.537 6.668 2.547 14.027 2.65 21.061z"/><path fill="#30355c" d="M127.678 393.394s-4.825 57.001 21.507 65.671 90.698 2.235 90.698 2.235l-29.826 87.944c-3.542 9.8 37.653 24.69 41.195 14.89 0 0 30.202-48.365 55.362-108.971 12.429-29.938 2.667-63.097-29.748-62.886l-149.188 1.117z"/><path fill="#af5d54" d="M49.935 391.455H575.83v7.457H49.935z"/><path fill="#af5d54" d="M-41.292 509.739h239.648v5.972H-41.292z" transform="rotate(-78.795 78.532 512.725)"/><path fill="#af5d54" d="M553.468 392.901h5.972v239.648h-5.972z" transform="rotate(-11.206 556.454 512.724)"/><path fill="#ffd4cf" d="M116.522 368.937c.408 12.72 10.858 23.1 23.886 23.1l101.156-.337-.206-29.903-82.399-6.724.548-5.862 1.532-16.611-35.033-16.68-.766-.369-.13.727-8.539 50.021c-.07.886-.09 1.772-.05 2.638z"/><linearGradient id="e" x1="-5647.026" x2="-5647.026" y1="353.925" y2="336.401" gradientTransform="matrix(-1 0 0 1 -5508.256 0)" gradientUnits="userSpaceOnUse"><stop offset="0" stop-color="#ffd4cf"/><stop offset="1" stop-color="#f8b7b3"/></linearGradient><path fill="url(#e)" d="M116.522 368.937c.756-1.195 1.502-2.399 2.318-3.544 4.967-6.877 12.68-11.445 20.831-13.784 6.28-1.811 12.62-2.17 19.1-2.379.248-.01.487-.01.736-.02l1.532-16.61-35.033-16.68c-.149.05-.288.109-.438.168-.149.06-.308.13-.457.19l-8.54 50.021c-.07.886-.09 1.772-.05 2.638z"/><path fill="#ea4234" d="M114.73 337.974c-.269 6.987 50.738 12.142 51.007 5.156.03-.797 1.164-12.51 3.314-24.971 6.29-36.536-25.13-39.98-25.15-39.95 0 0-15.188 9.833-29.17 59.765z"/><path fill="#98b1e6" d="M271.87 391.455h110.94v-9.144H281.013a9.144 9.144 0 0 0-9.144 9.144z"/><path fill="#aecbfa" d="M456.982 314.7H356.311a4 4 0 0 0-3.836 2.867l-21.59 73.029c-.121.41.23.859.673.859h107.664c.25 0 .471-.165.542-.406l21.054-71.215c.835-2.823-.891-5.133-3.836-5.133z"/><path fill="#ffd4cf" d="m200.205 272.821.748-6.997.142-1.37 2.21-20.665-9.098-4.695-3.209-1.655-5.737-2.966-9.182-3.31c1.142 9.695-2.24 25.359-5.3 37.24-2.285 8.869 28.145 5.868 29.426 4.418z"/><linearGradient id="f" x1="-5695.239" x2="-5711.034" y1="237.573" y2="246.918" gradientTransform="matrix(-1 0 0 1 -5508.256 0)" gradientUnits="userSpaceOnUse"><stop offset="0" stop-color="#ffd4cf"/><stop offset="1" stop-color="#f8b7b3"/></linearGradient><path fill="url(#f)" d="m201.925 257.68.143-1.37 2.21-20.665-9.098-4.696c-2.218 1.252-15.22-2.99-15.413.732-.53 10.207 15.05 24.974 22.158 25.998z"/><path fill="#ffd4cf" d="M223.347 201.222c-.359-1.39-.71-2.68-1.045-3.862-8.8 2.638-25.056-.388-34.61 15.66-3.958 6.634-7.875 7.304-7.875 7.304s-8.29-10.372-11.81-.279c0 .002-.004.006-.005.008-1.12 3.207-.864 11.095 8.608 12.347 1.687 2.074 3.484 4.31 5.417 6.523l.01.008c8.538 9.782 19.704 19.23 35.046 13.177 15.404-6.08 10.456-34.722 6.264-50.886z"/><linearGradient id="g" x1="-5728.824" x2="-5724.841" y1="213.575" y2="213.575" gradientTransform="matrix(-1 0 0 1 -5508.256 0)" gradientUnits="userSpaceOnUse"><stop offset="0" stop-color="#191923"/><stop offset="1" stop-color="#0c0c14"/></linearGradient><path fill="url(#g)" d="M220.54 213.15c.182 1.726-.55 3.31-1.636 3.542-1.086.232-2.11-.976-2.292-2.703-.18-1.716.552-3.3 1.638-3.532 1.086-.232 2.11.977 2.29 2.692z"/><linearGradient id="h" x1="-5731.076" x2="-5720.937" y1="205.845" y2="205.845" gradientTransform="matrix(-1 0 0 1 -5508.256 0)" gradientUnits="userSpaceOnUse"><stop offset="0" stop-color="#191923"/><stop offset="1" stop-color="#0c0c14"/></linearGradient><path fill="url(#h)" d="M222.073 207.604a.746.746 0 0 0 .43-1.358c-3.984-2.796-7.503-2.881-9.655-.231a.746.746 0 1 0 1.159.94c2.071-2.55 5.296-1.129 7.638.513a.74.74 0 0 0 .428.136z"/><linearGradient id="i" x1="-5711.277" x2="-5707.246" y1="218.274" y2="218.274" gradientTransform="matrix(-1 0 0 1 -5508.256 0)" gradientUnits="userSpaceOnUse"><stop offset="0" stop-color="#191923"/><stop offset="1" stop-color="#0c0c14"/></linearGradient><path fill="url(#i)" d="M202.918 217.657c.35 1.7-.22 3.349-1.279 3.687-1.058.338-2.196-.764-2.547-2.464-.348-1.69.224-3.338 1.282-3.676 1.058-.338 2.196.764 2.544 2.453z"/><linearGradient id="j" x1="-5713.606" x2="-5702.871" y1="211.829" y2="211.829" gradientTransform="matrix(-1 0 0 1 -5508.256 0)" gradientUnits="userSpaceOnUse"><stop offset="0" stop-color="#191923"/><stop offset="1" stop-color="#0c0c14"/></linearGradient><path fill="url(#j)" d="M195.361 214.822a.746.746 0 0 0 .626-.338c2.204-3.372 5.196-4.755 8.425-3.897a.745.745 0 1 0 .384-1.442c-3.9-1.04-7.474.567-10.06 4.523a.746.746 0 0 0 .625 1.154z"/><path fill="#f8b7b3" d="M208.45 216.05c-.246.993-.062 2.02.14 3.008.241.988.607 1.964 1.219 2.871a5 5 0 0 0 1.168 1.25 3.925 3.925 0 0 0 1.265.64l.34.1c.837.247 1.636.583 2.277 1.067.656.468 1.131 1.088 1.366 1.76a2.361 2.361 0 0 1-.256 2.037c-.402.623-1.136 1.09-1.99 1.342-.863.25-1.826.295-2.816.261.889.44 1.892.688 2.956.674 1.045-.052 2.218-.406 3.034-1.327.846-.884 1.157-2.265.864-3.46-.278-1.208-1.063-2.208-1.971-2.876-.91-.695-1.953-1.09-2.985-1.335l-.365-.085c-.076-.015-.155-.028-.232-.057a2.06 2.06 0 0 1-.474-.213c-.318-.187-.616-.463-.914-.77-.581-.628-1.087-1.412-1.53-2.237-.439-.831-.872-1.694-1.095-2.65zM211.585 241.98c.246 0 .483-.014.712-.042 2.501-.312 3.32-1.56 3.585-2.276a.747.747 0 0 0-1.4-.518c-.148.398-.652 1.099-2.37 1.312-1.783.221-4.598-.778-6.015-1.812a.746.746 0 1 0-.88 1.205c1.498 1.095 4.215 2.13 6.368 2.13zM177.256 222.989c-.794-1.481-2.784-2.39-4.656-1.958-.94.186-1.8.647-2.528 1.388a3.748 3.748 0 0 0-.82 1.366 2.814 2.814 0 0 0-.006 1.815c.218.623.68 1.099 1.119 1.396.45.298.892.48 1.31.618.796.233 1.723.558 2.783.348 1.085-.19 2.039-1.074 2.053-2.244-.023-.569-.343-1.104-.84-1.312-.506-.23-1.09.029-1.224.438.32-.277.762-.18.935.033.2.22.248.532.155.764-.156.476-.768.814-1.267.78-.563-.021-1.221-.243-1.924-.568-.687-.287-1.163-.64-1.225-.92-.127-.257.014-.82.374-1.286.341-.473.93-.863 1.535-1.13 1.237-.522 2.81-.41 4.226.472z"/><path fill="#d32118" d="m172.474 260.987-10.33 9.239 25.727 19.486 5.833-15.61zM193.704 274.102l7.706 13.896 7.033-18.78-7.437-6.628z"/><ellipse cx="396.608" cy="355.933" fill="#d4e3f6" rx="9.96" ry="7.912" transform="rotate(-68.029 396.608 355.933)"/><path fill="#ffd4cf" d="M286.344 369.158c-.114-2.96-5.198-2.193-8.949-2.014 1.686-.611 6.321-1.358 4.611-5.396-1.7-3.975-25.16-1.134-25.16-1.134l-7.8.343-7.688.84.206 29.903s34.083 2.158 36.014-3.983c1.08-3.461-.897-4.821-3.301-5.38 3.781-.065 7.972-1.1 7.952-5.314-.002-1.966-1.851-2.492-3.291-2.592 2.65-.171 7.586-1.041 7.406-5.273z"/><path fill="#f8b7b3" d="M277.857 359.96c1.07.176 2.158.392 3.119.89.47.252.916.608 1.037 1.141.082.256.185.506.209.773.061.263.063.526.046.79a2.484 2.484 0 0 1-.598 1.417c-.354.389-.8.688-1.271.933-.96.484-2.008.726-3.065 1.064a.185.185 0 0 0 .062.361h.01c1.826-.062 3.649-.236 5.436-.117.878.071 1.795.203 2.47.648.338.22.54.545.651.903.088.369.018.807-.009 1.226-.156.822-.546 1.575-1.17 2.14-.641.545-1.422.93-2.245 1.213-1.663.522-3.487.691-5.23.621l.041.99h.001c1.288-.144 2.797-.089 3.769.612.485.346.69.906.695 1.536a4.65 4.65 0 0 1-.384 1.91c-.533 1.2-1.75 1.972-3.037 2.416-1.309.437-2.716.606-4.121.655h-.007a.252.252 0 0 0-.046.499c.698.154 1.381.38 1.984.736.586.368 1.093.883 1.31 1.542.234.65.23 1.38.095 2.082-.074.345-.149.717-.29 1.018-.164.3-.38.582-.658.806-1.109.914-2.555 1.368-3.953 1.756-1.418.374-2.867.627-4.32.84 1.458-.171 2.915-.383 4.35-.718 1.42-.354 2.882-.753 4.086-1.685.301-.23.553-.532.747-.87.181-.362.256-.717.348-1.085.162-.73.197-1.521-.047-2.268-.225-.756-.794-1.37-1.433-1.792-.653-.412-1.376-.671-2.105-.855l-.053.5c1.44-.01 2.895-.138 4.307-.564 1.38-.431 2.821-1.25 3.519-2.686.34-.7.5-1.47.52-2.229.037-.78-.272-1.714-.962-2.226-.66-.524-1.438-.744-2.184-.864a9.16 9.16 0 0 0-2.261-.052h-.002l-.02.003a.496.496 0 0 0 .06.987c1.895.02 3.751-.205 5.555-.822.89-.333 1.756-.784 2.488-1.447.723-.685 1.183-1.628 1.33-2.599.019-.49.09-.964-.045-1.493-.16-.507-.496-.972-.94-1.24-.882-.535-1.852-.614-2.772-.671-1.858-.07-3.674.16-5.485.272l.072.36c1.005-.353 2.09-.637 3.068-1.166.485-.27.948-.598 1.318-1.029.367-.436.571-.996.607-1.555.01-.282 0-.561-.072-.832-.034-.279-.147-.533-.239-.793-.143-.558-.643-.94-1.124-1.175-.995-.48-2.087-.66-3.162-.808z"/><path fill="#f8b7b3" d="M277.77 366.746c-1.539.018-3.074.098-4.607.184l-4.597.318-4.59.418c-1.53.154-3.059.31-4.592.5 1.54.134 3.083.16 4.624.169 1.542.007 3.08-.054 4.62-.093 1.535-.09 3.073-.157 4.606-.286 1.534-.128 3.065-.27 4.592-.49a.362.362 0 0 0-.057-.72zM277.433 374.147c-1.539.019-3.074.098-4.607.185l-4.597.318-4.59.417c-1.53.154-3.059.31-4.592.5 1.54.134 3.083.16 4.624.169 1.542.007 3.08-.054 4.62-.093 1.536-.09 3.073-.157 4.606-.286 1.534-.128 3.065-.27 4.592-.49a.362.362 0 0 0-.056-.72zM274.652 382.03c-1.538.019-3.073.099-4.606.185l-4.597.318-4.59.418c-1.53.153-3.059.309-4.592.5 1.54.133 3.083.16 4.624.168 1.542.008 3.08-.053 4.62-.092 1.535-.09 3.073-.157 4.606-.286 1.534-.128 3.065-.27 4.592-.491a.361.361 0 0 0-.057-.72z"/><path fill="#ffd4cf" d="M241.358 361.797s12.887-19.072 15.64-12.282c2.752 6.79-12.85 19.702-12.85 19.702"/><path fill="#aecbfa" d="M455.824 100.447H309.865c-3.314 0-6.535 2.686-7.196 6l-10.175 51.055c-.66 3.313 1.49 6 4.804 6h145.96c3.313 0 6.535-2.687 7.195-6l10.176-51.055c.66-3.314-1.49-6-4.805-6z"/><path fill="#d4e3f6" d="M449.8 100.447H303.84c-3.314 0-6.536 2.686-7.196 6l-10.176 51.055c-.66 3.313 1.49 6 4.805 6h145.959c3.314 0 6.535-2.687 7.196-6l10.175-51.055c.66-3.314-1.49-6-4.804-6z"/><linearGradient id="k" x1="324.672" x2="341.67" y1="131.974" y2="131.974" gradientUnits="userSpaceOnUse"><stop offset="0" stop-color="#fbbc04"/><stop offset="1" stop-color="#f29c03"/></linearGradient><path fill="url(#k)" d="M328.663 111.154c-11.498 0-22.022 9.321-23.504 20.82-1.482 11.5 6.638 20.82 18.137 20.82s22.022-9.32 23.505-20.82c1.482-11.499-6.639-20.82-18.138-20.82z"/><linearGradient id="l" x1="720.255" x2="799.58" y1="117.326" y2="117.326" gradientTransform="matrix(1 0 -.1993 1 -340.237 -.027)" gradientUnits="userSpaceOnUse"><stop offset="0" stop-color="#4285f4"/><stop offset=".997" stop-color="#185abc"/></linearGradient><path fill="url(#l)" d="M431.476 121.265h-71.94c-2.039 0-3.363-1.653-2.956-3.692l.109-.547c.406-2.04 2.39-3.693 4.429-3.693h71.939c2.04 0 3.363 1.653 2.957 3.693l-.11.547c-.406 2.04-2.389 3.692-4.428 3.692z"/><path fill="#aecbfa" d="M426.96 134.758h-68.286c-1.537 0-2.535-1.247-2.229-2.784.307-1.537 1.801-2.783 3.339-2.783h68.286c1.537 0 2.535 1.246 2.229 2.783-.307 1.537-1.801 2.784-3.339 2.784zM414.427 147.47H366.14c-1.537 0-2.535-1.246-2.228-2.783.306-1.538 1.8-2.784 3.338-2.784h48.286c1.537 0 2.535 1.246 2.229 2.784-.306 1.537-1.801 2.783-3.338 2.783z"/><path fill="#fff" d="M316.592 131.919c1.238.683 2.376 1.466 3.48 2.284a49.865 49.865 0 0 1 3.209 2.556h-1.85a70.117 70.117 0 0 1 6.454-6.559 53.605 53.605 0 0 1 3.574-2.932 33.103 33.103 0 0 1 3.909-2.596 33.173 33.173 0 0 1-2.597 3.908 53.377 53.377 0 0 1-2.932 3.575 70.171 70.171 0 0 1-6.558 6.453l-1.063.916-.786-.916a49.86 49.86 0 0 1-2.557-3.208c-.817-1.105-1.6-2.243-2.283-3.481z"/><path fill="#30355c" d="m310.209 155.412-14.631 5.415 5.077 3.216-6.299 9.957 5.846 3.702 6.299-9.957 5.087 3.222z"/><path fill="#ffd4cf" d="M311.31 249.575c-1.111 3.12 21.058 15.128 25.58 10.443 0 0 22.362-22.106 16.77-27.745-3.213-3.24-5.137-2.127-6.19-.603.704-2.224 1.074-5.455-1.57-7.752-2.611-2.261-3.593.057-4.36 1.936.379-1.794.895-5.422-1.577-7.023-3.667-2.374-5.481-1.017-6.977 1.16 2.485-6.088 7.751-25.988 3.473-28.476-9.363-5.473-16.08 33.161-16.193 34.256 0 0-5.42-15.207-9.126-10.739-4.659 5.619.17 34.543.17 34.543z"/><path fill="#f8b7b3" d="M347.552 248.03a75.633 75.633 0 0 0 3.54-5.23c1.08-1.794 2.102-3.652 2.71-5.63.292-.98.503-2.007.369-2.972-.11-.993-.713-1.679-1.54-2.338-.774-.637-1.666-1.183-2.565-1.238-.897-.064-1.676.515-2.207 1.317a.471.471 0 0 1-.844-.396l.004-.015c.34-1.12.52-2.286.423-3.41-.084-1.127-.496-2.19-1.203-3.035-.67-.798-1.777-1.66-2.454-1.463-.702.171-1.246 1.398-1.668 2.47a.622.622 0 0 1-1.188-.352l.002-.012c.253-1.246.391-2.52.21-3.706-.177-1.197-.722-2.2-1.743-2.764-1.052-.64-2.234-1.152-3.269-.965-1.03.164-1.878 1.05-2.576 2.09a.687.687 0 0 1-1.21-.635l.006-.015c1.052-2.676 1.848-5.507 2.607-8.317.751-2.82 1.4-5.669 1.873-8.537.439-2.85.832-5.804.42-8.548-.147-.848-.445-1.973-1.23-2.325-.289-.1-.56-.312-.86-.316-1.171-.278-2.389.4-3.337 1.398-.975.974-1.764 2.192-2.466 3.444-.711 1.252-1.329 2.57-1.894 3.911-1.135 2.682-2.08 5.455-2.929 8.258-1.717 5.6-3.115 11.311-4.267 17.072.813-5.823 2.024-11.59 3.54-17.283.782-2.84 1.665-5.66 2.75-8.418.541-1.38 1.138-2.742 1.844-4.063.701-1.32 1.486-2.622 2.563-3.759.261-.288.582-.537.875-.802 2.186-1.586 3.416-1.071 4.77-.55.4.177.784.546 1.046.9.517.744.71 1.54.858 2.306.479 3.085.072 6.052-.344 8.988-.965 5.86-2.388 11.585-4.545 17.16l-1.204-.649c.756-1.097 1.843-2.362 3.492-2.636 1.628-.24 3.013.475 4.175 1.175.612.361 1.235.933 1.61 1.591.393.66.605 1.387.71 2.098.202 1.433.022 2.824-.256 4.154l-1.186-.364c.235-.565.477-1.15.822-1.73.335-.554.84-1.223 1.71-1.45.887-.19 1.643.192 2.178.569.546.399 1.036.838 1.444 1.368.833 1.044 1.296 2.367 1.358 3.666.078 1.304-.162 2.578-.555 3.77l-.84-.41c.618-.925 1.77-1.777 3.041-1.645 1.23.12 2.194.802 3.017 1.501.412.368.8.707 1.153 1.22.339.49.505 1.069.576 1.635.107 1.144-.177 2.221-.52 3.236-.72 2.033-1.83 3.857-2.99 5.621-1.17 1.763-2.467 3.432-3.806 5.06z"/><linearGradient id="m" x1="503.127" x2="503.127" y1="382.574" y2="372.939" gradientUnits="userSpaceOnUse"><stop offset="0" stop-color="#fbbc04"/><stop offset="1" stop-color="#f29c03"/></linearGradient><path fill="url(#m)" d="M476.289 369.734c-5.998 0-10.86 4.863-10.86 10.86 0 5.999 4.862 10.861 10.86 10.861h64.536v-21.72h-64.536z"/><linearGradient id="n" x1="543.645" x2="543.645" y1="373.471" y2="397.016" gradientUnits="userSpaceOnUse"><stop offset="0" stop-color="#fbbc04"/><stop offset=".997" stop-color="#d80"/></linearGradient><path fill="url(#n)" d="M564.68 369.734h-33.167c-5.928 0-10.747 4.75-10.858 10.653-.115 6.086 5.055 11.068 11.143 11.068h32.882a1.958 1.958 0 0 0 1.958-1.957v-17.806a1.958 1.958 0 0 0-1.958-1.958z"/><linearGradient id="o" x1="545.277" x2="545.277" y1="385.875" y2="377.518" gradientUnits="userSpaceOnUse"><stop offset="0" stop-color="#d4e3f6"/><stop offset="1" stop-color="#fff"/></linearGradient><path fill="url(#o)" d="M566.638 372.997h-35.125c-4.111 0-7.52 3.342-7.596 7.451-.037 1.972.734 3.865 2.172 5.33a8.056 8.056 0 0 0 5.709 2.415h34.84v-15.196z"/><linearGradient id="p" x1="526.028" x2="526.028" y1="360.853" y2="351.218" gradientUnits="userSpaceOnUse"><stop offset="0" stop-color="#ea4234"/><stop offset=".997" stop-color="#d32118"/></linearGradient><path fill="url(#p)" d="M570.232 348.013h-88.409a3.387 3.387 0 0 0-3.387 3.388v14.946a3.387 3.387 0 0 0 3.387 3.387h88.409a3.387 3.387 0 0 0 3.387-3.387V351.4a3.387 3.387 0 0 0-3.387-3.388z"/><linearGradient id="q" x1="559.059" x2="561.964" y1="358.874" y2="358.874" gradientUnits="userSpaceOnUse"><stop offset="0" stop-color="#d4e3f6"/><stop offset="1" stop-color="#fff"/></linearGradient><path fill="url(#q)" d="M559.059 348.014h2.905v21.721h-2.905z"/><linearGradient id="r" x1="548.569" x2="555.192" y1="358.874" y2="358.874" gradientUnits="userSpaceOnUse"><stop offset="0" stop-color="#d4e3f6"/><stop offset="1" stop-color="#fff"/></linearGradient><path fill="url(#r)" d="M548.569 348.014h6.623v21.721h-6.623z"/><linearGradient id="s" x1="490.091" x2="492.996" y1="358.873" y2="358.873" gradientUnits="userSpaceOnUse"><stop offset="0" stop-color="#d4e3f6"/><stop offset="1" stop-color="#fff"/></linearGradient><path fill="url(#s)" d="M490.091 348.013h2.905v21.721h-2.905z"/><linearGradient id="t" x1="496.863" x2="503.486" y1="358.873" y2="358.873" gradientUnits="userSpaceOnUse"><stop offset="0" stop-color="#d4e3f6"/><stop offset="1" stop-color="#fff"/></linearGradient><path fill="url(#t)" d="M496.863 348.013h6.623v21.721h-6.623z"/><linearGradient id="u" x1="527.489" x2="527.489" y1="333.351" y2="352.547" gradientUnits="userSpaceOnUse"><stop offset="0" stop-color="#58a65f"/><stop offset="1" stop-color="#267340"/></linearGradient><path fill="url(#u)" d="M561.839 330.304h-61.442a8.855 8.855 0 0 0-8.852 8.686c-.094 4.962 4.121 9.023 9.084 9.023h61.21c.88 0 1.595-.714 1.595-1.596V331.9c0-.881-.714-1.596-1.595-1.596z"/><linearGradient id="v" x1="529.473" x2="529.473" y1="342.397" y2="337.026" gradientUnits="userSpaceOnUse"><stop offset="0" stop-color="#d4e3f6"/><stop offset="1" stop-color="#fff"/></linearGradient><path fill="url(#v)" d="M563.434 334.272h-63.036c-2.644 0-4.837 2.15-4.886 4.791-.024 1.254.472 2.464 1.397 3.406a5.253 5.253 0 0 0 3.72 1.577h62.805v-9.774z"/><path fill="#ea4234" d="M640.865 584.834c-1.666-3.435-3.901-6.426-6.374-9.268-2.51-2.794-5.324-5.368-8.455-7.617-3.155-2.21-6.62-4.185-10.466-5.398-3.866-1.12-8.096-1.64-12.203-.781a4.601 4.601 0 0 0-.5 8.873l.562.184c3 .986 5.821 1.606 8.755 2.557 2.903 1.002 5.94 1.934 8.994 3.171 6.082 2.543 12.2 5.797 18.644 9.234l.033.018a.738.738 0 0 0 1.01-.973zM651.324 584.834c1.667-3.435 3.902-6.426 6.375-9.268 2.51-2.794 5.323-5.368 8.455-7.617 3.155-2.21 6.62-4.185 10.466-5.398 3.866-1.12 8.095-1.64 12.203-.781a4.601 4.601 0 0 1 .5 8.873l-.562.184c-3 .986-5.822 1.606-8.755 2.557-2.904 1.002-5.94 1.934-8.995 3.171-6.082 2.543-12.2 5.797-18.644 9.234l-.032.018a.738.738 0 0 1-1.01-.973z"/><path fill="#58a65f" d="M646.061 588.535c-.067-6.175-1.272-12.094-2.928-17.957-1.744-5.82-4.083-11.527-7.112-16.979-3.09-5.41-6.797-10.692-11.586-15.12-4.882-4.308-10.71-7.988-17.313-9.566a7.443 7.443 0 0 0-6.856 12.636l.695.657c3.708 3.512 7.408 6.368 11.044 9.784 3.556 3.469 7.354 6.928 10.97 10.846 7.142 7.919 13.846 16.9 20.9 26.377l.036.049a1.194 1.194 0 0 0 2.15-.727zM649.886 587.722c.07-6.424 1.324-12.58 3.046-18.68 1.814-6.054 4.248-11.99 7.399-17.661 3.214-5.628 7.07-11.123 12.05-15.73 5.08-4.48 11.143-8.308 18.01-9.95a7.742 7.742 0 0 1 7.133 13.144l-.724.684c-3.857 3.654-7.706 6.624-11.488 10.177-3.699 3.609-7.65 7.207-11.41 11.283-7.43 8.237-14.404 17.58-21.742 27.438l-.037.05a1.242 1.242 0 0 1-2.237-.755z"/><path fill="#ea4234" d="M647.698 589.327c4.317-8.033 6.98-16.545 9.021-25.308 1.896-8.77 2.941-17.817 2.913-27.026-.137-9.2-1.162-18.672-4.196-27.814-3.241-9.051-8.153-17.967-15.564-24.716-4.488-4.087-11.439-3.762-15.526.726a10.984 10.984 0 0 0-2.351 10.722l.43 1.346c2.29 7.186 5.038 13.517 7.302 20.527 2.124 7.022 4.568 14.203 6.448 21.848 3.588 15.333 5.85 31.728 8.214 49.013l.01.087a1.764 1.764 0 0 0 1.985 1.507 1.78 1.78 0 0 0 1.314-.912z"/><path fill="#d4e3f6" d="M611.345 583.648v10.921c0 1.074.887 1.96 1.96 1.96h66.648c1.073 0 1.96-.886 1.96-1.96v-10.921c0-1.074-.887-1.96-1.96-1.96h-66.648c-1.073 0-1.96.886-1.96 1.96zM617.768 596.531l9.59 34.314h38.546l8.463-30.312 1.127-4.002z"/><path fill="#aecbfa" d="m617.768 596.531 9.59 34.314h4.76c-2.207-10.05-3.817-20.285-6.14-30.312h48.39l1.126-4.002h-57.726zM670.617 224.98h-153.44c-5.967 0-10.177-4.837-9.403-10.805L524.792 79.96c.774-5.968 6.24-10.806 12.207-10.806h153.44c5.968 0 10.178 4.838 9.404 10.806l-17.018 134.214c-.774 5.968-6.24 10.806-12.208 10.806z"/><path fill="#d4e3f6" d="M664.757 224.98h-153.44c-5.968 0-10.178-4.837-9.404-10.805L518.931 79.96c.774-5.968 6.24-10.806 12.208-10.806h153.44c5.967 0 10.178 4.838 9.403 10.806l-17.018 134.214c-.774 5.968-6.24 10.806-12.207 10.806z"/><path fill="#fff" d="M516.143 190.747c-.114 0-.198-.011-.253-.022a1.331 1.331 0 0 1 .006-.362l12.036-108.835c.177-1.367 1.716-2.76 3.05-2.76h153.44c.113 0 .198.011.252.023.011.072.016.192-.006.36l-12.036 108.836c-.177 1.367-1.716 2.76-3.05 2.76h-153.44z"/><linearGradient id="w" x1="599.083" x2="622.417" y1="131.385" y2="131.385" gradientUnits="userSpaceOnUse"><stop offset="0" stop-color="#ea4234"/><stop offset=".997" stop-color="#d32118"/></linearGradient><path fill="url(#w)" d="M604.562 102.803c-15.786 0-30.232 12.797-32.266 28.582-2.035 15.786 9.112 28.582 24.898 28.582s30.232-12.796 32.266-28.582c2.035-15.785-9.112-28.582-24.898-28.582z"/><path fill="#fff" d="m595.993 118.464-3.014 25.842 20.813-12.92z"/><path fill="#aecbfa" d="M661.45 212.2H518.166c-1.538 0-2.535-1.246-2.229-2.784.306-1.537 1.801-2.783 3.338-2.783H662.56c1.538 0 2.536 1.246 2.23 2.783-.307 1.538-1.802 2.784-3.34 2.784z"/><linearGradient id="x" x1="544.441" x2="544.441" y1="208.515" y2="213.248" gradientUnits="userSpaceOnUse"><stop offset="0" stop-color="#4285f4"/><stop offset=".997" stop-color="#185abc"/></linearGradient><path fill="url(#x)" d="M573.002 206.633h-53.728c-1.537 0-3.032 1.246-3.338 2.783s.692 2.784 2.229 2.784h54.837v-5.567z"/><linearGradient id="y" x1="570.098" x2="577.953" y1="209.416" y2="209.416" gradientUnits="userSpaceOnUse"><stop offset="0" stop-color="#ea4234"/><stop offset=".997" stop-color="#d32118"/></linearGradient><path fill="url(#y)" d="M571.943 199.795c-5.314 0-10.177 4.308-10.862 9.621-.685 5.314 3.068 9.622 8.381 9.622 5.314 0 10.177-4.308 10.862-9.622.685-5.313-3.068-9.62-8.381-9.62z"/><linearGradient id="z" x1="420.856" x2="455.845" y1="230.044" y2="195.054" gradientUnits="userSpaceOnUse"><stop offset="0" stop-color="#d4e3f6"/><stop offset="1" stop-color="#98b1e6"/></linearGradient><path fill="url(#z)" d="M453.123 222.113v-5.83h-4.949a16.297 16.297 0 0 0-2.778-6.65l3.522-3.522-4.13-4.114-3.507 3.507a16.425 16.425 0 0 0-6.665-2.764v-4.964h-5.83v4.964a16.275 16.275 0 0 0-6.65 2.764l-3.522-3.507-4.13 4.114 3.523 3.522a16.274 16.274 0 0 0-2.763 6.65h-4.965v5.83h4.965a16.417 16.417 0 0 0 2.763 6.665l-3.507 3.507 4.114 4.13 3.522-3.522a16.297 16.297 0 0 0 6.65 2.778v4.95h5.83v-4.95a16.632 16.632 0 0 0 6.665-2.763l3.507 3.507 4.13-4.13-3.507-3.507a16.63 16.63 0 0 0 2.763-6.665h4.95zm-21.422 5.486c-4.628 0-8.4-3.754-8.4-8.401 0-4.629 3.772-8.4 8.4-8.4s8.4 3.771 8.4 8.4c0 4.647-3.771 8.4-8.4 8.4z"/><linearGradient id="A" x1="409.305" x2="454.025" y1="241.509" y2="196.79" gradientUnits="userSpaceOnUse"><stop offset="0" stop-color="#d4e3f6"/><stop offset="1" stop-color="#98b1e6"/></linearGradient><path fill="url(#A)" d="M431.702 250.831c-.253 0-.505-.003-.757-.009l.049-1.999a30.65 30.65 0 0 0 2.953-.075l.148 1.994c-.793.06-1.598.09-2.393.09zm-7.003-.778a31.613 31.613 0 0 1-3.036-.849l.634-1.896c.932.31 1.888.578 2.843.795l-.441 1.95zm15.596-.403-.54-1.926c.94-.264 1.881-.581 2.796-.942l.733 1.862c-.978.385-1.984.723-2.989 1.006zm-24.376-3.03a31.869 31.869 0 0 1-2.648-1.71l1.168-1.624a29.38 29.38 0 0 0 2.48 1.6l-1 1.733zm32.965-.857-1.088-1.679a29.992 29.992 0 0 0 2.396-1.727l1.248 1.563a31.904 31.904 0 0 1-2.556 1.843zm-40.338-5.012a32.015 32.015 0 0 1-2.03-2.41l1.591-1.212a29.91 29.91 0 0 0 1.902 2.258l-1.463 1.364zm47.398-1.23-1.531-1.285c.63-.75 1.23-1.542 1.783-2.354l1.652 1.127a31.43 31.43 0 0 1-1.904 2.513zm-52.725-6.544a31.359 31.359 0 0 1-1.231-2.903l1.879-.686c.335.917.722 1.831 1.151 2.716l-1.799.873zm57.644-1.497-1.844-.778c.382-.904.72-1.838 1.009-2.774l1.912.588c-.308 1-.67 1.997-1.077 2.964zm-60.437-7.505a31.97 31.97 0 0 1-.317-3.135l1.998-.103c.05.987.15 1.975.296 2.938l-1.977.3zm62.753-1.63-1.99-.198a29.89 29.89 0 0 0 .146-2.949v-.128h2v.128c0 1.05-.053 2.11-.156 3.147zm-60.794-7.501-1.978-.291a31.81 31.81 0 0 1 .614-3.092l1.94.487c-.24.953-.433 1.927-.576 2.896zm58.344-1.636a29.346 29.346 0 0 0-.737-2.859l1.908-.596c.312.997.577 2.024.788 3.052l-1.959.403zm-55.765-6.805-1.802-.865c.45-.943.957-1.875 1.502-2.77l1.709 1.04a29.86 29.86 0 0 0-1.409 2.595zm52.714-1.477a29.753 29.753 0 0 0-1.551-2.513l1.646-1.134c.592.858 1.148 1.76 1.657 2.681l-1.752.966zm-47.752-5.828-1.468-1.357c.71-.77 1.466-1.512 2.25-2.207l1.328 1.497a29.776 29.776 0 0 0-2.11 2.067zm42.391-1.188a30.038 30.038 0 0 0-2.222-1.947l1.242-1.568a31.998 31.998 0 0 1 2.37 2.077l-1.39 1.438zm-35.505-4.339-1.006-1.728a31.367 31.367 0 0 1 2.8-1.448l.828 1.82c-.89.405-1.772.861-2.622 1.356zm28.318-.796c-.873-.444-1.779-.85-2.694-1.206l.725-1.864c.977.38 1.945.813 2.878 1.288l-.909 1.782zm-20.11-2.453-.45-1.95a31.927 31.927 0 0 1 3.102-.553l.254 1.984c-.975.124-1.954.299-2.907.519zm11.733-.328a29.661 29.661 0 0 0-2.93-.354l.14-1.995c1.045.073 2.098.2 3.128.378l-.338 1.97z"/><linearGradient id="B" x1="81.227" x2="152.936" y1="187.35" y2="226.762" gradientUnits="userSpaceOnUse"><stop offset="0" stop-color="#191923"/><stop offset="1" stop-color="#0c0c14"/></linearGradient><path fill="url(#B)" d="M175.362 185.957s-39.947-30.962-67.522 15.982-50.2 28.327-50.2 28.327 26.16-.718 37.827-25.342 42.422-54.673 79.895-18.967z"/><linearGradient id="C" x1="175.066" x2="186.401" y1="212.805" y2="219.034" gradientUnits="userSpaceOnUse"><stop offset="0" stop-color="#191923"/><stop offset="1" stop-color="#0c0c14"/></linearGradient><path fill="url(#C)" d="m179.817 220.324 1.64 7.706s2.045-10.477 6.984-16.2-10.517-4.226-10.517-4.226l1.893 12.72z"/></svg>